%TF.GenerationSoftware,KiCad,Pcbnew,9.0.1*%
%TF.CreationDate,2025-06-09T14:27:30-04:00*%
%TF.ProjectId,Ceinture_respiration_Shield,4365696e-7475-4726-955f-726573706972,1.1*%
%TF.SameCoordinates,Original*%
%TF.FileFunction,Legend,Top*%
%TF.FilePolarity,Positive*%
%FSLAX46Y46*%
G04 Gerber Fmt 4.6, Leading zero omitted, Abs format (unit mm)*
G04 Created by KiCad (PCBNEW 9.0.1) date 2025-06-09 14:27:30*
%MOMM*%
%LPD*%
G01*
G04 APERTURE LIST*
%ADD10C,0.150000*%
%ADD11C,0.127000*%
%ADD12C,0.200000*%
%ADD13C,0.120000*%
%ADD14R,1.508000X1.508000*%
%ADD15C,1.508000*%
%ADD16C,2.400000*%
%ADD17R,1.950000X1.950000*%
%ADD18C,1.950000*%
%ADD19R,1.700000X1.700000*%
%ADD20O,1.700000X1.700000*%
G04 APERTURE END LIST*
D10*
G36*
X3522455Y5911320D02*
G01*
X3548949Y5884826D01*
X3583207Y5816310D01*
X3583207Y5708863D01*
X3548948Y5640347D01*
X3518541Y5609939D01*
X3450026Y5575681D01*
X3161779Y5575681D01*
X3161779Y5949491D01*
X3407942Y5949491D01*
X3522455Y5911320D01*
G37*
G36*
X3470923Y6391423D02*
G01*
X3501330Y6361016D01*
X3535588Y6292500D01*
X3535588Y6232672D01*
X3501330Y6164156D01*
X3470923Y6133749D01*
X3402407Y6099491D01*
X3161779Y6099491D01*
X3161779Y6425681D01*
X3402407Y6425681D01*
X3470923Y6391423D01*
G37*
G36*
X7271449Y5314570D02*
G01*
X2900668Y5314570D01*
X2900668Y6500681D01*
X3011779Y6500681D01*
X3011779Y5500681D01*
X3013220Y5486049D01*
X3024419Y5459013D01*
X3045111Y5438321D01*
X3072147Y5427122D01*
X3086779Y5425681D01*
X3467731Y5425681D01*
X3482363Y5427122D01*
X3484852Y5428154D01*
X3487540Y5428344D01*
X3501272Y5433599D01*
X3596510Y5481218D01*
X3602809Y5485183D01*
X3604637Y5485940D01*
X3606693Y5487628D01*
X3608953Y5489050D01*
X3610253Y5490550D01*
X3616003Y5495268D01*
X3663621Y5542887D01*
X3668339Y5548637D01*
X3669838Y5549936D01*
X3671259Y5552195D01*
X3672949Y5554253D01*
X3673706Y5556083D01*
X3677670Y5562379D01*
X3725289Y5657617D01*
X3730544Y5671348D01*
X3730735Y5674038D01*
X3731766Y5676526D01*
X3733207Y5691158D01*
X3733207Y5834015D01*
X3731766Y5848647D01*
X3730735Y5851136D01*
X3730544Y5853825D01*
X3725289Y5867556D01*
X3677670Y5962794D01*
X3673705Y5969094D01*
X3672948Y5970921D01*
X3671259Y5972978D01*
X3669838Y5975237D01*
X3668339Y5976537D01*
X3663621Y5982286D01*
X3616002Y6029905D01*
X3604637Y6039232D01*
X3602146Y6040264D01*
X3600111Y6042029D01*
X3594043Y6044738D01*
X3616002Y6066696D01*
X3620720Y6072446D01*
X3622219Y6073745D01*
X3623640Y6076005D01*
X3625329Y6078061D01*
X3626086Y6079889D01*
X3630051Y6086188D01*
X3677670Y6181426D01*
X3682925Y6195157D01*
X3683116Y6197847D01*
X3684147Y6200335D01*
X3685588Y6214967D01*
X3685588Y6310205D01*
X3684147Y6324837D01*
X3683116Y6327326D01*
X3682925Y6330015D01*
X3677670Y6343746D01*
X3630051Y6438984D01*
X3626086Y6445284D01*
X3625329Y6447111D01*
X3623640Y6449168D01*
X3622219Y6451427D01*
X3620720Y6452727D01*
X3616002Y6458476D01*
X3573797Y6500681D01*
X4011779Y6500681D01*
X4011779Y5500681D01*
X4013220Y5486049D01*
X4024419Y5459013D01*
X4045111Y5438321D01*
X4072147Y5427122D01*
X4086779Y5425681D01*
X4562969Y5425681D01*
X4577601Y5427122D01*
X4604637Y5438321D01*
X4625329Y5459013D01*
X4636528Y5486049D01*
X4636528Y5515313D01*
X4625329Y5542349D01*
X4604637Y5563041D01*
X4577601Y5574240D01*
X4562969Y5575681D01*
X4161779Y5575681D01*
X4161779Y5949491D01*
X4420112Y5949491D01*
X4434744Y5950932D01*
X4461780Y5962131D01*
X4482472Y5982823D01*
X4493671Y6009859D01*
X4493671Y6039123D01*
X4482472Y6066159D01*
X4461780Y6086851D01*
X4434744Y6098050D01*
X4420112Y6099491D01*
X4161779Y6099491D01*
X4161779Y6425681D01*
X4562969Y6425681D01*
X4577601Y6427122D01*
X4604637Y6438321D01*
X4625329Y6459013D01*
X4636528Y6486049D01*
X4636528Y6500681D01*
X4916541Y6500681D01*
X4916541Y5500681D01*
X4917982Y5486049D01*
X4929181Y5459013D01*
X4949873Y5438321D01*
X4976909Y5427122D01*
X4991541Y5425681D01*
X5467731Y5425681D01*
X5482363Y5427122D01*
X5509399Y5438321D01*
X5530091Y5459013D01*
X5541290Y5486049D01*
X5541290Y5515313D01*
X5530091Y5542349D01*
X5509399Y5563041D01*
X5482363Y5574240D01*
X5467731Y5575681D01*
X5066541Y5575681D01*
X5066541Y6500681D01*
X5065100Y6515313D01*
X5584649Y6515313D01*
X5584649Y6486049D01*
X5595848Y6459013D01*
X5616540Y6438321D01*
X5643576Y6427122D01*
X5658208Y6425681D01*
X5868922Y6425681D01*
X5868922Y5500681D01*
X5870363Y5486049D01*
X5881562Y5459013D01*
X5902254Y5438321D01*
X5929290Y5427122D01*
X5958554Y5427122D01*
X5985590Y5438321D01*
X6006282Y5459013D01*
X6017481Y5486049D01*
X6018922Y5500681D01*
X6018922Y6224348D01*
X6440940Y6224348D01*
X6443014Y6195158D01*
X6456101Y6168983D01*
X6478209Y6149810D01*
X6505970Y6140556D01*
X6535160Y6142630D01*
X6548892Y6147885D01*
X6644130Y6195504D01*
X6650429Y6199469D01*
X6652257Y6200226D01*
X6654313Y6201915D01*
X6656573Y6203336D01*
X6657872Y6204835D01*
X6663622Y6209553D01*
X6726065Y6271996D01*
X6726065Y5575681D01*
X6515351Y5575681D01*
X6500719Y5574240D01*
X6473683Y5563041D01*
X6452991Y5542349D01*
X6441792Y5515313D01*
X6441792Y5486049D01*
X6452991Y5459013D01*
X6473683Y5438321D01*
X6500719Y5427122D01*
X6515351Y5425681D01*
X7086779Y5425681D01*
X7101411Y5427122D01*
X7128447Y5438321D01*
X7149139Y5459013D01*
X7160338Y5486049D01*
X7160338Y5515313D01*
X7149139Y5542349D01*
X7128447Y5563041D01*
X7101411Y5574240D01*
X7086779Y5575681D01*
X6876065Y5575681D01*
X6876065Y6500681D01*
X6876059Y6500734D01*
X6876065Y6500760D01*
X6876049Y6500837D01*
X6874624Y6515313D01*
X6871782Y6522174D01*
X6870326Y6529455D01*
X6866236Y6535562D01*
X6863425Y6542349D01*
X6858176Y6547598D01*
X6854043Y6553770D01*
X6847926Y6557848D01*
X6842733Y6563041D01*
X6835873Y6565883D01*
X6829694Y6570002D01*
X6822485Y6571428D01*
X6815697Y6574240D01*
X6808270Y6574240D01*
X6800986Y6575681D01*
X6793781Y6574240D01*
X6786433Y6574240D01*
X6779572Y6571399D01*
X6772292Y6569942D01*
X6766186Y6565854D01*
X6759397Y6563041D01*
X6754146Y6557791D01*
X6747977Y6553659D01*
X6738756Y6542401D01*
X6738705Y6542349D01*
X6738695Y6542327D01*
X6738661Y6542284D01*
X6647541Y6405604D01*
X6566162Y6324225D01*
X6481810Y6282049D01*
X6469367Y6274217D01*
X6450194Y6252109D01*
X6440940Y6224348D01*
X6018922Y6224348D01*
X6018922Y6425681D01*
X6229636Y6425681D01*
X6244268Y6427122D01*
X6271304Y6438321D01*
X6291996Y6459013D01*
X6303195Y6486049D01*
X6303195Y6515313D01*
X6291996Y6542349D01*
X6271304Y6563041D01*
X6244268Y6574240D01*
X6229636Y6575681D01*
X5658208Y6575681D01*
X5643576Y6574240D01*
X5616540Y6563041D01*
X5595848Y6542349D01*
X5584649Y6515313D01*
X5065100Y6515313D01*
X5053901Y6542349D01*
X5033209Y6563041D01*
X5006173Y6574240D01*
X4976909Y6574240D01*
X4949873Y6563041D01*
X4929181Y6542349D01*
X4917982Y6515313D01*
X4916541Y6500681D01*
X4636528Y6500681D01*
X4636528Y6515313D01*
X4625329Y6542349D01*
X4604637Y6563041D01*
X4577601Y6574240D01*
X4562969Y6575681D01*
X4086779Y6575681D01*
X4072147Y6574240D01*
X4045111Y6563041D01*
X4024419Y6542349D01*
X4013220Y6515313D01*
X4011779Y6500681D01*
X3573797Y6500681D01*
X3568383Y6506095D01*
X3562633Y6510814D01*
X3561334Y6512312D01*
X3559074Y6513734D01*
X3557018Y6515422D01*
X3555190Y6516180D01*
X3548891Y6520144D01*
X3453653Y6567763D01*
X3439921Y6573018D01*
X3437233Y6573209D01*
X3434744Y6574240D01*
X3420112Y6575681D01*
X3086779Y6575681D01*
X3072147Y6574240D01*
X3045111Y6563041D01*
X3024419Y6542349D01*
X3013220Y6515313D01*
X3011779Y6500681D01*
X2900668Y6500681D01*
X2900668Y6686792D01*
X7271449Y6686792D01*
X7271449Y5314570D01*
G37*
G36*
X39522455Y5661320D02*
G01*
X39548949Y5634826D01*
X39583207Y5566310D01*
X39583207Y5458863D01*
X39548948Y5390347D01*
X39518541Y5359939D01*
X39450026Y5325681D01*
X39161779Y5325681D01*
X39161779Y5699491D01*
X39407942Y5699491D01*
X39522455Y5661320D01*
G37*
G36*
X39470923Y6141423D02*
G01*
X39501330Y6111016D01*
X39535588Y6042500D01*
X39535588Y5982672D01*
X39501330Y5914156D01*
X39470923Y5883749D01*
X39402407Y5849491D01*
X39161779Y5849491D01*
X39161779Y6175681D01*
X39402407Y6175681D01*
X39470923Y6141423D01*
G37*
G36*
X43272890Y5064570D02*
G01*
X38900668Y5064570D01*
X38900668Y6250681D01*
X39011779Y6250681D01*
X39011779Y5250681D01*
X39013220Y5236049D01*
X39024419Y5209013D01*
X39045111Y5188321D01*
X39072147Y5177122D01*
X39086779Y5175681D01*
X39467731Y5175681D01*
X39482363Y5177122D01*
X39484852Y5178154D01*
X39487540Y5178344D01*
X39501272Y5183599D01*
X39596510Y5231218D01*
X39602809Y5235183D01*
X39604637Y5235940D01*
X39606693Y5237628D01*
X39608953Y5239050D01*
X39610253Y5240550D01*
X39616003Y5245268D01*
X39663621Y5292887D01*
X39668339Y5298637D01*
X39669838Y5299936D01*
X39671259Y5302195D01*
X39672949Y5304253D01*
X39673706Y5306083D01*
X39677670Y5312379D01*
X39725289Y5407617D01*
X39730544Y5421348D01*
X39730735Y5424038D01*
X39731766Y5426526D01*
X39733207Y5441158D01*
X39733207Y5584015D01*
X39731766Y5598647D01*
X39730735Y5601136D01*
X39730544Y5603825D01*
X39725289Y5617556D01*
X39677670Y5712794D01*
X39673705Y5719094D01*
X39672948Y5720921D01*
X39671259Y5722978D01*
X39669838Y5725237D01*
X39668339Y5726537D01*
X39663621Y5732286D01*
X39616002Y5779905D01*
X39604637Y5789232D01*
X39602146Y5790264D01*
X39600111Y5792029D01*
X39594043Y5794738D01*
X39616002Y5816696D01*
X39620720Y5822446D01*
X39622219Y5823745D01*
X39623640Y5826005D01*
X39625329Y5828061D01*
X39626086Y5829889D01*
X39630051Y5836188D01*
X39677670Y5931426D01*
X39682925Y5945157D01*
X39683116Y5947847D01*
X39684147Y5950335D01*
X39685588Y5964967D01*
X39685588Y6060205D01*
X39684147Y6074837D01*
X39683116Y6077326D01*
X39682925Y6080015D01*
X39677670Y6093746D01*
X39630051Y6188984D01*
X39626086Y6195284D01*
X39625329Y6197111D01*
X39623640Y6199168D01*
X39622219Y6201427D01*
X39620720Y6202727D01*
X39616002Y6208476D01*
X39573797Y6250681D01*
X40011779Y6250681D01*
X40011779Y5250681D01*
X40013220Y5236049D01*
X40024419Y5209013D01*
X40045111Y5188321D01*
X40072147Y5177122D01*
X40086779Y5175681D01*
X40562969Y5175681D01*
X40577601Y5177122D01*
X40604637Y5188321D01*
X40625329Y5209013D01*
X40636528Y5236049D01*
X40636528Y5265313D01*
X40625329Y5292349D01*
X40604637Y5313041D01*
X40577601Y5324240D01*
X40562969Y5325681D01*
X40161779Y5325681D01*
X40161779Y5699491D01*
X40420112Y5699491D01*
X40434744Y5700932D01*
X40461780Y5712131D01*
X40482472Y5732823D01*
X40493671Y5759859D01*
X40493671Y5789123D01*
X40482472Y5816159D01*
X40461780Y5836851D01*
X40434744Y5848050D01*
X40420112Y5849491D01*
X40161779Y5849491D01*
X40161779Y6175681D01*
X40562969Y6175681D01*
X40577601Y6177122D01*
X40604637Y6188321D01*
X40625329Y6209013D01*
X40636528Y6236049D01*
X40636528Y6250681D01*
X40916541Y6250681D01*
X40916541Y5250681D01*
X40917982Y5236049D01*
X40929181Y5209013D01*
X40949873Y5188321D01*
X40976909Y5177122D01*
X40991541Y5175681D01*
X41467731Y5175681D01*
X41482363Y5177122D01*
X41509399Y5188321D01*
X41530091Y5209013D01*
X41541290Y5236049D01*
X41541290Y5265313D01*
X41530091Y5292349D01*
X41509399Y5313041D01*
X41482363Y5324240D01*
X41467731Y5325681D01*
X41066541Y5325681D01*
X41066541Y6250681D01*
X41065100Y6265313D01*
X41584649Y6265313D01*
X41584649Y6236049D01*
X41595848Y6209013D01*
X41616540Y6188321D01*
X41643576Y6177122D01*
X41658208Y6175681D01*
X41868922Y6175681D01*
X41868922Y5250681D01*
X41870363Y5236049D01*
X41881562Y5209013D01*
X41902254Y5188321D01*
X41929290Y5177122D01*
X41958554Y5177122D01*
X41985590Y5188321D01*
X42006282Y5209013D01*
X42017481Y5236049D01*
X42018922Y5250681D01*
X42018922Y5265313D01*
X42394173Y5265313D01*
X42394173Y5236049D01*
X42405372Y5209013D01*
X42426064Y5188321D01*
X42453100Y5177122D01*
X42467732Y5175681D01*
X43086779Y5175681D01*
X43101411Y5177122D01*
X43128447Y5188321D01*
X43149139Y5209013D01*
X43160338Y5236049D01*
X43160338Y5265313D01*
X43149139Y5292349D01*
X43128447Y5313041D01*
X43101411Y5324240D01*
X43086779Y5325681D01*
X42648798Y5325681D01*
X43092193Y5769077D01*
X43101521Y5780442D01*
X43102552Y5782933D01*
X43104317Y5784967D01*
X43110311Y5798393D01*
X43157930Y5941249D01*
X43159579Y5948505D01*
X43160338Y5950335D01*
X43160599Y5952989D01*
X43161190Y5955586D01*
X43161049Y5957561D01*
X43161779Y5964967D01*
X43161779Y6060205D01*
X43160338Y6074837D01*
X43159307Y6077326D01*
X43159116Y6080015D01*
X43153861Y6093746D01*
X43106242Y6188984D01*
X43102277Y6195284D01*
X43101520Y6197111D01*
X43099831Y6199168D01*
X43098410Y6201427D01*
X43096911Y6202727D01*
X43092193Y6208476D01*
X43044574Y6256095D01*
X43038824Y6260814D01*
X43037525Y6262312D01*
X43035265Y6263734D01*
X43033209Y6265422D01*
X43031381Y6266180D01*
X43025082Y6270144D01*
X42929844Y6317763D01*
X42916112Y6323018D01*
X42913424Y6323209D01*
X42910935Y6324240D01*
X42896303Y6325681D01*
X42658208Y6325681D01*
X42643576Y6324240D01*
X42641087Y6323210D01*
X42638398Y6323018D01*
X42624667Y6317763D01*
X42529429Y6270144D01*
X42523129Y6266180D01*
X42521302Y6265422D01*
X42519245Y6263734D01*
X42516986Y6262312D01*
X42515686Y6260814D01*
X42509937Y6256095D01*
X42462318Y6208476D01*
X42452991Y6197111D01*
X42441792Y6170074D01*
X42441792Y6140812D01*
X42452991Y6113775D01*
X42473683Y6093083D01*
X42500720Y6081884D01*
X42529982Y6081884D01*
X42557019Y6093083D01*
X42568384Y6102410D01*
X42607397Y6141423D01*
X42675913Y6175681D01*
X42878598Y6175681D01*
X42947114Y6141423D01*
X42977521Y6111016D01*
X43011779Y6042500D01*
X43011779Y5977137D01*
X42973607Y5862624D01*
X42414699Y5303714D01*
X42405372Y5292349D01*
X42394173Y5265313D01*
X42018922Y5265313D01*
X42018922Y6175681D01*
X42229636Y6175681D01*
X42244268Y6177122D01*
X42271304Y6188321D01*
X42291996Y6209013D01*
X42303195Y6236049D01*
X42303195Y6265313D01*
X42291996Y6292349D01*
X42271304Y6313041D01*
X42244268Y6324240D01*
X42229636Y6325681D01*
X41658208Y6325681D01*
X41643576Y6324240D01*
X41616540Y6313041D01*
X41595848Y6292349D01*
X41584649Y6265313D01*
X41065100Y6265313D01*
X41053901Y6292349D01*
X41033209Y6313041D01*
X41006173Y6324240D01*
X40976909Y6324240D01*
X40949873Y6313041D01*
X40929181Y6292349D01*
X40917982Y6265313D01*
X40916541Y6250681D01*
X40636528Y6250681D01*
X40636528Y6265313D01*
X40625329Y6292349D01*
X40604637Y6313041D01*
X40577601Y6324240D01*
X40562969Y6325681D01*
X40086779Y6325681D01*
X40072147Y6324240D01*
X40045111Y6313041D01*
X40024419Y6292349D01*
X40013220Y6265313D01*
X40011779Y6250681D01*
X39573797Y6250681D01*
X39568383Y6256095D01*
X39562633Y6260814D01*
X39561334Y6262312D01*
X39559074Y6263734D01*
X39557018Y6265422D01*
X39555190Y6266180D01*
X39548891Y6270144D01*
X39453653Y6317763D01*
X39439921Y6323018D01*
X39437233Y6323209D01*
X39434744Y6324240D01*
X39420112Y6325681D01*
X39086779Y6325681D01*
X39072147Y6324240D01*
X39045111Y6313041D01*
X39024419Y6292349D01*
X39013220Y6265313D01*
X39011779Y6250681D01*
X38900668Y6250681D01*
X38900668Y6436792D01*
X43272890Y6436792D01*
X43272890Y5064570D01*
G37*
D11*
%TO.C,J7*%
X23500000Y7370500D02*
X23500000Y25870500D01*
X32500000Y7370500D02*
X23500000Y7370500D01*
X43500000Y25870500D02*
X23500000Y25870500D01*
X43500000Y25870500D02*
X43500000Y7370500D01*
X43500000Y7370500D02*
X34500000Y7370500D01*
D12*
X22836000Y13276500D02*
G75*
G02*
X22636000Y13276500I-100000J0D01*
G01*
X22636000Y13276500D02*
G75*
G02*
X22836000Y13276500I100000J0D01*
G01*
D11*
%TO.C,J6*%
X2594500Y7370500D02*
X2594500Y25870500D01*
X11594500Y7370500D02*
X2594500Y7370500D01*
X22594500Y25870500D02*
X2594500Y25870500D01*
X22594500Y25870500D02*
X22594500Y7370500D01*
X22594500Y7370500D02*
X13594500Y7370500D01*
D12*
X1930500Y13276500D02*
G75*
G02*
X1730500Y13276500I-100000J0D01*
G01*
X1730500Y13276500D02*
G75*
G02*
X1930500Y13276500I100000J0D01*
G01*
D13*
%TO.C,J1*%
X10170000Y3790500D02*
X10170000Y5120500D01*
X11500000Y3790500D02*
X10170000Y3790500D01*
X12770000Y6450500D02*
X35690000Y6450500D01*
X12770000Y3790500D02*
X12770000Y6450500D01*
X12770000Y3790500D02*
X35690000Y3790500D01*
X35690000Y3790500D02*
X35690000Y6450500D01*
%TD*%
%LPC*%
D14*
%TO.C,PS1*%
X41507500Y2372500D03*
D15*
X38967500Y2372500D03*
X36427500Y2372500D03*
X31347500Y2372500D03*
X28807500Y2372500D03*
X26267500Y2372500D03*
X23727500Y2372500D03*
%TD*%
D16*
%TO.C,J7*%
X41000000Y18370500D03*
X26000000Y18370500D03*
D17*
X28500000Y13370500D03*
D18*
X33500000Y13370500D03*
X38500000Y13370500D03*
X31000000Y10870500D03*
X36000000Y10870500D03*
X26000000Y10870500D03*
X41000000Y10870500D03*
X36000000Y23370500D03*
X31000000Y23370500D03*
X33500000Y8370500D03*
%TD*%
D16*
%TO.C,J6*%
X20094500Y18370500D03*
X5094500Y18370500D03*
D17*
X7594500Y13370500D03*
D18*
X12594500Y13370500D03*
X17594500Y13370500D03*
X10094500Y10870500D03*
X15094500Y10870500D03*
X5094500Y10870500D03*
X20094500Y10870500D03*
X15094500Y23370500D03*
X10094500Y23370500D03*
X12594500Y8370500D03*
%TD*%
D19*
%TO.C,J1*%
X11500000Y5120500D03*
D20*
X14040000Y5120500D03*
X16580000Y5120500D03*
X19120000Y5120500D03*
X21660000Y5120500D03*
X24200000Y5120500D03*
X26740000Y5120500D03*
X29280000Y5120500D03*
X31820000Y5120500D03*
X34360000Y5120500D03*
%TD*%
%LPD*%
M02*
