%TF.GenerationSoftware,KiCad,Pcbnew,9.0.1*%
%TF.CreationDate,2025-06-09T14:27:30-04:00*%
%TF.ProjectId,Ceinture_respiration_Shield,4365696e-7475-4726-955f-726573706972,1.1*%
%TF.SameCoordinates,Original*%
%TF.FileFunction,Copper,L1,Top*%
%TF.FilePolarity,Positive*%
%FSLAX46Y46*%
G04 Gerber Fmt 4.6, Leading zero omitted, Abs format (unit mm)*
G04 Created by KiCad (PCBNEW 9.0.1) date 2025-06-09 14:27:30*
%MOMM*%
%LPD*%
G01*
G04 APERTURE LIST*
%TA.AperFunction,ComponentPad*%
%ADD10R,1.508000X1.508000*%
%TD*%
%TA.AperFunction,ComponentPad*%
%ADD11C,1.508000*%
%TD*%
%TA.AperFunction,ComponentPad*%
%ADD12R,1.950000X1.950000*%
%TD*%
%TA.AperFunction,ComponentPad*%
%ADD13C,1.950000*%
%TD*%
%TA.AperFunction,ComponentPad*%
%ADD14R,1.700000X1.700000*%
%TD*%
%TA.AperFunction,ComponentPad*%
%ADD15O,1.700000X1.700000*%
%TD*%
%TA.AperFunction,ViaPad*%
%ADD16C,0.800000*%
%TD*%
%TA.AperFunction,Conductor*%
%ADD17C,0.250000*%
%TD*%
G04 APERTURE END LIST*
D10*
%TO.P,PS1,1,-VIN*%
%TO.N,GND_EXP*%
X41507500Y2372500D03*
D11*
%TO.P,PS1,2,+VIN*%
%TO.N,/SHIELD_RESPIRATION/VBAT_EXP*%
X38967500Y2372500D03*
%TO.P,PS1,3,CTRL*%
%TO.N,GND_EXP*%
X36427500Y2372500D03*
%TO.P,PS1,5,NC*%
%TO.N,unconnected-(PS1-NC-Pad5)*%
X31347500Y2372500D03*
%TO.P,PS1,6,+VOUT*%
%TO.N,+5VA*%
X28807500Y2372500D03*
%TO.P,PS1,7,COM*%
%TO.N,GND_EXP*%
X26267500Y2372500D03*
%TO.P,PS1,8,-VOUT*%
%TO.N,-5VA*%
X23727500Y2372500D03*
%TD*%
D12*
%TO.P,J7,1*%
%TO.N,+5VA*%
X28500000Y13370500D03*
D13*
%TO.P,J7,2*%
%TO.N,unconnected-(J7-Pad2)*%
X33500000Y13370500D03*
%TO.P,J7,3*%
%TO.N,/SHIELD_RESPIRATION/Belt_2*%
X38500000Y13370500D03*
%TO.P,J7,4*%
%TO.N,-5VA*%
X31000000Y10870500D03*
%TO.P,J7,5*%
%TO.N,unconnected-(J7-Pad5)*%
X36000000Y10870500D03*
%TO.P,J7,6*%
%TO.N,unconnected-(J7-Pad6)*%
X26000000Y10870500D03*
%TO.P,J7,7*%
%TO.N,GND_EXP*%
X41000000Y10870500D03*
X36000000Y23370500D03*
X31000000Y23370500D03*
%TO.P,J7,8*%
%TO.N,unconnected-(J7-Pad8)*%
X33500000Y8370500D03*
%TD*%
D12*
%TO.P,J6,1*%
%TO.N,+5VA*%
X7594500Y13370500D03*
D13*
%TO.P,J6,2*%
%TO.N,unconnected-(J6-Pad2)*%
X12594500Y13370500D03*
%TO.P,J6,3*%
%TO.N,/SHIELD_RESPIRATION/Belt_1*%
X17594500Y13370500D03*
%TO.P,J6,4*%
%TO.N,-5VA*%
X10094500Y10870500D03*
%TO.P,J6,5*%
%TO.N,unconnected-(J6-Pad5)*%
X15094500Y10870500D03*
%TO.P,J6,6*%
%TO.N,unconnected-(J6-Pad6)*%
X5094500Y10870500D03*
%TO.P,J6,7*%
%TO.N,GND_EXP*%
X20094500Y10870500D03*
X15094500Y23370500D03*
X10094500Y23370500D03*
%TO.P,J6,8*%
%TO.N,unconnected-(J6-Pad8)*%
X12594500Y8370500D03*
%TD*%
D14*
%TO.P,J1,1,Pin_1*%
%TO.N,GND_EXP*%
X11500000Y5120500D03*
D15*
%TO.P,J1,2,Pin_2*%
%TO.N,/SHIELD_RESPIRATION/VBAT_EXP*%
X14040000Y5120500D03*
%TO.P,J1,3,Pin_3*%
%TO.N,/SHIELD_RESPIRATION/Belt_1*%
X16580000Y5120500D03*
%TO.P,J1,4,Pin_4*%
%TO.N,/SHIELD_RESPIRATION/Belt_2*%
X19120000Y5120500D03*
%TO.P,J1,5,Pin_5*%
%TO.N,unconnected-(J1-Pin_5-Pad5)*%
X21660000Y5120500D03*
%TO.P,J1,6,Pin_6*%
%TO.N,unconnected-(J1-Pin_6-Pad6)*%
X24200000Y5120500D03*
%TO.P,J1,7,Pin_7*%
%TO.N,unconnected-(J1-Pin_7-Pad7)*%
X26740000Y5120500D03*
%TO.P,J1,8,Pin_8*%
%TO.N,unconnected-(J1-Pin_8-Pad8)*%
X29280000Y5120500D03*
%TO.P,J1,9,Pin_9*%
%TO.N,unconnected-(J1-Pin_9-Pad9)*%
X31820000Y5120500D03*
%TO.P,J1,10,Pin_10*%
%TO.N,unconnected-(J1-Pin_10-Pad10)*%
X34360000Y5120500D03*
%TD*%
D16*
%TO.N,GND_EXP*%
X33500000Y3370500D03*
X34000000Y1870500D03*
%TO.N,-5VA*%
X23000000Y10370500D03*
%TD*%
D17*
%TO.N,/SHIELD_RESPIRATION/Belt_1*%
X16580000Y5120500D02*
X16580000Y8450500D01*
X17594500Y9465000D02*
X17594500Y13370500D01*
X16580000Y8450500D02*
X17594500Y9465000D01*
%TO.N,/SHIELD_RESPIRATION/Belt_2*%
X22500000Y12870500D02*
X25500000Y15870500D01*
X19120000Y5120500D02*
X19120000Y7515805D01*
X36000000Y15870500D02*
X38500000Y13370500D01*
X25500000Y15870500D02*
X36000000Y15870500D01*
X19120000Y7515805D02*
X22500000Y10895805D01*
X22500000Y10895805D02*
X22500000Y12870500D01*
%TO.N,-5VA*%
X23727500Y2372500D02*
X23000000Y3100000D01*
X23000000Y3100000D02*
X23000000Y10370500D01*
%TO.N,+5VA*%
X28807500Y2372500D02*
X28053500Y3126500D01*
X28053500Y3126500D02*
X28053500Y12924000D01*
X28053500Y12924000D02*
X28500000Y13370500D01*
%TD*%
%TA.AperFunction,Conductor*%
%TO.N,GND_EXP*%
G36*
X25541444Y4466501D02*
G01*
X25580486Y4421444D01*
X25584951Y4412680D01*
X25709890Y4240714D01*
X25860213Y4090391D01*
X26032179Y3965452D01*
X26032181Y3965451D01*
X26032184Y3965449D01*
X26221588Y3868943D01*
X26223164Y3868431D01*
X26223686Y3868074D01*
X26226081Y3867082D01*
X26225872Y3866579D01*
X26280840Y3828995D01*
X26308039Y3764636D01*
X26296125Y3695790D01*
X26248881Y3644313D01*
X26184847Y3626500D01*
X26168803Y3626500D01*
X25973853Y3595624D01*
X25786126Y3534627D01*
X25610262Y3445018D01*
X25610260Y3445017D01*
X25574510Y3419044D01*
X25574510Y3419043D01*
X26138091Y2855463D01*
X26074507Y2838425D01*
X25960493Y2772599D01*
X25867401Y2679507D01*
X25801575Y2565493D01*
X25784537Y2501910D01*
X25220957Y3065490D01*
X25220956Y3065490D01*
X25194983Y3029740D01*
X25194979Y3029733D01*
X25108263Y2859546D01*
X25060288Y2808751D01*
X24992467Y2791956D01*
X24926333Y2814494D01*
X24887298Y2859543D01*
X24800444Y3030001D01*
X24800442Y3030004D01*
X24800441Y3030006D01*
X24684384Y3189747D01*
X24544746Y3329385D01*
X24385004Y3445442D01*
X24385003Y3445443D01*
X24385001Y3445444D01*
X24209061Y3535091D01*
X24209055Y3535093D01*
X24208227Y3535515D01*
X24157431Y3583490D01*
X24140636Y3651311D01*
X24163173Y3717446D01*
X24217889Y3760897D01*
X24264522Y3770000D01*
X24306286Y3770000D01*
X24306287Y3770000D01*
X24516243Y3803254D01*
X24718412Y3868943D01*
X24907816Y3965449D01*
X24970892Y4011276D01*
X25079786Y4090391D01*
X25079788Y4090394D01*
X25079792Y4090396D01*
X25230104Y4240708D01*
X25230106Y4240712D01*
X25230109Y4240714D01*
X25355048Y4412680D01*
X25355047Y4412680D01*
X25355051Y4412684D01*
X25359514Y4421446D01*
X25407488Y4472241D01*
X25475308Y4489037D01*
X25541444Y4466501D01*
G37*
%TD.AperFunction*%
%TA.AperFunction,Conductor*%
G36*
X27388492Y3844369D02*
G01*
X27424147Y3784281D01*
X27428000Y3753610D01*
X27428000Y3190664D01*
X27408315Y3123625D01*
X27355511Y3077870D01*
X27320175Y3071625D01*
X26750462Y2501911D01*
X26733425Y2565493D01*
X26667599Y2679507D01*
X26574507Y2772599D01*
X26460493Y2838425D01*
X26396909Y2855463D01*
X26960489Y3419043D01*
X26924739Y3445017D01*
X26747128Y3535515D01*
X26696332Y3583490D01*
X26679537Y3651311D01*
X26702075Y3717446D01*
X26756790Y3760897D01*
X26803423Y3770000D01*
X26846286Y3770000D01*
X26846287Y3770000D01*
X27056243Y3803254D01*
X27258412Y3868943D01*
X27258413Y3868944D01*
X27263046Y3870449D01*
X27263542Y3868922D01*
X27326011Y3875641D01*
X27388492Y3844369D01*
G37*
%TD.AperFunction*%
%TA.AperFunction,Conductor*%
G36*
X43005394Y26369528D02*
G01*
X43012947Y26368868D01*
X43151564Y26356740D01*
X43164907Y26354835D01*
X43194247Y26348999D01*
X43202109Y26347166D01*
X43326922Y26313723D01*
X43342275Y26308511D01*
X43359224Y26301491D01*
X43364134Y26299331D01*
X43489918Y26240677D01*
X43508633Y26229871D01*
X43633582Y26142381D01*
X43650140Y26128487D01*
X43757986Y26020641D01*
X43771880Y26004083D01*
X43859370Y25879134D01*
X43870177Y25860416D01*
X43928809Y25734681D01*
X43930989Y25729726D01*
X43938009Y25712777D01*
X43943222Y25697420D01*
X43976659Y25572631D01*
X43978501Y25564731D01*
X43984330Y25535429D01*
X43986241Y25522044D01*
X43999028Y25375895D01*
X43999500Y25365087D01*
X43999500Y1875914D01*
X43999028Y1865106D01*
X43986241Y1718958D01*
X43984330Y1705573D01*
X43978501Y1676271D01*
X43976659Y1668371D01*
X43943222Y1543582D01*
X43938009Y1528225D01*
X43930989Y1511276D01*
X43928809Y1506321D01*
X43870177Y1380585D01*
X43859370Y1361867D01*
X43771880Y1236918D01*
X43757986Y1220360D01*
X43650140Y1112514D01*
X43633582Y1098620D01*
X43508633Y1011130D01*
X43489915Y1000323D01*
X43364179Y941691D01*
X43359224Y939511D01*
X43342275Y932491D01*
X43326918Y927278D01*
X43202129Y893841D01*
X43194229Y891999D01*
X43164927Y886170D01*
X43151542Y884259D01*
X43005395Y871472D01*
X42994587Y871000D01*
X42320630Y871000D01*
X42253591Y890685D01*
X42207836Y943489D01*
X42197892Y1012647D01*
X42226917Y1076203D01*
X42285695Y1113977D01*
X42307374Y1118289D01*
X42368872Y1124902D01*
X42368879Y1124904D01*
X42503586Y1175146D01*
X42503593Y1175150D01*
X42618687Y1261310D01*
X42618690Y1261313D01*
X42704850Y1376407D01*
X42704854Y1376414D01*
X42755096Y1511121D01*
X42755098Y1511128D01*
X42761499Y1570656D01*
X42761500Y1570673D01*
X42761500Y2122500D01*
X41940512Y2122500D01*
X41973425Y2179507D01*
X42007500Y2306674D01*
X42007500Y2438326D01*
X41973425Y2565493D01*
X41940512Y2622500D01*
X42761500Y2622500D01*
X42761500Y3174328D01*
X42761499Y3174345D01*
X42755098Y3233873D01*
X42755096Y3233880D01*
X42704854Y3368587D01*
X42704850Y3368594D01*
X42618690Y3483688D01*
X42618687Y3483691D01*
X42503593Y3569851D01*
X42503586Y3569855D01*
X42368879Y3620097D01*
X42368872Y3620099D01*
X42309344Y3626500D01*
X41757500Y3626500D01*
X41757500Y2805512D01*
X41700493Y2838425D01*
X41573326Y2872500D01*
X41441674Y2872500D01*
X41314507Y2838425D01*
X41257500Y2805512D01*
X41257500Y3626500D01*
X40705655Y3626500D01*
X40646127Y3620099D01*
X40646120Y3620097D01*
X40511413Y3569855D01*
X40511406Y3569851D01*
X40396312Y3483691D01*
X40396309Y3483688D01*
X40310149Y3368594D01*
X40310145Y3368587D01*
X40259903Y3233880D01*
X40259901Y3233873D01*
X40253500Y3174345D01*
X40253500Y3118388D01*
X40233815Y3051349D01*
X40181011Y3005594D01*
X40111853Y2995650D01*
X40048297Y3024675D01*
X40029182Y3045503D01*
X39924384Y3189747D01*
X39784746Y3329385D01*
X39625004Y3445442D01*
X39625003Y3445443D01*
X39625001Y3445444D01*
X39449061Y3535091D01*
X39447756Y3535515D01*
X39261263Y3596111D01*
X39066236Y3627000D01*
X39066231Y3627000D01*
X38868769Y3627000D01*
X38868764Y3627000D01*
X38673736Y3596111D01*
X38485941Y3535092D01*
X38309995Y3445442D01*
X38150253Y3329385D01*
X38010615Y3189747D01*
X37894558Y3030005D01*
X37894556Y3030001D01*
X37807703Y2859546D01*
X37759730Y2808751D01*
X37691909Y2791956D01*
X37625774Y2814494D01*
X37586735Y2859547D01*
X37500020Y3029732D01*
X37500012Y3029745D01*
X37474042Y3065490D01*
X37474041Y3065491D01*
X36910462Y2501911D01*
X36893425Y2565493D01*
X36827599Y2679507D01*
X36734507Y2772599D01*
X36620493Y2838425D01*
X36556909Y2855463D01*
X37120489Y3419043D01*
X37084739Y3445017D01*
X36908873Y3534627D01*
X36721146Y3595624D01*
X36526197Y3626500D01*
X36328803Y3626500D01*
X36133853Y3595624D01*
X35946126Y3534627D01*
X35770262Y3445018D01*
X35770260Y3445017D01*
X35734510Y3419044D01*
X35734510Y3419043D01*
X36298091Y2855463D01*
X36234507Y2838425D01*
X36120493Y2772599D01*
X36027401Y2679507D01*
X35961575Y2565493D01*
X35944537Y2501910D01*
X35380957Y3065490D01*
X35380956Y3065490D01*
X35354983Y3029740D01*
X35354982Y3029738D01*
X35265373Y2853874D01*
X35204376Y2666147D01*
X35173500Y2471198D01*
X35173500Y2273803D01*
X35204376Y2078854D01*
X35265373Y1891127D01*
X35354983Y1715261D01*
X35380957Y1679512D01*
X35380957Y1679511D01*
X35944537Y2243091D01*
X35961575Y2179507D01*
X36027401Y2065493D01*
X36120493Y1972401D01*
X36234507Y1906575D01*
X36298090Y1889538D01*
X35734509Y1325959D01*
X35734510Y1325958D01*
X35770255Y1299988D01*
X35770268Y1299980D01*
X35946126Y1210374D01*
X36133853Y1149377D01*
X36333620Y1117737D01*
X36333391Y1116297D01*
X36392590Y1093738D01*
X36429107Y1044232D01*
X36443708Y1076203D01*
X36502486Y1113977D01*
X36521423Y1117463D01*
X36521380Y1117737D01*
X36721146Y1149377D01*
X36908873Y1210374D01*
X37084741Y1299984D01*
X37120488Y1325957D01*
X37120488Y1325959D01*
X36556910Y1889538D01*
X36620493Y1906575D01*
X36734507Y1972401D01*
X36827599Y2065493D01*
X36893425Y2179507D01*
X36910462Y2243091D01*
X37474041Y1679512D01*
X37474043Y1679512D01*
X37500016Y1715259D01*
X37586735Y1885454D01*
X37634710Y1936250D01*
X37702531Y1953045D01*
X37768665Y1930508D01*
X37807702Y1885458D01*
X37859924Y1782968D01*
X37894558Y1714995D01*
X38010615Y1555254D01*
X38150253Y1415616D01*
X38273658Y1325959D01*
X38309999Y1299556D01*
X38485939Y1209909D01*
X38592917Y1175150D01*
X38673736Y1148890D01*
X38862450Y1119000D01*
X38862455Y1119000D01*
X38868769Y1118000D01*
X39066231Y1118000D01*
X39072545Y1119000D01*
X39072550Y1119000D01*
X39261263Y1148890D01*
X39296493Y1160337D01*
X39449061Y1209909D01*
X39625001Y1299556D01*
X39730788Y1376414D01*
X39784746Y1415616D01*
X39784748Y1415619D01*
X39784752Y1415621D01*
X39924379Y1555248D01*
X40029183Y1699500D01*
X40084511Y1742164D01*
X40154124Y1748143D01*
X40215920Y1715538D01*
X40250277Y1654700D01*
X40253500Y1626613D01*
X40253500Y1570656D01*
X40259901Y1511128D01*
X40259903Y1511121D01*
X40310145Y1376414D01*
X40310149Y1376407D01*
X40396309Y1261313D01*
X40396312Y1261310D01*
X40511406Y1175150D01*
X40511413Y1175146D01*
X40646120Y1124904D01*
X40646127Y1124902D01*
X40707626Y1118289D01*
X40772177Y1091551D01*
X40812025Y1034158D01*
X40814518Y964333D01*
X40778865Y904244D01*
X40716385Y872970D01*
X40694370Y871000D01*
X36537421Y871000D01*
X36470382Y890685D01*
X36424893Y943181D01*
X36404637Y906700D01*
X36343079Y873650D01*
X36317579Y871000D01*
X28922307Y871000D01*
X28855268Y890685D01*
X28809513Y943489D01*
X28808048Y953678D01*
X28772549Y900137D01*
X28708585Y872023D01*
X28692693Y871000D01*
X26377421Y871000D01*
X26310382Y890685D01*
X26264893Y943181D01*
X26244637Y906700D01*
X26183079Y873650D01*
X26157579Y871000D01*
X23005413Y871000D01*
X22994605Y871472D01*
X22848456Y884259D01*
X22835071Y886170D01*
X22805769Y891999D01*
X22797869Y893841D01*
X22673080Y927278D01*
X22657723Y932491D01*
X22640774Y939511D01*
X22635819Y941691D01*
X22510084Y1000323D01*
X22491366Y1011130D01*
X22366417Y1098620D01*
X22349859Y1112514D01*
X22242013Y1220360D01*
X22228119Y1236918D01*
X22140629Y1361867D01*
X22129822Y1380584D01*
X22099292Y1446055D01*
X22071176Y1506349D01*
X22069009Y1511276D01*
X22061989Y1528225D01*
X22056776Y1543582D01*
X22038829Y1610562D01*
X22023334Y1668391D01*
X22021501Y1676253D01*
X22015665Y1705593D01*
X22013760Y1718936D01*
X22000972Y1865106D01*
X22000500Y1875912D01*
X22000500Y2458033D01*
X22000471Y2458364D01*
X22000000Y2469164D01*
X22000000Y3370500D01*
X21098664Y3370500D01*
X21087864Y3370971D01*
X21087532Y3371000D01*
X21000207Y3371000D01*
X3005413Y3371000D01*
X2994605Y3371472D01*
X2848456Y3384259D01*
X2835071Y3386170D01*
X2805769Y3391999D01*
X2797869Y3393841D01*
X2673080Y3427278D01*
X2657723Y3432491D01*
X2640774Y3439511D01*
X2635819Y3441691D01*
X2510084Y3500323D01*
X2491366Y3511130D01*
X2366417Y3598620D01*
X2349859Y3612514D01*
X2242013Y3720360D01*
X2228119Y3736918D01*
X2140629Y3861867D01*
X2129822Y3880584D01*
X2071169Y4006366D01*
X2069009Y4011276D01*
X2061989Y4028225D01*
X2056776Y4043582D01*
X2044234Y4090391D01*
X2023334Y4168391D01*
X2021501Y4176253D01*
X2015665Y4205593D01*
X2013760Y4218936D01*
X2000972Y4365106D01*
X2000500Y4375912D01*
X2000500Y6018345D01*
X10150000Y6018345D01*
X10150000Y5370500D01*
X11066988Y5370500D01*
X11034075Y5313493D01*
X11000000Y5186326D01*
X11000000Y5054674D01*
X11034075Y4927507D01*
X11066988Y4870500D01*
X10150000Y4870500D01*
X10150000Y4222656D01*
X10156401Y4163128D01*
X10156403Y4163121D01*
X10206645Y4028414D01*
X10206649Y4028407D01*
X10292809Y3913313D01*
X10292812Y3913310D01*
X10407906Y3827150D01*
X10407913Y3827146D01*
X10542620Y3776904D01*
X10542627Y3776902D01*
X10602155Y3770501D01*
X10602172Y3770500D01*
X11250000Y3770500D01*
X11250000Y4687488D01*
X11307007Y4654575D01*
X11434174Y4620500D01*
X11565826Y4620500D01*
X11692993Y4654575D01*
X11750000Y4687488D01*
X11750000Y3770500D01*
X12397828Y3770500D01*
X12397844Y3770501D01*
X12457372Y3776902D01*
X12457379Y3776904D01*
X12592086Y3827146D01*
X12592093Y3827150D01*
X12707187Y3913310D01*
X12707190Y3913313D01*
X12793350Y4028407D01*
X12793354Y4028414D01*
X12842422Y4159971D01*
X12884293Y4215905D01*
X12949757Y4240322D01*
X13018030Y4225470D01*
X13046285Y4204319D01*
X13160213Y4090391D01*
X13332179Y3965452D01*
X13332181Y3965451D01*
X13332184Y3965449D01*
X13521588Y3868943D01*
X13723757Y3803254D01*
X13933713Y3770000D01*
X13933714Y3770000D01*
X14146286Y3770000D01*
X14146287Y3770000D01*
X14356243Y3803254D01*
X14558412Y3868943D01*
X14747816Y3965449D01*
X14810892Y4011276D01*
X14919786Y4090391D01*
X14919788Y4090394D01*
X14919792Y4090396D01*
X15070104Y4240708D01*
X15070106Y4240712D01*
X15070109Y4240714D01*
X15195048Y4412680D01*
X15195047Y4412680D01*
X15195051Y4412684D01*
X15199514Y4421446D01*
X15247488Y4472241D01*
X15315308Y4489037D01*
X15381444Y4466501D01*
X15420486Y4421444D01*
X15424951Y4412680D01*
X15549890Y4240714D01*
X15700213Y4090391D01*
X15872179Y3965452D01*
X15872181Y3965451D01*
X15872184Y3965449D01*
X16061588Y3868943D01*
X16263757Y3803254D01*
X16473713Y3770000D01*
X16473714Y3770000D01*
X16686286Y3770000D01*
X16686287Y3770000D01*
X16896243Y3803254D01*
X17098412Y3868943D01*
X17287816Y3965449D01*
X17350892Y4011276D01*
X17459786Y4090391D01*
X17459788Y4090394D01*
X17459792Y4090396D01*
X17610104Y4240708D01*
X17610106Y4240712D01*
X17610109Y4240714D01*
X17735048Y4412680D01*
X17735047Y4412680D01*
X17735051Y4412684D01*
X17739514Y4421446D01*
X17787488Y4472241D01*
X17855308Y4489037D01*
X17921444Y4466501D01*
X17960486Y4421444D01*
X17964951Y4412680D01*
X18089890Y4240714D01*
X18240213Y4090391D01*
X18412179Y3965452D01*
X18412181Y3965451D01*
X18412184Y3965449D01*
X18601588Y3868943D01*
X18803757Y3803254D01*
X19013713Y3770000D01*
X19013714Y3770000D01*
X19226286Y3770000D01*
X19226287Y3770000D01*
X19436243Y3803254D01*
X19638412Y3868943D01*
X19827816Y3965449D01*
X19890892Y4011276D01*
X19999786Y4090391D01*
X19999788Y4090394D01*
X19999792Y4090396D01*
X20150104Y4240708D01*
X20150106Y4240712D01*
X20150109Y4240714D01*
X20275048Y4412680D01*
X20275047Y4412680D01*
X20275051Y4412684D01*
X20279514Y4421446D01*
X20327488Y4472241D01*
X20395308Y4489037D01*
X20461444Y4466501D01*
X20500486Y4421444D01*
X20504951Y4412680D01*
X20629890Y4240714D01*
X20780213Y4090391D01*
X20952179Y3965452D01*
X20952181Y3965451D01*
X20952184Y3965449D01*
X21141588Y3868943D01*
X21343757Y3803254D01*
X21553713Y3770000D01*
X21553714Y3770000D01*
X21766286Y3770000D01*
X21766287Y3770000D01*
X21976243Y3803254D01*
X22178412Y3868943D01*
X22181368Y3870449D01*
X22194204Y3876989D01*
X22262873Y3889886D01*
X22327614Y3863610D01*
X22367871Y3806504D01*
X22374500Y3766505D01*
X22374500Y3038389D01*
X22398535Y2917556D01*
X22398540Y2917539D01*
X22445685Y2803720D01*
X22445687Y2803717D01*
X22445688Y2803714D01*
X22467391Y2771234D01*
X22479167Y2753611D01*
X22483375Y2747312D01*
X22497714Y2701511D01*
X22504250Y2680636D01*
X22502743Y2659027D01*
X22473000Y2471237D01*
X22473000Y2273764D01*
X22503889Y2078737D01*
X22560105Y1905724D01*
X22564909Y1890939D01*
X22654421Y1715264D01*
X22654558Y1714996D01*
X22770615Y1555254D01*
X22910253Y1415616D01*
X23033658Y1325959D01*
X23069999Y1299556D01*
X23245939Y1209909D01*
X23352917Y1175150D01*
X23433736Y1148890D01*
X23622450Y1119000D01*
X23622455Y1119000D01*
X23628769Y1118000D01*
X23826231Y1118000D01*
X23832545Y1119000D01*
X23832550Y1119000D01*
X24021263Y1148890D01*
X24056493Y1160337D01*
X24209061Y1209909D01*
X24385001Y1299556D01*
X24490788Y1376414D01*
X24544746Y1415616D01*
X24544748Y1415619D01*
X24544752Y1415621D01*
X24684379Y1555248D01*
X24684381Y1555252D01*
X24684384Y1555254D01*
X24789182Y1699498D01*
X24800444Y1714999D01*
X24887297Y1885457D01*
X24935268Y1936250D01*
X25003089Y1953045D01*
X25069224Y1930508D01*
X25108263Y1885455D01*
X25194981Y1715264D01*
X25220957Y1679512D01*
X25220957Y1679511D01*
X25784537Y2243091D01*
X25801575Y2179507D01*
X25867401Y2065493D01*
X25960493Y1972401D01*
X26074507Y1906575D01*
X26138090Y1889538D01*
X25574509Y1325959D01*
X25574510Y1325958D01*
X25610255Y1299988D01*
X25610268Y1299980D01*
X25786126Y1210374D01*
X25973853Y1149377D01*
X26173620Y1117737D01*
X26173391Y1116297D01*
X26232590Y1093738D01*
X26269107Y1044232D01*
X26283708Y1076203D01*
X26342486Y1113977D01*
X26361423Y1117463D01*
X26361380Y1117737D01*
X26561146Y1149377D01*
X26748873Y1210374D01*
X26924741Y1299984D01*
X26960488Y1325957D01*
X26960488Y1325959D01*
X26396910Y1889538D01*
X26460493Y1906575D01*
X26574507Y1972401D01*
X26667599Y2065493D01*
X26733425Y2179507D01*
X26750462Y2243091D01*
X27314041Y1679512D01*
X27314043Y1679512D01*
X27340016Y1715259D01*
X27426735Y1885454D01*
X27474710Y1936250D01*
X27542531Y1953045D01*
X27608665Y1930508D01*
X27647702Y1885458D01*
X27699924Y1782968D01*
X27734558Y1714995D01*
X27850615Y1555254D01*
X27990253Y1415616D01*
X28113658Y1325959D01*
X28149999Y1299556D01*
X28325939Y1209909D01*
X28432917Y1175150D01*
X28513736Y1148890D01*
X28712091Y1117473D01*
X28775226Y1087544D01*
X28809001Y1033301D01*
X28828594Y1076203D01*
X28887372Y1113977D01*
X28902909Y1117473D01*
X29101263Y1148890D01*
X29136493Y1160337D01*
X29289061Y1209909D01*
X29465001Y1299556D01*
X29570788Y1376414D01*
X29624746Y1415616D01*
X29624748Y1415619D01*
X29624752Y1415621D01*
X29764379Y1555248D01*
X29764381Y1555252D01*
X29764384Y1555254D01*
X29880441Y1714995D01*
X29880443Y1714998D01*
X29880444Y1714999D01*
X29967017Y1884907D01*
X29975659Y1894058D01*
X29980395Y1905724D01*
X29999196Y1918979D01*
X30014990Y1935700D01*
X30027210Y1938727D01*
X30037502Y1945981D01*
X30060484Y1946967D01*
X30082811Y1952495D01*
X30094728Y1948434D01*
X30107307Y1948973D01*
X30127170Y1937379D01*
X30148946Y1929958D01*
X30158220Y1919255D01*
X30167649Y1913751D01*
X30187981Y1884909D01*
X30239924Y1782968D01*
X30274558Y1714995D01*
X30390615Y1555254D01*
X30530253Y1415616D01*
X30653658Y1325959D01*
X30689999Y1299556D01*
X30865939Y1209909D01*
X30972917Y1175150D01*
X31053736Y1148890D01*
X31242450Y1119000D01*
X31242455Y1119000D01*
X31248769Y1118000D01*
X31446231Y1118000D01*
X31452545Y1119000D01*
X31452550Y1119000D01*
X31641263Y1148890D01*
X31676493Y1160337D01*
X31829061Y1209909D01*
X32005001Y1299556D01*
X32110788Y1376414D01*
X32164746Y1415616D01*
X32164748Y1415619D01*
X32164752Y1415621D01*
X32304379Y1555248D01*
X32304381Y1555252D01*
X32304384Y1555254D01*
X32356228Y1626613D01*
X32420444Y1714999D01*
X32510091Y1890939D01*
X32571110Y2078737D01*
X32571129Y2078854D01*
X32602000Y2273764D01*
X32602000Y2471237D01*
X32571110Y2666264D01*
X32529299Y2794945D01*
X32510091Y2854061D01*
X32420444Y3030001D01*
X32390203Y3071625D01*
X32304384Y3189747D01*
X32164746Y3329385D01*
X32005004Y3445442D01*
X32005003Y3445443D01*
X32005001Y3445444D01*
X31829061Y3535091D01*
X31829055Y3535093D01*
X31828227Y3535515D01*
X31777431Y3583490D01*
X31760636Y3651311D01*
X31783173Y3717446D01*
X31837889Y3760897D01*
X31884522Y3770000D01*
X31926286Y3770000D01*
X31926287Y3770000D01*
X32136243Y3803254D01*
X32338412Y3868943D01*
X32527816Y3965449D01*
X32590892Y4011276D01*
X32699786Y4090391D01*
X32699788Y4090394D01*
X32699792Y4090396D01*
X32850104Y4240708D01*
X32850106Y4240712D01*
X32850109Y4240714D01*
X32975048Y4412680D01*
X32975047Y4412680D01*
X32975051Y4412684D01*
X32979514Y4421446D01*
X33027488Y4472241D01*
X33095308Y4489037D01*
X33161444Y4466501D01*
X33200486Y4421444D01*
X33204951Y4412680D01*
X33329890Y4240714D01*
X33480213Y4090391D01*
X33652179Y3965452D01*
X33652181Y3965451D01*
X33652184Y3965449D01*
X33841588Y3868943D01*
X34043757Y3803254D01*
X34253713Y3770000D01*
X34253714Y3770000D01*
X34466286Y3770000D01*
X34466287Y3770000D01*
X34676243Y3803254D01*
X34878412Y3868943D01*
X35067816Y3965449D01*
X35130892Y4011276D01*
X35239786Y4090391D01*
X35239788Y4090394D01*
X35239792Y4090396D01*
X35390104Y4240708D01*
X35390106Y4240712D01*
X35390109Y4240714D01*
X35515048Y4412680D01*
X35515047Y4412680D01*
X35515051Y4412684D01*
X35611557Y4602088D01*
X35677246Y4804257D01*
X35710500Y5014213D01*
X35710500Y5226787D01*
X35677246Y5436743D01*
X35611557Y5638912D01*
X35515051Y5828316D01*
X35515049Y5828319D01*
X35515048Y5828321D01*
X35390109Y6000287D01*
X35239786Y6150610D01*
X35067820Y6275549D01*
X34878414Y6372056D01*
X34878413Y6372057D01*
X34878412Y6372057D01*
X34676243Y6437746D01*
X34676241Y6437747D01*
X34676240Y6437747D01*
X34514957Y6463292D01*
X34466287Y6471000D01*
X34253713Y6471000D01*
X34205042Y6463292D01*
X34043760Y6437747D01*
X33841585Y6372056D01*
X33652179Y6275549D01*
X33480213Y6150610D01*
X33329890Y6000287D01*
X33204949Y5828318D01*
X33200484Y5819554D01*
X33152509Y5768758D01*
X33084688Y5751964D01*
X33018553Y5774502D01*
X32979516Y5819554D01*
X32975050Y5828318D01*
X32850109Y6000287D01*
X32699786Y6150610D01*
X32527820Y6275549D01*
X32338414Y6372056D01*
X32338413Y6372057D01*
X32338412Y6372057D01*
X32136243Y6437746D01*
X32136241Y6437747D01*
X32136240Y6437747D01*
X31974957Y6463292D01*
X31926287Y6471000D01*
X31713713Y6471000D01*
X31665042Y6463292D01*
X31503760Y6437747D01*
X31301585Y6372056D01*
X31112179Y6275549D01*
X30940213Y6150610D01*
X30789890Y6000287D01*
X30664949Y5828318D01*
X30660484Y5819554D01*
X30612509Y5768758D01*
X30544688Y5751964D01*
X30478553Y5774502D01*
X30439516Y5819554D01*
X30435050Y5828318D01*
X30310109Y6000287D01*
X30159786Y6150610D01*
X29987820Y6275549D01*
X29798414Y6372056D01*
X29798413Y6372057D01*
X29798412Y6372057D01*
X29596243Y6437746D01*
X29596241Y6437747D01*
X29596240Y6437747D01*
X29434957Y6463292D01*
X29386287Y6471000D01*
X29173713Y6471000D01*
X29134202Y6464743D01*
X28963759Y6437747D01*
X28963755Y6437746D01*
X28841317Y6397964D01*
X28771476Y6395969D01*
X28711643Y6432050D01*
X28680816Y6494751D01*
X28679000Y6515895D01*
X28679000Y8486630D01*
X32024500Y8486630D01*
X32024500Y8254371D01*
X32060831Y8024986D01*
X32132601Y7804100D01*
X32186535Y7698250D01*
X32238039Y7597169D01*
X32374551Y7409276D01*
X32538776Y7245051D01*
X32726669Y7108539D01*
X32824436Y7058724D01*
X32933599Y7003102D01*
X32933601Y7003102D01*
X32933604Y7003100D01*
X33154486Y6931331D01*
X33272668Y6912614D01*
X33383871Y6895000D01*
X33383876Y6895000D01*
X33616129Y6895000D01*
X33717502Y6911057D01*
X33845514Y6931331D01*
X34066396Y7003100D01*
X34273331Y7108539D01*
X34461224Y7245051D01*
X34625449Y7409276D01*
X34761961Y7597169D01*
X34867400Y7804104D01*
X34939169Y8024986D01*
X34959443Y8152998D01*
X34975500Y8254371D01*
X34975500Y8486630D01*
X34952324Y8632955D01*
X34939169Y8716014D01*
X34867400Y8936896D01*
X34867398Y8936899D01*
X34867398Y8936901D01*
X34761960Y9143832D01*
X34625449Y9331724D01*
X34461224Y9495949D01*
X34273331Y9632461D01*
X34217980Y9660664D01*
X34066400Y9737899D01*
X33845514Y9809669D01*
X33616129Y9846000D01*
X33616124Y9846000D01*
X33383876Y9846000D01*
X33383871Y9846000D01*
X33154485Y9809669D01*
X32933599Y9737899D01*
X32726668Y9632461D01*
X32538773Y9495947D01*
X32374553Y9331727D01*
X32238039Y9143832D01*
X32132601Y8936901D01*
X32060831Y8716015D01*
X32024500Y8486630D01*
X28679000Y8486630D01*
X28679000Y11771001D01*
X28698685Y11838040D01*
X28751489Y11883795D01*
X28803000Y11895001D01*
X29522871Y11895001D01*
X29522872Y11895001D01*
X29582483Y11901409D01*
X29667092Y11932967D01*
X29736781Y11937950D01*
X29798104Y11904466D01*
X29831589Y11843143D01*
X29826605Y11773451D01*
X29810742Y11743899D01*
X29738038Y11643831D01*
X29632601Y11436901D01*
X29560831Y11216015D01*
X29524500Y10986630D01*
X29524500Y10754371D01*
X29560831Y10524986D01*
X29632601Y10304100D01*
X29732601Y10107842D01*
X29738039Y10097169D01*
X29874551Y9909276D01*
X30038776Y9745051D01*
X30226669Y9608539D01*
X30324436Y9558724D01*
X30433599Y9503102D01*
X30433601Y9503102D01*
X30433604Y9503100D01*
X30654486Y9431331D01*
X30758350Y9414881D01*
X30883871Y9395000D01*
X30883876Y9395000D01*
X31116129Y9395000D01*
X31217502Y9411057D01*
X31345514Y9431331D01*
X31566396Y9503100D01*
X31773331Y9608539D01*
X31961224Y9745051D01*
X32125449Y9909276D01*
X32261961Y10097169D01*
X32367400Y10304104D01*
X32439169Y10524986D01*
X32465894Y10693723D01*
X32475500Y10754371D01*
X32475500Y10986630D01*
X34524500Y10986630D01*
X34524500Y10754371D01*
X34560831Y10524986D01*
X34632601Y10304100D01*
X34732601Y10107842D01*
X34738039Y10097169D01*
X34874551Y9909276D01*
X35038776Y9745051D01*
X35226669Y9608539D01*
X35324436Y9558724D01*
X35433599Y9503102D01*
X35433601Y9503102D01*
X35433604Y9503100D01*
X35654486Y9431331D01*
X35758350Y9414881D01*
X35883871Y9395000D01*
X35883876Y9395000D01*
X36116129Y9395000D01*
X36217502Y9411057D01*
X36345514Y9431331D01*
X36566396Y9503100D01*
X36773331Y9608539D01*
X36961224Y9745051D01*
X37125449Y9909276D01*
X37261961Y10097169D01*
X37367400Y10304104D01*
X37439169Y10524986D01*
X37465894Y10693723D01*
X37475500Y10754371D01*
X37475500Y10986591D01*
X39525000Y10986591D01*
X39525000Y10754410D01*
X39561318Y10525107D01*
X39633065Y10304295D01*
X39738465Y10097436D01*
X39795238Y10019293D01*
X40398958Y10623013D01*
X40423978Y10562610D01*
X40495112Y10456149D01*
X40585649Y10365612D01*
X40692110Y10294478D01*
X40752510Y10269459D01*
X40148791Y9665741D01*
X40148791Y9665740D01*
X40226935Y9608966D01*
X40433794Y9503566D01*
X40654606Y9431819D01*
X40883910Y9395500D01*
X41116090Y9395500D01*
X41345393Y9431819D01*
X41566205Y9503566D01*
X41773071Y9608970D01*
X41851207Y9665738D01*
X41851208Y9665740D01*
X41247488Y10269459D01*
X41307890Y10294478D01*
X41414351Y10365612D01*
X41504888Y10456149D01*
X41576022Y10562610D01*
X41601041Y10623011D01*
X42204760Y10019292D01*
X42204762Y10019293D01*
X42261530Y10097429D01*
X42366934Y10304295D01*
X42438681Y10525107D01*
X42475000Y10754410D01*
X42475000Y10986591D01*
X42438681Y11215894D01*
X42366934Y11436706D01*
X42261534Y11643565D01*
X42204760Y11721709D01*
X42204759Y11721709D01*
X41601041Y11117990D01*
X41576022Y11178390D01*
X41504888Y11284851D01*
X41414351Y11375388D01*
X41307890Y11446522D01*
X41247487Y11471543D01*
X41851207Y12075262D01*
X41773064Y12132035D01*
X41566205Y12237435D01*
X41345393Y12309182D01*
X41116090Y12345500D01*
X40883910Y12345500D01*
X40654606Y12309182D01*
X40433794Y12237435D01*
X40226925Y12132030D01*
X40148791Y12075263D01*
X40148791Y12075262D01*
X40752511Y11471542D01*
X40692110Y11446522D01*
X40585649Y11375388D01*
X40495112Y11284851D01*
X40423978Y11178390D01*
X40398958Y11117989D01*
X39795238Y11721709D01*
X39795237Y11721709D01*
X39738470Y11643575D01*
X39633065Y11436706D01*
X39561318Y11215894D01*
X39525000Y10986591D01*
X37475500Y10986591D01*
X37475500Y10986630D01*
X37448849Y11154895D01*
X37439169Y11216014D01*
X37367400Y11436896D01*
X37367398Y11436899D01*
X37367398Y11436901D01*
X37311776Y11546064D01*
X37261961Y11643831D01*
X37125449Y11831724D01*
X36961224Y11995949D01*
X36773331Y12132461D01*
X36770864Y12133718D01*
X36566400Y12237899D01*
X36345514Y12309669D01*
X36116129Y12346000D01*
X36116124Y12346000D01*
X35883876Y12346000D01*
X35883871Y12346000D01*
X35654485Y12309669D01*
X35433599Y12237899D01*
X35226668Y12132461D01*
X35038773Y11995947D01*
X34874553Y11831727D01*
X34738039Y11643832D01*
X34632601Y11436901D01*
X34560831Y11216015D01*
X34524500Y10986630D01*
X32475500Y10986630D01*
X32448849Y11154895D01*
X32439169Y11216014D01*
X32367400Y11436896D01*
X32367398Y11436899D01*
X32367398Y11436901D01*
X32311776Y11546064D01*
X32261961Y11643831D01*
X32125449Y11831724D01*
X31961224Y11995949D01*
X31773331Y12132461D01*
X31770864Y12133718D01*
X31566400Y12237899D01*
X31345514Y12309669D01*
X31116129Y12346000D01*
X31116124Y12346000D01*
X30883876Y12346000D01*
X30883871Y12346000D01*
X30654485Y12309669D01*
X30433599Y12237899D01*
X30226669Y12132462D01*
X30126601Y12059758D01*
X30060794Y12036279D01*
X29992740Y12052105D01*
X29944046Y12102211D01*
X29930171Y12170689D01*
X29937532Y12203405D01*
X29969091Y12288017D01*
X29975500Y12347627D01*
X29975499Y13486630D01*
X32024500Y13486630D01*
X32024500Y13254371D01*
X32060831Y13024986D01*
X32132601Y12804100D01*
X32212277Y12647729D01*
X32238039Y12597169D01*
X32374551Y12409276D01*
X32538776Y12245051D01*
X32726669Y12108539D01*
X32806792Y12067714D01*
X32933599Y12003102D01*
X32933601Y12003102D01*
X32933604Y12003100D01*
X33154486Y11931331D01*
X33272668Y11912614D01*
X33383871Y11895000D01*
X33383876Y11895000D01*
X33616129Y11895000D01*
X33717502Y11911057D01*
X33845514Y11931331D01*
X34066396Y12003100D01*
X34273331Y12108539D01*
X34461224Y12245051D01*
X34625449Y12409276D01*
X34761961Y12597169D01*
X34867400Y12804104D01*
X34939169Y13024986D01*
X34959443Y13152998D01*
X34975500Y13254371D01*
X34975500Y13486630D01*
X34956232Y13608278D01*
X34939169Y13716014D01*
X34867400Y13936896D01*
X34867398Y13936899D01*
X34867398Y13936901D01*
X34761960Y14143832D01*
X34625449Y14331724D01*
X34461224Y14495949D01*
X34273331Y14632461D01*
X34066400Y14737899D01*
X33845514Y14809669D01*
X33616129Y14846000D01*
X33616124Y14846000D01*
X33383876Y14846000D01*
X33383871Y14846000D01*
X33154485Y14809669D01*
X32933599Y14737899D01*
X32726668Y14632461D01*
X32538773Y14495947D01*
X32374553Y14331727D01*
X32238039Y14143832D01*
X32132601Y13936901D01*
X32060831Y13716015D01*
X32024500Y13486630D01*
X29975499Y13486630D01*
X29975499Y14393372D01*
X29969091Y14452983D01*
X29953066Y14495947D01*
X29918797Y14587829D01*
X29918793Y14587836D01*
X29832547Y14703045D01*
X29832544Y14703048D01*
X29717335Y14789294D01*
X29717328Y14789298D01*
X29582482Y14839592D01*
X29582483Y14839592D01*
X29522883Y14845999D01*
X29522881Y14846000D01*
X29522873Y14846000D01*
X29522864Y14846000D01*
X27477129Y14846000D01*
X27477123Y14845999D01*
X27417516Y14839592D01*
X27282671Y14789298D01*
X27282664Y14789294D01*
X27167455Y14703048D01*
X27167452Y14703045D01*
X27081206Y14587836D01*
X27081202Y14587829D01*
X27030908Y14452983D01*
X27024501Y14393384D01*
X27024501Y14393377D01*
X27024500Y14393365D01*
X27024500Y12347630D01*
X27024501Y12347624D01*
X27030908Y12288017D01*
X27062465Y12203410D01*
X27067449Y12133718D01*
X27033964Y12072395D01*
X26972640Y12038911D01*
X26902949Y12043895D01*
X26873398Y12059759D01*
X26773334Y12132459D01*
X26773333Y12132460D01*
X26773331Y12132461D01*
X26698305Y12170689D01*
X26566400Y12237899D01*
X26345514Y12309669D01*
X26116129Y12346000D01*
X26116124Y12346000D01*
X25883876Y12346000D01*
X25883871Y12346000D01*
X25654485Y12309669D01*
X25433599Y12237899D01*
X25226668Y12132461D01*
X25038773Y11995947D01*
X24874553Y11831727D01*
X24738039Y11643832D01*
X24632601Y11436901D01*
X24560831Y11216015D01*
X24524500Y10986630D01*
X24524500Y10754371D01*
X24560831Y10524986D01*
X24632601Y10304100D01*
X24732601Y10107842D01*
X24738039Y10097169D01*
X24874551Y9909276D01*
X25038776Y9745051D01*
X25226669Y9608539D01*
X25324436Y9558724D01*
X25433599Y9503102D01*
X25433601Y9503102D01*
X25433604Y9503100D01*
X25654486Y9431331D01*
X25758350Y9414881D01*
X25883871Y9395000D01*
X25883876Y9395000D01*
X26116129Y9395000D01*
X26217502Y9411057D01*
X26345514Y9431331D01*
X26566396Y9503100D01*
X26773331Y9608539D01*
X26961224Y9745051D01*
X27125449Y9909276D01*
X27203682Y10016956D01*
X27259012Y10059621D01*
X27328625Y10065600D01*
X27390420Y10032995D01*
X27424777Y9972156D01*
X27428000Y9944070D01*
X27428000Y6487391D01*
X27408315Y6420352D01*
X27355511Y6374597D01*
X27286353Y6364653D01*
X27263193Y6371004D01*
X27263046Y6370551D01*
X27258413Y6372057D01*
X27258412Y6372057D01*
X27056243Y6437746D01*
X27056241Y6437747D01*
X27056240Y6437747D01*
X26894957Y6463292D01*
X26846287Y6471000D01*
X26633713Y6471000D01*
X26585042Y6463292D01*
X26423760Y6437747D01*
X26221585Y6372056D01*
X26032179Y6275549D01*
X25860213Y6150610D01*
X25709890Y6000287D01*
X25584949Y5828318D01*
X25580484Y5819554D01*
X25532509Y5768758D01*
X25464688Y5751964D01*
X25398553Y5774502D01*
X25359516Y5819554D01*
X25355050Y5828318D01*
X25230109Y6000287D01*
X25079786Y6150610D01*
X24907820Y6275549D01*
X24718414Y6372056D01*
X24718413Y6372057D01*
X24718412Y6372057D01*
X24516243Y6437746D01*
X24516241Y6437747D01*
X24516240Y6437747D01*
X24354957Y6463292D01*
X24306287Y6471000D01*
X24093713Y6471000D01*
X24054202Y6464743D01*
X23883759Y6437747D01*
X23883755Y6437746D01*
X23787817Y6406574D01*
X23717976Y6404579D01*
X23658143Y6440660D01*
X23627316Y6503361D01*
X23625500Y6524505D01*
X23625500Y9671139D01*
X23645185Y9738178D01*
X23661820Y9758821D01*
X23699461Y9796462D01*
X23699464Y9796465D01*
X23798013Y9943953D01*
X23798062Y9944070D01*
X23829219Y10019292D01*
X23865894Y10107834D01*
X23900500Y10281809D01*
X23900500Y10459191D01*
X23900500Y10459194D01*
X23900499Y10459196D01*
X23865896Y10633159D01*
X23865893Y10633168D01*
X23798016Y10797041D01*
X23798009Y10797054D01*
X23699464Y10944535D01*
X23699461Y10944539D01*
X23574038Y11069962D01*
X23574034Y11069965D01*
X23426553Y11168510D01*
X23426540Y11168517D01*
X23262670Y11236393D01*
X23262661Y11236396D01*
X23225307Y11243826D01*
X23163396Y11276212D01*
X23128823Y11336928D01*
X23125500Y11365443D01*
X23125500Y12560048D01*
X23145185Y12627087D01*
X23161819Y12647729D01*
X25722772Y15208681D01*
X25784095Y15242166D01*
X25810453Y15245000D01*
X35689548Y15245000D01*
X35756587Y15225315D01*
X35777229Y15208681D01*
X37058369Y13927541D01*
X37091854Y13866218D01*
X37088620Y13801544D01*
X37060831Y13716015D01*
X37024500Y13486630D01*
X37024500Y13254371D01*
X37060831Y13024986D01*
X37132601Y12804100D01*
X37212277Y12647729D01*
X37238039Y12597169D01*
X37374551Y12409276D01*
X37538776Y12245051D01*
X37726669Y12108539D01*
X37806792Y12067714D01*
X37933599Y12003102D01*
X37933601Y12003102D01*
X37933604Y12003100D01*
X38154486Y11931331D01*
X38272668Y11912614D01*
X38383871Y11895000D01*
X38383876Y11895000D01*
X38616129Y11895000D01*
X38717502Y11911057D01*
X38845514Y11931331D01*
X39066396Y12003100D01*
X39273331Y12108539D01*
X39461224Y12245051D01*
X39625449Y12409276D01*
X39761961Y12597169D01*
X39867400Y12804104D01*
X39939169Y13024986D01*
X39959443Y13152998D01*
X39975500Y13254371D01*
X39975500Y13486630D01*
X39956232Y13608278D01*
X39939169Y13716014D01*
X39867400Y13936896D01*
X39867398Y13936899D01*
X39867398Y13936901D01*
X39761960Y14143832D01*
X39625449Y14331724D01*
X39461224Y14495949D01*
X39273331Y14632461D01*
X39066400Y14737899D01*
X38845514Y14809669D01*
X38616129Y14846000D01*
X38616124Y14846000D01*
X38383876Y14846000D01*
X38383871Y14846000D01*
X38154485Y14809669D01*
X38068956Y14781880D01*
X37999115Y14779886D01*
X37942959Y14812131D01*
X36493150Y16261940D01*
X36485860Y16269230D01*
X36485858Y16269233D01*
X36398733Y16356358D01*
X36347509Y16390585D01*
X36296286Y16424812D01*
X36296283Y16424814D01*
X36296280Y16424815D01*
X36222603Y16455332D01*
X36222601Y16455333D01*
X36215792Y16458153D01*
X36182452Y16471963D01*
X36122029Y16483982D01*
X36117306Y16484922D01*
X36117304Y16484922D01*
X36061610Y16496000D01*
X36061607Y16496000D01*
X36061606Y16496000D01*
X25567741Y16496000D01*
X25567721Y16496001D01*
X25561607Y16496001D01*
X25438394Y16496001D01*
X25337597Y16475952D01*
X25337592Y16475952D01*
X25317549Y16471964D01*
X25317547Y16471964D01*
X25270397Y16452433D01*
X25203719Y16424815D01*
X25203717Y16424814D01*
X25101266Y16356359D01*
X25101263Y16356356D01*
X22681810Y13936901D01*
X22101269Y13356360D01*
X22101267Y13356358D01*
X22057704Y13312796D01*
X22014142Y13269234D01*
X21984845Y13225388D01*
X21984840Y13225381D01*
X21981437Y13220286D01*
X21945688Y13166786D01*
X21920697Y13106451D01*
X21918380Y13100859D01*
X21918377Y13100852D01*
X21898539Y13052959D01*
X21898535Y13052945D01*
X21874500Y12932111D01*
X21874500Y11206258D01*
X21865855Y11176821D01*
X21859332Y11146830D01*
X21855576Y11141814D01*
X21854815Y11139219D01*
X21838181Y11118576D01*
X21760273Y11040669D01*
X21698949Y11007185D01*
X21629258Y11012170D01*
X21573324Y11054041D01*
X21550119Y11108954D01*
X21533182Y11215893D01*
X21533181Y11215894D01*
X21461434Y11436706D01*
X21356034Y11643565D01*
X21299260Y11721709D01*
X21299259Y11721709D01*
X20695541Y11117989D01*
X20670522Y11178390D01*
X20599388Y11284851D01*
X20508851Y11375388D01*
X20402390Y11446522D01*
X20341987Y11471543D01*
X20945707Y12075262D01*
X20867564Y12132035D01*
X20660705Y12237435D01*
X20439893Y12309182D01*
X20210590Y12345500D01*
X19978410Y12345500D01*
X19749106Y12309182D01*
X19528294Y12237435D01*
X19321425Y12132030D01*
X19243291Y12075263D01*
X19243291Y12075262D01*
X19847011Y11471542D01*
X19786610Y11446522D01*
X19680149Y11375388D01*
X19589612Y11284851D01*
X19518478Y11178390D01*
X19493458Y11117989D01*
X18889738Y11721709D01*
X18889737Y11721709D01*
X18832970Y11643575D01*
X18727565Y11436706D01*
X18655818Y11215894D01*
X18619500Y10986591D01*
X18619500Y10754410D01*
X18655818Y10525107D01*
X18727565Y10304295D01*
X18832965Y10097436D01*
X18889738Y10019293D01*
X19493458Y10623013D01*
X19518478Y10562610D01*
X19589612Y10456149D01*
X19680149Y10365612D01*
X19786610Y10294478D01*
X19847011Y10269459D01*
X19243291Y9665741D01*
X19243291Y9665740D01*
X19321435Y9608966D01*
X19528294Y9503566D01*
X19749106Y9431819D01*
X19749107Y9431818D01*
X19856046Y9414881D01*
X19919181Y9384952D01*
X19956113Y9325641D01*
X19955115Y9255778D01*
X19924330Y9204727D01*
X18721270Y8001666D01*
X18634144Y7914541D01*
X18634138Y7914533D01*
X18565690Y7812097D01*
X18565688Y7812092D01*
X18547221Y7767507D01*
X18547221Y7767506D01*
X18518538Y7698260D01*
X18518535Y7698250D01*
X18494500Y7577416D01*
X18494500Y6393481D01*
X18474815Y6326442D01*
X18426797Y6282997D01*
X18412180Y6275550D01*
X18240213Y6150610D01*
X18089890Y6000287D01*
X17964949Y5828318D01*
X17960484Y5819554D01*
X17912509Y5768758D01*
X17844688Y5751964D01*
X17778553Y5774502D01*
X17739516Y5819554D01*
X17735050Y5828318D01*
X17610109Y6000287D01*
X17459786Y6150610D01*
X17287819Y6275550D01*
X17273203Y6282997D01*
X17222408Y6330973D01*
X17205500Y6393481D01*
X17205500Y8140048D01*
X17225185Y8207087D01*
X17241819Y8227729D01*
X17647038Y8632947D01*
X18080358Y9066267D01*
X18148812Y9168715D01*
X18176432Y9235397D01*
X18195963Y9282548D01*
X18199951Y9302598D01*
X18220001Y9403394D01*
X18220001Y9526607D01*
X18220001Y9531717D01*
X18220000Y9531743D01*
X18220000Y11957229D01*
X18239685Y12024268D01*
X18287705Y12067714D01*
X18367831Y12108539D01*
X18555724Y12245051D01*
X18719949Y12409276D01*
X18856461Y12597169D01*
X18961900Y12804104D01*
X19033669Y13024986D01*
X19053943Y13152998D01*
X19070000Y13254371D01*
X19070000Y13486630D01*
X19050732Y13608278D01*
X19033669Y13716014D01*
X18961900Y13936896D01*
X18961898Y13936899D01*
X18961898Y13936901D01*
X18856460Y14143832D01*
X18719949Y14331724D01*
X18555724Y14495949D01*
X18367831Y14632461D01*
X18160900Y14737899D01*
X17940014Y14809669D01*
X17710629Y14846000D01*
X17710624Y14846000D01*
X17478376Y14846000D01*
X17478371Y14846000D01*
X17248985Y14809669D01*
X17028099Y14737899D01*
X16821168Y14632461D01*
X16633273Y14495947D01*
X16469053Y14331727D01*
X16332539Y14143832D01*
X16227101Y13936901D01*
X16155331Y13716015D01*
X16119000Y13486630D01*
X16119000Y13254371D01*
X16155331Y13024986D01*
X16227101Y12804100D01*
X16306777Y12647729D01*
X16332539Y12597169D01*
X16469051Y12409276D01*
X16633276Y12245051D01*
X16821169Y12108539D01*
X16901294Y12067714D01*
X16952090Y12019740D01*
X16969000Y11957229D01*
X16969000Y9775453D01*
X16949315Y9708414D01*
X16932681Y9687772D01*
X16094143Y8849235D01*
X16094138Y8849229D01*
X16090656Y8844017D01*
X16090651Y8844009D01*
X16087639Y8839500D01*
X16025688Y8746786D01*
X15992347Y8666293D01*
X15989761Y8660051D01*
X15989761Y8660050D01*
X15978537Y8632955D01*
X15978535Y8632947D01*
X15954500Y8512111D01*
X15954500Y6393481D01*
X15934815Y6326442D01*
X15886797Y6282997D01*
X15872180Y6275550D01*
X15700213Y6150610D01*
X15549890Y6000287D01*
X15424949Y5828318D01*
X15420484Y5819554D01*
X15372509Y5768758D01*
X15304688Y5751964D01*
X15238553Y5774502D01*
X15199516Y5819554D01*
X15195050Y5828318D01*
X15070109Y6000287D01*
X14919786Y6150610D01*
X14747820Y6275549D01*
X14558414Y6372056D01*
X14558413Y6372057D01*
X14558412Y6372057D01*
X14356243Y6437746D01*
X14356241Y6437747D01*
X14356240Y6437747D01*
X14194957Y6463292D01*
X14146287Y6471000D01*
X13933713Y6471000D01*
X13885042Y6463292D01*
X13723760Y6437747D01*
X13521585Y6372056D01*
X13332179Y6275549D01*
X13160215Y6150611D01*
X13046285Y6036681D01*
X12984962Y6003197D01*
X12915270Y6008181D01*
X12859337Y6050053D01*
X12842422Y6081030D01*
X12793354Y6212587D01*
X12793350Y6212594D01*
X12707190Y6327688D01*
X12707187Y6327691D01*
X12592093Y6413851D01*
X12592086Y6413855D01*
X12457379Y6464097D01*
X12457372Y6464099D01*
X12397844Y6470500D01*
X11750000Y6470500D01*
X11750000Y5553512D01*
X11692993Y5586425D01*
X11565826Y5620500D01*
X11434174Y5620500D01*
X11307007Y5586425D01*
X11250000Y5553512D01*
X11250000Y6470500D01*
X10602155Y6470500D01*
X10542627Y6464099D01*
X10542620Y6464097D01*
X10407913Y6413855D01*
X10407906Y6413851D01*
X10292812Y6327691D01*
X10292809Y6327688D01*
X10206649Y6212594D01*
X10206645Y6212587D01*
X10156403Y6077880D01*
X10156401Y6077873D01*
X10150000Y6018345D01*
X2000500Y6018345D01*
X2000500Y8486630D01*
X11119000Y8486630D01*
X11119000Y8254371D01*
X11155331Y8024986D01*
X11227101Y7804100D01*
X11281035Y7698250D01*
X11332539Y7597169D01*
X11469051Y7409276D01*
X11633276Y7245051D01*
X11821169Y7108539D01*
X11918936Y7058724D01*
X12028099Y7003102D01*
X12028101Y7003102D01*
X12028104Y7003100D01*
X12248986Y6931331D01*
X12367168Y6912614D01*
X12478371Y6895000D01*
X12478376Y6895000D01*
X12710629Y6895000D01*
X12812002Y6911057D01*
X12940014Y6931331D01*
X13160896Y7003100D01*
X13367831Y7108539D01*
X13555724Y7245051D01*
X13719949Y7409276D01*
X13856461Y7597169D01*
X13961900Y7804104D01*
X14033669Y8024986D01*
X14053943Y8152998D01*
X14070000Y8254371D01*
X14070000Y8486630D01*
X14046824Y8632955D01*
X14033669Y8716014D01*
X13961900Y8936896D01*
X13961898Y8936899D01*
X13961898Y8936901D01*
X13856460Y9143832D01*
X13719949Y9331724D01*
X13555724Y9495949D01*
X13367831Y9632461D01*
X13312480Y9660664D01*
X13160900Y9737899D01*
X12940014Y9809669D01*
X12710629Y9846000D01*
X12710624Y9846000D01*
X12478376Y9846000D01*
X12478371Y9846000D01*
X12248985Y9809669D01*
X12028099Y9737899D01*
X11821168Y9632461D01*
X11633273Y9495947D01*
X11469053Y9331727D01*
X11332539Y9143832D01*
X11227101Y8936901D01*
X11155331Y8716015D01*
X11119000Y8486630D01*
X2000500Y8486630D01*
X2000500Y10986630D01*
X3619000Y10986630D01*
X3619000Y10754371D01*
X3655331Y10524986D01*
X3727101Y10304100D01*
X3827101Y10107842D01*
X3832539Y10097169D01*
X3969051Y9909276D01*
X4133276Y9745051D01*
X4321169Y9608539D01*
X4418936Y9558724D01*
X4528099Y9503102D01*
X4528101Y9503102D01*
X4528104Y9503100D01*
X4748986Y9431331D01*
X4852850Y9414881D01*
X4978371Y9395000D01*
X4978376Y9395000D01*
X5210629Y9395000D01*
X5312002Y9411057D01*
X5440014Y9431331D01*
X5660896Y9503100D01*
X5867831Y9608539D01*
X6055724Y9745051D01*
X6219949Y9909276D01*
X6356461Y10097169D01*
X6461900Y10304104D01*
X6533669Y10524986D01*
X6560394Y10693723D01*
X6570000Y10754371D01*
X6570000Y10986630D01*
X6543349Y11154895D01*
X6533669Y11216014D01*
X6461900Y11436896D01*
X6461898Y11436899D01*
X6461898Y11436901D01*
X6419301Y11520500D01*
X6356461Y11643831D01*
X6345376Y11659088D01*
X6283758Y11743899D01*
X6260278Y11809705D01*
X6276103Y11877759D01*
X6326209Y11926454D01*
X6394687Y11940329D01*
X6427405Y11932968D01*
X6512017Y11901409D01*
X6571627Y11895000D01*
X8617372Y11895001D01*
X8676983Y11901409D01*
X8761592Y11932967D01*
X8831281Y11937950D01*
X8892604Y11904466D01*
X8926089Y11843143D01*
X8921105Y11773451D01*
X8905242Y11743899D01*
X8832538Y11643831D01*
X8727101Y11436901D01*
X8655331Y11216015D01*
X8619000Y10986630D01*
X8619000Y10754371D01*
X8655331Y10524986D01*
X8727101Y10304100D01*
X8827101Y10107842D01*
X8832539Y10097169D01*
X8969051Y9909276D01*
X9133276Y9745051D01*
X9321169Y9608539D01*
X9418936Y9558724D01*
X9528099Y9503102D01*
X9528101Y9503102D01*
X9528104Y9503100D01*
X9748986Y9431331D01*
X9852850Y9414881D01*
X9978371Y9395000D01*
X9978376Y9395000D01*
X10210629Y9395000D01*
X10312002Y9411057D01*
X10440014Y9431331D01*
X10660896Y9503100D01*
X10867831Y9608539D01*
X11055724Y9745051D01*
X11219949Y9909276D01*
X11356461Y10097169D01*
X11461900Y10304104D01*
X11533669Y10524986D01*
X11560394Y10693723D01*
X11570000Y10754371D01*
X11570000Y10986630D01*
X13619000Y10986630D01*
X13619000Y10754371D01*
X13655331Y10524986D01*
X13727101Y10304100D01*
X13827101Y10107842D01*
X13832539Y10097169D01*
X13969051Y9909276D01*
X14133276Y9745051D01*
X14321169Y9608539D01*
X14418936Y9558724D01*
X14528099Y9503102D01*
X14528101Y9503102D01*
X14528104Y9503100D01*
X14748986Y9431331D01*
X14852850Y9414881D01*
X14978371Y9395000D01*
X14978376Y9395000D01*
X15210629Y9395000D01*
X15312002Y9411057D01*
X15440014Y9431331D01*
X15660896Y9503100D01*
X15867831Y9608539D01*
X16055724Y9745051D01*
X16219949Y9909276D01*
X16356461Y10097169D01*
X16461900Y10304104D01*
X16533669Y10524986D01*
X16560394Y10693723D01*
X16570000Y10754371D01*
X16570000Y10986630D01*
X16543349Y11154895D01*
X16533669Y11216014D01*
X16461900Y11436896D01*
X16461898Y11436899D01*
X16461898Y11436901D01*
X16406276Y11546064D01*
X16356461Y11643831D01*
X16219949Y11831724D01*
X16055724Y11995949D01*
X15867831Y12132461D01*
X15865364Y12133718D01*
X15660900Y12237899D01*
X15440014Y12309669D01*
X15210629Y12346000D01*
X15210624Y12346000D01*
X14978376Y12346000D01*
X14978371Y12346000D01*
X14748985Y12309669D01*
X14528099Y12237899D01*
X14321168Y12132461D01*
X14133273Y11995947D01*
X13969053Y11831727D01*
X13832539Y11643832D01*
X13727101Y11436901D01*
X13655331Y11216015D01*
X13619000Y10986630D01*
X11570000Y10986630D01*
X11543349Y11154895D01*
X11533669Y11216014D01*
X11461900Y11436896D01*
X11461898Y11436899D01*
X11461898Y11436901D01*
X11406276Y11546064D01*
X11356461Y11643831D01*
X11219949Y11831724D01*
X11055724Y11995949D01*
X10867831Y12132461D01*
X10865364Y12133718D01*
X10660900Y12237899D01*
X10440014Y12309669D01*
X10210629Y12346000D01*
X10210624Y12346000D01*
X9978376Y12346000D01*
X9978371Y12346000D01*
X9748985Y12309669D01*
X9528099Y12237899D01*
X9321169Y12132462D01*
X9221101Y12059758D01*
X9155294Y12036279D01*
X9087240Y12052105D01*
X9038546Y12102211D01*
X9024671Y12170689D01*
X9032032Y12203405D01*
X9063591Y12288017D01*
X9070000Y12347627D01*
X9069999Y13486630D01*
X11119000Y13486630D01*
X11119000Y13254371D01*
X11155331Y13024986D01*
X11227101Y12804100D01*
X11306777Y12647729D01*
X11332539Y12597169D01*
X11469051Y12409276D01*
X11633276Y12245051D01*
X11821169Y12108539D01*
X11901292Y12067714D01*
X12028099Y12003102D01*
X12028101Y12003102D01*
X12028104Y12003100D01*
X12248986Y11931331D01*
X12367168Y11912614D01*
X12478371Y11895000D01*
X12478376Y11895000D01*
X12710629Y11895000D01*
X12812002Y11911057D01*
X12940014Y11931331D01*
X13160896Y12003100D01*
X13367831Y12108539D01*
X13555724Y12245051D01*
X13719949Y12409276D01*
X13856461Y12597169D01*
X13961900Y12804104D01*
X14033669Y13024986D01*
X14053943Y13152998D01*
X14070000Y13254371D01*
X14070000Y13486630D01*
X14050732Y13608278D01*
X14033669Y13716014D01*
X13961900Y13936896D01*
X13961898Y13936899D01*
X13961898Y13936901D01*
X13856460Y14143832D01*
X13719949Y14331724D01*
X13555724Y14495949D01*
X13367831Y14632461D01*
X13160900Y14737899D01*
X12940014Y14809669D01*
X12710629Y14846000D01*
X12710624Y14846000D01*
X12478376Y14846000D01*
X12478371Y14846000D01*
X12248985Y14809669D01*
X12028099Y14737899D01*
X11821168Y14632461D01*
X11633273Y14495947D01*
X11469053Y14331727D01*
X11332539Y14143832D01*
X11227101Y13936901D01*
X11155331Y13716015D01*
X11119000Y13486630D01*
X9069999Y13486630D01*
X9069999Y14393372D01*
X9063591Y14452983D01*
X9047566Y14495947D01*
X9013297Y14587829D01*
X9013293Y14587836D01*
X8927047Y14703045D01*
X8927044Y14703048D01*
X8811835Y14789294D01*
X8811828Y14789298D01*
X8676982Y14839592D01*
X8676983Y14839592D01*
X8617383Y14845999D01*
X8617381Y14846000D01*
X8617373Y14846000D01*
X8617364Y14846000D01*
X6571629Y14846000D01*
X6571623Y14845999D01*
X6512016Y14839592D01*
X6377171Y14789298D01*
X6377164Y14789294D01*
X6261955Y14703048D01*
X6261952Y14703045D01*
X6175706Y14587836D01*
X6175702Y14587829D01*
X6125408Y14452983D01*
X6119001Y14393384D01*
X6119001Y14393377D01*
X6119000Y14393365D01*
X6119000Y12347630D01*
X6119001Y12347624D01*
X6125408Y12288017D01*
X6156965Y12203410D01*
X6161949Y12133718D01*
X6128464Y12072395D01*
X6067140Y12038911D01*
X5997449Y12043895D01*
X5967898Y12059759D01*
X5867834Y12132459D01*
X5867833Y12132460D01*
X5867831Y12132461D01*
X5792805Y12170689D01*
X5660900Y12237899D01*
X5440014Y12309669D01*
X5210629Y12346000D01*
X5210624Y12346000D01*
X4978376Y12346000D01*
X4978371Y12346000D01*
X4748985Y12309669D01*
X4528099Y12237899D01*
X4321168Y12132461D01*
X4133273Y11995947D01*
X3969053Y11831727D01*
X3832539Y11643832D01*
X3727101Y11436901D01*
X3655331Y11216015D01*
X3619000Y10986630D01*
X2000500Y10986630D01*
X2000500Y18484663D01*
X3644000Y18484663D01*
X3644000Y18256338D01*
X3679715Y18030840D01*
X3750270Y17813697D01*
X3853921Y17610272D01*
X3988121Y17425563D01*
X4149563Y17264121D01*
X4334272Y17129921D01*
X4430384Y17080950D01*
X4537696Y17026271D01*
X4537698Y17026271D01*
X4537701Y17026269D01*
X4654092Y16988451D01*
X4754839Y16955716D01*
X4980338Y16920000D01*
X4980343Y16920000D01*
X5208662Y16920000D01*
X5434160Y16955716D01*
X5651299Y17026269D01*
X5854728Y17129921D01*
X6039437Y17264121D01*
X6200879Y17425563D01*
X6335079Y17610272D01*
X6438731Y17813701D01*
X6509284Y18030840D01*
X6545000Y18256338D01*
X6545000Y18484663D01*
X18644000Y18484663D01*
X18644000Y18256338D01*
X18679715Y18030840D01*
X18750270Y17813697D01*
X18853921Y17610272D01*
X18988121Y17425563D01*
X19149563Y17264121D01*
X19334272Y17129921D01*
X19430384Y17080950D01*
X19537696Y17026271D01*
X19537698Y17026271D01*
X19537701Y17026269D01*
X19654092Y16988451D01*
X19754839Y16955716D01*
X19980338Y16920000D01*
X19980343Y16920000D01*
X20208662Y16920000D01*
X20434160Y16955716D01*
X20651299Y17026269D01*
X20854728Y17129921D01*
X21039437Y17264121D01*
X21200879Y17425563D01*
X21335079Y17610272D01*
X21438731Y17813701D01*
X21509284Y18030840D01*
X21545000Y18256338D01*
X21545000Y18484663D01*
X24549500Y18484663D01*
X24549500Y18256338D01*
X24585215Y18030840D01*
X24655770Y17813697D01*
X24759421Y17610272D01*
X24893621Y17425563D01*
X25055063Y17264121D01*
X25239772Y17129921D01*
X25335884Y17080950D01*
X25443196Y17026271D01*
X25443198Y17026271D01*
X25443201Y17026269D01*
X25559592Y16988451D01*
X25660339Y16955716D01*
X25885838Y16920000D01*
X25885843Y16920000D01*
X26114162Y16920000D01*
X26339660Y16955716D01*
X26556799Y17026269D01*
X26760228Y17129921D01*
X26944937Y17264121D01*
X27106379Y17425563D01*
X27240579Y17610272D01*
X27344231Y17813701D01*
X27414784Y18030840D01*
X27450500Y18256338D01*
X27450500Y18484663D01*
X39549500Y18484663D01*
X39549500Y18256338D01*
X39585215Y18030840D01*
X39655770Y17813697D01*
X39759421Y17610272D01*
X39893621Y17425563D01*
X40055063Y17264121D01*
X40239772Y17129921D01*
X40335884Y17080950D01*
X40443196Y17026271D01*
X40443198Y17026271D01*
X40443201Y17026269D01*
X40559592Y16988451D01*
X40660339Y16955716D01*
X40885838Y16920000D01*
X40885843Y16920000D01*
X41114162Y16920000D01*
X41339660Y16955716D01*
X41556799Y17026269D01*
X41760228Y17129921D01*
X41944937Y17264121D01*
X42106379Y17425563D01*
X42240579Y17610272D01*
X42344231Y17813701D01*
X42414784Y18030840D01*
X42450500Y18256338D01*
X42450500Y18484663D01*
X42414784Y18710161D01*
X42344229Y18927304D01*
X42240578Y19130729D01*
X42106379Y19315437D01*
X41944937Y19476879D01*
X41760228Y19611079D01*
X41556803Y19714730D01*
X41339660Y19785285D01*
X41114162Y19821000D01*
X41114157Y19821000D01*
X40885843Y19821000D01*
X40885838Y19821000D01*
X40660339Y19785285D01*
X40443196Y19714730D01*
X40239771Y19611079D01*
X40055061Y19476878D01*
X39893622Y19315439D01*
X39759421Y19130729D01*
X39655770Y18927304D01*
X39585215Y18710161D01*
X39549500Y18484663D01*
X27450500Y18484663D01*
X27414784Y18710161D01*
X27344229Y18927304D01*
X27240578Y19130729D01*
X27106379Y19315437D01*
X26944937Y19476879D01*
X26760228Y19611079D01*
X26556803Y19714730D01*
X26339660Y19785285D01*
X26114162Y19821000D01*
X26114157Y19821000D01*
X25885843Y19821000D01*
X25885838Y19821000D01*
X25660339Y19785285D01*
X25443196Y19714730D01*
X25239771Y19611079D01*
X25055061Y19476878D01*
X24893622Y19315439D01*
X24759421Y19130729D01*
X24655770Y18927304D01*
X24585215Y18710161D01*
X24549500Y18484663D01*
X21545000Y18484663D01*
X21509284Y18710161D01*
X21438729Y18927304D01*
X21335078Y19130729D01*
X21200879Y19315437D01*
X21039437Y19476879D01*
X20854728Y19611079D01*
X20651303Y19714730D01*
X20434160Y19785285D01*
X20208662Y19821000D01*
X20208657Y19821000D01*
X19980343Y19821000D01*
X19980338Y19821000D01*
X19754839Y19785285D01*
X19537696Y19714730D01*
X19334271Y19611079D01*
X19149561Y19476878D01*
X18988122Y19315439D01*
X18853921Y19130729D01*
X18750270Y18927304D01*
X18679715Y18710161D01*
X18644000Y18484663D01*
X6545000Y18484663D01*
X6509284Y18710161D01*
X6438729Y18927304D01*
X6335078Y19130729D01*
X6200879Y19315437D01*
X6039437Y19476879D01*
X5854728Y19611079D01*
X5651303Y19714730D01*
X5434160Y19785285D01*
X5208662Y19821000D01*
X5208657Y19821000D01*
X4980343Y19821000D01*
X4980338Y19821000D01*
X4754839Y19785285D01*
X4537696Y19714730D01*
X4334271Y19611079D01*
X4149561Y19476878D01*
X3988122Y19315439D01*
X3853921Y19130729D01*
X3750270Y18927304D01*
X3679715Y18710161D01*
X3644000Y18484663D01*
X2000500Y18484663D01*
X2000500Y23486591D01*
X8619500Y23486591D01*
X8619500Y23254410D01*
X8655818Y23025107D01*
X8727565Y22804295D01*
X8832965Y22597436D01*
X8889738Y22519293D01*
X9493458Y23123013D01*
X9518478Y23062610D01*
X9589612Y22956149D01*
X9680149Y22865612D01*
X9786610Y22794478D01*
X9847010Y22769459D01*
X9243291Y22165741D01*
X9243291Y22165740D01*
X9321435Y22108966D01*
X9528294Y22003566D01*
X9749106Y21931819D01*
X9978410Y21895500D01*
X10210590Y21895500D01*
X10439893Y21931819D01*
X10660705Y22003566D01*
X10867571Y22108970D01*
X10945707Y22165738D01*
X10945708Y22165740D01*
X10341988Y22769459D01*
X10402390Y22794478D01*
X10508851Y22865612D01*
X10599388Y22956149D01*
X10670522Y23062610D01*
X10695541Y23123011D01*
X11299260Y22519292D01*
X11299262Y22519293D01*
X11356030Y22597429D01*
X11461434Y22804295D01*
X11533181Y23025107D01*
X11569500Y23254410D01*
X11569500Y23486591D01*
X13619500Y23486591D01*
X13619500Y23254410D01*
X13655818Y23025107D01*
X13727565Y22804295D01*
X13832965Y22597436D01*
X13889738Y22519293D01*
X14493458Y23123013D01*
X14518478Y23062610D01*
X14589612Y22956149D01*
X14680149Y22865612D01*
X14786610Y22794478D01*
X14847010Y22769459D01*
X14243291Y22165741D01*
X14243291Y22165740D01*
X14321435Y22108966D01*
X14528294Y22003566D01*
X14749106Y21931819D01*
X14978410Y21895500D01*
X15210590Y21895500D01*
X15439893Y21931819D01*
X15660705Y22003566D01*
X15867571Y22108970D01*
X15945707Y22165738D01*
X15945708Y22165740D01*
X15341988Y22769459D01*
X15402390Y22794478D01*
X15508851Y22865612D01*
X15599388Y22956149D01*
X15670522Y23062610D01*
X15695541Y23123011D01*
X16299260Y22519292D01*
X16299262Y22519293D01*
X16356030Y22597429D01*
X16461434Y22804295D01*
X16533181Y23025107D01*
X16569500Y23254410D01*
X16569500Y23486591D01*
X29525000Y23486591D01*
X29525000Y23254410D01*
X29561318Y23025107D01*
X29633065Y22804295D01*
X29738465Y22597436D01*
X29795238Y22519293D01*
X30398958Y23123013D01*
X30423978Y23062610D01*
X30495112Y22956149D01*
X30585649Y22865612D01*
X30692110Y22794478D01*
X30752510Y22769459D01*
X30148791Y22165741D01*
X30148791Y22165740D01*
X30226935Y22108966D01*
X30433794Y22003566D01*
X30654606Y21931819D01*
X30883910Y21895500D01*
X31116090Y21895500D01*
X31345393Y21931819D01*
X31566205Y22003566D01*
X31773071Y22108970D01*
X31851207Y22165738D01*
X31851208Y22165740D01*
X31247488Y22769459D01*
X31307890Y22794478D01*
X31414351Y22865612D01*
X31504888Y22956149D01*
X31576022Y23062610D01*
X31601041Y23123011D01*
X32204760Y22519292D01*
X32204762Y22519293D01*
X32261530Y22597429D01*
X32366934Y22804295D01*
X32438681Y23025107D01*
X32475000Y23254410D01*
X32475000Y23486591D01*
X34525000Y23486591D01*
X34525000Y23254410D01*
X34561318Y23025107D01*
X34633065Y22804295D01*
X34738465Y22597436D01*
X34795238Y22519293D01*
X35398958Y23123013D01*
X35423978Y23062610D01*
X35495112Y22956149D01*
X35585649Y22865612D01*
X35692110Y22794478D01*
X35752510Y22769459D01*
X35148791Y22165741D01*
X35148791Y22165740D01*
X35226935Y22108966D01*
X35433794Y22003566D01*
X35654606Y21931819D01*
X35883910Y21895500D01*
X36116090Y21895500D01*
X36345393Y21931819D01*
X36566205Y22003566D01*
X36773071Y22108970D01*
X36851207Y22165738D01*
X36851208Y22165740D01*
X36247488Y22769459D01*
X36307890Y22794478D01*
X36414351Y22865612D01*
X36504888Y22956149D01*
X36576022Y23062610D01*
X36601041Y23123011D01*
X37204760Y22519292D01*
X37204762Y22519293D01*
X37261530Y22597429D01*
X37366934Y22804295D01*
X37438681Y23025107D01*
X37475000Y23254410D01*
X37475000Y23486591D01*
X37438681Y23715894D01*
X37366934Y23936706D01*
X37261534Y24143565D01*
X37204760Y24221709D01*
X37204759Y24221709D01*
X36601041Y23617990D01*
X36576022Y23678390D01*
X36504888Y23784851D01*
X36414351Y23875388D01*
X36307890Y23946522D01*
X36247487Y23971543D01*
X36851207Y24575262D01*
X36773064Y24632035D01*
X36566205Y24737435D01*
X36345393Y24809182D01*
X36116090Y24845500D01*
X35883910Y24845500D01*
X35654606Y24809182D01*
X35433794Y24737435D01*
X35226925Y24632030D01*
X35148791Y24575263D01*
X35148791Y24575262D01*
X35752511Y23971542D01*
X35692110Y23946522D01*
X35585649Y23875388D01*
X35495112Y23784851D01*
X35423978Y23678390D01*
X35398958Y23617989D01*
X34795238Y24221709D01*
X34795237Y24221709D01*
X34738470Y24143575D01*
X34633065Y23936706D01*
X34561318Y23715894D01*
X34525000Y23486591D01*
X32475000Y23486591D01*
X32438681Y23715894D01*
X32366934Y23936706D01*
X32261534Y24143565D01*
X32204760Y24221709D01*
X32204759Y24221709D01*
X31601041Y23617990D01*
X31576022Y23678390D01*
X31504888Y23784851D01*
X31414351Y23875388D01*
X31307890Y23946522D01*
X31247487Y23971543D01*
X31851207Y24575262D01*
X31773064Y24632035D01*
X31566205Y24737435D01*
X31345393Y24809182D01*
X31116090Y24845500D01*
X30883910Y24845500D01*
X30654606Y24809182D01*
X30433794Y24737435D01*
X30226925Y24632030D01*
X30148791Y24575263D01*
X30148791Y24575262D01*
X30752511Y23971542D01*
X30692110Y23946522D01*
X30585649Y23875388D01*
X30495112Y23784851D01*
X30423978Y23678390D01*
X30398958Y23617989D01*
X29795238Y24221709D01*
X29795237Y24221709D01*
X29738470Y24143575D01*
X29633065Y23936706D01*
X29561318Y23715894D01*
X29525000Y23486591D01*
X16569500Y23486591D01*
X16533181Y23715894D01*
X16461434Y23936706D01*
X16356034Y24143565D01*
X16299260Y24221709D01*
X16299259Y24221709D01*
X15695541Y23617990D01*
X15670522Y23678390D01*
X15599388Y23784851D01*
X15508851Y23875388D01*
X15402390Y23946522D01*
X15341987Y23971543D01*
X15945707Y24575262D01*
X15867564Y24632035D01*
X15660705Y24737435D01*
X15439893Y24809182D01*
X15210590Y24845500D01*
X14978410Y24845500D01*
X14749106Y24809182D01*
X14528294Y24737435D01*
X14321425Y24632030D01*
X14243291Y24575263D01*
X14243291Y24575262D01*
X14847011Y23971542D01*
X14786610Y23946522D01*
X14680149Y23875388D01*
X14589612Y23784851D01*
X14518478Y23678390D01*
X14493458Y23617989D01*
X13889738Y24221709D01*
X13889737Y24221709D01*
X13832970Y24143575D01*
X13727565Y23936706D01*
X13655818Y23715894D01*
X13619500Y23486591D01*
X11569500Y23486591D01*
X11533181Y23715894D01*
X11461434Y23936706D01*
X11356034Y24143565D01*
X11299260Y24221709D01*
X11299259Y24221709D01*
X10695541Y23617990D01*
X10670522Y23678390D01*
X10599388Y23784851D01*
X10508851Y23875388D01*
X10402390Y23946522D01*
X10341987Y23971543D01*
X10945707Y24575262D01*
X10867564Y24632035D01*
X10660705Y24737435D01*
X10439893Y24809182D01*
X10210590Y24845500D01*
X9978410Y24845500D01*
X9749106Y24809182D01*
X9528294Y24737435D01*
X9321425Y24632030D01*
X9243291Y24575263D01*
X9243291Y24575262D01*
X9847011Y23971542D01*
X9786610Y23946522D01*
X9680149Y23875388D01*
X9589612Y23784851D01*
X9518478Y23678390D01*
X9493458Y23617989D01*
X8889738Y24221709D01*
X8889737Y24221709D01*
X8832970Y24143575D01*
X8727565Y23936706D01*
X8655818Y23715894D01*
X8619500Y23486591D01*
X2000500Y23486591D01*
X2000500Y25365089D01*
X2000972Y25375895D01*
X2013760Y25522070D01*
X2015664Y25535403D01*
X2021503Y25564761D01*
X2023330Y25572597D01*
X2056779Y25697432D01*
X2061990Y25712779D01*
X2069010Y25729727D01*
X2071161Y25734619D01*
X2129825Y25860424D01*
X2140629Y25879134D01*
X2228119Y26004083D01*
X2242007Y26020635D01*
X2349865Y26128493D01*
X2366417Y26142381D01*
X2491366Y26229871D01*
X2510076Y26240675D01*
X2635881Y26299339D01*
X2640773Y26301490D01*
X2640776Y26301491D01*
X2657721Y26308510D01*
X2673068Y26313721D01*
X2797903Y26347170D01*
X2805739Y26348997D01*
X2835097Y26354836D01*
X2848430Y26356740D01*
X2987871Y26368939D01*
X2994606Y26369528D01*
X3005412Y26370000D01*
X42994588Y26370000D01*
X43005394Y26369528D01*
G37*
%TD.AperFunction*%
%TD*%
M02*
