%TF.GenerationSoftware,KiCad,Pcbnew,9.0.1*%
%TF.CreationDate,2025-06-09T14:27:30-04:00*%
%TF.ProjectId,Ceinture_respiration_Shield,4365696e-7475-4726-955f-726573706972,1.1*%
%TF.SameCoordinates,Original*%
%TF.FileFunction,Legend,Bot*%
%TF.FilePolarity,Positive*%
%FSLAX46Y46*%
G04 Gerber Fmt 4.6, Leading zero omitted, Abs format (unit mm)*
G04 Created by KiCad (PCBNEW 9.0.1) date 2025-06-09 14:27:30*
%MOMM*%
%LPD*%
G01*
G04 APERTURE LIST*
%ADD10C,0.150000*%
%ADD11C,0.127000*%
%ADD12C,0.200000*%
%ADD13R,1.508000X1.508000*%
%ADD14C,1.508000*%
%ADD15C,2.400000*%
%ADD16R,1.950000X1.950000*%
%ADD17C,1.950000*%
%ADD18R,1.700000X1.700000*%
%ADD19O,1.700000X1.700000*%
G04 APERTURE END LIST*
D10*
X40250000Y-1974600D02*
X40275400Y-1974600D01*
X40275400Y-2000000D01*
X40250000Y-2000000D01*
X40250000Y-1974600D01*
G36*
X40250000Y-1974600D02*
G01*
X40275400Y-1974600D01*
X40275400Y-2000000D01*
X40250000Y-2000000D01*
X40250000Y-1974600D01*
G37*
X28151315Y8000681D02*
X28151315Y9000681D01*
X28151315Y9000681D02*
X27817982Y8286396D01*
X27817982Y8286396D02*
X27484649Y9000681D01*
X27484649Y9000681D02*
X27484649Y8000681D01*
X27008458Y8381634D02*
X26246554Y8381634D01*
X25817982Y8286396D02*
X25341792Y8286396D01*
X25913220Y8000681D02*
X25579887Y9000681D01*
X25579887Y9000681D02*
X25246554Y8000681D01*
X23627506Y8953062D02*
X23722744Y9000681D01*
X23722744Y9000681D02*
X23865601Y9000681D01*
X23865601Y9000681D02*
X24008458Y8953062D01*
X24008458Y8953062D02*
X24103696Y8857824D01*
X24103696Y8857824D02*
X24151315Y8762586D01*
X24151315Y8762586D02*
X24198934Y8572110D01*
X24198934Y8572110D02*
X24198934Y8429253D01*
X24198934Y8429253D02*
X24151315Y8238777D01*
X24151315Y8238777D02*
X24103696Y8143539D01*
X24103696Y8143539D02*
X24008458Y8048300D01*
X24008458Y8048300D02*
X23865601Y8000681D01*
X23865601Y8000681D02*
X23770363Y8000681D01*
X23770363Y8000681D02*
X23627506Y8048300D01*
X23627506Y8048300D02*
X23579887Y8095920D01*
X23579887Y8095920D02*
X23579887Y8429253D01*
X23579887Y8429253D02*
X23770363Y8429253D01*
X22722744Y8667348D02*
X22722744Y8000681D01*
X23151315Y8667348D02*
X23151315Y8143539D01*
X23151315Y8143539D02*
X23103696Y8048300D01*
X23103696Y8048300D02*
X23008458Y8000681D01*
X23008458Y8000681D02*
X22865601Y8000681D01*
X22865601Y8000681D02*
X22770363Y8048300D01*
X22770363Y8048300D02*
X22722744Y8095920D01*
X21817982Y8000681D02*
X21817982Y8524491D01*
X21817982Y8524491D02*
X21865601Y8619729D01*
X21865601Y8619729D02*
X21960839Y8667348D01*
X21960839Y8667348D02*
X22151315Y8667348D01*
X22151315Y8667348D02*
X22246553Y8619729D01*
X21817982Y8048300D02*
X21913220Y8000681D01*
X21913220Y8000681D02*
X22151315Y8000681D01*
X22151315Y8000681D02*
X22246553Y8048300D01*
X22246553Y8048300D02*
X22294172Y8143539D01*
X22294172Y8143539D02*
X22294172Y8238777D01*
X22294172Y8238777D02*
X22246553Y8334015D01*
X22246553Y8334015D02*
X22151315Y8381634D01*
X22151315Y8381634D02*
X21913220Y8381634D01*
X21913220Y8381634D02*
X21817982Y8429253D01*
X21437029Y8667348D02*
X21198934Y8000681D01*
X20960839Y8667348D02*
X21198934Y8000681D01*
X21198934Y8000681D02*
X21294172Y7762586D01*
X21294172Y7762586D02*
X21341791Y7714967D01*
X21341791Y7714967D02*
X21437029Y7667348D01*
X19817981Y8524491D02*
X19484648Y8524491D01*
X19341791Y8000681D02*
X19817981Y8000681D01*
X19817981Y8000681D02*
X19817981Y9000681D01*
X19817981Y9000681D02*
X19341791Y9000681D01*
X18960838Y8905443D02*
X18913219Y8953062D01*
X18913219Y8953062D02*
X18817981Y9000681D01*
X18817981Y9000681D02*
X18579886Y9000681D01*
X18579886Y9000681D02*
X18484648Y8953062D01*
X18484648Y8953062D02*
X18437029Y8905443D01*
X18437029Y8905443D02*
X18389410Y8810205D01*
X18389410Y8810205D02*
X18389410Y8714967D01*
X18389410Y8714967D02*
X18437029Y8572110D01*
X18437029Y8572110D02*
X19008457Y8000681D01*
X19008457Y8000681D02*
X18389410Y8000681D01*
X18056076Y9000681D02*
X17437029Y9000681D01*
X17437029Y9000681D02*
X17770362Y8619729D01*
X17770362Y8619729D02*
X17627505Y8619729D01*
X17627505Y8619729D02*
X17532267Y8572110D01*
X17532267Y8572110D02*
X17484648Y8524491D01*
X17484648Y8524491D02*
X17437029Y8429253D01*
X17437029Y8429253D02*
X17437029Y8191158D01*
X17437029Y8191158D02*
X17484648Y8095920D01*
X17484648Y8095920D02*
X17532267Y8048300D01*
X17532267Y8048300D02*
X17627505Y8000681D01*
X17627505Y8000681D02*
X17913219Y8000681D01*
X17913219Y8000681D02*
X18008457Y8048300D01*
X18008457Y8048300D02*
X18056076Y8095920D01*
X35297620Y20595920D02*
X35345239Y20548300D01*
X35345239Y20548300D02*
X35488096Y20500681D01*
X35488096Y20500681D02*
X35583334Y20500681D01*
X35583334Y20500681D02*
X35726191Y20548300D01*
X35726191Y20548300D02*
X35821429Y20643539D01*
X35821429Y20643539D02*
X35869048Y20738777D01*
X35869048Y20738777D02*
X35916667Y20929253D01*
X35916667Y20929253D02*
X35916667Y21072110D01*
X35916667Y21072110D02*
X35869048Y21262586D01*
X35869048Y21262586D02*
X35821429Y21357824D01*
X35821429Y21357824D02*
X35726191Y21453062D01*
X35726191Y21453062D02*
X35583334Y21500681D01*
X35583334Y21500681D02*
X35488096Y21500681D01*
X35488096Y21500681D02*
X35345239Y21453062D01*
X35345239Y21453062D02*
X35297620Y21405443D01*
X34488096Y20548300D02*
X34583334Y20500681D01*
X34583334Y20500681D02*
X34773810Y20500681D01*
X34773810Y20500681D02*
X34869048Y20548300D01*
X34869048Y20548300D02*
X34916667Y20643539D01*
X34916667Y20643539D02*
X34916667Y21024491D01*
X34916667Y21024491D02*
X34869048Y21119729D01*
X34869048Y21119729D02*
X34773810Y21167348D01*
X34773810Y21167348D02*
X34583334Y21167348D01*
X34583334Y21167348D02*
X34488096Y21119729D01*
X34488096Y21119729D02*
X34440477Y21024491D01*
X34440477Y21024491D02*
X34440477Y20929253D01*
X34440477Y20929253D02*
X34916667Y20834015D01*
X34011905Y20500681D02*
X34011905Y21167348D01*
X34011905Y21500681D02*
X34059524Y21453062D01*
X34059524Y21453062D02*
X34011905Y21405443D01*
X34011905Y21405443D02*
X33964286Y21453062D01*
X33964286Y21453062D02*
X34011905Y21500681D01*
X34011905Y21500681D02*
X34011905Y21405443D01*
X33535715Y21167348D02*
X33535715Y20500681D01*
X33535715Y21072110D02*
X33488096Y21119729D01*
X33488096Y21119729D02*
X33392858Y21167348D01*
X33392858Y21167348D02*
X33250001Y21167348D01*
X33250001Y21167348D02*
X33154763Y21119729D01*
X33154763Y21119729D02*
X33107144Y21024491D01*
X33107144Y21024491D02*
X33107144Y20500681D01*
X32773810Y21167348D02*
X32392858Y21167348D01*
X32630953Y21500681D02*
X32630953Y20643539D01*
X32630953Y20643539D02*
X32583334Y20548300D01*
X32583334Y20548300D02*
X32488096Y20500681D01*
X32488096Y20500681D02*
X32392858Y20500681D01*
X31630953Y21167348D02*
X31630953Y20500681D01*
X32059524Y21167348D02*
X32059524Y20643539D01*
X32059524Y20643539D02*
X32011905Y20548300D01*
X32011905Y20548300D02*
X31916667Y20500681D01*
X31916667Y20500681D02*
X31773810Y20500681D01*
X31773810Y20500681D02*
X31678572Y20548300D01*
X31678572Y20548300D02*
X31630953Y20595920D01*
X31154762Y20500681D02*
X31154762Y21167348D01*
X31154762Y20976872D02*
X31107143Y21072110D01*
X31107143Y21072110D02*
X31059524Y21119729D01*
X31059524Y21119729D02*
X30964286Y21167348D01*
X30964286Y21167348D02*
X30869048Y21167348D01*
X30154762Y20548300D02*
X30250000Y20500681D01*
X30250000Y20500681D02*
X30440476Y20500681D01*
X30440476Y20500681D02*
X30535714Y20548300D01*
X30535714Y20548300D02*
X30583333Y20643539D01*
X30583333Y20643539D02*
X30583333Y21024491D01*
X30583333Y21024491D02*
X30535714Y21119729D01*
X30535714Y21119729D02*
X30440476Y21167348D01*
X30440476Y21167348D02*
X30250000Y21167348D01*
X30250000Y21167348D02*
X30154762Y21119729D01*
X30154762Y21119729D02*
X30107143Y21024491D01*
X30107143Y21024491D02*
X30107143Y20929253D01*
X30107143Y20929253D02*
X30583333Y20834015D01*
X29726190Y20548300D02*
X29630952Y20500681D01*
X29630952Y20500681D02*
X29440476Y20500681D01*
X29440476Y20500681D02*
X29345238Y20548300D01*
X29345238Y20548300D02*
X29297619Y20643539D01*
X29297619Y20643539D02*
X29297619Y20691158D01*
X29297619Y20691158D02*
X29345238Y20786396D01*
X29345238Y20786396D02*
X29440476Y20834015D01*
X29440476Y20834015D02*
X29583333Y20834015D01*
X29583333Y20834015D02*
X29678571Y20881634D01*
X29678571Y20881634D02*
X29726190Y20976872D01*
X29726190Y20976872D02*
X29726190Y21024491D01*
X29726190Y21024491D02*
X29678571Y21119729D01*
X29678571Y21119729D02*
X29583333Y21167348D01*
X29583333Y21167348D02*
X29440476Y21167348D01*
X29440476Y21167348D02*
X29345238Y21119729D01*
X27678571Y20500681D02*
X27678571Y21500681D01*
X27678571Y20548300D02*
X27773809Y20500681D01*
X27773809Y20500681D02*
X27964285Y20500681D01*
X27964285Y20500681D02*
X28059523Y20548300D01*
X28059523Y20548300D02*
X28107142Y20595920D01*
X28107142Y20595920D02*
X28154761Y20691158D01*
X28154761Y20691158D02*
X28154761Y20976872D01*
X28154761Y20976872D02*
X28107142Y21072110D01*
X28107142Y21072110D02*
X28059523Y21119729D01*
X28059523Y21119729D02*
X27964285Y21167348D01*
X27964285Y21167348D02*
X27773809Y21167348D01*
X27773809Y21167348D02*
X27678571Y21119729D01*
X26821428Y20548300D02*
X26916666Y20500681D01*
X26916666Y20500681D02*
X27107142Y20500681D01*
X27107142Y20500681D02*
X27202380Y20548300D01*
X27202380Y20548300D02*
X27249999Y20643539D01*
X27249999Y20643539D02*
X27249999Y21024491D01*
X27249999Y21024491D02*
X27202380Y21119729D01*
X27202380Y21119729D02*
X27107142Y21167348D01*
X27107142Y21167348D02*
X26916666Y21167348D01*
X26916666Y21167348D02*
X26821428Y21119729D01*
X26821428Y21119729D02*
X26773809Y21024491D01*
X26773809Y21024491D02*
X26773809Y20929253D01*
X26773809Y20929253D02*
X27249999Y20834015D01*
X25583332Y20500681D02*
X25583332Y21167348D01*
X25583332Y20976872D02*
X25535713Y21072110D01*
X25535713Y21072110D02*
X25488094Y21119729D01*
X25488094Y21119729D02*
X25392856Y21167348D01*
X25392856Y21167348D02*
X25297618Y21167348D01*
X24583332Y20548300D02*
X24678570Y20500681D01*
X24678570Y20500681D02*
X24869046Y20500681D01*
X24869046Y20500681D02*
X24964284Y20548300D01*
X24964284Y20548300D02*
X25011903Y20643539D01*
X25011903Y20643539D02*
X25011903Y21024491D01*
X25011903Y21024491D02*
X24964284Y21119729D01*
X24964284Y21119729D02*
X24869046Y21167348D01*
X24869046Y21167348D02*
X24678570Y21167348D01*
X24678570Y21167348D02*
X24583332Y21119729D01*
X24583332Y21119729D02*
X24535713Y21024491D01*
X24535713Y21024491D02*
X24535713Y20929253D01*
X24535713Y20929253D02*
X25011903Y20834015D01*
X24154760Y20548300D02*
X24059522Y20500681D01*
X24059522Y20500681D02*
X23869046Y20500681D01*
X23869046Y20500681D02*
X23773808Y20548300D01*
X23773808Y20548300D02*
X23726189Y20643539D01*
X23726189Y20643539D02*
X23726189Y20691158D01*
X23726189Y20691158D02*
X23773808Y20786396D01*
X23773808Y20786396D02*
X23869046Y20834015D01*
X23869046Y20834015D02*
X24011903Y20834015D01*
X24011903Y20834015D02*
X24107141Y20881634D01*
X24107141Y20881634D02*
X24154760Y20976872D01*
X24154760Y20976872D02*
X24154760Y21024491D01*
X24154760Y21024491D02*
X24107141Y21119729D01*
X24107141Y21119729D02*
X24011903Y21167348D01*
X24011903Y21167348D02*
X23869046Y21167348D01*
X23869046Y21167348D02*
X23773808Y21119729D01*
X23297617Y21167348D02*
X23297617Y20167348D01*
X23297617Y21119729D02*
X23202379Y21167348D01*
X23202379Y21167348D02*
X23011903Y21167348D01*
X23011903Y21167348D02*
X22916665Y21119729D01*
X22916665Y21119729D02*
X22869046Y21072110D01*
X22869046Y21072110D02*
X22821427Y20976872D01*
X22821427Y20976872D02*
X22821427Y20691158D01*
X22821427Y20691158D02*
X22869046Y20595920D01*
X22869046Y20595920D02*
X22916665Y20548300D01*
X22916665Y20548300D02*
X23011903Y20500681D01*
X23011903Y20500681D02*
X23202379Y20500681D01*
X23202379Y20500681D02*
X23297617Y20548300D01*
X22392855Y20500681D02*
X22392855Y21167348D01*
X22392855Y21500681D02*
X22440474Y21453062D01*
X22440474Y21453062D02*
X22392855Y21405443D01*
X22392855Y21405443D02*
X22345236Y21453062D01*
X22345236Y21453062D02*
X22392855Y21500681D01*
X22392855Y21500681D02*
X22392855Y21405443D01*
X21916665Y20500681D02*
X21916665Y21167348D01*
X21916665Y20976872D02*
X21869046Y21072110D01*
X21869046Y21072110D02*
X21821427Y21119729D01*
X21821427Y21119729D02*
X21726189Y21167348D01*
X21726189Y21167348D02*
X21630951Y21167348D01*
X20869046Y20500681D02*
X20869046Y21024491D01*
X20869046Y21024491D02*
X20916665Y21119729D01*
X20916665Y21119729D02*
X21011903Y21167348D01*
X21011903Y21167348D02*
X21202379Y21167348D01*
X21202379Y21167348D02*
X21297617Y21119729D01*
X20869046Y20548300D02*
X20964284Y20500681D01*
X20964284Y20500681D02*
X21202379Y20500681D01*
X21202379Y20500681D02*
X21297617Y20548300D01*
X21297617Y20548300D02*
X21345236Y20643539D01*
X21345236Y20643539D02*
X21345236Y20738777D01*
X21345236Y20738777D02*
X21297617Y20834015D01*
X21297617Y20834015D02*
X21202379Y20881634D01*
X21202379Y20881634D02*
X20964284Y20881634D01*
X20964284Y20881634D02*
X20869046Y20929253D01*
X20535712Y21167348D02*
X20154760Y21167348D01*
X20392855Y21500681D02*
X20392855Y20643539D01*
X20392855Y20643539D02*
X20345236Y20548300D01*
X20345236Y20548300D02*
X20249998Y20500681D01*
X20249998Y20500681D02*
X20154760Y20500681D01*
X19821426Y20500681D02*
X19821426Y21167348D01*
X19821426Y21500681D02*
X19869045Y21453062D01*
X19869045Y21453062D02*
X19821426Y21405443D01*
X19821426Y21405443D02*
X19773807Y21453062D01*
X19773807Y21453062D02*
X19821426Y21500681D01*
X19821426Y21500681D02*
X19821426Y21405443D01*
X19202379Y20500681D02*
X19297617Y20548300D01*
X19297617Y20548300D02*
X19345236Y20595920D01*
X19345236Y20595920D02*
X19392855Y20691158D01*
X19392855Y20691158D02*
X19392855Y20976872D01*
X19392855Y20976872D02*
X19345236Y21072110D01*
X19345236Y21072110D02*
X19297617Y21119729D01*
X19297617Y21119729D02*
X19202379Y21167348D01*
X19202379Y21167348D02*
X19059522Y21167348D01*
X19059522Y21167348D02*
X18964284Y21119729D01*
X18964284Y21119729D02*
X18916665Y21072110D01*
X18916665Y21072110D02*
X18869046Y20976872D01*
X18869046Y20976872D02*
X18869046Y20691158D01*
X18869046Y20691158D02*
X18916665Y20595920D01*
X18916665Y20595920D02*
X18964284Y20548300D01*
X18964284Y20548300D02*
X19059522Y20500681D01*
X19059522Y20500681D02*
X19202379Y20500681D01*
X18440474Y21167348D02*
X18440474Y20500681D01*
X18440474Y21072110D02*
X18392855Y21119729D01*
X18392855Y21119729D02*
X18297617Y21167348D01*
X18297617Y21167348D02*
X18154760Y21167348D01*
X18154760Y21167348D02*
X18059522Y21119729D01*
X18059522Y21119729D02*
X18011903Y21024491D01*
X18011903Y21024491D02*
X18011903Y20500681D01*
X16773807Y20881634D02*
X16011903Y20881634D01*
X14821426Y20548300D02*
X14678569Y20500681D01*
X14678569Y20500681D02*
X14440474Y20500681D01*
X14440474Y20500681D02*
X14345236Y20548300D01*
X14345236Y20548300D02*
X14297617Y20595920D01*
X14297617Y20595920D02*
X14249998Y20691158D01*
X14249998Y20691158D02*
X14249998Y20786396D01*
X14249998Y20786396D02*
X14297617Y20881634D01*
X14297617Y20881634D02*
X14345236Y20929253D01*
X14345236Y20929253D02*
X14440474Y20976872D01*
X14440474Y20976872D02*
X14630950Y21024491D01*
X14630950Y21024491D02*
X14726188Y21072110D01*
X14726188Y21072110D02*
X14773807Y21119729D01*
X14773807Y21119729D02*
X14821426Y21214967D01*
X14821426Y21214967D02*
X14821426Y21310205D01*
X14821426Y21310205D02*
X14773807Y21405443D01*
X14773807Y21405443D02*
X14726188Y21453062D01*
X14726188Y21453062D02*
X14630950Y21500681D01*
X14630950Y21500681D02*
X14392855Y21500681D01*
X14392855Y21500681D02*
X14249998Y21453062D01*
X13821426Y20500681D02*
X13821426Y21500681D01*
X13392855Y20500681D02*
X13392855Y21024491D01*
X13392855Y21024491D02*
X13440474Y21119729D01*
X13440474Y21119729D02*
X13535712Y21167348D01*
X13535712Y21167348D02*
X13678569Y21167348D01*
X13678569Y21167348D02*
X13773807Y21119729D01*
X13773807Y21119729D02*
X13821426Y21072110D01*
X12916664Y20500681D02*
X12916664Y21167348D01*
X12916664Y21500681D02*
X12964283Y21453062D01*
X12964283Y21453062D02*
X12916664Y21405443D01*
X12916664Y21405443D02*
X12869045Y21453062D01*
X12869045Y21453062D02*
X12916664Y21500681D01*
X12916664Y21500681D02*
X12916664Y21405443D01*
X12059522Y20548300D02*
X12154760Y20500681D01*
X12154760Y20500681D02*
X12345236Y20500681D01*
X12345236Y20500681D02*
X12440474Y20548300D01*
X12440474Y20548300D02*
X12488093Y20643539D01*
X12488093Y20643539D02*
X12488093Y21024491D01*
X12488093Y21024491D02*
X12440474Y21119729D01*
X12440474Y21119729D02*
X12345236Y21167348D01*
X12345236Y21167348D02*
X12154760Y21167348D01*
X12154760Y21167348D02*
X12059522Y21119729D01*
X12059522Y21119729D02*
X12011903Y21024491D01*
X12011903Y21024491D02*
X12011903Y20929253D01*
X12011903Y20929253D02*
X12488093Y20834015D01*
X11440474Y20500681D02*
X11535712Y20548300D01*
X11535712Y20548300D02*
X11583331Y20643539D01*
X11583331Y20643539D02*
X11583331Y21500681D01*
X10630950Y20500681D02*
X10630950Y21500681D01*
X10630950Y20548300D02*
X10726188Y20500681D01*
X10726188Y20500681D02*
X10916664Y20500681D01*
X10916664Y20500681D02*
X11011902Y20548300D01*
X11011902Y20548300D02*
X11059521Y20595920D01*
X11059521Y20595920D02*
X11107140Y20691158D01*
X11107140Y20691158D02*
X11107140Y20976872D01*
X11107140Y20976872D02*
X11059521Y21072110D01*
X11059521Y21072110D02*
X11011902Y21119729D01*
X11011902Y21119729D02*
X10916664Y21167348D01*
X10916664Y21167348D02*
X10726188Y21167348D01*
X10726188Y21167348D02*
X10630950Y21119729D01*
G36*
X33146049Y15808090D02*
G01*
X33176456Y15777683D01*
X33210714Y15709167D01*
X33210714Y15458863D01*
X33176455Y15390347D01*
X33146048Y15359939D01*
X33077533Y15325681D01*
X32922467Y15325681D01*
X32884524Y15344653D01*
X32884524Y15823377D01*
X32922467Y15842348D01*
X33077533Y15842348D01*
X33146049Y15808090D01*
G37*
G36*
X27686904Y15823377D02*
G01*
X27686904Y15344653D01*
X27648961Y15325681D01*
X27493895Y15325681D01*
X27425379Y15359939D01*
X27394972Y15390347D01*
X27360714Y15458863D01*
X27360714Y15709167D01*
X27394972Y15777683D01*
X27425379Y15808090D01*
X27493895Y15842348D01*
X27648961Y15842348D01*
X27686904Y15823377D01*
G37*
G36*
X19646855Y15559297D02*
G01*
X19649544Y15559106D01*
X19652033Y15558075D01*
X19666665Y15556634D01*
X19887055Y15556634D01*
X19944096Y15528114D01*
X19972617Y15471072D01*
X19972617Y15411244D01*
X19944096Y15354202D01*
X19887055Y15325681D01*
X19684370Y15325681D01*
X19646427Y15344653D01*
X19646427Y15559461D01*
X19646855Y15559297D01*
G37*
G36*
X21313522Y15559297D02*
G01*
X21316211Y15559106D01*
X21318700Y15558075D01*
X21333332Y15556634D01*
X21553722Y15556634D01*
X21610763Y15528114D01*
X21639284Y15471072D01*
X21639284Y15411244D01*
X21610763Y15354202D01*
X21553722Y15325681D01*
X21351037Y15325681D01*
X21313094Y15344653D01*
X21313094Y15559461D01*
X21313522Y15559297D01*
G37*
G36*
X28313523Y15559297D02*
G01*
X28316212Y15559106D01*
X28318701Y15558075D01*
X28333333Y15556634D01*
X28553723Y15556634D01*
X28610764Y15528114D01*
X28639285Y15471072D01*
X28639285Y15411244D01*
X28610764Y15354202D01*
X28553723Y15325681D01*
X28351038Y15325681D01*
X28313095Y15344653D01*
X28313095Y15559461D01*
X28313523Y15559297D01*
G37*
G36*
X29479382Y15808090D02*
G01*
X29509789Y15777683D01*
X29544047Y15709167D01*
X29544047Y15458863D01*
X29509788Y15390347D01*
X29479381Y15359939D01*
X29410866Y15325681D01*
X29255800Y15325681D01*
X29217857Y15344653D01*
X29217857Y15823377D01*
X29255800Y15842348D01*
X29410866Y15842348D01*
X29479382Y15808090D01*
G37*
G36*
X30123047Y15559297D02*
G01*
X30125736Y15559106D01*
X30128225Y15558075D01*
X30142857Y15556634D01*
X30363247Y15556634D01*
X30420288Y15528114D01*
X30448809Y15471072D01*
X30448809Y15411244D01*
X30420288Y15354202D01*
X30363247Y15325681D01*
X30160562Y15325681D01*
X30122619Y15344653D01*
X30122619Y15559461D01*
X30123047Y15559297D01*
G37*
G36*
X31277431Y15813828D02*
G01*
X31305952Y15756786D01*
X31305952Y15675501D01*
X30979762Y15740739D01*
X30979762Y15756786D01*
X31008282Y15813828D01*
X31065324Y15842348D01*
X31220390Y15842348D01*
X31277431Y15813828D01*
G37*
G36*
X13258331Y15801872D02*
G01*
X12970084Y15801872D01*
X12901568Y15836130D01*
X12871161Y15866537D01*
X12836903Y15935053D01*
X12836903Y16042500D01*
X12871161Y16111016D01*
X12901568Y16141423D01*
X12970084Y16175681D01*
X13258331Y16175681D01*
X13258331Y15801872D01*
G37*
G36*
X14258331Y15801872D02*
G01*
X13970084Y15801872D01*
X13901568Y15836130D01*
X13871161Y15866537D01*
X13836903Y15935053D01*
X13836903Y16042500D01*
X13871161Y16111016D01*
X13901568Y16141423D01*
X13970084Y16175681D01*
X14258331Y16175681D01*
X14258331Y15801872D01*
G37*
G36*
X32258333Y15801872D02*
G01*
X31970086Y15801872D01*
X31901570Y15836130D01*
X31871163Y15866537D01*
X31836905Y15935053D01*
X31836905Y16042500D01*
X31871163Y16111016D01*
X31901570Y16141423D01*
X31970086Y16175681D01*
X32258333Y16175681D01*
X32258333Y15801872D01*
G37*
G36*
X34805158Y14731237D02*
G01*
X11147221Y14731237D01*
X11147221Y15536396D01*
X11258332Y15536396D01*
X11258332Y15441158D01*
X11259773Y15426526D01*
X11260804Y15424037D01*
X11260995Y15421349D01*
X11266250Y15407617D01*
X11313869Y15312379D01*
X11317832Y15306083D01*
X11318590Y15304253D01*
X11320279Y15302195D01*
X11321701Y15299936D01*
X11323199Y15298637D01*
X11327917Y15292888D01*
X11375536Y15245268D01*
X11381285Y15240550D01*
X11382586Y15239050D01*
X11384845Y15237628D01*
X11386902Y15235940D01*
X11388729Y15235183D01*
X11395029Y15231218D01*
X11490267Y15183599D01*
X11503998Y15178344D01*
X11506687Y15178153D01*
X11509176Y15177122D01*
X11523808Y15175681D01*
X11761903Y15175681D01*
X11769308Y15176411D01*
X11771283Y15176270D01*
X11773880Y15176861D01*
X11776535Y15177122D01*
X11778366Y15177881D01*
X11785620Y15179530D01*
X11928477Y15227149D01*
X11941902Y15233143D01*
X11964009Y15252317D01*
X11977096Y15278490D01*
X11979171Y15307680D01*
X11969917Y15335442D01*
X11950743Y15357550D01*
X11924569Y15370636D01*
X11895379Y15372711D01*
X11881042Y15369451D01*
X11749733Y15325681D01*
X11541513Y15325681D01*
X11472997Y15359939D01*
X11442590Y15390347D01*
X11408332Y15458863D01*
X11408332Y15518691D01*
X11442590Y15587207D01*
X11472997Y15617614D01*
X11549984Y15656108D01*
X11732474Y15701730D01*
X11733553Y15702116D01*
X11734093Y15702154D01*
X11740174Y15704482D01*
X11746320Y15706677D01*
X11746755Y15707000D01*
X11747825Y15707409D01*
X11843063Y15755028D01*
X11849362Y15758993D01*
X11851190Y15759750D01*
X11853246Y15761439D01*
X11855506Y15762860D01*
X11856805Y15764359D01*
X11862555Y15769077D01*
X11910174Y15816696D01*
X11914892Y15822446D01*
X11916391Y15823745D01*
X11917812Y15826005D01*
X11919501Y15828061D01*
X11920258Y15829889D01*
X11924223Y15836188D01*
X11971842Y15931426D01*
X11977097Y15945157D01*
X11977288Y15947847D01*
X11978319Y15950335D01*
X11979760Y15964967D01*
X11979760Y16060205D01*
X11978319Y16074837D01*
X11977288Y16077326D01*
X11977097Y16080015D01*
X11971842Y16093746D01*
X11924223Y16188984D01*
X11920258Y16195284D01*
X11919501Y16197111D01*
X11917812Y16199168D01*
X11916391Y16201427D01*
X11914892Y16202727D01*
X11910174Y16208476D01*
X11867969Y16250681D01*
X12258331Y16250681D01*
X12258331Y15250681D01*
X12259772Y15236049D01*
X12270971Y15209013D01*
X12291663Y15188321D01*
X12318699Y15177122D01*
X12347963Y15177122D01*
X12374999Y15188321D01*
X12395691Y15209013D01*
X12406890Y15236049D01*
X12408331Y15250681D01*
X12408331Y16060205D01*
X12686903Y16060205D01*
X12686903Y15917348D01*
X12688344Y15902716D01*
X12689375Y15900227D01*
X12689566Y15897539D01*
X12694821Y15883807D01*
X12742440Y15788569D01*
X12746404Y15782270D01*
X12747162Y15780442D01*
X12748850Y15778386D01*
X12750272Y15776126D01*
X12751770Y15774827D01*
X12756489Y15769077D01*
X12804108Y15721458D01*
X12809857Y15716740D01*
X12811157Y15715241D01*
X12813416Y15713820D01*
X12815473Y15712131D01*
X12817300Y15711374D01*
X12823600Y15707409D01*
X12918838Y15659790D01*
X12932569Y15654535D01*
X12935258Y15654344D01*
X12937747Y15653313D01*
X12951264Y15651982D01*
X12700461Y15293691D01*
X12693250Y15280877D01*
X12686921Y15252306D01*
X12692006Y15223489D01*
X12707733Y15198810D01*
X12731707Y15182028D01*
X12760278Y15175699D01*
X12789095Y15180784D01*
X12813774Y15196511D01*
X12823345Y15207671D01*
X13134285Y15651872D01*
X13258331Y15651872D01*
X13258331Y15250681D01*
X13259772Y15236049D01*
X13270971Y15209013D01*
X13291663Y15188321D01*
X13318699Y15177122D01*
X13347963Y15177122D01*
X13374999Y15188321D01*
X13395691Y15209013D01*
X13406890Y15236049D01*
X13408331Y15250681D01*
X13408331Y16060205D01*
X13686903Y16060205D01*
X13686903Y15917348D01*
X13688344Y15902716D01*
X13689375Y15900227D01*
X13689566Y15897539D01*
X13694821Y15883807D01*
X13742440Y15788569D01*
X13746404Y15782270D01*
X13747162Y15780442D01*
X13748850Y15778386D01*
X13750272Y15776126D01*
X13751770Y15774827D01*
X13756489Y15769077D01*
X13804108Y15721458D01*
X13809857Y15716740D01*
X13811157Y15715241D01*
X13813416Y15713820D01*
X13815473Y15712131D01*
X13817300Y15711374D01*
X13823600Y15707409D01*
X13918838Y15659790D01*
X13932569Y15654535D01*
X13935258Y15654344D01*
X13937747Y15653313D01*
X13951264Y15651982D01*
X13700461Y15293691D01*
X13693250Y15280877D01*
X13686921Y15252306D01*
X13692006Y15223489D01*
X13707733Y15198810D01*
X13731707Y15182028D01*
X13760278Y15175699D01*
X13789095Y15180784D01*
X13813774Y15196511D01*
X13823345Y15207671D01*
X14134285Y15651872D01*
X14258331Y15651872D01*
X14258331Y15250681D01*
X14259772Y15236049D01*
X14270971Y15209013D01*
X14291663Y15188321D01*
X14318699Y15177122D01*
X14347963Y15177122D01*
X14374999Y15188321D01*
X14395691Y15209013D01*
X14406890Y15236049D01*
X14408331Y15250681D01*
X14408331Y16250681D01*
X14734521Y16250681D01*
X14734521Y15250681D01*
X14735962Y15236049D01*
X14747161Y15209013D01*
X14767853Y15188321D01*
X14794889Y15177122D01*
X14824153Y15177122D01*
X14851189Y15188321D01*
X14871881Y15209013D01*
X14883080Y15236049D01*
X14884521Y15250681D01*
X14884521Y16170074D01*
X15164534Y16170074D01*
X15164534Y16140812D01*
X15175733Y16113775D01*
X15196425Y16093083D01*
X15223462Y16081884D01*
X15252724Y16081884D01*
X15279761Y16093083D01*
X15291126Y16102410D01*
X15326226Y16137510D01*
X15440739Y16175681D01*
X15511637Y16175681D01*
X15626150Y16137510D01*
X15700263Y16063397D01*
X15738756Y15986410D01*
X15782140Y15812876D01*
X15782140Y15688487D01*
X15738756Y15514953D01*
X15700262Y15437966D01*
X15626150Y15363853D01*
X15511637Y15325681D01*
X15440739Y15325681D01*
X15326226Y15363852D01*
X15291127Y15398952D01*
X15279761Y15408280D01*
X15252725Y15419479D01*
X15223462Y15419479D01*
X15196426Y15408281D01*
X15175733Y15387588D01*
X15164534Y15360552D01*
X15164534Y15331289D01*
X15175732Y15304253D01*
X15185059Y15292888D01*
X15232678Y15245268D01*
X15244044Y15235940D01*
X15246532Y15234910D01*
X15248569Y15233143D01*
X15261995Y15227149D01*
X15404851Y15179530D01*
X15412106Y15177881D01*
X15413937Y15177122D01*
X15416590Y15176861D01*
X15419188Y15176270D01*
X15421162Y15176411D01*
X15428569Y15175681D01*
X15523807Y15175681D01*
X15531212Y15176411D01*
X15533187Y15176270D01*
X15535784Y15176861D01*
X15538439Y15177122D01*
X15540270Y15177881D01*
X15547524Y15179530D01*
X15690381Y15227149D01*
X15703806Y15233143D01*
X15705841Y15234909D01*
X15708332Y15235940D01*
X15719697Y15245267D01*
X15734492Y15260062D01*
X18877968Y15260062D01*
X18880042Y15230872D01*
X18893129Y15204697D01*
X18915237Y15185524D01*
X18942998Y15176270D01*
X18972188Y15178344D01*
X18985920Y15183599D01*
X19081158Y15231218D01*
X19083605Y15232759D01*
X19084759Y15233143D01*
X19086195Y15234389D01*
X19093601Y15239050D01*
X19099762Y15246155D01*
X19106867Y15252316D01*
X19111528Y15259722D01*
X19112774Y15261158D01*
X19113158Y15262312D01*
X19114699Y15264759D01*
X19162318Y15359998D01*
X19167573Y15373730D01*
X19167763Y15376418D01*
X19168795Y15378907D01*
X19170236Y15393539D01*
X19170236Y15774491D01*
X19496427Y15774491D01*
X19496427Y15250681D01*
X19497868Y15236049D01*
X19509067Y15209013D01*
X19529759Y15188321D01*
X19556795Y15177122D01*
X19586059Y15177122D01*
X19613095Y15188321D01*
X19616623Y15191850D01*
X19633124Y15183599D01*
X19646855Y15178344D01*
X19649544Y15178153D01*
X19652033Y15177122D01*
X19666665Y15175681D01*
X19904760Y15175681D01*
X19919392Y15177122D01*
X19921881Y15178154D01*
X19924569Y15178344D01*
X19938301Y15183599D01*
X20033539Y15231218D01*
X20035986Y15232759D01*
X20037140Y15233143D01*
X20038576Y15234389D01*
X20045982Y15239050D01*
X20052143Y15246155D01*
X20059248Y15252316D01*
X20063909Y15259722D01*
X20065155Y15261158D01*
X20065539Y15262312D01*
X20067080Y15264759D01*
X20114699Y15359998D01*
X20119954Y15373730D01*
X20120144Y15376418D01*
X20121176Y15378907D01*
X20122617Y15393539D01*
X20122617Y15488777D01*
X20121176Y15503409D01*
X20120145Y15505898D01*
X20119954Y15508587D01*
X20114699Y15522318D01*
X20067080Y15617556D01*
X20065539Y15620004D01*
X20065155Y15621157D01*
X20063909Y15622594D01*
X20059248Y15629999D01*
X20052143Y15636161D01*
X20045982Y15643265D01*
X20038576Y15647927D01*
X20037140Y15649172D01*
X20035986Y15649557D01*
X20033539Y15651097D01*
X19938301Y15698716D01*
X19924569Y15703971D01*
X19921881Y15704162D01*
X19919392Y15705193D01*
X19904760Y15706634D01*
X19684370Y15706634D01*
X19646427Y15725606D01*
X19646427Y15756786D01*
X19674947Y15813828D01*
X19731989Y15842348D01*
X19887055Y15842348D01*
X19966457Y15802647D01*
X19980188Y15797392D01*
X20009378Y15795318D01*
X20037140Y15804572D01*
X20059247Y15823745D01*
X20072335Y15849920D01*
X20074409Y15879110D01*
X20065316Y15906387D01*
X20306756Y15906387D01*
X20310320Y15892123D01*
X20548415Y15225456D01*
X20554694Y15212161D01*
X20557220Y15209371D01*
X20558832Y15205968D01*
X20566967Y15198603D01*
X20574333Y15190467D01*
X20577735Y15188856D01*
X20580526Y15186329D01*
X20590863Y15182638D01*
X20600779Y15177940D01*
X20604537Y15177754D01*
X20608085Y15176486D01*
X20619046Y15177032D01*
X20630007Y15176486D01*
X20633554Y15177754D01*
X20637313Y15177940D01*
X20647228Y15182638D01*
X20657566Y15186329D01*
X20660356Y15188856D01*
X20663759Y15190467D01*
X20671127Y15198607D01*
X20679260Y15205969D01*
X20680870Y15209370D01*
X20683398Y15212161D01*
X20689677Y15225456D01*
X20885761Y15774491D01*
X21163094Y15774491D01*
X21163094Y15250681D01*
X21164535Y15236049D01*
X21175734Y15209013D01*
X21196426Y15188321D01*
X21223462Y15177122D01*
X21252726Y15177122D01*
X21279762Y15188321D01*
X21283290Y15191850D01*
X21299791Y15183599D01*
X21313522Y15178344D01*
X21316211Y15178153D01*
X21318700Y15177122D01*
X21333332Y15175681D01*
X21571427Y15175681D01*
X21586059Y15177122D01*
X21588548Y15178154D01*
X21591236Y15178344D01*
X21604968Y15183599D01*
X21700206Y15231218D01*
X21702653Y15232759D01*
X21703807Y15233143D01*
X21705243Y15234389D01*
X21712649Y15239050D01*
X21718810Y15246155D01*
X21725915Y15252316D01*
X21730576Y15259722D01*
X21731822Y15261158D01*
X21732206Y15262312D01*
X21733747Y15264759D01*
X21734024Y15265313D01*
X21926440Y15265313D01*
X21926440Y15236049D01*
X21937639Y15209013D01*
X21958331Y15188321D01*
X21985367Y15177122D01*
X21999999Y15175681D01*
X22476189Y15175681D01*
X22490821Y15177122D01*
X22517857Y15188321D01*
X22538549Y15209013D01*
X22549748Y15236049D01*
X22551189Y15250681D01*
X22551189Y16250681D01*
X22877380Y16250681D01*
X22877380Y15441158D01*
X22878821Y15426526D01*
X22879852Y15424037D01*
X22880043Y15421349D01*
X22885298Y15407617D01*
X22932917Y15312379D01*
X22936880Y15306083D01*
X22937638Y15304253D01*
X22939327Y15302195D01*
X22940749Y15299936D01*
X22942247Y15298637D01*
X22946965Y15292888D01*
X22994584Y15245268D01*
X23000333Y15240550D01*
X23001634Y15239050D01*
X23003893Y15237628D01*
X23005950Y15235940D01*
X23007777Y15235183D01*
X23014077Y15231218D01*
X23109315Y15183599D01*
X23123046Y15178344D01*
X23125735Y15178153D01*
X23128224Y15177122D01*
X23142856Y15175681D01*
X23333332Y15175681D01*
X23347964Y15177122D01*
X23350453Y15178154D01*
X23353141Y15178344D01*
X23366873Y15183599D01*
X23462111Y15231218D01*
X23468410Y15235183D01*
X23470238Y15235940D01*
X23472294Y15237628D01*
X23474554Y15239050D01*
X23475854Y15240550D01*
X23481604Y15245268D01*
X23529222Y15292887D01*
X23533940Y15298637D01*
X23535439Y15299936D01*
X23536860Y15302195D01*
X23538550Y15304253D01*
X23539307Y15306083D01*
X23543271Y15312379D01*
X23590890Y15407617D01*
X23596145Y15421348D01*
X23596336Y15424038D01*
X23597367Y15426526D01*
X23598808Y15441158D01*
X23598808Y15646266D01*
X24688345Y15646266D01*
X24688345Y15617002D01*
X24699544Y15589966D01*
X24720236Y15569274D01*
X24747272Y15558075D01*
X24761904Y15556634D01*
X25523808Y15556634D01*
X25538440Y15558075D01*
X25565476Y15569274D01*
X25586168Y15589966D01*
X25597367Y15617002D01*
X25597367Y15646266D01*
X25586168Y15673302D01*
X25565476Y15693994D01*
X25538440Y15705193D01*
X25523808Y15706634D01*
X24761904Y15706634D01*
X24747272Y15705193D01*
X24720236Y15693994D01*
X24699544Y15673302D01*
X24688345Y15646266D01*
X23598808Y15646266D01*
X23598808Y15931980D01*
X26545488Y15931980D01*
X26545488Y15902716D01*
X26556687Y15875680D01*
X26577379Y15854988D01*
X26604415Y15843789D01*
X26619047Y15842348D01*
X26782142Y15842348D01*
X26782142Y15411244D01*
X26753621Y15354202D01*
X26696580Y15325681D01*
X26619047Y15325681D01*
X26604415Y15324240D01*
X26577379Y15313041D01*
X26556687Y15292349D01*
X26545488Y15265313D01*
X26545488Y15236049D01*
X26556687Y15209013D01*
X26577379Y15188321D01*
X26604415Y15177122D01*
X26619047Y15175681D01*
X26714285Y15175681D01*
X26728917Y15177122D01*
X26731406Y15178154D01*
X26734094Y15178344D01*
X26747826Y15183599D01*
X26843064Y15231218D01*
X26845511Y15232759D01*
X26846665Y15233143D01*
X26848101Y15234389D01*
X26855507Y15239050D01*
X26861668Y15246155D01*
X26868773Y15252316D01*
X26873434Y15259722D01*
X26874680Y15261158D01*
X26875064Y15262312D01*
X26876605Y15264759D01*
X26924224Y15359998D01*
X26929479Y15373730D01*
X26929669Y15376418D01*
X26930701Y15378907D01*
X26932142Y15393539D01*
X26932142Y15726872D01*
X27210714Y15726872D01*
X27210714Y15441158D01*
X27212155Y15426526D01*
X27213186Y15424037D01*
X27213377Y15421349D01*
X27218632Y15407617D01*
X27266251Y15312379D01*
X27270214Y15306083D01*
X27270972Y15304253D01*
X27272661Y15302195D01*
X27274083Y15299936D01*
X27275581Y15298637D01*
X27280299Y15292888D01*
X27327918Y15245268D01*
X27333667Y15240550D01*
X27334968Y15239050D01*
X27337227Y15237628D01*
X27339284Y15235940D01*
X27341111Y15235183D01*
X27347411Y15231218D01*
X27442649Y15183599D01*
X27456380Y15178344D01*
X27459069Y15178153D01*
X27461558Y15177122D01*
X27476190Y15175681D01*
X27666666Y15175681D01*
X27681298Y15177122D01*
X27683787Y15178154D01*
X27686475Y15178344D01*
X27686904Y15178509D01*
X27686904Y14917348D01*
X27688345Y14902716D01*
X27699544Y14875680D01*
X27720236Y14854988D01*
X27747272Y14843789D01*
X27776536Y14843789D01*
X27803572Y14854988D01*
X27824264Y14875680D01*
X27835463Y14902716D01*
X27836904Y14917348D01*
X27836904Y15774491D01*
X28163095Y15774491D01*
X28163095Y15250681D01*
X28164536Y15236049D01*
X28175735Y15209013D01*
X28196427Y15188321D01*
X28223463Y15177122D01*
X28252727Y15177122D01*
X28279763Y15188321D01*
X28283291Y15191850D01*
X28299792Y15183599D01*
X28313523Y15178344D01*
X28316212Y15178153D01*
X28318701Y15177122D01*
X28333333Y15175681D01*
X28571428Y15175681D01*
X28586060Y15177122D01*
X28588549Y15178154D01*
X28591237Y15178344D01*
X28604969Y15183599D01*
X28700207Y15231218D01*
X28702654Y15232759D01*
X28703808Y15233143D01*
X28705244Y15234389D01*
X28712650Y15239050D01*
X28718811Y15246155D01*
X28725916Y15252316D01*
X28730577Y15259722D01*
X28731823Y15261158D01*
X28732207Y15262312D01*
X28733748Y15264759D01*
X28781367Y15359998D01*
X28786622Y15373730D01*
X28786812Y15376418D01*
X28787844Y15378907D01*
X28789285Y15393539D01*
X28789285Y15488777D01*
X28787844Y15503409D01*
X28786813Y15505898D01*
X28786622Y15508587D01*
X28781367Y15522318D01*
X28733748Y15617556D01*
X28732207Y15620004D01*
X28731823Y15621157D01*
X28730577Y15622594D01*
X28725916Y15629999D01*
X28718811Y15636161D01*
X28712650Y15643265D01*
X28705244Y15647927D01*
X28703808Y15649172D01*
X28702654Y15649557D01*
X28700207Y15651097D01*
X28604969Y15698716D01*
X28591237Y15703971D01*
X28588549Y15704162D01*
X28586060Y15705193D01*
X28571428Y15706634D01*
X28351038Y15706634D01*
X28313095Y15725606D01*
X28313095Y15756786D01*
X28341615Y15813828D01*
X28398657Y15842348D01*
X28553723Y15842348D01*
X28633125Y15802647D01*
X28646856Y15797392D01*
X28676046Y15795318D01*
X28703808Y15804572D01*
X28725915Y15823745D01*
X28739003Y15849920D01*
X28741077Y15879110D01*
X28731823Y15906871D01*
X28712650Y15928979D01*
X28700207Y15936811D01*
X28604969Y15984430D01*
X28591237Y15989685D01*
X28588549Y15989876D01*
X28586060Y15990907D01*
X28571428Y15992348D01*
X28380952Y15992348D01*
X28366320Y15990907D01*
X28363831Y15989877D01*
X28361142Y15989685D01*
X28347411Y15984430D01*
X28252173Y15936811D01*
X28249725Y15935271D01*
X28248572Y15934886D01*
X28247135Y15933641D01*
X28239730Y15928979D01*
X28233568Y15921875D01*
X28226464Y15915713D01*
X28221802Y15908308D01*
X28220557Y15906871D01*
X28220172Y15905718D01*
X28218632Y15903270D01*
X28171013Y15808032D01*
X28165758Y15794300D01*
X28165567Y15791613D01*
X28164536Y15789123D01*
X28163095Y15774491D01*
X27836904Y15774491D01*
X27836904Y15917348D01*
X27835463Y15931980D01*
X27824264Y15959016D01*
X27803572Y15979708D01*
X27776536Y15990907D01*
X27747272Y15990907D01*
X27720236Y15979708D01*
X27716707Y15976180D01*
X27700207Y15984430D01*
X27686475Y15989685D01*
X27683787Y15989876D01*
X27681298Y15990907D01*
X27666666Y15992348D01*
X27476190Y15992348D01*
X27461558Y15990907D01*
X27459069Y15989877D01*
X27456380Y15989685D01*
X27442649Y15984430D01*
X27347411Y15936811D01*
X27341111Y15932847D01*
X27339284Y15932089D01*
X27337227Y15930401D01*
X27334968Y15928979D01*
X27333668Y15927481D01*
X27327919Y15922762D01*
X27280300Y15875143D01*
X27275581Y15869394D01*
X27274083Y15868094D01*
X27272661Y15865835D01*
X27270973Y15863778D01*
X27270215Y15861951D01*
X27266251Y15855651D01*
X27218632Y15760413D01*
X27213377Y15746681D01*
X27213186Y15743994D01*
X27212155Y15741504D01*
X27210714Y15726872D01*
X26932142Y15726872D01*
X26932142Y15842348D01*
X26999999Y15842348D01*
X27014631Y15843789D01*
X27041667Y15854988D01*
X27062359Y15875680D01*
X27073558Y15902716D01*
X27073558Y15931980D01*
X27062359Y15959016D01*
X27041667Y15979708D01*
X27014631Y15990907D01*
X26999999Y15992348D01*
X26932142Y15992348D01*
X26932142Y16250681D01*
X29067857Y16250681D01*
X29067857Y15250681D01*
X29069298Y15236049D01*
X29080497Y15209013D01*
X29101189Y15188321D01*
X29128225Y15177122D01*
X29157489Y15177122D01*
X29184525Y15188321D01*
X29188053Y15191850D01*
X29204554Y15183599D01*
X29218285Y15178344D01*
X29220974Y15178153D01*
X29223463Y15177122D01*
X29238095Y15175681D01*
X29428571Y15175681D01*
X29443203Y15177122D01*
X29445692Y15178154D01*
X29448380Y15178344D01*
X29462112Y15183599D01*
X29557350Y15231218D01*
X29563649Y15235183D01*
X29565477Y15235940D01*
X29567533Y15237628D01*
X29569793Y15239050D01*
X29571093Y15240550D01*
X29576843Y15245268D01*
X29624461Y15292887D01*
X29629179Y15298637D01*
X29630678Y15299936D01*
X29632099Y15302195D01*
X29633789Y15304253D01*
X29634546Y15306083D01*
X29638510Y15312379D01*
X29686129Y15407617D01*
X29691384Y15421348D01*
X29691575Y15424038D01*
X29692606Y15426526D01*
X29694047Y15441158D01*
X29694047Y15726872D01*
X29692606Y15741504D01*
X29691575Y15743993D01*
X29691384Y15746682D01*
X29686129Y15760413D01*
X29679090Y15774491D01*
X29972619Y15774491D01*
X29972619Y15250681D01*
X29974060Y15236049D01*
X29985259Y15209013D01*
X30005951Y15188321D01*
X30032987Y15177122D01*
X30062251Y15177122D01*
X30089287Y15188321D01*
X30092815Y15191850D01*
X30109316Y15183599D01*
X30123047Y15178344D01*
X30125736Y15178153D01*
X30128225Y15177122D01*
X30142857Y15175681D01*
X30380952Y15175681D01*
X30395584Y15177122D01*
X30398073Y15178154D01*
X30400761Y15178344D01*
X30414493Y15183599D01*
X30509731Y15231218D01*
X30512178Y15232759D01*
X30513332Y15233143D01*
X30514768Y15234389D01*
X30522174Y15239050D01*
X30528335Y15246155D01*
X30535440Y15252316D01*
X30540101Y15259722D01*
X30541347Y15261158D01*
X30541731Y15262312D01*
X30543272Y15264759D01*
X30590891Y15359998D01*
X30596146Y15373730D01*
X30596336Y15376418D01*
X30597368Y15378907D01*
X30598809Y15393539D01*
X30598809Y15488777D01*
X30597368Y15503409D01*
X30596337Y15505898D01*
X30596146Y15508587D01*
X30590891Y15522318D01*
X30543272Y15617556D01*
X30541731Y15620004D01*
X30541347Y15621157D01*
X30540101Y15622594D01*
X30535440Y15629999D01*
X30528335Y15636161D01*
X30522174Y15643265D01*
X30514768Y15647927D01*
X30513332Y15649172D01*
X30512178Y15649557D01*
X30509731Y15651097D01*
X30414493Y15698716D01*
X30400761Y15703971D01*
X30398073Y15704162D01*
X30395584Y15705193D01*
X30380952Y15706634D01*
X30160562Y15706634D01*
X30122619Y15725606D01*
X30122619Y15756786D01*
X30131471Y15774491D01*
X30829762Y15774491D01*
X30829762Y15679253D01*
X30831203Y15664621D01*
X30834014Y15657833D01*
X30835441Y15650624D01*
X30839560Y15644445D01*
X30842402Y15637585D01*
X30847597Y15632390D01*
X30851673Y15626276D01*
X30857843Y15622144D01*
X30863094Y15616893D01*
X30869882Y15614082D01*
X30875988Y15609992D01*
X30890053Y15605709D01*
X31305952Y15522531D01*
X31305952Y15411244D01*
X31277431Y15354202D01*
X31220390Y15325681D01*
X31065324Y15325681D01*
X30985922Y15365382D01*
X30972190Y15370637D01*
X30943000Y15372711D01*
X30915239Y15363457D01*
X30893131Y15344284D01*
X30880044Y15318109D01*
X30877970Y15288919D01*
X30887224Y15261158D01*
X30906397Y15239050D01*
X30918840Y15231218D01*
X31014078Y15183599D01*
X31027809Y15178344D01*
X31030498Y15178153D01*
X31032987Y15177122D01*
X31047619Y15175681D01*
X31238095Y15175681D01*
X31252727Y15177122D01*
X31255216Y15178154D01*
X31257904Y15178344D01*
X31271636Y15183599D01*
X31366874Y15231218D01*
X31369321Y15232759D01*
X31370475Y15233143D01*
X31371911Y15234389D01*
X31379317Y15239050D01*
X31385478Y15246155D01*
X31392583Y15252316D01*
X31397244Y15259722D01*
X31398490Y15261158D01*
X31398874Y15262312D01*
X31400415Y15264759D01*
X31448034Y15359998D01*
X31453289Y15373730D01*
X31453479Y15376418D01*
X31454511Y15378907D01*
X31455952Y15393539D01*
X31455952Y15774491D01*
X31454511Y15789123D01*
X31453480Y15791612D01*
X31453289Y15794301D01*
X31448034Y15808032D01*
X31400415Y15903270D01*
X31398874Y15905718D01*
X31398490Y15906871D01*
X31397244Y15908308D01*
X31392583Y15915713D01*
X31385478Y15921875D01*
X31379317Y15928979D01*
X31371911Y15933641D01*
X31370475Y15934886D01*
X31369321Y15935271D01*
X31366874Y15936811D01*
X31271636Y15984430D01*
X31257904Y15989685D01*
X31255216Y15989876D01*
X31252727Y15990907D01*
X31238095Y15992348D01*
X31047619Y15992348D01*
X31032987Y15990907D01*
X31030498Y15989877D01*
X31027809Y15989685D01*
X31014078Y15984430D01*
X30918840Y15936811D01*
X30916392Y15935271D01*
X30915239Y15934886D01*
X30913802Y15933641D01*
X30906397Y15928979D01*
X30900235Y15921875D01*
X30893131Y15915713D01*
X30888469Y15908308D01*
X30887224Y15906871D01*
X30886839Y15905718D01*
X30885299Y15903270D01*
X30837680Y15808032D01*
X30832425Y15794300D01*
X30832234Y15791613D01*
X30831203Y15789123D01*
X30829762Y15774491D01*
X30131471Y15774491D01*
X30151139Y15813828D01*
X30208181Y15842348D01*
X30363247Y15842348D01*
X30442649Y15802647D01*
X30456380Y15797392D01*
X30485570Y15795318D01*
X30513332Y15804572D01*
X30535439Y15823745D01*
X30548527Y15849920D01*
X30550601Y15879110D01*
X30541347Y15906871D01*
X30522174Y15928979D01*
X30509731Y15936811D01*
X30414493Y15984430D01*
X30400761Y15989685D01*
X30398073Y15989876D01*
X30395584Y15990907D01*
X30380952Y15992348D01*
X30190476Y15992348D01*
X30175844Y15990907D01*
X30173355Y15989877D01*
X30170666Y15989685D01*
X30156935Y15984430D01*
X30061697Y15936811D01*
X30059249Y15935271D01*
X30058096Y15934886D01*
X30056659Y15933641D01*
X30049254Y15928979D01*
X30043092Y15921875D01*
X30035988Y15915713D01*
X30031326Y15908308D01*
X30030081Y15906871D01*
X30029696Y15905718D01*
X30028156Y15903270D01*
X29980537Y15808032D01*
X29975282Y15794300D01*
X29975091Y15791613D01*
X29974060Y15789123D01*
X29972619Y15774491D01*
X29679090Y15774491D01*
X29638510Y15855651D01*
X29634545Y15861951D01*
X29633788Y15863778D01*
X29632099Y15865835D01*
X29630678Y15868094D01*
X29629179Y15869394D01*
X29624461Y15875143D01*
X29576842Y15922762D01*
X29571092Y15927481D01*
X29569793Y15928979D01*
X29567533Y15930401D01*
X29565477Y15932089D01*
X29563649Y15932847D01*
X29557350Y15936811D01*
X29462112Y15984430D01*
X29448380Y15989685D01*
X29445692Y15989876D01*
X29443203Y15990907D01*
X29428571Y15992348D01*
X29238095Y15992348D01*
X29223463Y15990907D01*
X29220974Y15989877D01*
X29218285Y15989685D01*
X29217857Y15989522D01*
X29217857Y16060205D01*
X31686905Y16060205D01*
X31686905Y15917348D01*
X31688346Y15902716D01*
X31689377Y15900227D01*
X31689568Y15897539D01*
X31694823Y15883807D01*
X31742442Y15788569D01*
X31746406Y15782270D01*
X31747164Y15780442D01*
X31748852Y15778386D01*
X31750274Y15776126D01*
X31751772Y15774827D01*
X31756491Y15769077D01*
X31804110Y15721458D01*
X31809859Y15716740D01*
X31811159Y15715241D01*
X31813418Y15713820D01*
X31815475Y15712131D01*
X31817302Y15711374D01*
X31823602Y15707409D01*
X31918840Y15659790D01*
X31932571Y15654535D01*
X31935260Y15654344D01*
X31937749Y15653313D01*
X31951266Y15651982D01*
X31700463Y15293691D01*
X31693252Y15280877D01*
X31686923Y15252306D01*
X31692008Y15223489D01*
X31707735Y15198810D01*
X31731709Y15182028D01*
X31760280Y15175699D01*
X31789097Y15180784D01*
X31813776Y15196511D01*
X31823347Y15207671D01*
X32134287Y15651872D01*
X32258333Y15651872D01*
X32258333Y15250681D01*
X32259774Y15236049D01*
X32270973Y15209013D01*
X32291665Y15188321D01*
X32318701Y15177122D01*
X32347965Y15177122D01*
X32375001Y15188321D01*
X32395693Y15209013D01*
X32406892Y15236049D01*
X32408333Y15250681D01*
X32408333Y15917348D01*
X32734524Y15917348D01*
X32734524Y15107824D01*
X32735965Y15093192D01*
X32736996Y15090703D01*
X32737187Y15088015D01*
X32742442Y15074283D01*
X32790061Y14979045D01*
X32794025Y14972746D01*
X32794783Y14970918D01*
X32796471Y14968862D01*
X32797893Y14966602D01*
X32799391Y14965303D01*
X32804110Y14959553D01*
X32851729Y14911934D01*
X32857478Y14907216D01*
X32858778Y14905717D01*
X32861037Y14904296D01*
X32863094Y14902607D01*
X32864921Y14901850D01*
X32871221Y14897885D01*
X32966459Y14850266D01*
X32980190Y14845011D01*
X32982879Y14844820D01*
X32985368Y14843789D01*
X33000000Y14842348D01*
X33142857Y14842348D01*
X33157489Y14843789D01*
X33159978Y14844821D01*
X33162666Y14845011D01*
X33176398Y14850266D01*
X33271636Y14897885D01*
X33284079Y14905717D01*
X33303252Y14927825D01*
X33312506Y14955586D01*
X33310432Y14984776D01*
X33297344Y15010951D01*
X33275237Y15030124D01*
X33247475Y15039378D01*
X33218285Y15037304D01*
X33204554Y15032049D01*
X33125152Y14992348D01*
X33017705Y14992348D01*
X32949189Y15026606D01*
X32918782Y15057013D01*
X32884524Y15125529D01*
X32884524Y15178508D01*
X32884952Y15178344D01*
X32887641Y15178153D01*
X32890130Y15177122D01*
X32904762Y15175681D01*
X33095238Y15175681D01*
X33109870Y15177122D01*
X33112359Y15178154D01*
X33115047Y15178344D01*
X33128779Y15183599D01*
X33224017Y15231218D01*
X33230316Y15235183D01*
X33232144Y15235940D01*
X33234200Y15237628D01*
X33236460Y15239050D01*
X33237760Y15240550D01*
X33243510Y15245268D01*
X33291128Y15292887D01*
X33295846Y15298637D01*
X33297345Y15299936D01*
X33298766Y15302195D01*
X33300456Y15304253D01*
X33301213Y15306083D01*
X33305177Y15312379D01*
X33352796Y15407617D01*
X33358051Y15421348D01*
X33358242Y15424038D01*
X33359273Y15426526D01*
X33360714Y15441158D01*
X33360714Y15726872D01*
X33359273Y15741504D01*
X33358242Y15743993D01*
X33358051Y15746682D01*
X33352796Y15760413D01*
X33345757Y15774491D01*
X33639286Y15774491D01*
X33639286Y15250681D01*
X33640727Y15236049D01*
X33651926Y15209013D01*
X33672618Y15188321D01*
X33699654Y15177122D01*
X33728918Y15177122D01*
X33755954Y15188321D01*
X33776646Y15209013D01*
X33787845Y15236049D01*
X33789286Y15250681D01*
X33789286Y15756786D01*
X33817806Y15813828D01*
X33874848Y15842348D01*
X33982295Y15842348D01*
X34050811Y15808090D01*
X34067857Y15791044D01*
X34067857Y15250681D01*
X34069298Y15236049D01*
X34080497Y15209013D01*
X34101189Y15188321D01*
X34128225Y15177122D01*
X34157489Y15177122D01*
X34184525Y15188321D01*
X34205217Y15209013D01*
X34216416Y15236049D01*
X34217857Y15250681D01*
X34217857Y15917348D01*
X34216416Y15931980D01*
X34205217Y15959016D01*
X34184525Y15979708D01*
X34157489Y15990907D01*
X34128225Y15990907D01*
X34101189Y15979708D01*
X34081787Y15960307D01*
X34033541Y15984430D01*
X34019809Y15989685D01*
X34017121Y15989876D01*
X34014632Y15990907D01*
X34000000Y15992348D01*
X33857143Y15992348D01*
X33842511Y15990907D01*
X33840022Y15989877D01*
X33837333Y15989685D01*
X33823602Y15984430D01*
X33728364Y15936811D01*
X33725916Y15935271D01*
X33724763Y15934886D01*
X33723326Y15933641D01*
X33715921Y15928979D01*
X33709759Y15921875D01*
X33702655Y15915713D01*
X33697993Y15908308D01*
X33696748Y15906871D01*
X33696363Y15905718D01*
X33694823Y15903270D01*
X33647204Y15808032D01*
X33641949Y15794300D01*
X33641758Y15791613D01*
X33640727Y15789123D01*
X33639286Y15774491D01*
X33345757Y15774491D01*
X33305177Y15855651D01*
X33301212Y15861951D01*
X33300455Y15863778D01*
X33298766Y15865835D01*
X33297345Y15868094D01*
X33295846Y15869394D01*
X33291128Y15875143D01*
X33243509Y15922762D01*
X33237759Y15927481D01*
X33236460Y15928979D01*
X33234200Y15930401D01*
X33232144Y15932089D01*
X33230316Y15932847D01*
X33224017Y15936811D01*
X33128779Y15984430D01*
X33115047Y15989685D01*
X33112359Y15989876D01*
X33109870Y15990907D01*
X33095238Y15992348D01*
X32904762Y15992348D01*
X32890130Y15990907D01*
X32887641Y15989877D01*
X32884952Y15989685D01*
X32871221Y15984430D01*
X32854720Y15976180D01*
X32851192Y15979708D01*
X32824156Y15990907D01*
X32794892Y15990907D01*
X32767856Y15979708D01*
X32747164Y15959016D01*
X32735965Y15931980D01*
X32734524Y15917348D01*
X32408333Y15917348D01*
X32408333Y16250681D01*
X34544047Y16250681D01*
X34544047Y15250681D01*
X34545488Y15236049D01*
X34556687Y15209013D01*
X34577379Y15188321D01*
X34604415Y15177122D01*
X34633679Y15177122D01*
X34660715Y15188321D01*
X34681407Y15209013D01*
X34692606Y15236049D01*
X34694047Y15250681D01*
X34694047Y16250681D01*
X34692606Y16265313D01*
X34681407Y16292349D01*
X34660715Y16313041D01*
X34633679Y16324240D01*
X34604415Y16324240D01*
X34577379Y16313041D01*
X34556687Y16292349D01*
X34545488Y16265313D01*
X34544047Y16250681D01*
X32408333Y16250681D01*
X32406892Y16265313D01*
X32395693Y16292349D01*
X32375001Y16313041D01*
X32347965Y16324240D01*
X32333333Y16325681D01*
X31952381Y16325681D01*
X31937749Y16324240D01*
X31935260Y16323210D01*
X31932571Y16323018D01*
X31918840Y16317763D01*
X31823602Y16270144D01*
X31817302Y16266180D01*
X31815475Y16265422D01*
X31813418Y16263734D01*
X31811159Y16262312D01*
X31809859Y16260814D01*
X31804110Y16256095D01*
X31756491Y16208476D01*
X31751772Y16202727D01*
X31750274Y16201427D01*
X31748852Y16199168D01*
X31747164Y16197111D01*
X31746406Y16195284D01*
X31742442Y16188984D01*
X31694823Y16093746D01*
X31689568Y16080014D01*
X31689377Y16077327D01*
X31688346Y16074837D01*
X31686905Y16060205D01*
X29217857Y16060205D01*
X29217857Y16250681D01*
X29216416Y16265313D01*
X29205217Y16292349D01*
X29184635Y16312931D01*
X30974060Y16312931D01*
X30974060Y16283669D01*
X30985259Y16256632D01*
X30994586Y16245267D01*
X31137443Y16102410D01*
X31148808Y16093083D01*
X31175844Y16081884D01*
X31205107Y16081884D01*
X31232143Y16093083D01*
X31252836Y16113776D01*
X31264035Y16140812D01*
X31264035Y16170075D01*
X31252836Y16197111D01*
X31243509Y16208476D01*
X31100652Y16351333D01*
X31089287Y16360660D01*
X31062250Y16371859D01*
X31032988Y16371859D01*
X31005951Y16360660D01*
X30985259Y16339968D01*
X30974060Y16312931D01*
X29184635Y16312931D01*
X29184525Y16313041D01*
X29157489Y16324240D01*
X29128225Y16324240D01*
X29101189Y16313041D01*
X29080497Y16292349D01*
X29069298Y16265313D01*
X29067857Y16250681D01*
X26932142Y16250681D01*
X26930701Y16265313D01*
X26919502Y16292349D01*
X26898810Y16313041D01*
X26871774Y16324240D01*
X26842510Y16324240D01*
X26815474Y16313041D01*
X26794782Y16292349D01*
X26783583Y16265313D01*
X26782142Y16250681D01*
X26782142Y15992348D01*
X26619047Y15992348D01*
X26604415Y15990907D01*
X26577379Y15979708D01*
X26556687Y15959016D01*
X26545488Y15931980D01*
X23598808Y15931980D01*
X23598808Y16250681D01*
X23597367Y16265313D01*
X23586168Y16292349D01*
X23565476Y16313041D01*
X23538440Y16324240D01*
X23509176Y16324240D01*
X23482140Y16313041D01*
X23461448Y16292349D01*
X23450249Y16265313D01*
X23448808Y16250681D01*
X23448808Y15458863D01*
X23414549Y15390347D01*
X23384142Y15359939D01*
X23315627Y15325681D01*
X23160561Y15325681D01*
X23092045Y15359939D01*
X23061638Y15390347D01*
X23027380Y15458863D01*
X23027380Y16250681D01*
X23025939Y16265313D01*
X23014740Y16292349D01*
X22994048Y16313041D01*
X22967012Y16324240D01*
X22937748Y16324240D01*
X22910712Y16313041D01*
X22890020Y16292349D01*
X22878821Y16265313D01*
X22877380Y16250681D01*
X22551189Y16250681D01*
X22549748Y16265313D01*
X22538549Y16292349D01*
X22517857Y16313041D01*
X22490821Y16324240D01*
X22461557Y16324240D01*
X22434521Y16313041D01*
X22413829Y16292349D01*
X22402630Y16265313D01*
X22401189Y16250681D01*
X22401189Y15325681D01*
X21999999Y15325681D01*
X21985367Y15324240D01*
X21958331Y15313041D01*
X21937639Y15292349D01*
X21926440Y15265313D01*
X21734024Y15265313D01*
X21781366Y15359998D01*
X21786621Y15373730D01*
X21786811Y15376418D01*
X21787843Y15378907D01*
X21789284Y15393539D01*
X21789284Y15488777D01*
X21787843Y15503409D01*
X21786812Y15505898D01*
X21786621Y15508587D01*
X21781366Y15522318D01*
X21733747Y15617556D01*
X21732206Y15620004D01*
X21731822Y15621157D01*
X21730576Y15622594D01*
X21725915Y15629999D01*
X21718810Y15636161D01*
X21712649Y15643265D01*
X21705243Y15647927D01*
X21703807Y15649172D01*
X21702653Y15649557D01*
X21700206Y15651097D01*
X21604968Y15698716D01*
X21591236Y15703971D01*
X21588548Y15704162D01*
X21586059Y15705193D01*
X21571427Y15706634D01*
X21351037Y15706634D01*
X21313094Y15725606D01*
X21313094Y15756786D01*
X21341614Y15813828D01*
X21398656Y15842348D01*
X21553722Y15842348D01*
X21633124Y15802647D01*
X21646855Y15797392D01*
X21676045Y15795318D01*
X21703807Y15804572D01*
X21725914Y15823745D01*
X21739002Y15849920D01*
X21741076Y15879110D01*
X21731822Y15906871D01*
X21712649Y15928979D01*
X21700206Y15936811D01*
X21604968Y15984430D01*
X21591236Y15989685D01*
X21588548Y15989876D01*
X21586059Y15990907D01*
X21571427Y15992348D01*
X21380951Y15992348D01*
X21366319Y15990907D01*
X21363830Y15989877D01*
X21361141Y15989685D01*
X21347410Y15984430D01*
X21252172Y15936811D01*
X21249724Y15935271D01*
X21248571Y15934886D01*
X21247134Y15933641D01*
X21239729Y15928979D01*
X21233567Y15921875D01*
X21226463Y15915713D01*
X21221801Y15908308D01*
X21220556Y15906871D01*
X21220171Y15905718D01*
X21218631Y15903270D01*
X21171012Y15808032D01*
X21165757Y15794300D01*
X21165566Y15791613D01*
X21164535Y15789123D01*
X21163094Y15774491D01*
X20885761Y15774491D01*
X20927772Y15892123D01*
X20931336Y15906387D01*
X20929882Y15935614D01*
X20917355Y15962060D01*
X20895661Y15981700D01*
X20868102Y15991543D01*
X20838874Y15990089D01*
X20812428Y15977562D01*
X20792789Y15955868D01*
X20786510Y15942573D01*
X20619046Y15473674D01*
X20451582Y15942573D01*
X20445303Y15955868D01*
X20425664Y15977562D01*
X20399218Y15990089D01*
X20369990Y15991543D01*
X20342431Y15981700D01*
X20320737Y15962061D01*
X20308210Y15935615D01*
X20306756Y15906387D01*
X20065316Y15906387D01*
X20065155Y15906871D01*
X20045982Y15928979D01*
X20033539Y15936811D01*
X19938301Y15984430D01*
X19924569Y15989685D01*
X19921881Y15989876D01*
X19919392Y15990907D01*
X19904760Y15992348D01*
X19714284Y15992348D01*
X19699652Y15990907D01*
X19697163Y15989877D01*
X19694474Y15989685D01*
X19680743Y15984430D01*
X19585505Y15936811D01*
X19583057Y15935271D01*
X19581904Y15934886D01*
X19580467Y15933641D01*
X19573062Y15928979D01*
X19566900Y15921875D01*
X19559796Y15915713D01*
X19555134Y15908308D01*
X19553889Y15906871D01*
X19553504Y15905718D01*
X19551964Y15903270D01*
X19504345Y15808032D01*
X19499090Y15794300D01*
X19498899Y15791613D01*
X19497868Y15789123D01*
X19496427Y15774491D01*
X19170236Y15774491D01*
X19170236Y16250681D01*
X19168795Y16265313D01*
X19157596Y16292349D01*
X19136904Y16313041D01*
X19109868Y16324240D01*
X19080604Y16324240D01*
X19053568Y16313041D01*
X19032876Y16292349D01*
X19021677Y16265313D01*
X19020236Y16250681D01*
X19020236Y15411244D01*
X18991715Y15354202D01*
X18918838Y15317763D01*
X18906395Y15309931D01*
X18887222Y15287823D01*
X18877968Y15260062D01*
X15734492Y15260062D01*
X15814936Y15340507D01*
X15819653Y15346256D01*
X15821152Y15347555D01*
X15822573Y15349814D01*
X15824263Y15351872D01*
X15825020Y15353702D01*
X15828984Y15359998D01*
X15876603Y15455236D01*
X15877012Y15456306D01*
X15877335Y15456741D01*
X15879527Y15462878D01*
X15881858Y15468967D01*
X15881896Y15469508D01*
X15882282Y15470587D01*
X15926202Y15646266D01*
X16974058Y15646266D01*
X16974058Y15617002D01*
X16985257Y15589966D01*
X17005949Y15569274D01*
X17032985Y15558075D01*
X17047617Y15556634D01*
X17809521Y15556634D01*
X17824153Y15558075D01*
X17851189Y15569274D01*
X17871881Y15589966D01*
X17883080Y15617002D01*
X17883080Y15646266D01*
X17871881Y15673302D01*
X17851189Y15693994D01*
X17824153Y15705193D01*
X17809521Y15706634D01*
X17047617Y15706634D01*
X17032985Y15705193D01*
X17005949Y15693994D01*
X16985257Y15673302D01*
X16974058Y15646266D01*
X15926202Y15646266D01*
X15929901Y15661063D01*
X15930276Y15663600D01*
X15930699Y15664621D01*
X15931241Y15670134D01*
X15932051Y15675607D01*
X15931888Y15676700D01*
X15932140Y15679253D01*
X15932140Y15822110D01*
X15931888Y15824664D01*
X15932051Y15825756D01*
X15931241Y15831230D01*
X15930699Y15836742D01*
X15930276Y15837764D01*
X15929901Y15840300D01*
X15882282Y16030776D01*
X15881896Y16031856D01*
X15881858Y16032396D01*
X15879527Y16038486D01*
X15877335Y16044622D01*
X15877012Y16045058D01*
X15876603Y16046127D01*
X15828984Y16141365D01*
X15825021Y16147660D01*
X15824263Y16149492D01*
X15822571Y16151554D01*
X15821152Y16153808D01*
X15819655Y16155107D01*
X15814935Y16160857D01*
X15719697Y16256095D01*
X15708332Y16265422D01*
X15705841Y16266454D01*
X15703806Y16268219D01*
X15690381Y16274213D01*
X15547524Y16321832D01*
X15540270Y16323482D01*
X15538439Y16324240D01*
X15535784Y16324502D01*
X15533187Y16325092D01*
X15531212Y16324952D01*
X15523807Y16325681D01*
X15428569Y16325681D01*
X15421162Y16324952D01*
X15419188Y16325092D01*
X15416590Y16324502D01*
X15413937Y16324240D01*
X15412106Y16323482D01*
X15404851Y16321832D01*
X15261995Y16274213D01*
X15248569Y16268219D01*
X15246532Y16266453D01*
X15244044Y16265422D01*
X15232679Y16256095D01*
X15185060Y16208476D01*
X15175733Y16197111D01*
X15164534Y16170074D01*
X14884521Y16170074D01*
X14884521Y16250681D01*
X14883080Y16265313D01*
X14871881Y16292349D01*
X14851189Y16313041D01*
X14824153Y16324240D01*
X14794889Y16324240D01*
X14767853Y16313041D01*
X14747161Y16292349D01*
X14735962Y16265313D01*
X14734521Y16250681D01*
X14408331Y16250681D01*
X14406890Y16265313D01*
X14395691Y16292349D01*
X14374999Y16313041D01*
X14347963Y16324240D01*
X14333331Y16325681D01*
X13952379Y16325681D01*
X13937747Y16324240D01*
X13935258Y16323210D01*
X13932569Y16323018D01*
X13918838Y16317763D01*
X13823600Y16270144D01*
X13817300Y16266180D01*
X13815473Y16265422D01*
X13813416Y16263734D01*
X13811157Y16262312D01*
X13809857Y16260814D01*
X13804108Y16256095D01*
X13756489Y16208476D01*
X13751770Y16202727D01*
X13750272Y16201427D01*
X13748850Y16199168D01*
X13747162Y16197111D01*
X13746404Y16195284D01*
X13742440Y16188984D01*
X13694821Y16093746D01*
X13689566Y16080014D01*
X13689375Y16077327D01*
X13688344Y16074837D01*
X13686903Y16060205D01*
X13408331Y16060205D01*
X13408331Y16250681D01*
X13406890Y16265313D01*
X13395691Y16292349D01*
X13374999Y16313041D01*
X13347963Y16324240D01*
X13333331Y16325681D01*
X12952379Y16325681D01*
X12937747Y16324240D01*
X12935258Y16323210D01*
X12932569Y16323018D01*
X12918838Y16317763D01*
X12823600Y16270144D01*
X12817300Y16266180D01*
X12815473Y16265422D01*
X12813416Y16263734D01*
X12811157Y16262312D01*
X12809857Y16260814D01*
X12804108Y16256095D01*
X12756489Y16208476D01*
X12751770Y16202727D01*
X12750272Y16201427D01*
X12748850Y16199168D01*
X12747162Y16197111D01*
X12746404Y16195284D01*
X12742440Y16188984D01*
X12694821Y16093746D01*
X12689566Y16080014D01*
X12689375Y16077327D01*
X12688344Y16074837D01*
X12686903Y16060205D01*
X12408331Y16060205D01*
X12408331Y16250681D01*
X12406890Y16265313D01*
X12395691Y16292349D01*
X12374999Y16313041D01*
X12347963Y16324240D01*
X12318699Y16324240D01*
X12291663Y16313041D01*
X12270971Y16292349D01*
X12259772Y16265313D01*
X12258331Y16250681D01*
X11867969Y16250681D01*
X11862555Y16256095D01*
X11856805Y16260814D01*
X11855506Y16262312D01*
X11853246Y16263734D01*
X11851190Y16265422D01*
X11849362Y16266180D01*
X11843063Y16270144D01*
X11747825Y16317763D01*
X11734093Y16323018D01*
X11731405Y16323209D01*
X11728916Y16324240D01*
X11714284Y16325681D01*
X11476189Y16325681D01*
X11468782Y16324952D01*
X11466808Y16325092D01*
X11464210Y16324502D01*
X11461557Y16324240D01*
X11459726Y16323482D01*
X11452471Y16321832D01*
X11309615Y16274213D01*
X11296189Y16268219D01*
X11274082Y16249045D01*
X11260996Y16222872D01*
X11258921Y16193682D01*
X11268175Y16165919D01*
X11287349Y16143812D01*
X11313522Y16130726D01*
X11342712Y16128651D01*
X11357049Y16131911D01*
X11488359Y16175681D01*
X11696579Y16175681D01*
X11765095Y16141423D01*
X11795502Y16111016D01*
X11829760Y16042500D01*
X11829760Y15982672D01*
X11795502Y15914156D01*
X11765095Y15883749D01*
X11688108Y15845256D01*
X11505618Y15799633D01*
X11504538Y15799248D01*
X11503998Y15799209D01*
X11497908Y15796879D01*
X11491772Y15794686D01*
X11491336Y15794364D01*
X11490267Y15793954D01*
X11395029Y15746335D01*
X11388729Y15742371D01*
X11386902Y15741613D01*
X11384845Y15739925D01*
X11382586Y15738503D01*
X11381286Y15737005D01*
X11375537Y15732286D01*
X11327918Y15684667D01*
X11323199Y15678918D01*
X11321701Y15677618D01*
X11320279Y15675359D01*
X11318591Y15673302D01*
X11317833Y15671475D01*
X11313869Y15665175D01*
X11266250Y15569937D01*
X11260995Y15556205D01*
X11260804Y15553518D01*
X11259773Y15551028D01*
X11258332Y15536396D01*
X11147221Y15536396D01*
X11147221Y16482970D01*
X34805158Y16482970D01*
X34805158Y14731237D01*
G37*
X41796785Y6152681D02*
X41796785Y7152681D01*
X41796785Y7152681D02*
X41415833Y7152681D01*
X41415833Y7152681D02*
X41320595Y7105062D01*
X41320595Y7105062D02*
X41272976Y7057443D01*
X41272976Y7057443D02*
X41225357Y6962205D01*
X41225357Y6962205D02*
X41225357Y6819348D01*
X41225357Y6819348D02*
X41272976Y6724110D01*
X41272976Y6724110D02*
X41320595Y6676491D01*
X41320595Y6676491D02*
X41415833Y6628872D01*
X41415833Y6628872D02*
X41796785Y6628872D01*
X40844404Y6200300D02*
X40701547Y6152681D01*
X40701547Y6152681D02*
X40463452Y6152681D01*
X40463452Y6152681D02*
X40368214Y6200300D01*
X40368214Y6200300D02*
X40320595Y6247920D01*
X40320595Y6247920D02*
X40272976Y6343158D01*
X40272976Y6343158D02*
X40272976Y6438396D01*
X40272976Y6438396D02*
X40320595Y6533634D01*
X40320595Y6533634D02*
X40368214Y6581253D01*
X40368214Y6581253D02*
X40463452Y6628872D01*
X40463452Y6628872D02*
X40653928Y6676491D01*
X40653928Y6676491D02*
X40749166Y6724110D01*
X40749166Y6724110D02*
X40796785Y6771729D01*
X40796785Y6771729D02*
X40844404Y6866967D01*
X40844404Y6866967D02*
X40844404Y6962205D01*
X40844404Y6962205D02*
X40796785Y7057443D01*
X40796785Y7057443D02*
X40749166Y7105062D01*
X40749166Y7105062D02*
X40653928Y7152681D01*
X40653928Y7152681D02*
X40415833Y7152681D01*
X40415833Y7152681D02*
X40272976Y7105062D01*
X39320595Y6152681D02*
X39892023Y6152681D01*
X39606309Y6152681D02*
X39606309Y7152681D01*
X39606309Y7152681D02*
X39701547Y7009824D01*
X39701547Y7009824D02*
X39796785Y6914586D01*
X39796785Y6914586D02*
X39892023Y6866967D01*
D11*
%TO.C,PS1*%
X43507500Y5572500D02*
X43507500Y-3627500D01*
X43507500Y5572500D02*
X21707500Y5572500D01*
X43507500Y-3627500D02*
X21707500Y-3627500D01*
X21707500Y-3627500D02*
X21707500Y5572500D01*
D12*
X44507500Y2372500D02*
G75*
G02*
X44307500Y2372500I-100000J0D01*
G01*
X44307500Y2372500D02*
G75*
G02*
X44507500Y2372500I100000J0D01*
G01*
%TD*%
%LPC*%
D13*
%TO.C,PS1*%
X41507500Y2372500D03*
D14*
X38967500Y2372500D03*
X36427500Y2372500D03*
X31347500Y2372500D03*
X28807500Y2372500D03*
X26267500Y2372500D03*
X23727500Y2372500D03*
%TD*%
D15*
%TO.C,J7*%
X41000000Y18370500D03*
X26000000Y18370500D03*
D16*
X28500000Y13370500D03*
D17*
X33500000Y13370500D03*
X38500000Y13370500D03*
X31000000Y10870500D03*
X36000000Y10870500D03*
X26000000Y10870500D03*
X41000000Y10870500D03*
X36000000Y23370500D03*
X31000000Y23370500D03*
X33500000Y8370500D03*
%TD*%
D15*
%TO.C,J6*%
X20094500Y18370500D03*
X5094500Y18370500D03*
D16*
X7594500Y13370500D03*
D17*
X12594500Y13370500D03*
X17594500Y13370500D03*
X10094500Y10870500D03*
X15094500Y10870500D03*
X5094500Y10870500D03*
X20094500Y10870500D03*
X15094500Y23370500D03*
X10094500Y23370500D03*
X12594500Y8370500D03*
%TD*%
D18*
%TO.C,J1*%
X11500000Y5120500D03*
D19*
X14040000Y5120500D03*
X16580000Y5120500D03*
X19120000Y5120500D03*
X21660000Y5120500D03*
X24200000Y5120500D03*
X26740000Y5120500D03*
X29280000Y5120500D03*
X31820000Y5120500D03*
X34360000Y5120500D03*
%TD*%
%LPD*%
M02*
