M48
; DRILL file {KiCad 9.0.1} date 2025-06-09T14:27:30-0400
; FORMAT={-:-/ absolute / inch / decimal}
; #@! TF.CreationDate,2025-06-09T14:27:30-04:00
; #@! TF.GenerationSoftware,Kicad,Pcbnew,9.0.1
; #@! TF.FileFunction,Plated,1,4,PTH
FMAT,2
INCH
; #@! TA.AperFunction,Plated,PTH,ViaDrill
T1C0.0157
; #@! TA.AperFunction,Plated,PTH,ComponentDrill
T2C0.0394
; #@! TA.AperFunction,Plated,PTH,ComponentDrill
T3C0.0512
%
G90
G05
T1
X0.9055Y0.4083
X1.3189Y0.1327
X1.3386Y0.0736
T2
X0.4528Y0.2016
X0.5528Y0.2016
X0.6528Y0.2016
X0.7528Y0.2016
X0.8528Y0.2016
X0.9342Y0.0934
X0.9528Y0.2016
X1.0342Y0.0934
X1.0528Y0.2016
X1.1342Y0.0934
X1.1528Y0.2016
X1.2342Y0.0934
X1.2528Y0.2016
X1.3528Y0.2016
X1.4342Y0.0934
X1.5342Y0.0934
X1.6342Y0.0934
T3
X0.2006Y0.428
X0.299Y0.5264
X0.3974Y0.9201
X0.3974Y0.428
X0.4958Y0.5264
X0.4958Y0.3295
X0.5943Y0.9201
X0.5943Y0.428
X0.6927Y0.5264
X0.7911Y0.428
X1.0236Y0.428
X1.122Y0.5264
X1.2205Y0.9201
X1.2205Y0.428
X1.3189Y0.5264
X1.3189Y0.3295
X1.4173Y0.9201
X1.4173Y0.428
X1.5157Y0.5264
X1.6142Y0.428
M30
