%TF.GenerationSoftware,KiCad,Pcbnew,9.0.1*%
%TF.CreationDate,2025-06-10T11:43:45-04:00*%
%TF.ProjectId,Ceinture_respiration_Main,4365696e-7475-4726-955f-726573706972,1.1*%
%TF.SameCoordinates,Original*%
%TF.FileFunction,Profile,NP*%
%FSLAX46Y46*%
G04 Gerber Fmt 4.6, Leading zero omitted, Abs format (unit mm)*
G04 Created by KiCad (PCBNEW 9.0.1) date 2025-06-10 11:43:45*
%MOMM*%
%LPD*%
G01*
G04 APERTURE LIST*
%TA.AperFunction,Profile*%
%ADD10C,0.100000*%
%TD*%
%TA.AperFunction,Profile*%
%ADD11C,0.200000*%
%TD*%
%TA.AperFunction,Profile*%
%ADD12C,0.120000*%
%TD*%
G04 APERTURE END LIST*
D10*
X40893750Y-26042000D02*
X45000000Y-26042000D01*
D11*
X0Y-4414214D02*
G75*
G02*
X292907Y-3707121I999900J14D01*
G01*
X40585786Y0D02*
G75*
G02*
X41292900Y-292886I14J-1000000D01*
G01*
X4414214Y0D02*
X40585786Y0D01*
X2414214Y-43000000D02*
X42585786Y-43000000D01*
D10*
X45000000Y-38234000D02*
X45000000Y-40585786D01*
D11*
X44707107Y-41292893D02*
X43292893Y-42707107D01*
X3707107Y-292893D02*
G75*
G02*
X4414214Y-39I707093J-707207D01*
G01*
X292893Y-41292893D02*
G75*
G02*
X39Y-40585786I707207J707093D01*
G01*
X44707107Y-3707107D02*
G75*
G02*
X44999990Y-4414214I-707107J-707093D01*
G01*
X3707107Y-292893D02*
X292893Y-3707107D01*
D10*
X34250000Y-29250000D02*
G75*
G02*
X31750000Y-29250000I-1250000J0D01*
G01*
X31750000Y-29250000D02*
G75*
G02*
X34250000Y-29250000I1250000J0D01*
G01*
X40893750Y-38234000D02*
X45000000Y-38234000D01*
D11*
X44707107Y-3707107D02*
X41292893Y-292893D01*
X45000000Y-26042000D02*
X45000000Y-4414214D01*
X2414214Y-43000000D02*
G75*
G02*
X1707100Y-42707114I-14J1000000D01*
G01*
X0Y-40585786D02*
X0Y-4414214D01*
D10*
X31000000Y-29250000D02*
G75*
G02*
X28500000Y-29250000I-1250000J0D01*
G01*
X28500000Y-29250000D02*
G75*
G02*
X31000000Y-29250000I1250000J0D01*
G01*
D11*
X43292893Y-42707107D02*
G75*
G02*
X42585786Y-42999961I-707093J707207D01*
G01*
X292893Y-41292893D02*
X1707107Y-42707107D01*
X45000000Y-40585786D02*
G75*
G02*
X44707093Y-41292879I-999900J-14D01*
G01*
D12*
%TO.C,S1*%
X39877750Y-26550000D02*
X40004750Y-26550000D01*
X39877750Y-27693000D02*
X39877750Y-26550000D01*
X39877750Y-36583000D02*
X39877750Y-37599000D01*
X39877750Y-37599000D02*
X40004750Y-37599000D01*
X40004750Y-26550000D02*
X40004750Y-26042000D01*
X40004750Y-38234000D02*
X40004750Y-37599000D01*
X40004750Y-38234000D02*
X40893750Y-38234000D01*
X40512750Y-27693000D02*
X39877750Y-27693000D01*
X40512750Y-36583000D02*
X39877750Y-36583000D01*
X40512750Y-36583000D02*
X40512750Y-27693000D01*
X40893750Y-26042000D02*
X40004750Y-26042000D01*
%TD*%
M02*
