M48
; DRILL file {KiCad 9.0.1} date 2025-06-10T11:43:45-0400
; FORMAT={-:-/ absolute / inch / decimal}
; #@! TF.CreationDate,2025-06-10T11:43:45-04:00
; #@! TF.GenerationSoftware,Kicad,Pcbnew,9.0.1
; #@! TF.FileFunction,Plated,1,4,PTH
FMAT,2
INCH
; #@! TA.AperFunction,Plated,PTH,ViaDrill
T1C0.0157
; #@! TA.AperFunction,Plated,PTH,ComponentDrill
T2C0.0354
; #@! TA.AperFunction,Plated,PTH,ComponentDrill
T3C0.0394
%
G90
G05
T1
X0.02Y-0.5
X0.02Y-0.96
X0.03Y-0.2
X0.03Y-0.28
X0.03Y-0.37
X0.03Y-0.44
X0.03Y-0.73
X0.03Y-1.15
X0.03Y-1.28
X0.03Y-1.51
X0.04Y-0.61
X0.04Y-1.39
X0.06Y-0.84
X0.09Y-0.42
X0.1Y-0.26
X0.14Y-0.5253
X0.16Y-0.4738
X0.18Y-0.5338
X0.19Y-0.03
X0.21Y-1.2
X0.22Y-0.4453
X0.22Y-0.5591
X0.22Y-0.82
X0.24Y-0.8853
X0.25Y-1.08
X0.25Y-1.6
X0.26Y-0.77
X0.26Y-1.13
X0.2638Y-1.4173
X0.27Y-1.17
X0.2802Y-0.4168
X0.2844Y-1.6191
X0.29Y-0.04
X0.3142Y-0.7053
X0.32Y-0.8
X0.34Y-1.1
X0.36Y-0.02
X0.36Y-0.6
X0.37Y-1.54
X0.39Y-0.78
X0.39Y-1.5
X0.42Y-1.58
X0.44Y-0.3653
X0.44Y-0.863
X0.4528Y-0.2156
X0.46Y-1.67
X0.51Y-1.18
X0.5118Y-0.3543
X0.5118Y-0.5906
X0.5118Y-1.063
X0.54Y-1.67
X0.5699Y-0.8053
X0.6Y-1.1453
X0.6142Y-0.3253
X0.6142Y-0.9253
X0.64Y-1.65
X0.646Y-1.1418
X0.66Y-0.77
X0.6811Y-1.2205
X0.6906Y-1.0629
X0.6938Y-0.4168
X0.7116Y-1.1644
X0.7142Y-0.6653
X0.72Y-1.66
X0.7205Y-1.2303
X0.74Y-1.61
X0.7427Y-0.7453
X0.7427Y-0.9053
X0.76Y-0.4938
X0.7638Y-1.2283
X0.78Y-1.54
X0.7874Y-1.1614
X0.7874Y-1.378
X0.7874Y-1.4644
X0.7905Y-1.0216
X0.8Y-0.9173
X0.82Y-0.3597
X0.82Y-0.8053
X0.8262Y-0.7453
X0.83Y-1.65
X0.8386Y-1.067
X0.84Y-1.59
X0.85Y-1.51
X0.86Y-0.5168
X0.8968Y-1.1418
X0.9Y-0.935
X0.91Y-1.55
X0.92Y-1.63
X0.964Y-0.4168
X0.97Y-1.53
X0.98Y-1.67
X0.998Y-1.067
X1.0076Y-1.2469
X1.0142Y-0.998
X1.02Y-0.3453
X1.02Y-0.74
X1.03Y-0.66
X1.04Y-0.1253
X1.04Y-1.65
X1.0522Y-1.3041
X1.0531Y-0.935
X1.0569Y-1.1888
X1.06Y-0.78
X1.065Y-1.376
X1.07Y-1.67
X1.1024Y-1.1417
X1.106Y-0.9993
X1.11Y-1.2
X1.13Y-1.53
X1.15Y-0.76
X1.17Y-1.22
X1.18Y-0.8
X1.18Y-1.65
X1.19Y-0.64
X1.2106Y-1.0728
X1.214Y-1.0073
X1.22Y-0.4168
X1.2224Y-1.51
X1.2224Y-1.5709
X1.23Y-1.21
X1.24Y-0.65
X1.25Y-1.0728
X1.26Y-0.75
X1.28Y-1.66
X1.2894Y-0.1772
X1.2992Y-1.3896
X1.2992Y-1.4644
X1.3427Y-0.4938
X1.3484Y-0.1575
X1.3593Y-0.9045
X1.37Y-0.83
X1.378Y-0.5906
X1.4173Y-1.6339
X1.42Y-0.5653
X1.42Y-0.88
X1.44Y-0.65
X1.4567Y-0.0856
X1.47Y-0.78
X1.48Y-0.5253
X1.48Y-0.95
X1.5Y-0.02
X1.52Y-1.53
X1.54Y-0.85
X1.54Y-1.46
X1.55Y-0.65
X1.56Y-0.04
X1.57Y-0.72
X1.5748Y-0.3543
X1.58Y-0.54
X1.61Y-0.81
X1.6142Y-0.4738
X1.63Y-0.89
X1.73Y-0.79
X1.74Y-0.19
X1.74Y-0.73
X1.74Y-0.86
X1.75Y-0.27
X1.75Y-0.38
X1.75Y-0.48
X1.75Y-0.61
X1.75Y-0.68
X1.75Y-0.97
T2
X0.1171Y-0.1476
X0.2171Y-0.1476
X1.55Y-1.1653
X1.55Y-1.2653
X1.55Y-1.3653
X1.5644Y-0.1575
X1.6634Y-1.5443
X1.6634Y-1.6443
X1.6644Y-0.1575
T3
X0.4512Y-0.05
X0.5512Y-0.05
X0.5941Y-0.1772
X0.6512Y-0.05
X0.6941Y-0.1772
X0.7512Y-0.05
X0.7941Y-0.1772
X0.8512Y-0.05
X0.8941Y-0.1772
X0.9512Y-0.05
X0.9941Y-0.1772
X1.0512Y-0.05
X1.0941Y-0.1772
X1.1512Y-0.05
X1.1941Y-0.1772
X1.2512Y-0.05
X1.3512Y-0.05
X1.4567Y-1.1008
X1.4567Y-1.2008
M30
