%TF.GenerationSoftware,KiCad,Pcbnew,9.0.1*%
%TF.CreationDate,2025-06-10T11:43:45-04:00*%
%TF.ProjectId,Ceinture_respiration_Main,4365696e-7475-4726-955f-726573706972,1.1*%
%TF.SameCoordinates,Original*%
%TF.FileFunction,Soldermask,Top*%
%TF.FilePolarity,Negative*%
%FSLAX46Y46*%
G04 Gerber Fmt 4.6, Leading zero omitted, Abs format (unit mm)*
G04 Created by KiCad (PCBNEW 9.0.1) date 2025-06-10 11:43:45*
%MOMM*%
%LPD*%
G01*
G04 APERTURE LIST*
%ADD10R,1.400000X1.600000*%
%ADD11R,1.092200X3.505200*%
%ADD12R,1.600200X3.700000*%
%ADD13R,1.000000X3.700000*%
%ADD14C,1.676400*%
%ADD15R,1.800000X1.800000*%
%ADD16C,1.800000*%
%ADD17R,1.700000X1.700000*%
%ADD18C,1.700000*%
%ADD19O,1.700000X1.700000*%
G04 APERTURE END LIST*
D10*
%TO.C,SW1*%
X5500000Y-8400000D03*
X5500000Y-15600000D03*
X2500000Y-8400000D03*
X2500000Y-15600000D03*
%TD*%
D11*
%TO.C,J4*%
X24447944Y-33451301D03*
X22447948Y-33451301D03*
X20447952Y-33451301D03*
X18447956Y-33451301D03*
D12*
X26747950Y-39251302D03*
X16147950Y-39251302D03*
%TD*%
D10*
%TO.C,SW4*%
X42500000Y-17900000D03*
X42500000Y-25100000D03*
X39500000Y-17900000D03*
X39500000Y-25100000D03*
%TD*%
%TO.C,SW3*%
X42500000Y-8400000D03*
X42500000Y-15600000D03*
X39500000Y-8400000D03*
X39500000Y-15600000D03*
%TD*%
D11*
%TO.C,J5*%
X37197944Y-33451301D03*
X35197948Y-33451301D03*
X33197952Y-33451301D03*
X31197956Y-33451301D03*
D13*
X39197950Y-39251302D03*
D12*
X28897950Y-39251302D03*
%TD*%
D10*
%TO.C,SW2*%
X2500000Y-25350000D03*
X2500000Y-18150000D03*
X5500000Y-25350000D03*
X5500000Y-18150000D03*
%TD*%
D11*
%TO.C,J3*%
X11500000Y-33500000D03*
X9500004Y-33500000D03*
X7500008Y-33500000D03*
X5500012Y-33500000D03*
D12*
X13800006Y-39300001D03*
X3200006Y-39300001D03*
%TD*%
D14*
%TO.C,S1*%
X39369750Y-29598000D03*
X39369750Y-32138000D03*
X39369750Y-34678000D03*
%TD*%
D15*
%TO.C,D5*%
X42250000Y-39225000D03*
D16*
X42250000Y-41765000D03*
%TD*%
D15*
%TO.C,D2*%
X2975000Y-3750000D03*
D16*
X5515000Y-3750000D03*
%TD*%
D15*
%TO.C,D1*%
X42275000Y-4000000D03*
D16*
X39735000Y-4000000D03*
%TD*%
D17*
%TO.C,J8*%
X15090000Y-4500000D03*
D18*
X17630000Y-4500000D03*
X20170000Y-4500000D03*
X22710000Y-4500000D03*
X25250000Y-4500000D03*
X27790000Y-4500000D03*
X30330000Y-4500000D03*
%TD*%
D17*
%TO.C,J2*%
X11460000Y-1270000D03*
D19*
X14000000Y-1270000D03*
X16540000Y-1270000D03*
X19080000Y-1270000D03*
X21620000Y-1270000D03*
X24160000Y-1270000D03*
X26700000Y-1270000D03*
X29240000Y-1270000D03*
X31780000Y-1270000D03*
X34320000Y-1270000D03*
%TD*%
D17*
%TO.C,J11*%
X37000000Y-30500000D03*
D19*
X37000000Y-27960000D03*
%TD*%
M02*
