%TF.GenerationSoftware,KiCad,Pcbnew,9.0.1*%
%TF.CreationDate,2025-06-09T14:40:24-04:00*%
%TF.ProjectId,Ceinture_respiration_Main,4365696e-7475-4726-955f-726573706972,1.1*%
%TF.SameCoordinates,Original*%
%TF.FileFunction,Copper,L4,Bot*%
%TF.FilePolarity,Positive*%
%FSLAX46Y46*%
G04 Gerber Fmt 4.6, Leading zero omitted, Abs format (unit mm)*
G04 Created by KiCad (PCBNEW 9.0.1) date 2025-06-09 14:40:24*
%MOMM*%
%LPD*%
G01*
G04 APERTURE LIST*
G04 Aperture macros list*
%AMRoundRect*
0 Rectangle with rounded corners*
0 $1 Rounding radius*
0 $2 $3 $4 $5 $6 $7 $8 $9 X,Y pos of 4 corners*
0 Add a 4 corners polygon primitive as box body*
4,1,4,$2,$3,$4,$5,$6,$7,$8,$9,$2,$3,0*
0 Add four circle primitives for the rounded corners*
1,1,$1+$1,$2,$3*
1,1,$1+$1,$4,$5*
1,1,$1+$1,$6,$7*
1,1,$1+$1,$8,$9*
0 Add four rect primitives between the rounded corners*
20,1,$1+$1,$2,$3,$4,$5,0*
20,1,$1+$1,$4,$5,$6,$7,0*
20,1,$1+$1,$6,$7,$8,$9,0*
20,1,$1+$1,$8,$9,$2,$3,0*%
G04 Aperture macros list end*
%TA.AperFunction,ComponentPad*%
%ADD10C,1.676400*%
%TD*%
%TA.AperFunction,ComponentPad*%
%ADD11R,1.800000X1.800000*%
%TD*%
%TA.AperFunction,ComponentPad*%
%ADD12C,1.800000*%
%TD*%
%TA.AperFunction,ComponentPad*%
%ADD13R,1.700000X1.700000*%
%TD*%
%TA.AperFunction,ComponentPad*%
%ADD14C,1.700000*%
%TD*%
%TA.AperFunction,SMDPad,CuDef*%
%ADD15RoundRect,0.200000X-0.275000X0.200000X-0.275000X-0.200000X0.275000X-0.200000X0.275000X0.200000X0*%
%TD*%
%TA.AperFunction,SMDPad,CuDef*%
%ADD16RoundRect,0.200000X0.200000X0.275000X-0.200000X0.275000X-0.200000X-0.275000X0.200000X-0.275000X0*%
%TD*%
%TA.AperFunction,SMDPad,CuDef*%
%ADD17RoundRect,0.150000X-0.150000X0.587500X-0.150000X-0.587500X0.150000X-0.587500X0.150000X0.587500X0*%
%TD*%
%TA.AperFunction,ComponentPad*%
%ADD18O,1.700000X1.700000*%
%TD*%
%TA.AperFunction,SMDPad,CuDef*%
%ADD19RoundRect,0.075000X-0.075000X0.650000X-0.075000X-0.650000X0.075000X-0.650000X0.075000X0.650000X0*%
%TD*%
%TA.AperFunction,SMDPad,CuDef*%
%ADD20RoundRect,0.150000X0.150000X-0.587500X0.150000X0.587500X-0.150000X0.587500X-0.150000X-0.587500X0*%
%TD*%
%TA.AperFunction,SMDPad,CuDef*%
%ADD21RoundRect,0.200000X-0.200000X-0.275000X0.200000X-0.275000X0.200000X0.275000X-0.200000X0.275000X0*%
%TD*%
%TA.AperFunction,SMDPad,CuDef*%
%ADD22R,2.000000X0.800000*%
%TD*%
%TA.AperFunction,SMDPad,CuDef*%
%ADD23R,1.400000X1.800000*%
%TD*%
%TA.AperFunction,SMDPad,CuDef*%
%ADD24R,1.900000X1.400000*%
%TD*%
%TA.AperFunction,SMDPad,CuDef*%
%ADD25RoundRect,0.144400X0.235600X-0.825600X0.235600X0.825600X-0.235600X0.825600X-0.235600X-0.825600X0*%
%TD*%
%TA.AperFunction,SMDPad,CuDef*%
%ADD26R,1.800000X1.800000*%
%TD*%
%TA.AperFunction,SMDPad,CuDef*%
%ADD27RoundRect,0.112500X-0.112500X0.187500X-0.112500X-0.187500X0.112500X-0.187500X0.112500X0.187500X0*%
%TD*%
%TA.AperFunction,SMDPad,CuDef*%
%ADD28RoundRect,0.218750X-0.256250X0.218750X-0.256250X-0.218750X0.256250X-0.218750X0.256250X0.218750X0*%
%TD*%
%TA.AperFunction,SMDPad,CuDef*%
%ADD29RoundRect,0.225000X-0.225000X-0.250000X0.225000X-0.250000X0.225000X0.250000X-0.225000X0.250000X0*%
%TD*%
%TA.AperFunction,SMDPad,CuDef*%
%ADD30RoundRect,0.125000X0.125000X-0.125000X0.125000X0.125000X-0.125000X0.125000X-0.125000X-0.125000X0*%
%TD*%
%TA.AperFunction,SMDPad,CuDef*%
%ADD31RoundRect,0.200000X0.275000X-0.200000X0.275000X0.200000X-0.275000X0.200000X-0.275000X-0.200000X0*%
%TD*%
%TA.AperFunction,SMDPad,CuDef*%
%ADD32RoundRect,0.225000X-0.250000X0.225000X-0.250000X-0.225000X0.250000X-0.225000X0.250000X0.225000X0*%
%TD*%
%TA.AperFunction,SMDPad,CuDef*%
%ADD33R,1.560000X2.000000*%
%TD*%
%TA.AperFunction,SMDPad,CuDef*%
%ADD34R,1.560000X1.500000*%
%TD*%
%TA.AperFunction,ViaPad*%
%ADD35C,0.800000*%
%TD*%
%TA.AperFunction,Conductor*%
%ADD36C,0.250000*%
%TD*%
%TA.AperFunction,Conductor*%
%ADD37C,0.500000*%
%TD*%
%TA.AperFunction,Conductor*%
%ADD38C,0.750000*%
%TD*%
%TA.AperFunction,Conductor*%
%ADD39C,0.200000*%
%TD*%
%TA.AperFunction,Conductor*%
%ADD40C,0.350000*%
%TD*%
G04 APERTURE END LIST*
D10*
%TO.P,S1,O*%
%TO.N,/BATTERIE 9V/VBAT*%
X39369750Y-29598000D03*
%TO.P,S1,P*%
%TO.N,/BATTERIE 9V/BAT+_PROT*%
X39369750Y-32138000D03*
%TO.P,S1,S*%
%TO.N,unconnected-(S1-PadS)*%
X39369750Y-34678000D03*
%TD*%
D11*
%TO.P,D5,1,K*%
%TO.N,GND*%
X42250000Y-39225000D03*
D12*
%TO.P,D5,2,A*%
%TO.N,Net-(D5-A)*%
X42250000Y-41765000D03*
%TD*%
D11*
%TO.P,D2,1,K*%
%TO.N,GND*%
X2975000Y-3750000D03*
D12*
%TO.P,D2,2,A*%
%TO.N,Net-(D2-A)*%
X5515000Y-3750000D03*
%TD*%
D11*
%TO.P,D1,1,K*%
%TO.N,GND*%
X42275000Y-4000000D03*
D12*
%TO.P,D1,2,A*%
%TO.N,Net-(D1-A)*%
X39735000Y-4000000D03*
%TD*%
D13*
%TO.P,J8,1,Pin_1*%
%TO.N,GND*%
X15090000Y-4500000D03*
D14*
%TO.P,J8,2,Pin_2*%
%TO.N,+3.3V*%
X17630000Y-4500000D03*
%TO.P,J8,3,Pin_3*%
%TO.N,/DEVICES/SCK*%
X20170000Y-4500000D03*
%TO.P,J8,4,Pin_4*%
%TO.N,/DEVICES/MOSI*%
X22710000Y-4500000D03*
%TO.P,J8,5,Pin_5*%
%TO.N,/DEVICES/OLED_RST*%
X25250000Y-4500000D03*
%TO.P,J8,6,Pin_6*%
%TO.N,/DEVICES/OLED_DC*%
X27790000Y-4500000D03*
%TO.P,J8,7,Pin_7*%
%TO.N,/DEVICES/OLED_CS*%
X30330000Y-4500000D03*
%TD*%
D15*
%TO.P,R8,1*%
%TO.N,/BATTERIE 9V/24V_PROT_GATE*%
X35500000Y-39675000D03*
%TO.P,R8,2*%
%TO.N,GND*%
X35500000Y-41325000D03*
%TD*%
D16*
%TO.P,R10,1*%
%TO.N,+3.3V*%
X29075000Y-27250000D03*
%TO.P,R10,2*%
%TO.N,/SCL*%
X27425000Y-27250000D03*
%TD*%
D17*
%TO.P,Q2,1,G*%
%TO.N,/BATTERIE 9V/24V_PROT_GATE*%
X35800000Y-33562500D03*
%TO.P,Q2,2,S*%
%TO.N,/BATTERIE 9V/BAT+_PROT*%
X37700000Y-33562500D03*
%TO.P,Q2,3,D*%
%TO.N,/BATTERIE 9V/BAT+*%
X36750000Y-35437500D03*
%TD*%
D13*
%TO.P,J2,1,Pin_1*%
%TO.N,GND*%
X11460000Y-1270000D03*
D18*
%TO.P,J2,2,Pin_2*%
%TO.N,Net-(J2-Pin_2)*%
X14000000Y-1270000D03*
%TO.P,J2,3,Pin_3*%
%TO.N,/MCU/EXT1*%
X16540000Y-1270000D03*
%TO.P,J2,4,Pin_4*%
%TO.N,/MCU/EXT2*%
X19080000Y-1270000D03*
%TO.P,J2,5,Pin_5*%
%TO.N,/MCU/EXT3*%
X21620000Y-1270000D03*
%TO.P,J2,6,Pin_6*%
%TO.N,/MCU/EXT4*%
X24160000Y-1270000D03*
%TO.P,J2,7,Pin_7*%
%TO.N,/SDA*%
X26700000Y-1270000D03*
%TO.P,J2,8,Pin_8*%
%TO.N,/SCL*%
X29240000Y-1270000D03*
%TO.P,J2,9,Pin_9*%
%TO.N,Net-(J2-Pin_9)*%
X31780000Y-1270000D03*
%TO.P,J2,10,Pin_10*%
%TO.N,Net-(J2-Pin_10)*%
X34320000Y-1270000D03*
%TD*%
D19*
%TO.P,U1,1,REG*%
%TO.N,/DEVICES/M_REG*%
X17250000Y-28300000D03*
%TO.P,U1,2,SCL*%
%TO.N,/SCL*%
X17750000Y-28300000D03*
%TO.P,U1,3,SDA*%
%TO.N,/SDA*%
X18250000Y-28300000D03*
%TO.P,U1,4,IN/TRIG*%
%TO.N,GND*%
X18750000Y-28300000D03*
%TO.P,U1,5,EN*%
%TO.N,+3.3V*%
X19250000Y-28300000D03*
%TO.P,U1,6,VDD*%
X19250000Y-32700000D03*
%TO.P,U1,7,OUT+*%
%TO.N,/DEVICES/M+*%
X18750000Y-32700000D03*
%TO.P,U1,8,GND*%
%TO.N,GND*%
X18250000Y-32700000D03*
%TO.P,U1,9,OUT-*%
%TO.N,/DEVICES/M-*%
X17750000Y-32700000D03*
%TO.P,U1,10,VDD*%
%TO.N,+3.3V*%
X17250000Y-32700000D03*
%TD*%
D20*
%TO.P,Q1,1,B*%
%TO.N,Net-(Q1-B)*%
X26100000Y-29337500D03*
%TO.P,Q1,2,E*%
%TO.N,GND*%
X24200000Y-29337500D03*
%TO.P,Q1,3,C*%
%TO.N,Net-(D3-A)*%
X25150000Y-27462500D03*
%TD*%
D13*
%TO.P,J11,1,Pin_1*%
%TO.N,/BATTERIE 9V/BAT+*%
X37000000Y-30500000D03*
D18*
%TO.P,J11,2,Pin_2*%
%TO.N,GND*%
X37000000Y-27960000D03*
%TD*%
D15*
%TO.P,R7,1*%
%TO.N,/DEVICES/BUZZER*%
X22750000Y-27175000D03*
%TO.P,R7,2*%
%TO.N,Net-(Q1-B)*%
X22750000Y-28825000D03*
%TD*%
D16*
%TO.P,R6,1*%
%TO.N,+3.3V*%
X5900000Y-42000000D03*
%TO.P,R6,2*%
%TO.N,Net-(J9-DAT1)*%
X4250000Y-42000000D03*
%TD*%
D21*
%TO.P,R11,1*%
%TO.N,+3.3V*%
X30100000Y-27250000D03*
%TO.P,R11,2*%
%TO.N,/SDA*%
X31750000Y-27250000D03*
%TD*%
D22*
%TO.P,J9,1,DAT2*%
%TO.N,Net-(J9-DAT2)*%
X4950000Y-31810000D03*
%TO.P,J9,2,CD/DAT3*%
%TO.N,/DEVICES/SD_CS*%
X5350000Y-32910000D03*
%TO.P,J9,3,CMD*%
%TO.N,/DEVICES/MOSI*%
X4950000Y-34010000D03*
%TO.P,J9,4,VDD*%
%TO.N,+3.3V*%
X4750000Y-35110000D03*
%TO.P,J9,5,CLK*%
%TO.N,/DEVICES/SCK*%
X4950000Y-36210000D03*
%TO.P,J9,6,VSS*%
%TO.N,GND*%
X4750000Y-37310000D03*
%TO.P,J9,7,DAT0*%
%TO.N,/DEVICES/MISO*%
X4950000Y-38410000D03*
%TO.P,J9,8,DAT1*%
%TO.N,Net-(J9-DAT1)*%
X4950000Y-39510000D03*
D23*
%TO.P,J9,9,CD1*%
%TO.N,/DEVICES/SD_DETECT*%
X15500000Y-38700000D03*
%TO.P,J9,10,CD2*%
%TO.N,GND*%
X15500000Y-33000000D03*
D24*
%TO.P,J9,11,GND*%
X2350000Y-40300000D03*
%TO.P,J9,12,GND*%
X1350000Y-27150000D03*
%TD*%
D15*
%TO.P,R4,1*%
%TO.N,Net-(D2-A)*%
X7750000Y-3425000D03*
%TO.P,R4,2*%
%TO.N,/DEVICES/LED2*%
X7750000Y-5075000D03*
%TD*%
D25*
%TO.P,M1,1,+*%
%TO.N,/DEVICES/M+*%
X20900000Y-31980000D03*
%TO.P,M1,2,-*%
%TO.N,/DEVICES/M-*%
X22100000Y-31980000D03*
%TD*%
D26*
%TO.P,LS1,1*%
%TO.N,N/C*%
X26725000Y-39275000D03*
%TO.P,LS1,2*%
X32875000Y-39275000D03*
%TO.P,LS1,N*%
%TO.N,Net-(D3-A)*%
X32875000Y-33125000D03*
%TO.P,LS1,P*%
%TO.N,+3.3V*%
X26725000Y-33125000D03*
%TD*%
D27*
%TO.P,D4,1,K*%
%TO.N,/BATTERIE 9V/BAT+_PROT*%
X37500000Y-39450000D03*
%TO.P,D4,2,A*%
%TO.N,/BATTERIE 9V/24V_PROT_GATE*%
X37500000Y-41550000D03*
%TD*%
D28*
%TO.P,F2,1*%
%TO.N,Net-(J2-Pin_10)*%
X35750000Y-3462500D03*
%TO.P,F2,2*%
%TO.N,+5V*%
X35750000Y-5037500D03*
%TD*%
%TO.P,F3,1*%
%TO.N,Net-(J2-Pin_2)*%
X12500000Y-3712500D03*
%TO.P,F3,2*%
%TO.N,/BATTERIE 9V/VBAT*%
X12500000Y-5287500D03*
%TD*%
D29*
%TO.P,C3,1*%
%TO.N,/DEVICES/M_REG*%
X21450000Y-30250000D03*
%TO.P,C3,2*%
%TO.N,GND*%
X23000000Y-30250000D03*
%TD*%
D30*
%TO.P,D3,1,K*%
%TO.N,+3.3V*%
X24450000Y-33750000D03*
%TO.P,D3,2,A*%
%TO.N,Net-(D3-A)*%
X24450000Y-31550000D03*
%TD*%
D31*
%TO.P,R3,1*%
%TO.N,Net-(D1-A)*%
X37000000Y-3825000D03*
%TO.P,R3,2*%
%TO.N,/DEVICES/LED1*%
X37000000Y-2175000D03*
%TD*%
D32*
%TO.P,C2,1*%
%TO.N,+3.3V*%
X21500000Y-27225000D03*
%TO.P,C2,2*%
%TO.N,GND*%
X21500000Y-28775000D03*
%TD*%
D21*
%TO.P,R5,1*%
%TO.N,+3.3V*%
X7425000Y-42000000D03*
%TO.P,R5,2*%
%TO.N,Net-(J9-DAT2)*%
X9075000Y-42000000D03*
%TD*%
D16*
%TO.P,R1,1*%
%TO.N,/BATTERIE 9V/VBAT*%
X34670000Y-27058000D03*
%TO.P,R1,2*%
%TO.N,/MCU/bat_voltage*%
X33020000Y-27058000D03*
%TD*%
D33*
%TO.P,A1,1,D1/TX*%
%TO.N,/DEVICES/BTN3*%
X5440000Y-7150000D03*
%TO.P,A1,2,D0/RX*%
%TO.N,/DEVICES/BTN4*%
X7980000Y-7150000D03*
%TO.P,A1,3,~{RESET}*%
%TO.N,unconnected-(A1-~{RESET}-Pad3)*%
X10520000Y-7150000D03*
%TO.P,A1,4,GND*%
%TO.N,GND*%
X13060000Y-7150000D03*
%TO.P,A1,5,D2*%
%TO.N,/DEVICES/LED1*%
X15600000Y-7150000D03*
%TO.P,A1,6,D3*%
%TO.N,/DEVICES/LED2*%
X18140000Y-7150000D03*
%TO.P,A1,7,D4*%
%TO.N,/DEVICES/SD_DETECT*%
X20680000Y-7150000D03*
%TO.P,A1,8,D5*%
%TO.N,/MCU/EXT4*%
X23220000Y-7150000D03*
%TO.P,A1,9,D6*%
%TO.N,/DEVICES/OLED_RST*%
X25760000Y-7150000D03*
%TO.P,A1,10,D7*%
%TO.N,/DEVICES/OLED_CS*%
X28300000Y-7150000D03*
%TO.P,A1,11,D8*%
%TO.N,/DEVICES/BUZZER*%
X30840000Y-7150000D03*
%TO.P,A1,12,D9*%
%TO.N,/DEVICES/OLED_DC*%
X33380000Y-7150000D03*
%TO.P,A1,13,D10*%
%TO.N,/DEVICES/SD_CS*%
X35920000Y-7150000D03*
%TO.P,A1,14,D11*%
%TO.N,/DEVICES/MOSI*%
X38460000Y-7150000D03*
%TO.P,A1,15,D12*%
%TO.N,/DEVICES/MISO*%
X41000000Y-7150000D03*
D34*
%TO.P,A1,16,D13*%
%TO.N,/DEVICES/SCK*%
X41000000Y-24850000D03*
D33*
%TO.P,A1,17,3V3*%
%TO.N,+3.3V*%
X38460000Y-25350000D03*
%TO.P,A1,18,AREF*%
%TO.N,unconnected-(A1-AREF-Pad18)*%
X35920000Y-25350000D03*
%TO.P,A1,19,A0*%
%TO.N,/MCU/bat_voltage*%
X33380000Y-25350000D03*
%TO.P,A1,20,A1*%
%TO.N,/MCU/EXT1*%
X30840000Y-25350000D03*
%TO.P,A1,21,A2*%
%TO.N,/MCU/EXT2*%
X28300000Y-25350000D03*
%TO.P,A1,22,A3*%
%TO.N,/MCU/EXT3*%
X25760000Y-25350000D03*
%TO.P,A1,23,A4*%
%TO.N,/SDA*%
X23220000Y-25350000D03*
%TO.P,A1,24,A5*%
%TO.N,/SCL*%
X20680000Y-25350000D03*
%TO.P,A1,25,A6*%
%TO.N,/DEVICES/BTN1*%
X18140000Y-25350000D03*
%TO.P,A1,26,A7*%
%TO.N,/DEVICES/BTN2*%
X15600000Y-25350000D03*
%TO.P,A1,27,+5V*%
%TO.N,+5V*%
X13060000Y-25350000D03*
%TO.P,A1,28,~{RESET}*%
%TO.N,unconnected-(A1-~{RESET}-Pad28)*%
X10520000Y-25350000D03*
%TO.P,A1,29,GND*%
%TO.N,GND*%
X7980000Y-25350000D03*
%TO.P,A1,30,VIN*%
%TO.N,/BATTERIE 9V/VBAT*%
X5440000Y-25350000D03*
%TD*%
D31*
%TO.P,R2,1*%
%TO.N,/MCU/bat_voltage*%
X34500000Y-5075000D03*
%TO.P,R2,2*%
%TO.N,GND*%
X34500000Y-3425000D03*
%TD*%
D28*
%TO.P,F1,1*%
%TO.N,Net-(J2-Pin_9)*%
X33000000Y-3462500D03*
%TO.P,F1,2*%
%TO.N,+3.3V*%
X33000000Y-5037500D03*
%TD*%
D31*
%TO.P,R9,1*%
%TO.N,Net-(D5-A)*%
X39750000Y-41325000D03*
%TO.P,R9,2*%
%TO.N,/BATTERIE 9V/VBAT*%
X39750000Y-39675000D03*
%TD*%
D35*
%TO.N,/DEVICES/LED2*%
X7116299Y-10585500D03*
X17623301Y-10585500D03*
%TO.N,/MCU/EXT4*%
X22860000Y-23750000D03*
%TO.N,GND*%
X9906000Y-19812000D03*
X31496000Y-16510000D03*
X21336000Y-40386000D03*
X12954000Y-29972000D03*
X39370000Y-16510000D03*
X44196000Y-21844000D03*
X43942000Y-20066000D03*
X9144000Y-508000D03*
X9144000Y-15240000D03*
X26924000Y-19812000D03*
X40000000Y-9000000D03*
X7366000Y-1016000D03*
X13000000Y-9000000D03*
X29718000Y-30988000D03*
X23368000Y-41402000D03*
X44450000Y-9652000D03*
X8128000Y-20320000D03*
X31050000Y-38354000D03*
X25908000Y-18796000D03*
X23114000Y-39370000D03*
X32512000Y-42164000D03*
X762000Y-38354000D03*
X37338000Y-19812000D03*
X34798000Y-21082000D03*
X24638000Y-38862000D03*
X39116000Y-37084000D03*
X16256000Y-41910000D03*
X34250000Y-4000000D03*
X16764000Y-19558000D03*
X41402000Y-22606000D03*
X31242000Y-30734000D03*
X31050000Y-39900000D03*
X29972000Y-41910000D03*
X2540000Y-6604000D03*
X11684000Y-42418000D03*
X32004000Y-19050000D03*
X36068000Y-22352000D03*
X8636000Y-27940000D03*
X508000Y-24384000D03*
X6350000Y-27432000D03*
X18288000Y-42164000D03*
X1524000Y-21336000D03*
X762000Y-9398000D03*
X1016000Y-35306000D03*
X38608000Y-38862000D03*
X9398000Y-39116000D03*
X29210000Y-19304000D03*
X4826000Y-762000D03*
X44450000Y-6858000D03*
X44450000Y-24638000D03*
X38100000Y-508000D03*
X44450000Y-15494000D03*
X21590000Y-38354000D03*
X9906000Y-38100000D03*
X44196000Y-4826000D03*
X28194000Y-30480000D03*
X28702000Y-38862000D03*
X13716000Y-42418000D03*
X18796000Y-40894000D03*
X44450000Y-12192000D03*
X26416000Y-41910000D03*
X39878000Y-18288000D03*
X762000Y-5080000D03*
X762000Y-7112000D03*
X762000Y-32512000D03*
X30226000Y-16256000D03*
X24892000Y-42418000D03*
X6858000Y-29718000D03*
X26162000Y-16764000D03*
X27050000Y-34950000D03*
X762000Y-18542000D03*
X508000Y-12700000D03*
X44450000Y-17272000D03*
X29972000Y-20320000D03*
X6350000Y-40640000D03*
X18300000Y-31250000D03*
X2286000Y-10668000D03*
X27178000Y-42418000D03*
X5334000Y-30480000D03*
X5588000Y-20828000D03*
X44196000Y-18542000D03*
X6604000Y-19558000D03*
X1016000Y-15494000D03*
X6604000Y-28702000D03*
X10668000Y-40132000D03*
X20000000Y-29500000D03*
X40132000Y-13716000D03*
X39116000Y-21590000D03*
X762000Y-11176000D03*
X36000000Y-41500000D03*
X40894000Y-20574000D03*
X19812000Y-39116000D03*
X36576000Y-16510000D03*
X21082000Y-41910000D03*
X39624000Y-1016000D03*
X762000Y-29210000D03*
%TO.N,/DEVICES/LED1*%
X15600000Y-8262000D03*
X37000000Y-2175000D03*
%TO.N,/MCU/EXT3*%
X28000000Y-29000000D03*
X20320000Y-23300500D03*
X25760000Y-25350000D03*
%TO.N,/DEVICES/SD_DETECT*%
X14475000Y-20454000D03*
X20828000Y-20454000D03*
%TO.N,/DEVICES/BUZZER*%
X24485600Y-10585500D03*
X30988000Y-10585500D03*
%TO.N,/DEVICES/MISO*%
X41000000Y-12034500D03*
X4064000Y-12034500D03*
%TO.N,/DEVICES/SCK*%
X3556000Y-13342000D03*
X19304000Y-12542500D03*
X34104500Y-12542500D03*
%TO.N,+3.3V*%
X26725000Y-33125000D03*
X37592000Y-24130000D03*
X32750000Y-4500000D03*
X7224356Y-41124259D03*
X19400000Y-31200000D03*
X21300000Y-27102200D03*
X30750000Y-27250000D03*
X6700500Y-36000000D03*
X17300000Y-31000000D03*
%TO.N,/DEVICES/BTN4*%
X7980000Y-17914000D03*
%TO.N,/DEVICES/SD_CS*%
X5588000Y-14200498D03*
X36068000Y-14358000D03*
%TO.N,/SDA*%
X25908000Y-8770000D03*
X18075109Y-29576416D03*
X31750000Y-27250000D03*
%TO.N,/SCL*%
X20986500Y-18930000D03*
X20079300Y-25949191D03*
X20828000Y-9136000D03*
X17541052Y-26997488D03*
X18864500Y-22994000D03*
X16408400Y-29001700D03*
X26750000Y-23750000D03*
X18864500Y-18930000D03*
%TO.N,/MCU/EXT1*%
X15240000Y-29090000D03*
X30835600Y-25584800D03*
%TO.N,/MCU/EXT2*%
X28092400Y-25381600D03*
X26416000Y-3182000D03*
%TO.N,+5V*%
X33000000Y-37195901D03*
X13000000Y-27000000D03*
X33000000Y-35296901D03*
X20000000Y-37195901D03*
X35000000Y-15000000D03*
X13000000Y-15000000D03*
X20000000Y-35000000D03*
%TO.N,/DEVICES/BTN3*%
X5588000Y-11310000D03*
%TO.N,Net-(D3-A)*%
X25593426Y-31671488D03*
X25350000Y-27102200D03*
%TO.N,/DEVICES/BTN1*%
X18140000Y-16898000D03*
%TO.N,/DEVICES/BTN2*%
X15600000Y-23502000D03*
%TO.N,Net-(Q1-B)*%
X22777504Y-29002199D03*
X26844653Y-30194653D03*
%TO.N,/DEVICES/MOSI*%
X21844000Y-13125500D03*
X37592000Y-13342000D03*
X4572000Y-13558500D03*
%TO.N,/BATTERIE 9V/VBAT*%
X11176000Y-21919000D03*
X11500000Y-5475000D03*
X34525000Y-22975000D03*
X11176000Y-9278000D03*
X6096000Y-22486000D03*
%TD*%
D36*
%TO.N,/DEVICES/LED2*%
X17623301Y-10585500D02*
X17623301Y-7666699D01*
X6875000Y-10344201D02*
X6875000Y-5950000D01*
X6875000Y-5950000D02*
X7750000Y-5075000D01*
X7116299Y-10585500D02*
X6875000Y-10344201D01*
X17623301Y-7666699D02*
X18140000Y-7150000D01*
%TO.N,/MCU/EXT4*%
X22860000Y-7510000D02*
X23220000Y-7150000D01*
X24000000Y-1430000D02*
X24000000Y-6370000D01*
X24160000Y-1270000D02*
X24000000Y-1430000D01*
X24000000Y-6370000D02*
X23220000Y-7150000D01*
X22860000Y-23750000D02*
X22860000Y-7510000D01*
%TO.N,GND*%
X23000000Y-30250000D02*
X22250000Y-29500000D01*
D37*
X13060000Y-8940000D02*
X13000000Y-9000000D01*
D36*
X24200000Y-29337500D02*
X23912500Y-29337500D01*
X23912500Y-29337500D02*
X23000000Y-30250000D01*
X18750000Y-29164000D02*
X18750000Y-28300000D01*
X21500000Y-28775000D02*
X20975000Y-28775000D01*
X21500000Y-28792462D02*
X22228769Y-29521231D01*
X19086000Y-29500000D02*
X18750000Y-29164000D01*
X18300000Y-31250000D02*
X18250000Y-31300000D01*
D37*
X13060000Y-7150000D02*
X13060000Y-8940000D01*
D36*
X20975000Y-28775000D02*
X20250000Y-29500000D01*
X21500000Y-28775000D02*
X21500000Y-28792462D01*
X24200000Y-29337500D02*
X24062500Y-29200000D01*
X20250000Y-29500000D02*
X19086000Y-29500000D01*
X18250000Y-31300000D02*
X18250000Y-32700000D01*
X24062500Y-29200000D02*
X24062500Y-29187500D01*
D37*
X13060000Y-6560000D02*
X13060000Y-7150000D01*
D36*
%TO.N,/DEVICES/LED1*%
X15600000Y-8262000D02*
X15600000Y-7150000D01*
%TO.N,/MCU/EXT3*%
X16705000Y-5663000D02*
X16455000Y-5413000D01*
X19812000Y-22792500D02*
X19812000Y-17544695D01*
X20320000Y-23300500D02*
X19812000Y-22792500D01*
X16455000Y-5413000D02*
X16455000Y-3545000D01*
X26500000Y-27550000D02*
X26500000Y-26090000D01*
X28000000Y-29000000D02*
X27950000Y-29000000D01*
X16705000Y-14437695D02*
X16705000Y-5663000D01*
X26500000Y-26090000D02*
X25760000Y-25350000D01*
X19708000Y-3182000D02*
X21620000Y-1270000D01*
X19812000Y-17544695D02*
X16705000Y-14437695D01*
X27950000Y-29000000D02*
X26500000Y-27550000D01*
X16818000Y-3182000D02*
X19708000Y-3182000D01*
X16455000Y-3545000D02*
X16818000Y-3182000D01*
%TO.N,/DEVICES/SD_DETECT*%
X20680000Y-7150000D02*
X19812000Y-8018000D01*
X20262000Y-12475195D02*
X20262000Y-19888000D01*
X15500000Y-38700000D02*
X14475000Y-37675000D01*
X19812000Y-8018000D02*
X19812000Y-12025195D01*
X20262000Y-19888000D02*
X20828000Y-20454000D01*
X14475000Y-37675000D02*
X14475000Y-20454000D01*
X19812000Y-12025195D02*
X20262000Y-12475195D01*
%TO.N,/DEVICES/BUZZER*%
X23062500Y-26862500D02*
X22750000Y-27175000D01*
X24485600Y-10585500D02*
X24485600Y-24010000D01*
X24020700Y-26862500D02*
X23062500Y-26862500D01*
X30988000Y-10585500D02*
X30840000Y-10437500D01*
X24485600Y-24010000D02*
X24485600Y-26397600D01*
X24485600Y-26397600D02*
X24020700Y-26862500D01*
X30840000Y-10437500D02*
X30840000Y-7150000D01*
%TO.N,/DEVICES/OLED_RST*%
X25760000Y-5010000D02*
X25250000Y-4500000D01*
X25760000Y-7150000D02*
X25760000Y-5010000D01*
%TO.N,/DEVICES/OLED_CS*%
X28300000Y-6530000D02*
X30330000Y-4500000D01*
X28300000Y-7150000D02*
X28300000Y-6530000D01*
%TO.N,/DEVICES/MISO*%
X3838195Y-12034500D02*
X2757600Y-13115095D01*
X2757600Y-13115095D02*
X2757600Y-29784008D01*
X2275000Y-36985000D02*
X3700000Y-38410000D01*
X41000000Y-7150000D02*
X41000000Y-11966000D01*
X3700000Y-38410000D02*
X4950000Y-38410000D01*
X2275000Y-30266608D02*
X2275000Y-36985000D01*
X2757600Y-29784008D02*
X2275000Y-30266608D01*
X40931500Y-12034500D02*
X41000000Y-12034500D01*
X4064000Y-12034500D02*
X3838195Y-12034500D01*
X41000000Y-11966000D02*
X40931500Y-12034500D01*
%TO.N,/DEVICES/SCK*%
X41000000Y-25350000D02*
X34000000Y-18350000D01*
X19304000Y-5366000D02*
X20170000Y-4500000D01*
X2725000Y-30453004D02*
X3207600Y-29970404D01*
X4950000Y-36210000D02*
X3700000Y-36210000D01*
X34000000Y-12647000D02*
X34104500Y-12542500D01*
X3700000Y-36210000D02*
X2725000Y-35235000D01*
X3207600Y-29970404D02*
X3207600Y-13690400D01*
X19304000Y-12542500D02*
X19304000Y-5366000D01*
X34000000Y-18350000D02*
X34000000Y-13000000D01*
X3207600Y-13690400D02*
X3556000Y-13342000D01*
X34000000Y-13000000D02*
X34000000Y-12647000D01*
X2725000Y-35235000D02*
X2725000Y-30453004D01*
%TO.N,+3.3V*%
X32750000Y-4500000D02*
X33000000Y-4750000D01*
X24450000Y-33750000D02*
X26100000Y-33750000D01*
X17250000Y-31264000D02*
X17250000Y-32700000D01*
X38460000Y-24998000D02*
X37592000Y-24130000D01*
X20400000Y-27150000D02*
X19250000Y-28300000D01*
X21252200Y-27150000D02*
X20400000Y-27150000D01*
X19250000Y-31350000D02*
X19400000Y-31200000D01*
X4750000Y-35110000D02*
X5810500Y-35110000D01*
X29500000Y-27250000D02*
X30100000Y-27250000D01*
X26100000Y-33750000D02*
X26725000Y-33125000D01*
X17300000Y-31214000D02*
X17250000Y-31264000D01*
X21422800Y-27225000D02*
X21300000Y-27102200D01*
X29500000Y-27250000D02*
X30750000Y-27250000D01*
X6348615Y-42000000D02*
X7224356Y-41124259D01*
X21500000Y-27225000D02*
X21422800Y-27225000D01*
X33000000Y-4750000D02*
X33000000Y-5037500D01*
X7224356Y-41124259D02*
X7425000Y-41324903D01*
X38460000Y-25350000D02*
X38460000Y-24998000D01*
X7425000Y-41324903D02*
X7425000Y-42000000D01*
X17300000Y-31000000D02*
X17300000Y-31214000D01*
X5810500Y-35110000D02*
X6700500Y-36000000D01*
X29075000Y-27250000D02*
X29500000Y-27250000D01*
X5900000Y-42000000D02*
X6348615Y-42000000D01*
X21300000Y-27102200D02*
X21252200Y-27150000D01*
X19250000Y-32700000D02*
X19250000Y-31350000D01*
%TO.N,/DEVICES/BTN4*%
X7980000Y-17914000D02*
X7980000Y-7150000D01*
%TO.N,/DEVICES/OLED_DC*%
X33380000Y-7150000D02*
X32004000Y-5774000D01*
X32004000Y-5774000D02*
X32004000Y-4198000D01*
X32004000Y-4198000D02*
X30806000Y-3000000D01*
X33380000Y-7150000D02*
X33380000Y-6590000D01*
X30806000Y-3000000D02*
X29290000Y-3000000D01*
X29290000Y-3000000D02*
X27790000Y-4500000D01*
%TO.N,/DEVICES/SD_CS*%
X3625000Y-32535000D02*
X3625000Y-30849800D01*
X3625000Y-30849800D02*
X4114800Y-30360000D01*
X5588000Y-14200498D02*
X5365898Y-14200498D01*
X4128198Y-22472602D02*
X4114800Y-22486000D01*
X5350000Y-32910000D02*
X4000000Y-32910000D01*
X35920000Y-14210000D02*
X35920000Y-7150000D01*
X4128198Y-15438198D02*
X4128198Y-22472602D01*
X4114800Y-30360000D02*
X4114800Y-22486000D01*
X4000000Y-32910000D02*
X3625000Y-32535000D01*
X36068000Y-14358000D02*
X35920000Y-14210000D01*
X5365898Y-14200498D02*
X4128198Y-15438198D01*
%TO.N,/MCU/bat_voltage*%
X33380000Y-9934000D02*
X34500000Y-8814000D01*
X34500000Y-8814000D02*
X34500000Y-5075000D01*
X33380000Y-25350000D02*
X33380000Y-9934000D01*
X33020000Y-25710000D02*
X33380000Y-25350000D01*
X33020000Y-27058000D02*
X33020000Y-25710000D01*
%TO.N,/SDA*%
X19354800Y-24314800D02*
X19644600Y-24025000D01*
X25908000Y-8770000D02*
X24384000Y-8770000D01*
X18250000Y-27146800D02*
X18440400Y-26956400D01*
X18250000Y-29401525D02*
X18250000Y-28300000D01*
X19050000Y-26956400D02*
X19354800Y-26651600D01*
X18440400Y-26956400D02*
X19050000Y-26956400D01*
X21488400Y-24025000D02*
X21895000Y-24025000D01*
X18075109Y-29576416D02*
X18250000Y-29401525D01*
X19354800Y-26651600D02*
X19354800Y-24314800D01*
X19644600Y-24025000D02*
X21488400Y-24025000D01*
X24384000Y-8770000D02*
X23670000Y-9484000D01*
X23670000Y-9484000D02*
X23670000Y-24900000D01*
X21895000Y-24025000D02*
X23220000Y-25350000D01*
X23670000Y-24900000D02*
X23220000Y-25350000D01*
X18250000Y-28300000D02*
X18250000Y-27146800D01*
%TO.N,/SCL*%
X17541052Y-26997488D02*
X17541052Y-27250367D01*
X17775000Y-27484315D02*
X17775000Y-28282200D01*
X16408400Y-27850915D02*
X16408400Y-29001700D01*
X17541052Y-26997488D02*
X17261827Y-26997488D01*
X17775000Y-28282200D02*
X17757200Y-28300000D01*
X20828000Y-9136000D02*
X20986500Y-9294500D01*
X27000000Y-24000000D02*
X27000000Y-26825000D01*
X17757200Y-28300000D02*
X17750000Y-28300000D01*
X17261827Y-26997488D02*
X16408400Y-27850915D01*
X18864500Y-22994000D02*
X18864500Y-18930000D01*
X20986500Y-9294500D02*
X20986500Y-18930000D01*
X27000000Y-26825000D02*
X27425000Y-27250000D01*
X26750000Y-23750000D02*
X27000000Y-24000000D01*
X17541052Y-27250367D02*
X17775000Y-27484315D01*
%TO.N,/MCU/EXT1*%
X14925000Y-27952000D02*
X14925000Y-26675000D01*
X30840000Y-25580400D02*
X30835600Y-25584800D01*
X30840000Y-25350000D02*
X30840000Y-25580400D01*
X16705000Y-21658695D02*
X14224000Y-19177695D01*
X15240000Y-28267000D02*
X14925000Y-27952000D01*
X14224000Y-19177695D02*
X14224000Y-5984000D01*
X15970000Y-1270000D02*
X16540000Y-1270000D01*
X14925000Y-26675000D02*
X16705000Y-26675000D01*
X16705000Y-26675000D02*
X16705000Y-21658695D01*
X13500000Y-3740000D02*
X15970000Y-1270000D01*
X14224000Y-5984000D02*
X13500000Y-5260000D01*
X15240000Y-29090000D02*
X15240000Y-28267000D01*
X13500000Y-5260000D02*
X13500000Y-3740000D01*
%TO.N,/MCU/EXT2*%
X28300000Y-25350000D02*
X28300000Y-12120000D01*
X28300000Y-25350000D02*
X28124000Y-25350000D01*
X19080000Y-1882000D02*
X19080000Y-1270000D01*
X26924000Y-10744000D02*
X26924000Y-5500000D01*
X28300000Y-12120000D02*
X26924000Y-10744000D01*
X26924000Y-5500000D02*
X26500000Y-5076000D01*
X26500000Y-3266000D02*
X26416000Y-3182000D01*
X28124000Y-25350000D02*
X28092400Y-25381600D01*
X26500000Y-5076000D02*
X26500000Y-3266000D01*
D37*
%TO.N,+5V*%
X36742000Y-10258000D02*
X36742000Y-13742000D01*
X36918000Y-13918000D02*
X36918000Y-14710082D01*
X36420082Y-15208000D02*
X35208000Y-15208000D01*
X36742000Y-13742000D02*
X36918000Y-13918000D01*
X36450000Y-5000000D02*
X36600000Y-5150000D01*
D38*
X13060000Y-26940000D02*
X13060000Y-15060000D01*
D36*
X20000000Y-35000000D02*
X20000000Y-37195901D01*
D37*
X36487500Y-5037500D02*
X35750000Y-5037500D01*
X36918000Y-14710082D02*
X36420082Y-15208000D01*
X36600000Y-5150000D02*
X36487500Y-5037500D01*
D36*
X33000000Y-35296901D02*
X33000000Y-37195901D01*
D37*
X36600000Y-5150000D02*
X37150000Y-5700000D01*
X37150000Y-9850000D02*
X36742000Y-10258000D01*
X37150000Y-5700000D02*
X37150000Y-9850000D01*
X35208000Y-15208000D02*
X35000000Y-15000000D01*
D38*
X13000000Y-27000000D02*
X13060000Y-26940000D01*
D36*
X13060000Y-15060000D02*
X13000000Y-15000000D01*
%TO.N,/DEVICES/BTN3*%
X5440000Y-11162000D02*
X5440000Y-7150000D01*
X5588000Y-11310000D02*
X5440000Y-11162000D01*
%TO.N,Net-(D3-A)*%
X25350000Y-27262500D02*
X25150000Y-27462500D01*
X24450000Y-31550000D02*
X25471938Y-31550000D01*
X24450000Y-31550000D02*
X24614000Y-31714000D01*
X31464000Y-31714000D02*
X32875000Y-33125000D01*
X25471938Y-31550000D02*
X25593426Y-31671488D01*
X24614000Y-31714000D02*
X31464000Y-31714000D01*
X25350000Y-27102200D02*
X25350000Y-27262500D01*
%TO.N,/DEVICES/BTN1*%
X18140000Y-16898000D02*
X18140000Y-25350000D01*
%TO.N,/DEVICES/BTN2*%
X15600000Y-23502000D02*
X15600000Y-25350000D01*
%TO.N,Net-(D5-A)*%
X41810000Y-41325000D02*
X42250000Y-41765000D01*
X39750000Y-41325000D02*
X41810000Y-41325000D01*
%TO.N,Net-(D2-A)*%
X7750000Y-3425000D02*
X5840000Y-3425000D01*
X5840000Y-3425000D02*
X5515000Y-3750000D01*
%TO.N,/DEVICES/M_REG*%
X20250000Y-30250000D02*
X21450000Y-30250000D01*
X17250000Y-28300000D02*
X17250000Y-29950000D01*
X20133157Y-30366843D02*
X20250000Y-30250000D01*
X17250000Y-29950000D02*
X17666843Y-30366843D01*
X17666843Y-30366843D02*
X20133157Y-30366843D01*
%TO.N,Net-(Q1-B)*%
X26100000Y-29450000D02*
X26844653Y-30194653D01*
X26100000Y-29337500D02*
X26100000Y-29450000D01*
D39*
%TO.N,/DEVICES/M+*%
X20250000Y-33750000D02*
X19000000Y-33750000D01*
X18750000Y-33500000D02*
X18750000Y-32700000D01*
X19000000Y-33750000D02*
X18750000Y-33500000D01*
X20900000Y-31980000D02*
X20900000Y-33100000D01*
X20900000Y-33100000D02*
X20250000Y-33750000D01*
%TO.N,/DEVICES/M-*%
X19500000Y-34250000D02*
X21750000Y-34250000D01*
X21750000Y-34250000D02*
X22100000Y-33900000D01*
X22100000Y-33900000D02*
X22100000Y-31980000D01*
X17750000Y-33500000D02*
X17750000Y-32700000D01*
X18750000Y-34500000D02*
X17750000Y-33500000D01*
X18750000Y-34500000D02*
X19250000Y-34500000D01*
X19250000Y-34500000D02*
X19500000Y-34250000D01*
D36*
%TO.N,/DEVICES/MOSI*%
X21844000Y-5366000D02*
X22710000Y-4500000D01*
X3664800Y-14757200D02*
X4064000Y-14358000D01*
X3175000Y-30663404D02*
X3664800Y-30173604D01*
X4031000Y-34010000D02*
X3175000Y-33154000D01*
X3175000Y-33154000D02*
X3175000Y-30663404D01*
X21844000Y-13125500D02*
X21844000Y-5366000D01*
X4064000Y-14358000D02*
X4572000Y-13850000D01*
X38460000Y-12474000D02*
X38460000Y-7150000D01*
X4572000Y-13850000D02*
X4572000Y-13558500D01*
X3664800Y-30173604D02*
X3664800Y-14757200D01*
X4950000Y-34010000D02*
X4031000Y-34010000D01*
X37592000Y-13342000D02*
X38460000Y-12474000D01*
%TO.N,Net-(D1-A)*%
X39735000Y-4000000D02*
X37175000Y-4000000D01*
X37175000Y-4000000D02*
X37000000Y-3825000D01*
%TO.N,/BATTERIE 9V/BAT+_PROT*%
X37500000Y-39450000D02*
X37500000Y-35700000D01*
D37*
X37897250Y-33562500D02*
X39459750Y-32000000D01*
D36*
X37700000Y-33562500D02*
X37897250Y-33562500D01*
X37500000Y-35700000D02*
X37700000Y-35500000D01*
X37700000Y-35500000D02*
X37700000Y-33562500D01*
%TO.N,/BATTERIE 9V/24V_PROT_GATE*%
X35800000Y-39850000D02*
X35940000Y-39990000D01*
X35800000Y-39690000D02*
X35800000Y-39850000D01*
X35940000Y-39990000D02*
X35500000Y-39990000D01*
X37500000Y-41550000D02*
X35940000Y-39990000D01*
X35800000Y-33562500D02*
X35800000Y-39690000D01*
%TO.N,/BATTERIE 9V/VBAT*%
X39459750Y-29116627D02*
X39459750Y-29460000D01*
D38*
X6096000Y-22486000D02*
X6096000Y-24694000D01*
D36*
X38500000Y-42526000D02*
X38354000Y-42672000D01*
X34670000Y-27058000D02*
X34670000Y-30580000D01*
D38*
X11500000Y-5475000D02*
X12312500Y-5475000D01*
X12312500Y-5475000D02*
X12500000Y-5287500D01*
D36*
X35172000Y-42672000D02*
X34250000Y-41750000D01*
X39369750Y-28835750D02*
X39369750Y-29598000D01*
D38*
X6096000Y-24694000D02*
X5440000Y-25350000D01*
D36*
X34670000Y-23120000D02*
X34525000Y-22975000D01*
X34670000Y-27058000D02*
X34670000Y-23120000D01*
X39750000Y-39675000D02*
X38500000Y-40925000D01*
X38500000Y-40925000D02*
X38500000Y-42526000D01*
X38354000Y-42672000D02*
X35172000Y-42672000D01*
X34250000Y-41750000D02*
X34250000Y-31000000D01*
D38*
X11176000Y-21919000D02*
X11176000Y-9278000D01*
D36*
X34670000Y-30580000D02*
X34250000Y-31000000D01*
%TO.N,Net-(J9-DAT2)*%
X9075000Y-42000000D02*
X9075000Y-41650000D01*
X7425000Y-40000000D02*
X7425000Y-32500000D01*
X6735000Y-31810000D02*
X7425000Y-32500000D01*
X9075000Y-41650000D02*
X7425000Y-40000000D01*
X4950000Y-31810000D02*
X6735000Y-31810000D01*
D40*
%TO.N,/BATTERIE 9V/BAT+*%
X37000000Y-32635544D02*
X37000000Y-31000000D01*
X36750000Y-32885544D02*
X37000000Y-32635544D01*
X36750000Y-35437500D02*
X36750000Y-32885544D01*
X37000000Y-31000000D02*
X36750000Y-30750000D01*
D36*
%TO.N,Net-(J9-DAT1)*%
X4250000Y-42000000D02*
X4250000Y-40210000D01*
X4250000Y-40210000D02*
X4950000Y-39510000D01*
%TO.N,Net-(J2-Pin_9)*%
X33000000Y-3462500D02*
X33000000Y-2490000D01*
X33000000Y-2490000D02*
X31780000Y-1270000D01*
%TO.N,Net-(J2-Pin_10)*%
X35750000Y-3462500D02*
X35750000Y-2700000D01*
X35750000Y-2700000D02*
X34320000Y-1270000D01*
%TO.N,Net-(J2-Pin_2)*%
X12500000Y-2770000D02*
X14000000Y-1270000D01*
X12500000Y-3712500D02*
X12500000Y-2770000D01*
%TD*%
%TA.AperFunction,Conductor*%
%TO.N,GND*%
G36*
X1503677Y-2599543D02*
G01*
X1559610Y-2641415D01*
X1584027Y-2706879D01*
X1581776Y-2734864D01*
X1582231Y-2734913D01*
X1575000Y-2802155D01*
X1575000Y-3500000D01*
X2599722Y-3500000D01*
X2555667Y-3576306D01*
X2525000Y-3690756D01*
X2525000Y-3809244D01*
X2555667Y-3923694D01*
X2599722Y-4000000D01*
X1575000Y-4000000D01*
X1575000Y-4697844D01*
X1581401Y-4757372D01*
X1581403Y-4757379D01*
X1631645Y-4892086D01*
X1631649Y-4892093D01*
X1717809Y-5007187D01*
X1717812Y-5007190D01*
X1832906Y-5093350D01*
X1832913Y-5093354D01*
X1967620Y-5143596D01*
X1967627Y-5143598D01*
X2027155Y-5149999D01*
X2027172Y-5150000D01*
X2725000Y-5150000D01*
X2725000Y-4125277D01*
X2801306Y-4169333D01*
X2915756Y-4200000D01*
X3034244Y-4200000D01*
X3148694Y-4169333D01*
X3225000Y-4125277D01*
X3225000Y-5150000D01*
X3922828Y-5150000D01*
X3922844Y-5149999D01*
X3982372Y-5143598D01*
X3982379Y-5143596D01*
X4117086Y-5093354D01*
X4117093Y-5093350D01*
X4232187Y-5007190D01*
X4232190Y-5007187D01*
X4318350Y-4892093D01*
X4318354Y-4892086D01*
X4348213Y-4812031D01*
X4390084Y-4756097D01*
X4455548Y-4731680D01*
X4523821Y-4746531D01*
X4552076Y-4767683D01*
X4602636Y-4818243D01*
X4602641Y-4818247D01*
X4732175Y-4912358D01*
X4780978Y-4947815D01*
X4883396Y-5000000D01*
X4977393Y-5047895D01*
X4977396Y-5047896D01*
X5040032Y-5068247D01*
X5187049Y-5116015D01*
X5404778Y-5150500D01*
X5404779Y-5150500D01*
X5625221Y-5150500D01*
X5625222Y-5150500D01*
X5842951Y-5116015D01*
X6052606Y-5047895D01*
X6249022Y-4947815D01*
X6427365Y-4818242D01*
X6567049Y-4678557D01*
X6628368Y-4645075D01*
X6698060Y-4650059D01*
X6753994Y-4691930D01*
X6778411Y-4757395D01*
X6778218Y-4777461D01*
X6774500Y-4818384D01*
X6774500Y-5114547D01*
X6754815Y-5181586D01*
X6738181Y-5202228D01*
X6479031Y-5461377D01*
X6479023Y-5461385D01*
X6476270Y-5464139D01*
X6476267Y-5464142D01*
X6389142Y-5551267D01*
X6355728Y-5601274D01*
X6350249Y-5607491D01*
X6327422Y-5621890D01*
X6306715Y-5639196D01*
X6296673Y-5641286D01*
X6291155Y-5644768D01*
X6280389Y-5644677D01*
X6257225Y-5649500D01*
X4612129Y-5649500D01*
X4612123Y-5649501D01*
X4552516Y-5655908D01*
X4417671Y-5706202D01*
X4417664Y-5706206D01*
X4302455Y-5792452D01*
X4302452Y-5792455D01*
X4216206Y-5907664D01*
X4216202Y-5907671D01*
X4165908Y-6042517D01*
X4159501Y-6102116D01*
X4159501Y-6102123D01*
X4159500Y-6102135D01*
X4159500Y-8197870D01*
X4159501Y-8197876D01*
X4165908Y-8257483D01*
X4216202Y-8392328D01*
X4216206Y-8392335D01*
X4302452Y-8507544D01*
X4302455Y-8507547D01*
X4417664Y-8593793D01*
X4417671Y-8593797D01*
X4443054Y-8603264D01*
X4552517Y-8644091D01*
X4612127Y-8650500D01*
X4690500Y-8650499D01*
X4757538Y-8670183D01*
X4803294Y-8722986D01*
X4814500Y-8774499D01*
X4814500Y-10809151D01*
X4794815Y-10876190D01*
X4793605Y-10878038D01*
X4789990Y-10883448D01*
X4789983Y-10883460D01*
X4722106Y-11047332D01*
X4722104Y-11047340D01*
X4697933Y-11168854D01*
X4665548Y-11230765D01*
X4604832Y-11265339D01*
X4535062Y-11261598D01*
X4507425Y-11247764D01*
X4490553Y-11236490D01*
X4490540Y-11236483D01*
X4326667Y-11168606D01*
X4326658Y-11168603D01*
X4152694Y-11134000D01*
X4152691Y-11134000D01*
X3975309Y-11134000D01*
X3975306Y-11134000D01*
X3801341Y-11168603D01*
X3801332Y-11168606D01*
X3637459Y-11236483D01*
X3637446Y-11236490D01*
X3489965Y-11335035D01*
X3489961Y-11335038D01*
X3364538Y-11460461D01*
X3364535Y-11460465D01*
X3265990Y-11607946D01*
X3265983Y-11607959D01*
X3195775Y-11777461D01*
X3194081Y-11776759D01*
X3168233Y-11819870D01*
X2760115Y-12227989D01*
X2358870Y-12629234D01*
X2358867Y-12629237D01*
X2331660Y-12656444D01*
X2271742Y-12716361D01*
X2242260Y-12760485D01*
X2242259Y-12760486D01*
X2203290Y-12818803D01*
X2203288Y-12818808D01*
X2180298Y-12874312D01*
X2156139Y-12932635D01*
X2156135Y-12932650D01*
X2132100Y-13053484D01*
X2132100Y-25826000D01*
X2112415Y-25893039D01*
X2059611Y-25938794D01*
X2008100Y-25950000D01*
X1600000Y-25950000D01*
X1600000Y-28350000D01*
X2008100Y-28350000D01*
X2075139Y-28369685D01*
X2120894Y-28422489D01*
X2132100Y-28474000D01*
X2132100Y-29473555D01*
X2112415Y-29540594D01*
X2095781Y-29561236D01*
X1876269Y-29780748D01*
X1876267Y-29780750D01*
X1846179Y-29810838D01*
X1789142Y-29867874D01*
X1764065Y-29905405D01*
X1764064Y-29905404D01*
X1720689Y-29970320D01*
X1720685Y-29970327D01*
X1696976Y-30027567D01*
X1696976Y-30027569D01*
X1673537Y-30084156D01*
X1673536Y-30084160D01*
X1673536Y-30084161D01*
X1673535Y-30084164D01*
X1663601Y-30134105D01*
X1663602Y-30134106D01*
X1649735Y-30203826D01*
X1649727Y-30203865D01*
X1649717Y-30203914D01*
X1649500Y-30205002D01*
X1649500Y-37046611D01*
X1673535Y-37167444D01*
X1673540Y-37167460D01*
X1720685Y-37281280D01*
X1720687Y-37281283D01*
X1720688Y-37281286D01*
X1754915Y-37332509D01*
X1789142Y-37383733D01*
X1876267Y-37470858D01*
X1876269Y-37470859D01*
X3214141Y-38808732D01*
X3214142Y-38808733D01*
X3263273Y-38857864D01*
X3293728Y-38888319D01*
X3327212Y-38949643D01*
X3322227Y-39019334D01*
X3280356Y-39075268D01*
X3214891Y-39099684D01*
X3206046Y-39100000D01*
X2600000Y-39100000D01*
X2600000Y-41500000D01*
X3229023Y-41500000D01*
X3296062Y-41519685D01*
X3341817Y-41572489D01*
X3352513Y-41635221D01*
X3349500Y-41668384D01*
X3349500Y-41668388D01*
X3349500Y-42331613D01*
X3355913Y-42402192D01*
X3355913Y-42402194D01*
X3355914Y-42402196D01*
X3406522Y-42564606D01*
X3493480Y-42708452D01*
X3494530Y-42710188D01*
X3572161Y-42787819D01*
X3605646Y-42849142D01*
X3600662Y-42918834D01*
X3558790Y-42974767D01*
X3493326Y-42999184D01*
X3484480Y-42999500D01*
X2419086Y-42999500D01*
X2409360Y-42999118D01*
X2395744Y-42998046D01*
X2273449Y-42988423D01*
X2258984Y-42986422D01*
X2235986Y-42981847D01*
X2231235Y-42980805D01*
X2156293Y-42962815D01*
X2114833Y-42952861D01*
X2096338Y-42946852D01*
X1969457Y-42894298D01*
X1952130Y-42885469D01*
X1850049Y-42822916D01*
X1845973Y-42820307D01*
X1826454Y-42807265D01*
X1814820Y-42798458D01*
X1711243Y-42709995D01*
X1704093Y-42703386D01*
X296704Y-41295997D01*
X290089Y-41288841D01*
X279122Y-41275999D01*
X202420Y-41186179D01*
X193619Y-41174551D01*
X177610Y-41150588D01*
X175028Y-41146554D01*
X114556Y-41047860D01*
X114548Y-41047844D01*
X900000Y-41047844D01*
X906401Y-41107372D01*
X906403Y-41107379D01*
X956645Y-41242086D01*
X956649Y-41242093D01*
X1042809Y-41357187D01*
X1042812Y-41357190D01*
X1157906Y-41443350D01*
X1157913Y-41443354D01*
X1292620Y-41493596D01*
X1292627Y-41493598D01*
X1352155Y-41499999D01*
X1352172Y-41500000D01*
X2100000Y-41500000D01*
X2100000Y-40550000D01*
X900000Y-40550000D01*
X900000Y-41047844D01*
X114548Y-41047844D01*
X105725Y-41030525D01*
X104147Y-41026716D01*
X53181Y-40903658D01*
X47171Y-40885159D01*
X20149Y-40772588D01*
X19131Y-40767941D01*
X13506Y-40739658D01*
X11510Y-40725229D01*
X881Y-40590142D01*
X500Y-40580422D01*
X500Y-39552155D01*
X900000Y-39552155D01*
X900000Y-40050000D01*
X2100000Y-40050000D01*
X2100000Y-39100000D01*
X1352155Y-39100000D01*
X1292627Y-39106401D01*
X1292620Y-39106403D01*
X1157913Y-39156645D01*
X1157906Y-39156649D01*
X1042812Y-39242809D01*
X1042809Y-39242812D01*
X956649Y-39357906D01*
X956645Y-39357913D01*
X906403Y-39492620D01*
X906401Y-39492627D01*
X900000Y-39552155D01*
X500Y-39552155D01*
X500Y-28413236D01*
X20185Y-28346197D01*
X72989Y-28300442D01*
X142147Y-28290498D01*
X167833Y-28297054D01*
X292620Y-28343596D01*
X292627Y-28343598D01*
X352155Y-28349999D01*
X352172Y-28350000D01*
X1100000Y-28350000D01*
X1100000Y-25950000D01*
X352155Y-25950000D01*
X292627Y-25956401D01*
X292617Y-25956403D01*
X167832Y-26002945D01*
X98141Y-26007929D01*
X36818Y-25974443D01*
X3334Y-25913120D01*
X500Y-25886763D01*
X500Y-4419086D01*
X882Y-4409360D01*
X2767Y-4385403D01*
X11578Y-4273434D01*
X13573Y-4259007D01*
X18165Y-4235926D01*
X19179Y-4231303D01*
X47142Y-4114836D01*
X53153Y-4096338D01*
X60881Y-4077683D01*
X105710Y-3969462D01*
X114535Y-3952143D01*
X177144Y-3849982D01*
X179670Y-3846038D01*
X192758Y-3826451D01*
X201533Y-3814860D01*
X290279Y-3710964D01*
X296856Y-3703850D01*
X1372664Y-2628042D01*
X1433985Y-2594559D01*
X1503677Y-2599543D01*
G37*
%TD.AperFunction*%
%TA.AperFunction,Conductor*%
G36*
X9337682Y-8449843D02*
G01*
X9349261Y-8463207D01*
X9382454Y-8507546D01*
X9388941Y-8512402D01*
X9497664Y-8593793D01*
X9497671Y-8593797D01*
X9632517Y-8644091D01*
X9632516Y-8644091D01*
X9639444Y-8644835D01*
X9692127Y-8650500D01*
X10280272Y-8650499D01*
X10347310Y-8670183D01*
X10393065Y-8722987D01*
X10403009Y-8792146D01*
X10383376Y-8843385D01*
X10377993Y-8851441D01*
X10377983Y-8851459D01*
X10310106Y-9015332D01*
X10310103Y-9015341D01*
X10275500Y-9189304D01*
X10275500Y-9189309D01*
X10275500Y-9366691D01*
X10275500Y-9366693D01*
X10275499Y-9366693D01*
X10288455Y-9431820D01*
X10295942Y-9469461D01*
X10298117Y-9480392D01*
X10300500Y-9504584D01*
X10300500Y-21692414D01*
X10298117Y-21716606D01*
X10275500Y-21830306D01*
X10275500Y-22007695D01*
X10310103Y-22181658D01*
X10310106Y-22181667D01*
X10377983Y-22345540D01*
X10377990Y-22345553D01*
X10476535Y-22493034D01*
X10476538Y-22493038D01*
X10601961Y-22618461D01*
X10601965Y-22618464D01*
X10749446Y-22717009D01*
X10749459Y-22717016D01*
X10835687Y-22752732D01*
X10913334Y-22784894D01*
X10913336Y-22784894D01*
X10913341Y-22784896D01*
X11087304Y-22819499D01*
X11087307Y-22819500D01*
X11087309Y-22819500D01*
X11264693Y-22819500D01*
X11264694Y-22819499D01*
X11322682Y-22807964D01*
X11438658Y-22784896D01*
X11438661Y-22784894D01*
X11438666Y-22784894D01*
X11602547Y-22717013D01*
X11750035Y-22618464D01*
X11875464Y-22493035D01*
X11957398Y-22370413D01*
X12011010Y-22325608D01*
X12080335Y-22316901D01*
X12143363Y-22347055D01*
X12180082Y-22406499D01*
X12184500Y-22439304D01*
X12184500Y-23765344D01*
X12164815Y-23832383D01*
X12112011Y-23878138D01*
X12103833Y-23881526D01*
X12037671Y-23906202D01*
X12037664Y-23906206D01*
X11922455Y-23992452D01*
X11889266Y-24036787D01*
X11833332Y-24078657D01*
X11763640Y-24083641D01*
X11702317Y-24050155D01*
X11690734Y-24036787D01*
X11657592Y-23992516D01*
X11657546Y-23992454D01*
X11657544Y-23992453D01*
X11657544Y-23992452D01*
X11542335Y-23906206D01*
X11542328Y-23906202D01*
X11407482Y-23855908D01*
X11407483Y-23855908D01*
X11347883Y-23849501D01*
X11347881Y-23849500D01*
X11347873Y-23849500D01*
X11347864Y-23849500D01*
X9692129Y-23849500D01*
X9692123Y-23849501D01*
X9632516Y-23855908D01*
X9497671Y-23906202D01*
X9497664Y-23906206D01*
X9382455Y-23992452D01*
X9382453Y-23992454D01*
X9348952Y-24037205D01*
X9293018Y-24079075D01*
X9223326Y-24084058D01*
X9162004Y-24050571D01*
X9150420Y-24037203D01*
X9117186Y-23992808D01*
X9002093Y-23906649D01*
X9002086Y-23906645D01*
X8867379Y-23856403D01*
X8867372Y-23856401D01*
X8807844Y-23850000D01*
X8230000Y-23850000D01*
X8230000Y-26850000D01*
X8807828Y-26850000D01*
X8807844Y-26849999D01*
X8867372Y-26843598D01*
X8867379Y-26843596D01*
X9002086Y-26793354D01*
X9002093Y-26793350D01*
X9117185Y-26707191D01*
X9150419Y-26662797D01*
X9206353Y-26620925D01*
X9276044Y-26615941D01*
X9337368Y-26649425D01*
X9348953Y-26662795D01*
X9349266Y-26663213D01*
X9382187Y-26707190D01*
X9382455Y-26707547D01*
X9497664Y-26793793D01*
X9497671Y-26793797D01*
X9632517Y-26844091D01*
X9632516Y-26844091D01*
X9639444Y-26844835D01*
X9692127Y-26850500D01*
X11347872Y-26850499D01*
X11407483Y-26844091D01*
X11542331Y-26793796D01*
X11657546Y-26707546D01*
X11690734Y-26663211D01*
X11746667Y-26621342D01*
X11816359Y-26616358D01*
X11871985Y-26644495D01*
X11881592Y-26652961D01*
X11922454Y-26707546D01*
X12037669Y-26793796D01*
X12044132Y-26796206D01*
X12057866Y-26808310D01*
X12069409Y-26826607D01*
X12084712Y-26841909D01*
X12087685Y-26855575D01*
X12095147Y-26867403D01*
X12094965Y-26889040D01*
X12098485Y-26905217D01*
X12099500Y-26905217D01*
X12099500Y-26909883D01*
X12099565Y-26910182D01*
X12099500Y-26910949D01*
X12099500Y-27088695D01*
X12134103Y-27262658D01*
X12134106Y-27262667D01*
X12201983Y-27426540D01*
X12201990Y-27426553D01*
X12300535Y-27574034D01*
X12300538Y-27574038D01*
X12425961Y-27699461D01*
X12425965Y-27699464D01*
X12573446Y-27798009D01*
X12573459Y-27798016D01*
X12609782Y-27813061D01*
X12737334Y-27865894D01*
X12737336Y-27865894D01*
X12737341Y-27865896D01*
X12911304Y-27900499D01*
X12911307Y-27900500D01*
X12911309Y-27900500D01*
X13088693Y-27900500D01*
X13088694Y-27900499D01*
X13149159Y-27888472D01*
X13262658Y-27865896D01*
X13262661Y-27865894D01*
X13262666Y-27865894D01*
X13426547Y-27798013D01*
X13574035Y-27699464D01*
X13605035Y-27668464D01*
X13637819Y-27635681D01*
X13699142Y-27602196D01*
X13768834Y-27607180D01*
X13824767Y-27649052D01*
X13849184Y-27714516D01*
X13849500Y-27723362D01*
X13849500Y-37736606D01*
X13859026Y-37784501D01*
X13859025Y-37784501D01*
X13873182Y-37855669D01*
X13873535Y-37857444D01*
X13873539Y-37857458D01*
X13920685Y-37971280D01*
X13920687Y-37971283D01*
X13920688Y-37971286D01*
X13954915Y-38022509D01*
X13989142Y-38073733D01*
X14076267Y-38160858D01*
X14076270Y-38160860D01*
X14083554Y-38168144D01*
X14263181Y-38347771D01*
X14296666Y-38409094D01*
X14299500Y-38435452D01*
X14299500Y-39647870D01*
X14299501Y-39647876D01*
X14305908Y-39707483D01*
X14356202Y-39842328D01*
X14356206Y-39842335D01*
X14442452Y-39957544D01*
X14442455Y-39957547D01*
X14557664Y-40043793D01*
X14557671Y-40043797D01*
X14692517Y-40094091D01*
X14692516Y-40094091D01*
X14699444Y-40094835D01*
X14752127Y-40100500D01*
X16247872Y-40100499D01*
X16307483Y-40094091D01*
X16442331Y-40043796D01*
X16557546Y-39957546D01*
X16643796Y-39842331D01*
X16694091Y-39707483D01*
X16700500Y-39647873D01*
X16700499Y-38327135D01*
X25324500Y-38327135D01*
X25324500Y-40222870D01*
X25324501Y-40222876D01*
X25330908Y-40282483D01*
X25381202Y-40417328D01*
X25381206Y-40417335D01*
X25467452Y-40532544D01*
X25467455Y-40532547D01*
X25582664Y-40618793D01*
X25582671Y-40618797D01*
X25717517Y-40669091D01*
X25717516Y-40669091D01*
X25724444Y-40669835D01*
X25777127Y-40675500D01*
X27672872Y-40675499D01*
X27732483Y-40669091D01*
X27867331Y-40618796D01*
X27982546Y-40532546D01*
X28068796Y-40417331D01*
X28119091Y-40282483D01*
X28125500Y-40222873D01*
X28125499Y-38327128D01*
X28119091Y-38267517D01*
X28114118Y-38254185D01*
X28068797Y-38132671D01*
X28068793Y-38132664D01*
X27982547Y-38017455D01*
X27982544Y-38017452D01*
X27867335Y-37931206D01*
X27867328Y-37931202D01*
X27732482Y-37880908D01*
X27732483Y-37880908D01*
X27672883Y-37874501D01*
X27672881Y-37874500D01*
X27672873Y-37874500D01*
X27672864Y-37874500D01*
X25777129Y-37874500D01*
X25777123Y-37874501D01*
X25717516Y-37880908D01*
X25582671Y-37931202D01*
X25582664Y-37931206D01*
X25467455Y-38017452D01*
X25467452Y-38017455D01*
X25381206Y-38132664D01*
X25381202Y-38132671D01*
X25330908Y-38267517D01*
X25326665Y-38306989D01*
X25324501Y-38327123D01*
X25324500Y-38327135D01*
X16700499Y-38327135D01*
X16700499Y-37752128D01*
X16694091Y-37692517D01*
X16679148Y-37652454D01*
X16643797Y-37557671D01*
X16643793Y-37557664D01*
X16557547Y-37442455D01*
X16557544Y-37442452D01*
X16442335Y-37356206D01*
X16442328Y-37356202D01*
X16307482Y-37305908D01*
X16307483Y-37305908D01*
X16247883Y-37299501D01*
X16247881Y-37299500D01*
X16247873Y-37299500D01*
X16247865Y-37299500D01*
X15224500Y-37299500D01*
X15157461Y-37279815D01*
X15111706Y-37227011D01*
X15100500Y-37175500D01*
X15100500Y-34524000D01*
X15120185Y-34456961D01*
X15172989Y-34411206D01*
X15224500Y-34400000D01*
X15250000Y-34400000D01*
X15250000Y-31600000D01*
X15224500Y-31600000D01*
X15157461Y-31580315D01*
X15111706Y-31527511D01*
X15100500Y-31476000D01*
X15100500Y-30114500D01*
X15120185Y-30047461D01*
X15172989Y-30001706D01*
X15224500Y-29990500D01*
X15328693Y-29990500D01*
X15328694Y-29990499D01*
X15408178Y-29974689D01*
X15502658Y-29955896D01*
X15502661Y-29955894D01*
X15502666Y-29955894D01*
X15666547Y-29888013D01*
X15696359Y-29868093D01*
X15819100Y-29786080D01*
X15820294Y-29787868D01*
X15875634Y-29764339D01*
X15944506Y-29776101D01*
X15958930Y-29784396D01*
X15981853Y-29799713D01*
X15981859Y-29799715D01*
X15981860Y-29799716D01*
X16008711Y-29810838D01*
X16145734Y-29867594D01*
X16145736Y-29867594D01*
X16145741Y-29867596D01*
X16319704Y-29902199D01*
X16319707Y-29902200D01*
X16501338Y-29902200D01*
X16533422Y-29911621D01*
X16565763Y-29920250D01*
X16566841Y-29921434D01*
X16568377Y-29921885D01*
X16590268Y-29947148D01*
X16612817Y-29971900D01*
X16613350Y-29973787D01*
X16614132Y-29974689D01*
X16623599Y-30005507D01*
X16624500Y-30010831D01*
X16624500Y-30011607D01*
X16625038Y-30014311D01*
X16625377Y-30016018D01*
X16625386Y-30016068D01*
X16648535Y-30132444D01*
X16648538Y-30132454D01*
X16662347Y-30165792D01*
X16662347Y-30165793D01*
X16688738Y-30229508D01*
X16696207Y-30298978D01*
X16664931Y-30361457D01*
X16661859Y-30364641D01*
X16600535Y-30425965D01*
X16501990Y-30573446D01*
X16501983Y-30573459D01*
X16434106Y-30737332D01*
X16434103Y-30737341D01*
X16399500Y-30911304D01*
X16399500Y-31088695D01*
X16434103Y-31262658D01*
X16434106Y-31262667D01*
X16501983Y-31426540D01*
X16501989Y-31426551D01*
X16513334Y-31443530D01*
X16534211Y-31510208D01*
X16515726Y-31577588D01*
X16463746Y-31624278D01*
X16394776Y-31635453D01*
X16366898Y-31628602D01*
X16307379Y-31606403D01*
X16307372Y-31606401D01*
X16247844Y-31600000D01*
X15750000Y-31600000D01*
X15750000Y-34400000D01*
X16247828Y-34400000D01*
X16247844Y-34399999D01*
X16307372Y-34393598D01*
X16307379Y-34393596D01*
X16442086Y-34343354D01*
X16442093Y-34343350D01*
X16557187Y-34257190D01*
X16557190Y-34257187D01*
X16643350Y-34142093D01*
X16643354Y-34142086D01*
X16693596Y-34007379D01*
X16693598Y-34007372D01*
X16700071Y-33947172D01*
X16726809Y-33882620D01*
X16784201Y-33842772D01*
X16854026Y-33840279D01*
X16877203Y-33849719D01*
X16877258Y-33849588D01*
X16915345Y-33865363D01*
X17024764Y-33910687D01*
X17137280Y-33925500D01*
X17274902Y-33925500D01*
X17304341Y-33934144D01*
X17334327Y-33940667D01*
X17339343Y-33944422D01*
X17341941Y-33945185D01*
X17362576Y-33961812D01*
X17381284Y-33980520D01*
X17381286Y-33980521D01*
X18381284Y-34980520D01*
X18381286Y-34980521D01*
X18381290Y-34980524D01*
X18518209Y-35059573D01*
X18518216Y-35059577D01*
X18670943Y-35100501D01*
X18670945Y-35100501D01*
X18836654Y-35100501D01*
X18836670Y-35100500D01*
X19000085Y-35100500D01*
X19067124Y-35120185D01*
X19112879Y-35172989D01*
X19121702Y-35200309D01*
X19134103Y-35262658D01*
X19134106Y-35262667D01*
X19201983Y-35426540D01*
X19201990Y-35426553D01*
X19300535Y-35574034D01*
X19300538Y-35574038D01*
X19338180Y-35611679D01*
X19371666Y-35673001D01*
X19374500Y-35699361D01*
X19374500Y-36496539D01*
X19354815Y-36563578D01*
X19338181Y-36584220D01*
X19300538Y-36621862D01*
X19300535Y-36621866D01*
X19201990Y-36769347D01*
X19201983Y-36769360D01*
X19134106Y-36933233D01*
X19134103Y-36933242D01*
X19099500Y-37107205D01*
X19099500Y-37284596D01*
X19134103Y-37458559D01*
X19134106Y-37458568D01*
X19201983Y-37622441D01*
X19201990Y-37622454D01*
X19300535Y-37769935D01*
X19300538Y-37769939D01*
X19425961Y-37895362D01*
X19425965Y-37895365D01*
X19573446Y-37993910D01*
X19573459Y-37993917D01*
X19642488Y-38022509D01*
X19737334Y-38061795D01*
X19737336Y-38061795D01*
X19737341Y-38061797D01*
X19911304Y-38096400D01*
X19911307Y-38096401D01*
X19911309Y-38096401D01*
X20088693Y-38096401D01*
X20088694Y-38096400D01*
X20146682Y-38084865D01*
X20262658Y-38061797D01*
X20262661Y-38061795D01*
X20262666Y-38061795D01*
X20426547Y-37993914D01*
X20574035Y-37895365D01*
X20699464Y-37769936D01*
X20798013Y-37622448D01*
X20865894Y-37458567D01*
X20869100Y-37442452D01*
X20897534Y-37299501D01*
X20900500Y-37284592D01*
X20900500Y-37107210D01*
X20900500Y-37107207D01*
X20900499Y-37107205D01*
X20865896Y-36933242D01*
X20865893Y-36933233D01*
X20860488Y-36920185D01*
X20832383Y-36852331D01*
X20798016Y-36769360D01*
X20798009Y-36769347D01*
X20699464Y-36621866D01*
X20699461Y-36621862D01*
X20661819Y-36584220D01*
X20628334Y-36522897D01*
X20625500Y-36496539D01*
X20625500Y-35699361D01*
X20645185Y-35632322D01*
X20661820Y-35611679D01*
X20699461Y-35574038D01*
X20699464Y-35574035D01*
X20798013Y-35426547D01*
X20865894Y-35262666D01*
X20900500Y-35088691D01*
X20900500Y-34974500D01*
X20920185Y-34907461D01*
X20972989Y-34861706D01*
X21024500Y-34850500D01*
X21663331Y-34850500D01*
X21663347Y-34850501D01*
X21670943Y-34850501D01*
X21829054Y-34850501D01*
X21829057Y-34850501D01*
X21981785Y-34809577D01*
X22054584Y-34767546D01*
X22118716Y-34730520D01*
X22230520Y-34618716D01*
X22230521Y-34618714D01*
X22580520Y-34268716D01*
X22659577Y-34131784D01*
X22700501Y-33979057D01*
X22700501Y-33820942D01*
X22700501Y-33813347D01*
X22700500Y-33813329D01*
X22700500Y-33404090D01*
X22720185Y-33337051D01*
X22736819Y-33316409D01*
X22849216Y-33204011D01*
X22849221Y-33204006D01*
X22932164Y-33063756D01*
X22977623Y-32907286D01*
X22980500Y-32870731D01*
X22980499Y-31089270D01*
X22977623Y-31052714D01*
X22932164Y-30896244D01*
X22849221Y-30755994D01*
X22849219Y-30755992D01*
X22849216Y-30755988D01*
X22786319Y-30693091D01*
X22771615Y-30666163D01*
X22755023Y-30640345D01*
X22754131Y-30634144D01*
X22752834Y-30631768D01*
X22750000Y-30605410D01*
X22750000Y-30374000D01*
X22769685Y-30306961D01*
X22822489Y-30261206D01*
X22874000Y-30250000D01*
X23126000Y-30250000D01*
X23193039Y-30269685D01*
X23238794Y-30322489D01*
X23250000Y-30374000D01*
X23250000Y-31224999D01*
X23273308Y-31224999D01*
X23273322Y-31224998D01*
X23372607Y-31214855D01*
X23533486Y-31161545D01*
X23536385Y-31160194D01*
X23538565Y-31159862D01*
X23540339Y-31159275D01*
X23540439Y-31159578D01*
X23605462Y-31149699D01*
X23669247Y-31178217D01*
X23707488Y-31236692D01*
X23708045Y-31306560D01*
X23707871Y-31307164D01*
X23702292Y-31326369D01*
X23702290Y-31326379D01*
X23699500Y-31361829D01*
X23699500Y-31738150D01*
X23699501Y-31738175D01*
X23702291Y-31773627D01*
X23746380Y-31925385D01*
X23746382Y-31925390D01*
X23826827Y-32061416D01*
X23826834Y-32061425D01*
X23938574Y-32173165D01*
X23938578Y-32173168D01*
X23938580Y-32173170D01*
X24074610Y-32253618D01*
X24226373Y-32297709D01*
X24261837Y-32300500D01*
X24370757Y-32300499D01*
X24402355Y-32304592D01*
X24410460Y-32306728D01*
X24431548Y-32315463D01*
X24476982Y-32324500D01*
X24552391Y-32339499D01*
X24552392Y-32339500D01*
X24552393Y-32339500D01*
X24552394Y-32339500D01*
X24936698Y-32339500D01*
X25003737Y-32359185D01*
X25015361Y-32367645D01*
X25019391Y-32370953D01*
X25166872Y-32469497D01*
X25166879Y-32469501D01*
X25247952Y-32503082D01*
X25302355Y-32546922D01*
X25324421Y-32613216D01*
X25324500Y-32617643D01*
X25324500Y-33000500D01*
X25321949Y-33009185D01*
X25323238Y-33018147D01*
X25312259Y-33042187D01*
X25304815Y-33067539D01*
X25297974Y-33073466D01*
X25294213Y-33081703D01*
X25271978Y-33095992D01*
X25252011Y-33113294D01*
X25241496Y-33115581D01*
X25235435Y-33119477D01*
X25200500Y-33124500D01*
X24991402Y-33124500D01*
X24928281Y-33107232D01*
X24909275Y-33095992D01*
X24825390Y-33046382D01*
X24825385Y-33046380D01*
X24673633Y-33002292D01*
X24673620Y-33002290D01*
X24638163Y-32999500D01*
X24261849Y-32999500D01*
X24261824Y-32999501D01*
X24226372Y-33002291D01*
X24074614Y-33046380D01*
X24074609Y-33046382D01*
X23938583Y-33126827D01*
X23938574Y-33126834D01*
X23826834Y-33238574D01*
X23826827Y-33238583D01*
X23746382Y-33374609D01*
X23746380Y-33374614D01*
X23702292Y-33526366D01*
X23702290Y-33526379D01*
X23699500Y-33561829D01*
X23699500Y-33938150D01*
X23699501Y-33938175D01*
X23702291Y-33973627D01*
X23746380Y-34125385D01*
X23746382Y-34125390D01*
X23826827Y-34261416D01*
X23826834Y-34261425D01*
X23938574Y-34373165D01*
X23938583Y-34373172D01*
X23971718Y-34392768D01*
X24074610Y-34453618D01*
X24226373Y-34497709D01*
X24261837Y-34500500D01*
X24638162Y-34500499D01*
X24673627Y-34497709D01*
X24825390Y-34453618D01*
X24928281Y-34392767D01*
X24991402Y-34375500D01*
X25416769Y-34375500D01*
X25483808Y-34395185D01*
X25491080Y-34400233D01*
X25554497Y-34447706D01*
X25574345Y-34462565D01*
X25582668Y-34468795D01*
X25582671Y-34468797D01*
X25717517Y-34519091D01*
X25717516Y-34519091D01*
X25724444Y-34519835D01*
X25777127Y-34525500D01*
X27672872Y-34525499D01*
X27732483Y-34519091D01*
X27867331Y-34468796D01*
X27982546Y-34382546D01*
X28068796Y-34267331D01*
X28119091Y-34132483D01*
X28125500Y-34072873D01*
X28125499Y-32463499D01*
X28145184Y-32396461D01*
X28197987Y-32350706D01*
X28249499Y-32339500D01*
X31153548Y-32339500D01*
X31220587Y-32359185D01*
X31241229Y-32375819D01*
X31438181Y-32572771D01*
X31471666Y-32634094D01*
X31474500Y-32660452D01*
X31474500Y-34072870D01*
X31474501Y-34072876D01*
X31480908Y-34132483D01*
X31531202Y-34267328D01*
X31531206Y-34267335D01*
X31617452Y-34382544D01*
X31617455Y-34382547D01*
X31732664Y-34468793D01*
X31732671Y-34468797D01*
X31755523Y-34477320D01*
X31867517Y-34519091D01*
X31927127Y-34525500D01*
X32200425Y-34525499D01*
X32267463Y-34545183D01*
X32313218Y-34597987D01*
X32323162Y-34667146D01*
X32303526Y-34718390D01*
X32201990Y-34870347D01*
X32201983Y-34870360D01*
X32134106Y-35034233D01*
X32134103Y-35034242D01*
X32099500Y-35208205D01*
X32099500Y-35385596D01*
X32134103Y-35559559D01*
X32134106Y-35559568D01*
X32201983Y-35723441D01*
X32201990Y-35723454D01*
X32300535Y-35870935D01*
X32300538Y-35870939D01*
X32338180Y-35908580D01*
X32371666Y-35969902D01*
X32374500Y-35996262D01*
X32374500Y-36496539D01*
X32354815Y-36563578D01*
X32338181Y-36584220D01*
X32300538Y-36621862D01*
X32300535Y-36621866D01*
X32201990Y-36769347D01*
X32201983Y-36769360D01*
X32134106Y-36933233D01*
X32134103Y-36933242D01*
X32099500Y-37107205D01*
X32099500Y-37284596D01*
X32134103Y-37458559D01*
X32134106Y-37458568D01*
X32201983Y-37622441D01*
X32201990Y-37622453D01*
X32241517Y-37681609D01*
X32262395Y-37748286D01*
X32243911Y-37815666D01*
X32191932Y-37862357D01*
X32138416Y-37874500D01*
X31927130Y-37874500D01*
X31927123Y-37874501D01*
X31867516Y-37880908D01*
X31732671Y-37931202D01*
X31732664Y-37931206D01*
X31617455Y-38017452D01*
X31617452Y-38017455D01*
X31531206Y-38132664D01*
X31531202Y-38132671D01*
X31480908Y-38267517D01*
X31476665Y-38306989D01*
X31474501Y-38327123D01*
X31474500Y-38327135D01*
X31474500Y-40222870D01*
X31474501Y-40222876D01*
X31480908Y-40282483D01*
X31531202Y-40417328D01*
X31531206Y-40417335D01*
X31617452Y-40532544D01*
X31617455Y-40532547D01*
X31732664Y-40618793D01*
X31732671Y-40618797D01*
X31867517Y-40669091D01*
X31867516Y-40669091D01*
X31874444Y-40669835D01*
X31927127Y-40675500D01*
X33500500Y-40675499D01*
X33567539Y-40695184D01*
X33613294Y-40747987D01*
X33624500Y-40799499D01*
X33624500Y-41811610D01*
X33648535Y-41932444D01*
X33648538Y-41932454D01*
X33660722Y-41961871D01*
X33660727Y-41961881D01*
X33662347Y-41965792D01*
X33695688Y-42046286D01*
X33718531Y-42080472D01*
X33722938Y-42087068D01*
X33722941Y-42087073D01*
X33764141Y-42148732D01*
X33764144Y-42148736D01*
X33855586Y-42240178D01*
X33855608Y-42240198D01*
X34403229Y-42787819D01*
X34436714Y-42849142D01*
X34431730Y-42918834D01*
X34389858Y-42974767D01*
X34324394Y-42999184D01*
X34315548Y-42999500D01*
X9840520Y-42999500D01*
X9773481Y-42979815D01*
X9727726Y-42927011D01*
X9717782Y-42857853D01*
X9746807Y-42794297D01*
X9752839Y-42787819D01*
X9830468Y-42710189D01*
X9830469Y-42710188D01*
X9830472Y-42710185D01*
X9918478Y-42564606D01*
X9969086Y-42402196D01*
X9975500Y-42331616D01*
X9975500Y-41668384D01*
X9969086Y-41597804D01*
X9918478Y-41435394D01*
X9830472Y-41289815D01*
X9830470Y-41289813D01*
X9830469Y-41289811D01*
X9710188Y-41169530D01*
X9700499Y-41163673D01*
X9564606Y-41081522D01*
X9417132Y-41035568D01*
X9402193Y-41030913D01*
X9379047Y-41028810D01*
X9314064Y-41003137D01*
X9302591Y-40993000D01*
X9070121Y-40760530D01*
X11274650Y-40760530D01*
X13350000Y-40760530D01*
X13350000Y-30380000D01*
X11274650Y-30380000D01*
X11274650Y-40760530D01*
X9070121Y-40760530D01*
X8086819Y-39777228D01*
X8053334Y-39715905D01*
X8050500Y-39689547D01*
X8050500Y-32438398D01*
X8050499Y-32438390D01*
X8049924Y-32435500D01*
X8026463Y-32317549D01*
X8017946Y-32296988D01*
X7979311Y-32203714D01*
X7979309Y-32203711D01*
X7979307Y-32203707D01*
X7910859Y-32101268D01*
X7871007Y-32061416D01*
X7823733Y-32014142D01*
X7823732Y-32014141D01*
X7220859Y-31411269D01*
X7220858Y-31411267D01*
X7133733Y-31324142D01*
X7080231Y-31288393D01*
X7073583Y-31283951D01*
X7073581Y-31283949D01*
X7031290Y-31255690D01*
X7031286Y-31255688D01*
X6941913Y-31218669D01*
X6941911Y-31218668D01*
X6933897Y-31215349D01*
X6917452Y-31208537D01*
X6857029Y-31196518D01*
X6853570Y-31195830D01*
X6796610Y-31184500D01*
X6796607Y-31184500D01*
X6796606Y-31184500D01*
X6468465Y-31184500D01*
X6401426Y-31164815D01*
X6369198Y-31134811D01*
X6307546Y-31052454D01*
X6277873Y-31030241D01*
X6192335Y-30966206D01*
X6192328Y-30966202D01*
X6057482Y-30915908D01*
X6057483Y-30915908D01*
X5997883Y-30909501D01*
X5997881Y-30909500D01*
X5997873Y-30909500D01*
X5997865Y-30909500D01*
X4731907Y-30909500D01*
X4722157Y-30906637D01*
X4712075Y-30907904D01*
X4689198Y-30896959D01*
X4664868Y-30889815D01*
X4658213Y-30882135D01*
X4649047Y-30877750D01*
X4635718Y-30856175D01*
X4619113Y-30837011D01*
X4617666Y-30826953D01*
X4612326Y-30818308D01*
X4612778Y-30792954D01*
X4609169Y-30767853D01*
X4613423Y-30756748D01*
X4613572Y-30748450D01*
X4628803Y-30716612D01*
X4641290Y-30697923D01*
X4669111Y-30656286D01*
X4669112Y-30656285D01*
X4705103Y-30569394D01*
X4716263Y-30542452D01*
X4724455Y-30501265D01*
X4730732Y-30469712D01*
X4730732Y-30469708D01*
X4740300Y-30421607D01*
X4740300Y-30298393D01*
X4740300Y-26974499D01*
X4759985Y-26907460D01*
X4812789Y-26861705D01*
X4864300Y-26850499D01*
X6267871Y-26850499D01*
X6267872Y-26850499D01*
X6327483Y-26844091D01*
X6462331Y-26793796D01*
X6577546Y-26707546D01*
X6611046Y-26662794D01*
X6666979Y-26620925D01*
X6736671Y-26615941D01*
X6797994Y-26649426D01*
X6809579Y-26662796D01*
X6842813Y-26707190D01*
X6957906Y-26793350D01*
X6957913Y-26793354D01*
X7092620Y-26843596D01*
X7092627Y-26843598D01*
X7152155Y-26849999D01*
X7152172Y-26850000D01*
X7730000Y-26850000D01*
X7730000Y-23850000D01*
X7152172Y-23850000D01*
X7152153Y-23850001D01*
X7108755Y-23854667D01*
X7039996Y-23842262D01*
X6988858Y-23794652D01*
X6971500Y-23731378D01*
X6971500Y-22712584D01*
X6973883Y-22688392D01*
X6996500Y-22574693D01*
X6996500Y-22397306D01*
X6996499Y-22397304D01*
X6961896Y-22223341D01*
X6961893Y-22223332D01*
X6894016Y-22059459D01*
X6894009Y-22059446D01*
X6795464Y-21911965D01*
X6795461Y-21911961D01*
X6670038Y-21786538D01*
X6670034Y-21786535D01*
X6522553Y-21687990D01*
X6522540Y-21687983D01*
X6358667Y-21620106D01*
X6358658Y-21620103D01*
X6184694Y-21585500D01*
X6184691Y-21585500D01*
X6007309Y-21585500D01*
X6007306Y-21585500D01*
X5833341Y-21620103D01*
X5833332Y-21620106D01*
X5669459Y-21687983D01*
X5669446Y-21687990D01*
X5521965Y-21786535D01*
X5521961Y-21786538D01*
X5396538Y-21911961D01*
X5396535Y-21911965D01*
X5297990Y-22059446D01*
X5297983Y-22059459D01*
X5230106Y-22223332D01*
X5230103Y-22223341D01*
X5195500Y-22397304D01*
X5195500Y-22397309D01*
X5195500Y-22574691D01*
X5195500Y-22574693D01*
X5195499Y-22574693D01*
X5218117Y-22688392D01*
X5220500Y-22712584D01*
X5220500Y-23725500D01*
X5217949Y-23734185D01*
X5219238Y-23743147D01*
X5208259Y-23767187D01*
X5200815Y-23792539D01*
X5193974Y-23798466D01*
X5190213Y-23806703D01*
X5167978Y-23820992D01*
X5148011Y-23838294D01*
X5137496Y-23840581D01*
X5131435Y-23844477D01*
X5096500Y-23849500D01*
X4864300Y-23849500D01*
X4797261Y-23829815D01*
X4751506Y-23777011D01*
X4740300Y-23725500D01*
X4740300Y-22613780D01*
X4742683Y-22589587D01*
X4753699Y-22534209D01*
X4753699Y-22405885D01*
X4753698Y-22405859D01*
X4753698Y-15748649D01*
X4773383Y-15681610D01*
X4790013Y-15660972D01*
X5327896Y-15123088D01*
X5389217Y-15089605D01*
X5439768Y-15089154D01*
X5499308Y-15100998D01*
X5499309Y-15100998D01*
X5676693Y-15100998D01*
X5676694Y-15100997D01*
X5738562Y-15088691D01*
X5850658Y-15066394D01*
X5850661Y-15066392D01*
X5850666Y-15066392D01*
X6014547Y-14998511D01*
X6162035Y-14899962D01*
X6162038Y-14899959D01*
X6287463Y-14774535D01*
X6287464Y-14774533D01*
X6386013Y-14627045D01*
X6453894Y-14463164D01*
X6461294Y-14425965D01*
X6477062Y-14346689D01*
X6488500Y-14289189D01*
X6488500Y-14111807D01*
X6488500Y-14111804D01*
X6488499Y-14111802D01*
X6453896Y-13937839D01*
X6453893Y-13937830D01*
X6386016Y-13773957D01*
X6386009Y-13773944D01*
X6287464Y-13626463D01*
X6287461Y-13626459D01*
X6162038Y-13501036D01*
X6162034Y-13501033D01*
X6014553Y-13402488D01*
X6014540Y-13402481D01*
X5850667Y-13334604D01*
X5850658Y-13334601D01*
X5676694Y-13299998D01*
X5676691Y-13299998D01*
X5522473Y-13299998D01*
X5455434Y-13280313D01*
X5409679Y-13227509D01*
X5407912Y-13223450D01*
X5370016Y-13131958D01*
X5370009Y-13131946D01*
X5271464Y-12984465D01*
X5271461Y-12984461D01*
X5146038Y-12859038D01*
X5146034Y-12859035D01*
X4998553Y-12760490D01*
X4998540Y-12760483D01*
X4874495Y-12709103D01*
X4820091Y-12665262D01*
X4798026Y-12598968D01*
X4815305Y-12531269D01*
X4818846Y-12525650D01*
X4862008Y-12461054D01*
X4862009Y-12461053D01*
X4862013Y-12461047D01*
X4929894Y-12297166D01*
X4933341Y-12279841D01*
X4954066Y-12175646D01*
X4986450Y-12113735D01*
X5047166Y-12079161D01*
X5116936Y-12082900D01*
X5144575Y-12096736D01*
X5161445Y-12108008D01*
X5161447Y-12108009D01*
X5161453Y-12108013D01*
X5161455Y-12108014D01*
X5161459Y-12108016D01*
X5284363Y-12158923D01*
X5325334Y-12175894D01*
X5325336Y-12175894D01*
X5325341Y-12175896D01*
X5499304Y-12210499D01*
X5499307Y-12210500D01*
X5499309Y-12210500D01*
X5676693Y-12210500D01*
X5676694Y-12210499D01*
X5734682Y-12198964D01*
X5850658Y-12175896D01*
X5850661Y-12175894D01*
X5850666Y-12175894D01*
X5990535Y-12117958D01*
X6014540Y-12108016D01*
X6014540Y-12108015D01*
X6014547Y-12108013D01*
X6162035Y-12009464D01*
X6287464Y-11884035D01*
X6386013Y-11736547D01*
X6453894Y-11572666D01*
X6478570Y-11448610D01*
X6510954Y-11386700D01*
X6571670Y-11352126D01*
X6641439Y-11355865D01*
X6669077Y-11369699D01*
X6689747Y-11383510D01*
X6689758Y-11383516D01*
X6734811Y-11402177D01*
X6853633Y-11451394D01*
X6853635Y-11451394D01*
X6853640Y-11451396D01*
X7027603Y-11485999D01*
X7027606Y-11486000D01*
X7027608Y-11486000D01*
X7204991Y-11486000D01*
X7206303Y-11485739D01*
X7207005Y-11485801D01*
X7211055Y-11485403D01*
X7211130Y-11486170D01*
X7275895Y-11491963D01*
X7331074Y-11534824D01*
X7354322Y-11600713D01*
X7354500Y-11607355D01*
X7354500Y-17214638D01*
X7334815Y-17281677D01*
X7318181Y-17302319D01*
X7280538Y-17339961D01*
X7280535Y-17339965D01*
X7181990Y-17487446D01*
X7181983Y-17487459D01*
X7114106Y-17651332D01*
X7114103Y-17651341D01*
X7079500Y-17825304D01*
X7079500Y-18002695D01*
X7114103Y-18176658D01*
X7114106Y-18176667D01*
X7181983Y-18340540D01*
X7181990Y-18340553D01*
X7280535Y-18488034D01*
X7280538Y-18488038D01*
X7405961Y-18613461D01*
X7405965Y-18613464D01*
X7553446Y-18712009D01*
X7553459Y-18712016D01*
X7676363Y-18762923D01*
X7717334Y-18779894D01*
X7717336Y-18779894D01*
X7717341Y-18779896D01*
X7891304Y-18814499D01*
X7891307Y-18814500D01*
X7891309Y-18814500D01*
X8068693Y-18814500D01*
X8068694Y-18814499D01*
X8126682Y-18802964D01*
X8242658Y-18779896D01*
X8242661Y-18779894D01*
X8242666Y-18779894D01*
X8406547Y-18712013D01*
X8554035Y-18613464D01*
X8679464Y-18488035D01*
X8778013Y-18340547D01*
X8845894Y-18176666D01*
X8880500Y-18002691D01*
X8880500Y-17825309D01*
X8880500Y-17825306D01*
X8880499Y-17825304D01*
X8845896Y-17651341D01*
X8845893Y-17651332D01*
X8778016Y-17487459D01*
X8778009Y-17487446D01*
X8679464Y-17339965D01*
X8679461Y-17339961D01*
X8641819Y-17302319D01*
X8608334Y-17240996D01*
X8605500Y-17214638D01*
X8605500Y-8774499D01*
X8625185Y-8707460D01*
X8677989Y-8661705D01*
X8729500Y-8650499D01*
X8807871Y-8650499D01*
X8807872Y-8650499D01*
X8867483Y-8644091D01*
X9002331Y-8593796D01*
X9117546Y-8507546D01*
X9150734Y-8463211D01*
X9206667Y-8421342D01*
X9276359Y-8416358D01*
X9337682Y-8449843D01*
G37*
%TD.AperFunction*%
%TA.AperFunction,Conductor*%
G36*
X44942539Y-38254185D02*
G01*
X44988294Y-38306989D01*
X44999500Y-38358500D01*
X44999500Y-40580912D01*
X44999118Y-40590641D01*
X44988422Y-40726543D01*
X44986422Y-40741004D01*
X44981846Y-40764010D01*
X44980802Y-40768768D01*
X44952858Y-40885159D01*
X44946844Y-40903666D01*
X44894294Y-41030526D01*
X44885461Y-41047860D01*
X44885458Y-41047866D01*
X44822901Y-41149939D01*
X44820277Y-41154038D01*
X44807260Y-41173518D01*
X44798446Y-41185160D01*
X44709736Y-41289016D01*
X44703131Y-41296161D01*
X43831232Y-42168060D01*
X43769909Y-42201545D01*
X43700217Y-42196561D01*
X43644284Y-42154689D01*
X43619867Y-42089225D01*
X43621077Y-42060985D01*
X43650500Y-41875222D01*
X43650500Y-41654778D01*
X43616015Y-41437049D01*
X43572151Y-41302047D01*
X43547896Y-41227396D01*
X43547895Y-41227393D01*
X43500735Y-41134838D01*
X43447815Y-41030978D01*
X43419599Y-40992142D01*
X43318247Y-40852641D01*
X43318243Y-40852636D01*
X43267683Y-40802076D01*
X43234198Y-40740753D01*
X43239182Y-40671061D01*
X43281054Y-40615128D01*
X43312031Y-40598213D01*
X43392086Y-40568354D01*
X43392093Y-40568350D01*
X43507187Y-40482190D01*
X43507190Y-40482187D01*
X43593350Y-40367093D01*
X43593354Y-40367086D01*
X43643596Y-40232379D01*
X43643598Y-40232372D01*
X43649999Y-40172844D01*
X43650000Y-40172827D01*
X43650000Y-39475000D01*
X42625278Y-39475000D01*
X42669333Y-39398694D01*
X42700000Y-39284244D01*
X42700000Y-39165756D01*
X42669333Y-39051306D01*
X42625278Y-38975000D01*
X43650000Y-38975000D01*
X43650000Y-38358500D01*
X43669685Y-38291461D01*
X43722489Y-38245706D01*
X43774000Y-38234500D01*
X44875500Y-38234500D01*
X44942539Y-38254185D01*
G37*
%TD.AperFunction*%
%TA.AperFunction,Conductor*%
G36*
X6463455Y-36870990D02*
G01*
X6611809Y-36900500D01*
X6683765Y-36900500D01*
X6691962Y-36901598D01*
X6716631Y-36912577D01*
X6742539Y-36920185D01*
X6748072Y-36926570D01*
X6755795Y-36930008D01*
X6770615Y-36952586D01*
X6788294Y-36972989D01*
X6789496Y-36981352D01*
X6794135Y-36988419D01*
X6799500Y-37024500D01*
X6799500Y-40061608D01*
X6804561Y-40087053D01*
X6804567Y-40087080D01*
X6804896Y-40088733D01*
X6823537Y-40182452D01*
X6829676Y-40197272D01*
X6832006Y-40207498D01*
X6830475Y-40232327D01*
X6833134Y-40257069D01*
X6828362Y-40266599D01*
X6827707Y-40277235D01*
X6812993Y-40297298D01*
X6801855Y-40319547D01*
X6788083Y-40331265D01*
X6786388Y-40333578D01*
X6784525Y-40334293D01*
X6779996Y-40338148D01*
X6650321Y-40424794D01*
X6650317Y-40424797D01*
X6524894Y-40550220D01*
X6524891Y-40550224D01*
X6426346Y-40697705D01*
X6426339Y-40697718D01*
X6358462Y-40861591D01*
X6358460Y-40861599D01*
X6344808Y-40930231D01*
X6312422Y-40992142D01*
X6251706Y-41026716D01*
X6211970Y-41029530D01*
X6176347Y-41026293D01*
X6156616Y-41024500D01*
X5643384Y-41024500D01*
X5624145Y-41026248D01*
X5572807Y-41030913D01*
X5410393Y-41081522D01*
X5264811Y-41169530D01*
X5264810Y-41169531D01*
X5162681Y-41271661D01*
X5154735Y-41275999D01*
X5149310Y-41283247D01*
X5124550Y-41292481D01*
X5101358Y-41305146D01*
X5092328Y-41304500D01*
X5083846Y-41307664D01*
X5058025Y-41302047D01*
X5031666Y-41300162D01*
X5022612Y-41294343D01*
X5015573Y-41292812D01*
X4987319Y-41271661D01*
X4911819Y-41196161D01*
X4878334Y-41134838D01*
X4875500Y-41108480D01*
X4875500Y-40534499D01*
X4895185Y-40467460D01*
X4947989Y-40421705D01*
X4999500Y-40410499D01*
X5997871Y-40410499D01*
X5997872Y-40410499D01*
X6057483Y-40404091D01*
X6192331Y-40353796D01*
X6307546Y-40267546D01*
X6393796Y-40152331D01*
X6444091Y-40017483D01*
X6450500Y-39957873D01*
X6450499Y-39062128D01*
X6444091Y-39002517D01*
X6444090Y-39002515D01*
X6444090Y-39002512D01*
X6442308Y-38994969D01*
X6443773Y-38994622D01*
X6439409Y-38933651D01*
X6443819Y-38918633D01*
X6444089Y-38917488D01*
X6444091Y-38917483D01*
X6450500Y-38857873D01*
X6450499Y-37962128D01*
X6444091Y-37902517D01*
X6441423Y-37895365D01*
X6393797Y-37767671D01*
X6393793Y-37767664D01*
X6307547Y-37652455D01*
X6307546Y-37652454D01*
X6192331Y-37566204D01*
X6142665Y-37547680D01*
X6142664Y-37547679D01*
X6057482Y-37515908D01*
X6057483Y-37515908D01*
X5997883Y-37509501D01*
X5997881Y-37509500D01*
X5997873Y-37509500D01*
X5997865Y-37509500D01*
X4874000Y-37509500D01*
X4865314Y-37506949D01*
X4856353Y-37508238D01*
X4832312Y-37497259D01*
X4806961Y-37489815D01*
X4801033Y-37482974D01*
X4792797Y-37479213D01*
X4778507Y-37456978D01*
X4761206Y-37437011D01*
X4758918Y-37426496D01*
X4755023Y-37420435D01*
X4750000Y-37385500D01*
X4750000Y-37234499D01*
X4769685Y-37167460D01*
X4822489Y-37121705D01*
X4873997Y-37110499D01*
X5997872Y-37110499D01*
X6057483Y-37104091D01*
X6192331Y-37053796D01*
X6307546Y-36967546D01*
X6343841Y-36919061D01*
X6354148Y-36911345D01*
X6361005Y-36900447D01*
X6381581Y-36890808D01*
X6399774Y-36877190D01*
X6412915Y-36876132D01*
X6424278Y-36870810D01*
X6459570Y-36870470D01*
X6463455Y-36870990D01*
G37*
%TD.AperFunction*%
%TA.AperFunction,Conductor*%
G36*
X40431584Y-35611889D02*
G01*
X40487517Y-35653761D01*
X40511934Y-35719225D01*
X40512250Y-35728071D01*
X40512250Y-36458500D01*
X40492565Y-36525539D01*
X40439761Y-36571294D01*
X40388250Y-36582500D01*
X39877542Y-36582500D01*
X39877250Y-36582792D01*
X39877250Y-36582793D01*
X39877250Y-37598793D01*
X39877250Y-37599207D01*
X39877543Y-37599500D01*
X39880250Y-37599500D01*
X39947289Y-37619185D01*
X39993044Y-37671989D01*
X40004250Y-37723500D01*
X40004250Y-38233793D01*
X40004250Y-38234207D01*
X40004543Y-38234500D01*
X40726000Y-38234500D01*
X40793039Y-38254185D01*
X40838794Y-38306989D01*
X40850000Y-38358500D01*
X40850000Y-39040859D01*
X40830315Y-39107898D01*
X40777511Y-39153653D01*
X40708353Y-39163597D01*
X40644797Y-39134572D01*
X40619883Y-39105009D01*
X40616664Y-39099684D01*
X40580472Y-39039815D01*
X40580470Y-39039813D01*
X40580469Y-39039811D01*
X40460188Y-38919530D01*
X40414297Y-38891788D01*
X40314606Y-38831522D01*
X40152196Y-38780914D01*
X40152194Y-38780913D01*
X40152192Y-38780913D01*
X40102778Y-38776423D01*
X40081616Y-38774500D01*
X39418384Y-38774500D01*
X39399145Y-38776248D01*
X39347807Y-38780913D01*
X39185393Y-38831522D01*
X39039811Y-38919530D01*
X38919530Y-39039811D01*
X38831522Y-39185393D01*
X38780913Y-39347807D01*
X38774500Y-39418386D01*
X38774500Y-39714547D01*
X38754815Y-39781586D01*
X38738181Y-39802228D01*
X38414699Y-40125710D01*
X38101270Y-40439139D01*
X38101267Y-40439142D01*
X38078229Y-40462180D01*
X38014142Y-40526266D01*
X37985531Y-40569086D01*
X37985530Y-40569085D01*
X37945689Y-40628711D01*
X37945688Y-40628714D01*
X37926309Y-40675500D01*
X37926307Y-40675505D01*
X37917113Y-40697699D01*
X37873270Y-40752101D01*
X37806975Y-40774163D01*
X37767960Y-40769319D01*
X37709156Y-40752235D01*
X37709150Y-40752234D01*
X37674410Y-40749500D01*
X37674405Y-40749500D01*
X37635452Y-40749500D01*
X37568413Y-40729815D01*
X37547771Y-40713181D01*
X37296770Y-40462180D01*
X37263285Y-40400857D01*
X37268269Y-40331165D01*
X37310141Y-40275232D01*
X37375605Y-40250815D01*
X37384427Y-40250499D01*
X37674404Y-40250499D01*
X37709156Y-40247765D01*
X37857887Y-40204555D01*
X37991198Y-40125715D01*
X38100715Y-40016198D01*
X38179555Y-39882887D01*
X38222765Y-39734156D01*
X38225500Y-39699405D01*
X38225499Y-39200596D01*
X38222765Y-39165844D01*
X38179555Y-39017113D01*
X38166254Y-38994622D01*
X38142768Y-38954908D01*
X38125500Y-38891788D01*
X38125500Y-36010453D01*
X38145185Y-35943414D01*
X38161819Y-35922772D01*
X38168665Y-35915924D01*
X38185858Y-35898733D01*
X38254312Y-35796285D01*
X38283028Y-35726957D01*
X38326868Y-35672554D01*
X38393162Y-35650489D01*
X38460862Y-35667768D01*
X38485270Y-35686729D01*
X38497650Y-35699109D01*
X38631397Y-35796280D01*
X38668118Y-35822959D01*
X38762276Y-35870935D01*
X38855862Y-35918620D01*
X38855864Y-35918620D01*
X38855867Y-35918622D01*
X38963288Y-35953525D01*
X39056269Y-35983737D01*
X39264387Y-36016700D01*
X39264392Y-36016700D01*
X39475113Y-36016700D01*
X39683230Y-35983737D01*
X39883633Y-35918622D01*
X40071382Y-35822959D01*
X40208340Y-35723454D01*
X40241849Y-35699109D01*
X40241851Y-35699106D01*
X40241855Y-35699104D01*
X40300569Y-35640390D01*
X40361892Y-35606905D01*
X40431584Y-35611889D01*
G37*
%TD.AperFunction*%
%TA.AperFunction,Conductor*%
G36*
X35589180Y-27656387D02*
G01*
X35599053Y-27656247D01*
X35620812Y-27669796D01*
X35644417Y-27679802D01*
X35657554Y-27692674D01*
X35658364Y-27693179D01*
X35658619Y-27693718D01*
X35660109Y-27695178D01*
X35672768Y-27710000D01*
X36566988Y-27710000D01*
X36534075Y-27767007D01*
X36500000Y-27894174D01*
X36500000Y-28025826D01*
X36534075Y-28152993D01*
X36566988Y-28210000D01*
X35672769Y-28210000D01*
X35683242Y-28276126D01*
X35683242Y-28276129D01*
X35748904Y-28478217D01*
X35845379Y-28667557D01*
X35970272Y-28839459D01*
X35970276Y-28839464D01*
X36083946Y-28953134D01*
X36117431Y-29014457D01*
X36112447Y-29084149D01*
X36070575Y-29140082D01*
X36039598Y-29156997D01*
X35907671Y-29206202D01*
X35907664Y-29206206D01*
X35792455Y-29292452D01*
X35792452Y-29292455D01*
X35706206Y-29407664D01*
X35706202Y-29407671D01*
X35655908Y-29542517D01*
X35649501Y-29602116D01*
X35649500Y-29602135D01*
X35649500Y-31397870D01*
X35649501Y-31397876D01*
X35655908Y-31457483D01*
X35706202Y-31592328D01*
X35706206Y-31592335D01*
X35792452Y-31707544D01*
X35792455Y-31707547D01*
X35907664Y-31793793D01*
X35907671Y-31793797D01*
X35928531Y-31801577D01*
X36042517Y-31844091D01*
X36102127Y-31850500D01*
X36200500Y-31850499D01*
X36267538Y-31870183D01*
X36313294Y-31922986D01*
X36324500Y-31974499D01*
X36324500Y-32241252D01*
X36304815Y-32308291D01*
X36252011Y-32354046D01*
X36182853Y-32363990D01*
X36165906Y-32360329D01*
X36052567Y-32327401D01*
X36015701Y-32324500D01*
X36015694Y-32324500D01*
X35584306Y-32324500D01*
X35584298Y-32324500D01*
X35547432Y-32327401D01*
X35547426Y-32327402D01*
X35389606Y-32373254D01*
X35389603Y-32373255D01*
X35248137Y-32456917D01*
X35248129Y-32456923D01*
X35131923Y-32573129D01*
X35131916Y-32573138D01*
X35106232Y-32616569D01*
X35055163Y-32664253D01*
X34986421Y-32676756D01*
X34921832Y-32650111D01*
X34881902Y-32592775D01*
X34875500Y-32553448D01*
X34875500Y-31310452D01*
X34895185Y-31243413D01*
X34911814Y-31222775D01*
X35155858Y-30978733D01*
X35224312Y-30876285D01*
X35260800Y-30788194D01*
X35271463Y-30762452D01*
X35276753Y-30735858D01*
X35292581Y-30656285D01*
X35295501Y-30641608D01*
X35295501Y-30513283D01*
X35295500Y-30513257D01*
X35295500Y-27949519D01*
X35302703Y-27924986D01*
X35305982Y-27899621D01*
X35313289Y-27888933D01*
X35315185Y-27882480D01*
X35324639Y-27869661D01*
X35328061Y-27865595D01*
X35425472Y-27768185D01*
X35464718Y-27703263D01*
X35470958Y-27695852D01*
X35492323Y-27681686D01*
X35511229Y-27664373D01*
X35520960Y-27662699D01*
X35529191Y-27657243D01*
X35554825Y-27656877D01*
X35580089Y-27652534D01*
X35589180Y-27656387D01*
G37*
%TD.AperFunction*%
%TA.AperFunction,Conductor*%
G36*
X31161716Y-28108825D02*
G01*
X31260394Y-28168478D01*
X31422804Y-28219086D01*
X31493384Y-28225500D01*
X31493387Y-28225500D01*
X31956664Y-28225500D01*
X32023703Y-28245185D01*
X32069458Y-28297989D01*
X32079402Y-28367147D01*
X32050377Y-28430703D01*
X32047571Y-28433716D01*
X32046175Y-28435351D01*
X32046172Y-28435354D01*
X32015030Y-28478217D01*
X31930474Y-28594596D01*
X31841119Y-28769966D01*
X31841113Y-28769981D01*
X31832391Y-28796819D01*
X31832392Y-28796820D01*
X31829809Y-28804768D01*
X31827341Y-28809894D01*
X31822814Y-28826295D01*
X31821940Y-28828987D01*
X31780291Y-28957173D01*
X31772753Y-29004753D01*
X31772754Y-29004754D01*
X31771663Y-29011639D01*
X31767603Y-29026353D01*
X31765324Y-29051671D01*
X31764670Y-29055803D01*
X31764669Y-29055804D01*
X31764669Y-29055806D01*
X31749500Y-29151578D01*
X31749500Y-29227489D01*
X31747474Y-29250000D01*
X31749500Y-29272510D01*
X31749500Y-29348422D01*
X31764669Y-29444193D01*
X31764670Y-29444195D01*
X31765323Y-29448323D01*
X31767603Y-29473647D01*
X31771664Y-29488363D01*
X31772754Y-29495244D01*
X31780290Y-29542825D01*
X31821945Y-29671027D01*
X31822812Y-29673697D01*
X31827341Y-29690106D01*
X31829807Y-29695228D01*
X31832389Y-29703173D01*
X31832393Y-29703182D01*
X31841114Y-29730022D01*
X31930474Y-29905403D01*
X31965234Y-29953246D01*
X32046172Y-30064646D01*
X32185354Y-30203828D01*
X32214949Y-30225330D01*
X32219063Y-30229264D01*
X32233267Y-30238640D01*
X32235531Y-30240285D01*
X32338883Y-30315374D01*
X32344595Y-30319524D01*
X32387506Y-30341388D01*
X32393716Y-30344552D01*
X32406467Y-30352969D01*
X32429853Y-30362964D01*
X32519975Y-30408884D01*
X32592171Y-30432342D01*
X32612948Y-30441223D01*
X32634978Y-30446251D01*
X32707174Y-30469709D01*
X32807084Y-30485533D01*
X32831869Y-30491190D01*
X32847120Y-30491874D01*
X32901583Y-30500500D01*
X32901585Y-30500500D01*
X33039161Y-30500500D01*
X33056194Y-30501265D01*
X33061842Y-30500500D01*
X33098422Y-30500500D01*
X33292826Y-30469709D01*
X33292838Y-30469705D01*
X33480025Y-30408884D01*
X33655405Y-30319524D01*
X33678226Y-30302942D01*
X33684686Y-30300637D01*
X33686064Y-30299459D01*
X33685362Y-30298395D01*
X33690008Y-30295328D01*
X33690009Y-30295327D01*
X33690013Y-30295325D01*
X33701213Y-30286392D01*
X33705564Y-30283081D01*
X33808687Y-30208157D01*
X33874491Y-30184678D01*
X33942545Y-30200503D01*
X33991240Y-30250609D01*
X34005115Y-30319087D01*
X33979766Y-30384196D01*
X33969252Y-30396157D01*
X33851269Y-30514140D01*
X33851267Y-30514142D01*
X33822965Y-30542444D01*
X33764142Y-30601266D01*
X33752224Y-30619104D01*
X33734461Y-30645688D01*
X33720780Y-30666163D01*
X33695688Y-30703713D01*
X33667822Y-30770987D01*
X33667823Y-30770988D01*
X33653198Y-30806295D01*
X33653197Y-30806298D01*
X33648959Y-30816531D01*
X33648537Y-30817549D01*
X33625480Y-30933469D01*
X33625273Y-30934508D01*
X33625253Y-30934601D01*
X33624501Y-30938383D01*
X33624500Y-30938398D01*
X33624500Y-31600500D01*
X33604815Y-31667539D01*
X33552011Y-31713294D01*
X33500500Y-31724500D01*
X32410453Y-31724500D01*
X32343414Y-31704815D01*
X32322772Y-31688181D01*
X31960111Y-31325521D01*
X31949859Y-31315269D01*
X31949858Y-31315267D01*
X31862733Y-31228142D01*
X31801908Y-31187500D01*
X31795517Y-31183229D01*
X31795513Y-31183226D01*
X31760290Y-31159690D01*
X31760286Y-31159688D01*
X31700226Y-31134811D01*
X31656975Y-31116896D01*
X31646452Y-31112537D01*
X31559054Y-31095153D01*
X31556820Y-31094708D01*
X31556788Y-31094701D01*
X31525611Y-31088500D01*
X31525607Y-31088500D01*
X31525606Y-31088500D01*
X27523668Y-31088500D01*
X27456629Y-31068815D01*
X27410874Y-31016011D01*
X27400930Y-30946853D01*
X27429955Y-30883297D01*
X27435987Y-30876819D01*
X27544114Y-30768691D01*
X27544117Y-30768688D01*
X27642666Y-30621200D01*
X27710547Y-30457319D01*
X27712407Y-30447972D01*
X27736497Y-30326862D01*
X27745153Y-30283344D01*
X27745153Y-30105962D01*
X27740816Y-30084161D01*
X27731960Y-30039639D01*
X27738187Y-29970047D01*
X27781049Y-29914869D01*
X27846939Y-29891624D01*
X27877768Y-29893829D01*
X27911304Y-29900499D01*
X27911307Y-29900500D01*
X27911309Y-29900500D01*
X28088693Y-29900500D01*
X28088694Y-29900499D01*
X28151487Y-29888009D01*
X28262658Y-29865896D01*
X28262661Y-29865894D01*
X28262666Y-29865894D01*
X28422443Y-29799713D01*
X28426540Y-29798016D01*
X28426540Y-29798015D01*
X28426547Y-29798013D01*
X28426556Y-29798007D01*
X28459134Y-29776239D01*
X28525811Y-29755359D01*
X28593191Y-29773842D01*
X28638512Y-29823045D01*
X28680474Y-29905403D01*
X28715234Y-29953246D01*
X28796172Y-30064646D01*
X28935354Y-30203828D01*
X28964949Y-30225330D01*
X28969063Y-30229264D01*
X28983267Y-30238640D01*
X28985531Y-30240285D01*
X29088883Y-30315374D01*
X29094595Y-30319524D01*
X29137506Y-30341388D01*
X29143716Y-30344552D01*
X29156467Y-30352969D01*
X29179853Y-30362964D01*
X29269975Y-30408884D01*
X29342171Y-30432342D01*
X29362948Y-30441223D01*
X29384978Y-30446251D01*
X29457174Y-30469709D01*
X29557084Y-30485533D01*
X29581869Y-30491190D01*
X29597120Y-30491874D01*
X29651583Y-30500500D01*
X29651585Y-30500500D01*
X29789161Y-30500500D01*
X29806194Y-30501265D01*
X29811842Y-30500500D01*
X29848422Y-30500500D01*
X30042826Y-30469709D01*
X30042838Y-30469705D01*
X30230025Y-30408884D01*
X30405405Y-30319524D01*
X30435001Y-30298020D01*
X30440013Y-30295325D01*
X30453331Y-30284703D01*
X30564646Y-30203828D01*
X30603634Y-30164839D01*
X30615574Y-30155319D01*
X30632297Y-30136176D01*
X30703828Y-30064646D01*
X30748450Y-30003228D01*
X30763315Y-29986216D01*
X30774902Y-29966820D01*
X30819524Y-29905405D01*
X30865449Y-29815271D01*
X30878487Y-29793451D01*
X30883854Y-29779148D01*
X30908884Y-29730025D01*
X30951406Y-29599155D01*
X30957389Y-29583218D01*
X30958404Y-29577616D01*
X30969709Y-29542826D01*
X30991116Y-29407669D01*
X31000500Y-29348422D01*
X31000500Y-29151577D01*
X30974546Y-28987713D01*
X30969709Y-28957174D01*
X30958404Y-28922383D01*
X30957389Y-28916782D01*
X30951396Y-28900814D01*
X30950538Y-28898173D01*
X30928058Y-28828987D01*
X30908884Y-28769975D01*
X30908882Y-28769972D01*
X30908881Y-28769968D01*
X30887018Y-28727061D01*
X30883855Y-28720853D01*
X30878487Y-28706549D01*
X30865448Y-28684728D01*
X30847245Y-28649000D01*
X30819526Y-28594597D01*
X30800260Y-28568081D01*
X30774904Y-28533182D01*
X30763315Y-28513784D01*
X30748445Y-28496764D01*
X30745183Y-28492274D01*
X30703828Y-28435354D01*
X30635257Y-28366783D01*
X30629561Y-28360690D01*
X30625540Y-28356088D01*
X30596253Y-28292653D01*
X30605911Y-28223454D01*
X30651448Y-28170462D01*
X30718406Y-28150501D01*
X30718917Y-28150500D01*
X30838693Y-28150500D01*
X30838694Y-28150499D01*
X31012666Y-28115894D01*
X31050115Y-28100381D01*
X31119582Y-28092912D01*
X31161716Y-28108825D01*
G37*
%TD.AperFunction*%
%TA.AperFunction,Conductor*%
G36*
X18442539Y-31012028D02*
G01*
X18488294Y-31064832D01*
X18499500Y-31116343D01*
X18499500Y-31288695D01*
X18507475Y-31328788D01*
X18501248Y-31398380D01*
X18477830Y-31436149D01*
X18367972Y-31557633D01*
X18362245Y-31561143D01*
X18351487Y-31572838D01*
X18325486Y-31592789D01*
X18260319Y-31617984D01*
X18191874Y-31603946D01*
X18174515Y-31592790D01*
X18148512Y-31572838D01*
X18107310Y-31516410D01*
X18100000Y-31474463D01*
X18100000Y-31446414D01*
X18109439Y-31398962D01*
X18124820Y-31361829D01*
X18165894Y-31262666D01*
X18165896Y-31262658D01*
X18199812Y-31092152D01*
X18214522Y-31064028D01*
X18227716Y-31035140D01*
X18230605Y-31033282D01*
X18232197Y-31030241D01*
X18259775Y-31014536D01*
X18286494Y-30997366D01*
X18291089Y-30996705D01*
X18292913Y-30995667D01*
X18321429Y-30992343D01*
X18375500Y-30992343D01*
X18442539Y-31012028D01*
G37*
%TD.AperFunction*%
%TA.AperFunction,Conductor*%
G36*
X24243556Y-27468109D02*
G01*
X24270900Y-27470556D01*
X24270901Y-27470556D01*
X24270902Y-27470557D01*
X24294124Y-27488597D01*
X24326077Y-27513419D01*
X24326079Y-27513421D01*
X24338866Y-27549671D01*
X24349322Y-27579308D01*
X24349500Y-27585946D01*
X24349500Y-28115701D01*
X24352401Y-28152567D01*
X24352402Y-28152573D01*
X24398254Y-28310393D01*
X24398255Y-28310396D01*
X24398256Y-28310398D01*
X24432732Y-28368694D01*
X24450000Y-28431814D01*
X24450000Y-29087500D01*
X25000000Y-29087500D01*
X25000000Y-28824500D01*
X25002550Y-28815814D01*
X25001262Y-28806853D01*
X25012240Y-28782812D01*
X25019685Y-28757461D01*
X25026525Y-28751533D01*
X25030287Y-28743297D01*
X25052521Y-28729007D01*
X25072489Y-28711706D01*
X25083003Y-28709418D01*
X25089065Y-28705523D01*
X25124000Y-28700500D01*
X25175500Y-28700500D01*
X25242539Y-28720185D01*
X25288294Y-28772989D01*
X25299500Y-28824500D01*
X25299500Y-29990701D01*
X25302401Y-30027567D01*
X25302402Y-30027573D01*
X25348254Y-30185393D01*
X25348255Y-30185396D01*
X25348256Y-30185398D01*
X25379743Y-30238640D01*
X25431917Y-30326862D01*
X25431923Y-30326870D01*
X25548129Y-30443076D01*
X25548133Y-30443079D01*
X25548135Y-30443081D01*
X25689602Y-30526744D01*
X25689603Y-30526744D01*
X25689606Y-30526746D01*
X25693620Y-30527912D01*
X25696393Y-30529683D01*
X25696765Y-30529844D01*
X25696739Y-30529903D01*
X25752506Y-30565518D01*
X25781712Y-30628991D01*
X25771966Y-30698177D01*
X25726362Y-30751112D01*
X25659379Y-30770987D01*
X25659025Y-30770988D01*
X25504732Y-30770988D01*
X25330767Y-30805591D01*
X25330758Y-30805594D01*
X25166885Y-30873471D01*
X25166870Y-30873479D01*
X25121792Y-30903601D01*
X25103745Y-30909252D01*
X25087835Y-30919477D01*
X25056877Y-30923928D01*
X25055115Y-30924480D01*
X25052900Y-30924500D01*
X24991402Y-30924500D01*
X24928281Y-30907232D01*
X24922141Y-30903601D01*
X24825390Y-30846382D01*
X24825385Y-30846380D01*
X24673633Y-30802292D01*
X24673620Y-30802290D01*
X24638170Y-30799500D01*
X24261850Y-30799500D01*
X24261824Y-30799501D01*
X24226375Y-30802290D01*
X24079103Y-30845076D01*
X24073816Y-30845060D01*
X24069144Y-30847527D01*
X24039248Y-30844961D01*
X24009233Y-30844876D01*
X24004794Y-30842005D01*
X23999530Y-30841554D01*
X23975762Y-30823229D01*
X23950564Y-30806933D01*
X23948382Y-30802120D01*
X23944197Y-30798893D01*
X23934109Y-30770628D01*
X23921721Y-30743294D01*
X23922011Y-30736729D01*
X23920712Y-30733088D01*
X23922908Y-30716471D01*
X23923729Y-30697923D01*
X23945108Y-30605952D01*
X23950000Y-30597287D01*
X23950000Y-30551500D01*
X24450000Y-30551500D01*
X24523394Y-30551500D01*
X24610197Y-30526281D01*
X24751552Y-30442685D01*
X24751561Y-30442678D01*
X24867678Y-30326561D01*
X24867685Y-30326552D01*
X24951282Y-30185196D01*
X24951283Y-30185193D01*
X24997099Y-30027495D01*
X24997100Y-30027489D01*
X24999999Y-29990649D01*
X25000000Y-29990634D01*
X25000000Y-29587500D01*
X24450000Y-29587500D01*
X24450000Y-30551500D01*
X23950000Y-30551500D01*
X23950000Y-28102703D01*
X23947503Y-28102900D01*
X23789806Y-28148716D01*
X23789803Y-28148717D01*
X23715229Y-28192820D01*
X23687628Y-28199822D01*
X23660954Y-28209772D01*
X23654203Y-28208303D01*
X23647505Y-28210003D01*
X23620498Y-28200971D01*
X23592681Y-28194920D01*
X23584830Y-28189043D01*
X23581242Y-28187843D01*
X23564427Y-28173769D01*
X23478339Y-28087681D01*
X23444854Y-28026358D01*
X23449838Y-27956666D01*
X23478339Y-27912319D01*
X23580468Y-27810189D01*
X23580469Y-27810188D01*
X23580472Y-27810185D01*
X23668478Y-27664606D01*
X23696365Y-27575108D01*
X23735103Y-27516962D01*
X23799128Y-27488988D01*
X23814751Y-27488000D01*
X24082307Y-27488000D01*
X24142729Y-27475981D01*
X24201315Y-27464328D01*
X24243556Y-27468109D01*
G37*
%TD.AperFunction*%
%TA.AperFunction,Conductor*%
G36*
X20605736Y-27931366D02*
G01*
X20661670Y-27973237D01*
X20686087Y-28038702D01*
X20671235Y-28106975D01*
X20667942Y-28112645D01*
X20588454Y-28241513D01*
X20588452Y-28241518D01*
X20535144Y-28402393D01*
X20525000Y-28501677D01*
X20525000Y-28525000D01*
X21376000Y-28525000D01*
X21443039Y-28544685D01*
X21488794Y-28597489D01*
X21500000Y-28649000D01*
X21500000Y-28901000D01*
X21480315Y-28968039D01*
X21427511Y-29013794D01*
X21376000Y-29025000D01*
X20525001Y-29025000D01*
X20525001Y-29048322D01*
X20535144Y-29147607D01*
X20588452Y-29308481D01*
X20588457Y-29308492D01*
X20653635Y-29414161D01*
X20657744Y-29429179D01*
X20666406Y-29442122D01*
X20666778Y-29462192D01*
X20672076Y-29481553D01*
X20667431Y-29497373D01*
X20667702Y-29511979D01*
X20653638Y-29544351D01*
X20645655Y-29557293D01*
X20640535Y-29565594D01*
X20588591Y-29612319D01*
X20534996Y-29624500D01*
X20188389Y-29624500D01*
X20132949Y-29635527D01*
X20132938Y-29635529D01*
X20127971Y-29636518D01*
X20067548Y-29648537D01*
X20030133Y-29664035D01*
X20023563Y-29666756D01*
X20023557Y-29666758D01*
X19953719Y-29695685D01*
X19953712Y-29695689D01*
X19931135Y-29710774D01*
X19931136Y-29710775D01*
X19916664Y-29720445D01*
X19849987Y-29741323D01*
X19847773Y-29741343D01*
X19541773Y-29741343D01*
X19474734Y-29721658D01*
X19428979Y-29668854D01*
X19419035Y-29599696D01*
X19448060Y-29536140D01*
X19494320Y-29502782D01*
X19615233Y-29452698D01*
X19735451Y-29360451D01*
X19827698Y-29240233D01*
X19885687Y-29100236D01*
X19900500Y-28987720D01*
X19900500Y-28585452D01*
X19920185Y-28518413D01*
X19936819Y-28497771D01*
X20200305Y-28234285D01*
X20474724Y-27959865D01*
X20536045Y-27926382D01*
X20605736Y-27931366D01*
G37*
%TD.AperFunction*%
%TA.AperFunction,Conductor*%
G36*
X39840932Y-26618785D02*
G01*
X39874416Y-26680109D01*
X39877250Y-26706466D01*
X39877250Y-27692793D01*
X39877250Y-27693207D01*
X39877543Y-27693500D01*
X40388250Y-27693500D01*
X40455289Y-27713185D01*
X40501044Y-27765989D01*
X40512250Y-27817500D01*
X40512250Y-28547929D01*
X40492565Y-28614968D01*
X40439761Y-28660723D01*
X40370603Y-28670667D01*
X40307047Y-28641642D01*
X40300569Y-28635610D01*
X40241849Y-28576890D01*
X40071385Y-28453043D01*
X40071384Y-28453042D01*
X40071382Y-28453041D01*
X40011420Y-28422489D01*
X39883637Y-28357379D01*
X39697603Y-28296933D01*
X39671435Y-28284241D01*
X39671401Y-28284307D01*
X39669738Y-28283418D01*
X39667037Y-28282108D01*
X39666037Y-28281440D01*
X39666036Y-28281439D01*
X39653209Y-28276126D01*
X39552204Y-28234288D01*
X39552205Y-28234288D01*
X39552202Y-28234287D01*
X39552198Y-28234286D01*
X39552194Y-28234285D01*
X39431360Y-28210250D01*
X39431356Y-28210250D01*
X39308144Y-28210250D01*
X39308139Y-28210250D01*
X39187305Y-28234285D01*
X39187295Y-28234288D01*
X39073461Y-28281440D01*
X39072456Y-28282112D01*
X39069739Y-28283429D01*
X39068090Y-28284311D01*
X39068055Y-28284246D01*
X39041894Y-28296934D01*
X38855862Y-28357379D01*
X38668114Y-28453043D01*
X38497650Y-28576890D01*
X38446054Y-28628486D01*
X38384731Y-28661970D01*
X38315039Y-28656985D01*
X38259106Y-28615114D01*
X38234690Y-28549649D01*
X38247892Y-28484503D01*
X38251096Y-28478215D01*
X38316757Y-28276129D01*
X38316757Y-28276126D01*
X38327231Y-28210000D01*
X37433012Y-28210000D01*
X37465925Y-28152993D01*
X37500000Y-28025826D01*
X37500000Y-27894174D01*
X37465925Y-27767007D01*
X37433012Y-27710000D01*
X38327231Y-27710000D01*
X38316757Y-27643873D01*
X38316757Y-27643870D01*
X38251095Y-27441782D01*
X38154620Y-27252442D01*
X38029727Y-27080540D01*
X38029723Y-27080535D01*
X38011368Y-27062180D01*
X37977883Y-27000857D01*
X37982867Y-26931165D01*
X38024739Y-26875232D01*
X38090203Y-26850815D01*
X38099028Y-26850499D01*
X39287872Y-26850499D01*
X39347483Y-26844091D01*
X39482331Y-26793796D01*
X39597546Y-26707546D01*
X39653984Y-26632153D01*
X39709917Y-26590284D01*
X39779609Y-26585300D01*
X39840932Y-26618785D01*
G37*
%TD.AperFunction*%
%TA.AperFunction,Conductor*%
G36*
X43847127Y-2855847D02*
G01*
X43877337Y-2878044D01*
X44703297Y-3704004D01*
X44709907Y-3711155D01*
X44798455Y-3814834D01*
X44807266Y-3826472D01*
X44820275Y-3845941D01*
X44822901Y-3850045D01*
X44885457Y-3952130D01*
X44894291Y-3969467D01*
X44946841Y-4096338D01*
X44952853Y-4114843D01*
X44980799Y-4231251D01*
X44981843Y-4236010D01*
X44986412Y-4258984D01*
X44988412Y-4273442D01*
X44992702Y-4327951D01*
X44999118Y-4409493D01*
X44999500Y-4419208D01*
X44999500Y-25917500D01*
X44979815Y-25984539D01*
X44927011Y-26030294D01*
X44875500Y-26041500D01*
X42322421Y-26041500D01*
X42255382Y-26021815D01*
X42209627Y-25969011D01*
X42199683Y-25899853D01*
X42220148Y-25850443D01*
X42219546Y-25850114D01*
X42222606Y-25844510D01*
X42223152Y-25843192D01*
X42223485Y-25842745D01*
X42223796Y-25842331D01*
X42274091Y-25707483D01*
X42280500Y-25647873D01*
X42280499Y-24052128D01*
X42274091Y-23992517D01*
X42242064Y-23906649D01*
X42223797Y-23857671D01*
X42223793Y-23857664D01*
X42137547Y-23742455D01*
X42137544Y-23742452D01*
X42022335Y-23656206D01*
X42022328Y-23656202D01*
X41887482Y-23605908D01*
X41887483Y-23605908D01*
X41827883Y-23599501D01*
X41827881Y-23599500D01*
X41827873Y-23599500D01*
X41827865Y-23599500D01*
X40185452Y-23599500D01*
X40118413Y-23579815D01*
X40097771Y-23563181D01*
X34661819Y-18127229D01*
X34628334Y-18065906D01*
X34625500Y-18039548D01*
X34625500Y-15994743D01*
X34631435Y-15974527D01*
X34632564Y-15953489D01*
X34641082Y-15941676D01*
X34645185Y-15927704D01*
X34661105Y-15913908D01*
X34673430Y-15896818D01*
X34686983Y-15891485D01*
X34697989Y-15881949D01*
X34718840Y-15878950D01*
X34738448Y-15871236D01*
X34763246Y-15872565D01*
X34767147Y-15872005D01*
X34773688Y-15873125D01*
X34793410Y-15877048D01*
X34913538Y-15900944D01*
X34936798Y-15908000D01*
X34989082Y-15929656D01*
X34989087Y-15929658D01*
X34989091Y-15929658D01*
X34989092Y-15929659D01*
X35134079Y-15958500D01*
X35134082Y-15958500D01*
X36494002Y-15958500D01*
X36591544Y-15939096D01*
X36638995Y-15929658D01*
X36731153Y-15891485D01*
X36775573Y-15873086D01*
X36775574Y-15873085D01*
X36775577Y-15873084D01*
X36829684Y-15836931D01*
X36898498Y-15790952D01*
X37500951Y-15188498D01*
X37583084Y-15065577D01*
X37639658Y-14928995D01*
X37668500Y-14784000D01*
X37668500Y-14636165D01*
X37668500Y-14346689D01*
X37688185Y-14279650D01*
X37740989Y-14233895D01*
X37768309Y-14225072D01*
X37854658Y-14207896D01*
X37854661Y-14207894D01*
X37854666Y-14207894D01*
X38018547Y-14140013D01*
X38166035Y-14041464D01*
X38291464Y-13916035D01*
X38390013Y-13768547D01*
X38457894Y-13604666D01*
X38492500Y-13430691D01*
X38492500Y-13377452D01*
X38512185Y-13310413D01*
X38528819Y-13289771D01*
X38702056Y-13116534D01*
X38945857Y-12872734D01*
X38968541Y-12838786D01*
X38972731Y-12832516D01*
X39014307Y-12770292D01*
X39014307Y-12770291D01*
X39014311Y-12770286D01*
X39061463Y-12656452D01*
X39069080Y-12618153D01*
X39076768Y-12579509D01*
X39076768Y-12579506D01*
X39085500Y-12535607D01*
X39085500Y-12412394D01*
X39085500Y-8774499D01*
X39105185Y-8707460D01*
X39157989Y-8661705D01*
X39209500Y-8650499D01*
X39287871Y-8650499D01*
X39287872Y-8650499D01*
X39347483Y-8644091D01*
X39482331Y-8593796D01*
X39597546Y-8507546D01*
X39630734Y-8463211D01*
X39686667Y-8421342D01*
X39756359Y-8416358D01*
X39817682Y-8449843D01*
X39829261Y-8463207D01*
X39862454Y-8507546D01*
X39868941Y-8512402D01*
X39977664Y-8593793D01*
X39977671Y-8593797D01*
X40003054Y-8603264D01*
X40112517Y-8644091D01*
X40172127Y-8650500D01*
X40250500Y-8650499D01*
X40317538Y-8670183D01*
X40363294Y-8722986D01*
X40374500Y-8774499D01*
X40374500Y-11335138D01*
X40354815Y-11402177D01*
X40338181Y-11422819D01*
X40300538Y-11460461D01*
X40300535Y-11460465D01*
X40201990Y-11607946D01*
X40201983Y-11607959D01*
X40134106Y-11771832D01*
X40134103Y-11771841D01*
X40099500Y-11945804D01*
X40099500Y-12123195D01*
X40134103Y-12297158D01*
X40134106Y-12297167D01*
X40201983Y-12461040D01*
X40201990Y-12461053D01*
X40300535Y-12608534D01*
X40300538Y-12608538D01*
X40425961Y-12733961D01*
X40425965Y-12733964D01*
X40573446Y-12832509D01*
X40573459Y-12832516D01*
X40670556Y-12872734D01*
X40737334Y-12900394D01*
X40737336Y-12900394D01*
X40737341Y-12900396D01*
X40911304Y-12934999D01*
X40911307Y-12935000D01*
X40911309Y-12935000D01*
X41088693Y-12935000D01*
X41088694Y-12934999D01*
X41146682Y-12923464D01*
X41262658Y-12900396D01*
X41262661Y-12900394D01*
X41262666Y-12900394D01*
X41402535Y-12842458D01*
X41426540Y-12832516D01*
X41426540Y-12832515D01*
X41426547Y-12832513D01*
X41574035Y-12733964D01*
X41699464Y-12608535D01*
X41798013Y-12461047D01*
X41865894Y-12297166D01*
X41869341Y-12279841D01*
X41900499Y-12123195D01*
X41900500Y-12123193D01*
X41900500Y-11945806D01*
X41900499Y-11945804D01*
X41865896Y-11771841D01*
X41865893Y-11771832D01*
X41798016Y-11607959D01*
X41798009Y-11607946D01*
X41699464Y-11460465D01*
X41699461Y-11460461D01*
X41661819Y-11422819D01*
X41628334Y-11361496D01*
X41625500Y-11335138D01*
X41625500Y-8774499D01*
X41645185Y-8707460D01*
X41697989Y-8661705D01*
X41749500Y-8650499D01*
X41827871Y-8650499D01*
X41827872Y-8650499D01*
X41887483Y-8644091D01*
X42022331Y-8593796D01*
X42137546Y-8507546D01*
X42223796Y-8392331D01*
X42274091Y-8257483D01*
X42280500Y-8197873D01*
X42280499Y-6102128D01*
X42274091Y-6042517D01*
X42223796Y-5907669D01*
X42223795Y-5907668D01*
X42223793Y-5907664D01*
X42137547Y-5792455D01*
X42137544Y-5792452D01*
X42022335Y-5706206D01*
X42022328Y-5706202D01*
X41887482Y-5655908D01*
X41887483Y-5655908D01*
X41827883Y-5649501D01*
X41827881Y-5649500D01*
X41827873Y-5649500D01*
X41827864Y-5649500D01*
X40172129Y-5649500D01*
X40172123Y-5649501D01*
X40112516Y-5655908D01*
X39977671Y-5706202D01*
X39977664Y-5706206D01*
X39862455Y-5792452D01*
X39829266Y-5836787D01*
X39773332Y-5878657D01*
X39703640Y-5883641D01*
X39642317Y-5850155D01*
X39630734Y-5836787D01*
X39618420Y-5820338D01*
X39597546Y-5792454D01*
X39597544Y-5792453D01*
X39597544Y-5792452D01*
X39482335Y-5706206D01*
X39482328Y-5706202D01*
X39347482Y-5655908D01*
X39347483Y-5655908D01*
X39287883Y-5649501D01*
X39287881Y-5649500D01*
X39287873Y-5649500D01*
X39287865Y-5649500D01*
X38006922Y-5649500D01*
X37939883Y-5629815D01*
X37894128Y-5577011D01*
X37885305Y-5549692D01*
X37871659Y-5481092D01*
X37871658Y-5481091D01*
X37871658Y-5481087D01*
X37871656Y-5481082D01*
X37815087Y-5344511D01*
X37815080Y-5344498D01*
X37732952Y-5221585D01*
X37692953Y-5181586D01*
X37628416Y-5117049D01*
X37529051Y-5017684D01*
X37416298Y-4904930D01*
X37400415Y-4875843D01*
X37383654Y-4847216D01*
X37383733Y-4845293D01*
X37382813Y-4843607D01*
X37385177Y-4810546D01*
X37386554Y-4777406D01*
X37387659Y-4775832D01*
X37387797Y-4773915D01*
X37407669Y-4747368D01*
X37426736Y-4720247D01*
X37428787Y-4719160D01*
X37429669Y-4717982D01*
X37457193Y-4702414D01*
X37462050Y-4700434D01*
X37564606Y-4668478D01*
X37614456Y-4638342D01*
X37623482Y-4634665D01*
X37645372Y-4632440D01*
X37670268Y-4625500D01*
X38405903Y-4625500D01*
X38472942Y-4645185D01*
X38516387Y-4693203D01*
X38530166Y-4720247D01*
X38537187Y-4734026D01*
X38666752Y-4912358D01*
X38666756Y-4912363D01*
X38822636Y-5068243D01*
X38822641Y-5068247D01*
X38935166Y-5150000D01*
X39000978Y-5197815D01*
X39117501Y-5257187D01*
X39197393Y-5297895D01*
X39197396Y-5297896D01*
X39301169Y-5331613D01*
X39407049Y-5366015D01*
X39624778Y-5400500D01*
X39624779Y-5400500D01*
X39845221Y-5400500D01*
X39845222Y-5400500D01*
X40062951Y-5366015D01*
X40272606Y-5297895D01*
X40469022Y-5197815D01*
X40647365Y-5068242D01*
X40697924Y-5017682D01*
X40759245Y-4984198D01*
X40828936Y-4989182D01*
X40884870Y-5031053D01*
X40901786Y-5062030D01*
X40931646Y-5142087D01*
X40931649Y-5142093D01*
X41017809Y-5257187D01*
X41017812Y-5257190D01*
X41132906Y-5343350D01*
X41132913Y-5343354D01*
X41267620Y-5393596D01*
X41267627Y-5393598D01*
X41327155Y-5399999D01*
X41327172Y-5400000D01*
X42025000Y-5400000D01*
X42025000Y-4375277D01*
X42101306Y-4419333D01*
X42215756Y-4450000D01*
X42334244Y-4450000D01*
X42448694Y-4419333D01*
X42525000Y-4375277D01*
X42525000Y-5400000D01*
X43222828Y-5400000D01*
X43222844Y-5399999D01*
X43282372Y-5393598D01*
X43282379Y-5393596D01*
X43417086Y-5343354D01*
X43417093Y-5343350D01*
X43532187Y-5257190D01*
X43532190Y-5257187D01*
X43618350Y-5142093D01*
X43618354Y-5142086D01*
X43668596Y-5007379D01*
X43668598Y-5007372D01*
X43674999Y-4947844D01*
X43675000Y-4947827D01*
X43675000Y-4250000D01*
X42650278Y-4250000D01*
X42694333Y-4173694D01*
X42725000Y-4059244D01*
X42725000Y-3940756D01*
X42694333Y-3826306D01*
X42650278Y-3750000D01*
X43675000Y-3750000D01*
X43675000Y-3052172D01*
X43674999Y-3052155D01*
X43667769Y-2984913D01*
X43669490Y-2984727D01*
X43672718Y-2924476D01*
X43713582Y-2867803D01*
X43778599Y-2842219D01*
X43847127Y-2855847D01*
G37*
%TD.AperFunction*%
%TA.AperFunction,Conductor*%
G36*
X32197682Y-8449843D02*
G01*
X32209261Y-8463207D01*
X32242454Y-8507546D01*
X32248941Y-8512402D01*
X32357664Y-8593793D01*
X32357671Y-8593797D01*
X32492517Y-8644091D01*
X32492516Y-8644091D01*
X32499444Y-8644835D01*
X32552127Y-8650500D01*
X33479547Y-8650499D01*
X33546586Y-8670183D01*
X33592341Y-8722987D01*
X33602285Y-8792146D01*
X33573260Y-8855702D01*
X33567228Y-8862180D01*
X33266910Y-9162499D01*
X32981270Y-9448139D01*
X32981267Y-9448142D01*
X32949017Y-9480392D01*
X32894140Y-9535268D01*
X32875547Y-9563095D01*
X32875542Y-9563103D01*
X32872262Y-9568013D01*
X32825688Y-9637714D01*
X32795732Y-9710035D01*
X32793333Y-9715827D01*
X32778537Y-9751545D01*
X32778535Y-9751552D01*
X32772820Y-9780285D01*
X32772821Y-9780286D01*
X32771390Y-9787483D01*
X32757296Y-9858340D01*
X32757295Y-9858345D01*
X32754500Y-9872394D01*
X32754500Y-23725500D01*
X32734815Y-23792539D01*
X32682011Y-23838294D01*
X32630502Y-23849500D01*
X32552130Y-23849500D01*
X32552123Y-23849501D01*
X32492516Y-23855908D01*
X32357671Y-23906202D01*
X32357664Y-23906206D01*
X32242455Y-23992452D01*
X32209266Y-24036787D01*
X32153332Y-24078657D01*
X32083640Y-24083641D01*
X32022317Y-24050155D01*
X32010734Y-24036787D01*
X31977592Y-23992516D01*
X31977546Y-23992454D01*
X31977544Y-23992453D01*
X31977544Y-23992452D01*
X31862335Y-23906206D01*
X31862328Y-23906202D01*
X31727482Y-23855908D01*
X31727483Y-23855908D01*
X31667883Y-23849501D01*
X31667881Y-23849500D01*
X31667873Y-23849500D01*
X31667864Y-23849500D01*
X30012129Y-23849500D01*
X30012123Y-23849501D01*
X29952516Y-23855908D01*
X29817671Y-23906202D01*
X29817664Y-23906206D01*
X29702455Y-23992452D01*
X29669266Y-24036787D01*
X29613332Y-24078657D01*
X29543640Y-24083641D01*
X29482317Y-24050155D01*
X29470734Y-24036787D01*
X29437592Y-23992516D01*
X29437546Y-23992454D01*
X29437544Y-23992453D01*
X29437544Y-23992452D01*
X29322335Y-23906206D01*
X29322328Y-23906202D01*
X29187482Y-23855908D01*
X29187483Y-23855908D01*
X29127883Y-23849501D01*
X29127881Y-23849500D01*
X29127873Y-23849500D01*
X29127865Y-23849500D01*
X29049500Y-23849500D01*
X28982461Y-23829815D01*
X28936706Y-23777011D01*
X28925500Y-23725500D01*
X28925500Y-12058393D01*
X28925499Y-12058389D01*
X28901463Y-11937548D01*
X28873036Y-11868920D01*
X28854312Y-11823715D01*
X28835698Y-11795858D01*
X28785858Y-11721267D01*
X28785856Y-11721264D01*
X28695637Y-11631045D01*
X28695606Y-11631016D01*
X27585819Y-10521229D01*
X27552334Y-10459906D01*
X27549500Y-10433548D01*
X27549500Y-8774499D01*
X27569185Y-8707460D01*
X27621989Y-8661705D01*
X27673500Y-8650499D01*
X29127871Y-8650499D01*
X29127872Y-8650499D01*
X29187483Y-8644091D01*
X29322331Y-8593796D01*
X29437546Y-8507546D01*
X29470734Y-8463211D01*
X29526667Y-8421342D01*
X29596359Y-8416358D01*
X29657682Y-8449843D01*
X29669261Y-8463207D01*
X29702454Y-8507546D01*
X29708941Y-8512402D01*
X29817664Y-8593793D01*
X29817671Y-8593797D01*
X29843054Y-8603264D01*
X29952517Y-8644091D01*
X30012127Y-8650500D01*
X30090500Y-8650499D01*
X30157538Y-8670183D01*
X30203294Y-8722986D01*
X30214500Y-8774499D01*
X30214500Y-10084651D01*
X30194815Y-10151690D01*
X30193605Y-10153538D01*
X30189990Y-10158948D01*
X30189983Y-10158960D01*
X30122106Y-10322832D01*
X30122103Y-10322841D01*
X30087500Y-10496804D01*
X30087500Y-10674195D01*
X30122103Y-10848158D01*
X30122105Y-10848163D01*
X30189983Y-11012040D01*
X30189990Y-11012053D01*
X30288535Y-11159534D01*
X30288538Y-11159538D01*
X30413961Y-11284961D01*
X30413965Y-11284964D01*
X30561446Y-11383509D01*
X30561459Y-11383516D01*
X30606512Y-11402177D01*
X30725334Y-11451394D01*
X30725336Y-11451394D01*
X30725341Y-11451396D01*
X30899304Y-11485999D01*
X30899307Y-11486000D01*
X30899309Y-11486000D01*
X31076693Y-11486000D01*
X31076694Y-11485999D01*
X31138245Y-11473756D01*
X31250658Y-11451396D01*
X31250661Y-11451394D01*
X31250666Y-11451394D01*
X31414547Y-11383513D01*
X31562035Y-11284964D01*
X31687464Y-11159535D01*
X31786013Y-11012047D01*
X31804638Y-10967083D01*
X31839969Y-10881785D01*
X31853894Y-10848166D01*
X31854173Y-10846766D01*
X31876964Y-10732182D01*
X31888500Y-10674191D01*
X31888500Y-10496809D01*
X31888500Y-10496806D01*
X31888499Y-10496804D01*
X31853896Y-10322841D01*
X31853893Y-10322832D01*
X31786016Y-10158959D01*
X31786009Y-10158946D01*
X31687464Y-10011465D01*
X31687461Y-10011461D01*
X31562040Y-9886040D01*
X31562032Y-9886033D01*
X31520608Y-9858354D01*
X31475803Y-9804741D01*
X31465500Y-9755253D01*
X31465500Y-8774499D01*
X31485185Y-8707460D01*
X31537989Y-8661705D01*
X31589500Y-8650499D01*
X31667871Y-8650499D01*
X31667872Y-8650499D01*
X31727483Y-8644091D01*
X31862331Y-8593796D01*
X31977546Y-8507546D01*
X32010734Y-8463211D01*
X32066667Y-8421342D01*
X32136359Y-8416358D01*
X32197682Y-8449843D01*
G37*
%TD.AperFunction*%
%TA.AperFunction,Conductor*%
G36*
X25275678Y-9415185D02*
G01*
X25296321Y-9431820D01*
X25333961Y-9469461D01*
X25333965Y-9469464D01*
X25481446Y-9568009D01*
X25481459Y-9568016D01*
X25535476Y-9590390D01*
X25645334Y-9635894D01*
X25645336Y-9635894D01*
X25645341Y-9635896D01*
X25819304Y-9670499D01*
X25819307Y-9670500D01*
X25819309Y-9670500D01*
X25996693Y-9670500D01*
X26066008Y-9656711D01*
X26150309Y-9639943D01*
X26219900Y-9646170D01*
X26275077Y-9689033D01*
X26298322Y-9754922D01*
X26298500Y-9761560D01*
X26298500Y-10805606D01*
X26306686Y-10846766D01*
X26306965Y-10848166D01*
X26313652Y-10881785D01*
X26322537Y-10926451D01*
X26369688Y-11040286D01*
X26403915Y-11091509D01*
X26438142Y-11142733D01*
X26525267Y-11229858D01*
X26525270Y-11229860D01*
X26532554Y-11237144D01*
X27638181Y-12342771D01*
X27671666Y-12404094D01*
X27674500Y-12430452D01*
X27674500Y-23103981D01*
X27654815Y-23171020D01*
X27602011Y-23216775D01*
X27532853Y-23226719D01*
X27469297Y-23197694D01*
X27453879Y-23180220D01*
X27453328Y-23180673D01*
X27449461Y-23175961D01*
X27324038Y-23050538D01*
X27324034Y-23050535D01*
X27176553Y-22951990D01*
X27176540Y-22951983D01*
X27012667Y-22884106D01*
X27012658Y-22884103D01*
X26838694Y-22849500D01*
X26838691Y-22849500D01*
X26661309Y-22849500D01*
X26661306Y-22849500D01*
X26487341Y-22884103D01*
X26487332Y-22884106D01*
X26323459Y-22951983D01*
X26323446Y-22951990D01*
X26175965Y-23050535D01*
X26175961Y-23050538D01*
X26050538Y-23175961D01*
X26050535Y-23175965D01*
X25951990Y-23323446D01*
X25951983Y-23323459D01*
X25884106Y-23487332D01*
X25884103Y-23487341D01*
X25849500Y-23661304D01*
X25849500Y-23725500D01*
X25829815Y-23792539D01*
X25777011Y-23838294D01*
X25725500Y-23849500D01*
X25235100Y-23849500D01*
X25168061Y-23829815D01*
X25122306Y-23777011D01*
X25111100Y-23725500D01*
X25111100Y-11284861D01*
X25130785Y-11217822D01*
X25147420Y-11197179D01*
X25185061Y-11159538D01*
X25185064Y-11159535D01*
X25283613Y-11012047D01*
X25302238Y-10967083D01*
X25337569Y-10881785D01*
X25351494Y-10848166D01*
X25351773Y-10846766D01*
X25374564Y-10732182D01*
X25386100Y-10674191D01*
X25386100Y-10496809D01*
X25386100Y-10496806D01*
X25386099Y-10496804D01*
X25351496Y-10322841D01*
X25351493Y-10322832D01*
X25283616Y-10158959D01*
X25283609Y-10158946D01*
X25185064Y-10011465D01*
X25185061Y-10011461D01*
X25059638Y-9886038D01*
X25059634Y-9886035D01*
X24912153Y-9787490D01*
X24912140Y-9787483D01*
X24748267Y-9719606D01*
X24748259Y-9719604D01*
X24617736Y-9693641D01*
X24608730Y-9688930D01*
X24598593Y-9688205D01*
X24578295Y-9673010D01*
X24555825Y-9661256D01*
X24550795Y-9652423D01*
X24542660Y-9646333D01*
X24533799Y-9622577D01*
X24521251Y-9600540D01*
X24521795Y-9590390D01*
X24518244Y-9580869D01*
X24523633Y-9556093D01*
X24524991Y-9530771D01*
X24531330Y-9520709D01*
X24533096Y-9512596D01*
X24554245Y-9484344D01*
X24606773Y-9431818D01*
X24668096Y-9398334D01*
X24694453Y-9395500D01*
X25208639Y-9395500D01*
X25275678Y-9415185D01*
G37*
%TD.AperFunction*%
%TA.AperFunction,Conductor*%
G36*
X34210703Y-19445739D02*
G01*
X34217181Y-19451771D01*
X37784186Y-23018776D01*
X37817671Y-23080099D01*
X37812687Y-23149791D01*
X37770815Y-23205724D01*
X37705351Y-23230141D01*
X37684358Y-23229861D01*
X37680691Y-23229500D01*
X37503309Y-23229500D01*
X37503306Y-23229500D01*
X37329341Y-23264103D01*
X37329332Y-23264106D01*
X37165459Y-23331983D01*
X37165446Y-23331990D01*
X37017965Y-23430535D01*
X37017961Y-23430538D01*
X36892538Y-23555961D01*
X36892535Y-23555965D01*
X36793990Y-23703446D01*
X36793986Y-23703453D01*
X36780107Y-23736962D01*
X36765199Y-23772952D01*
X36721360Y-23827355D01*
X36655066Y-23849421D01*
X36650639Y-23849500D01*
X35419500Y-23849500D01*
X35410814Y-23846949D01*
X35401853Y-23848238D01*
X35377812Y-23837259D01*
X35352461Y-23829815D01*
X35346533Y-23822974D01*
X35338297Y-23819213D01*
X35324007Y-23796978D01*
X35306706Y-23777011D01*
X35304418Y-23766496D01*
X35300523Y-23760435D01*
X35295500Y-23725500D01*
X35295500Y-23480337D01*
X35315185Y-23413298D01*
X35316358Y-23411505D01*
X35323013Y-23401547D01*
X35390894Y-23237666D01*
X35392519Y-23229500D01*
X35425499Y-23063695D01*
X35425500Y-23063693D01*
X35425500Y-22886306D01*
X35425499Y-22886304D01*
X35390896Y-22712341D01*
X35390893Y-22712332D01*
X35387436Y-22703987D01*
X35359319Y-22636105D01*
X35323016Y-22548459D01*
X35323009Y-22548446D01*
X35224464Y-22400965D01*
X35224461Y-22400961D01*
X35099038Y-22275538D01*
X35099034Y-22275535D01*
X34951553Y-22176990D01*
X34951540Y-22176983D01*
X34787667Y-22109106D01*
X34787658Y-22109103D01*
X34613694Y-22074500D01*
X34613691Y-22074500D01*
X34436309Y-22074500D01*
X34436306Y-22074500D01*
X34262341Y-22109103D01*
X34262337Y-22109105D01*
X34262335Y-22109105D01*
X34262334Y-22109106D01*
X34234430Y-22120664D01*
X34176951Y-22144472D01*
X34107482Y-22151939D01*
X34045003Y-22120664D01*
X34009351Y-22060574D01*
X34005500Y-22029910D01*
X34005500Y-19539452D01*
X34025185Y-19472413D01*
X34077989Y-19426658D01*
X34147147Y-19416714D01*
X34210703Y-19445739D01*
G37*
%TD.AperFunction*%
%TA.AperFunction,Conductor*%
G36*
X15002253Y-8957058D02*
G01*
X15010554Y-8957207D01*
X15042385Y-8972435D01*
X15173453Y-9060013D01*
X15173455Y-9060014D01*
X15173459Y-9060016D01*
X15291951Y-9109096D01*
X15337334Y-9127894D01*
X15337336Y-9127894D01*
X15337341Y-9127896D01*
X15511304Y-9162499D01*
X15511307Y-9162500D01*
X15511309Y-9162500D01*
X15688693Y-9162500D01*
X15688694Y-9162499D01*
X15746682Y-9150964D01*
X15862658Y-9127896D01*
X15862660Y-9127895D01*
X15862666Y-9127894D01*
X15908049Y-9109095D01*
X15977517Y-9101627D01*
X16039996Y-9132902D01*
X16075648Y-9192991D01*
X16079500Y-9223657D01*
X16079500Y-14499301D01*
X16082086Y-14512302D01*
X16103537Y-14620148D01*
X16108586Y-14632337D01*
X16110172Y-14636165D01*
X16150688Y-14733981D01*
X16177785Y-14774533D01*
X16182252Y-14781219D01*
X16182255Y-14781224D01*
X16219140Y-14836426D01*
X16219141Y-14836427D01*
X16219142Y-14836428D01*
X16306267Y-14923553D01*
X16306268Y-14923553D01*
X16313335Y-14930620D01*
X16313334Y-14930620D01*
X16313338Y-14930623D01*
X17485926Y-16103211D01*
X17519411Y-16164534D01*
X17514427Y-16234226D01*
X17485927Y-16278572D01*
X17440539Y-16323960D01*
X17440535Y-16323965D01*
X17341990Y-16471446D01*
X17341983Y-16471459D01*
X17274106Y-16635332D01*
X17274103Y-16635341D01*
X17239500Y-16809304D01*
X17239500Y-16986695D01*
X17274103Y-17160658D01*
X17274106Y-17160667D01*
X17341983Y-17324540D01*
X17341990Y-17324553D01*
X17440535Y-17472034D01*
X17440538Y-17472038D01*
X17478180Y-17509679D01*
X17511666Y-17571001D01*
X17514500Y-17597361D01*
X17514500Y-21355099D01*
X17513167Y-21359636D01*
X17514161Y-21364261D01*
X17503416Y-21392846D01*
X17494815Y-21422138D01*
X17491241Y-21425234D01*
X17489577Y-21429663D01*
X17465081Y-21447902D01*
X17442011Y-21467893D01*
X17437329Y-21468566D01*
X17433536Y-21471391D01*
X17403078Y-21473491D01*
X17372853Y-21477837D01*
X17368549Y-21475871D01*
X17363832Y-21476197D01*
X17337074Y-21461497D01*
X17309297Y-21448812D01*
X17305592Y-21444202D01*
X17302595Y-21442556D01*
X17294478Y-21430375D01*
X17281516Y-21414247D01*
X17278421Y-21408544D01*
X17259312Y-21362410D01*
X17230903Y-21319894D01*
X17190858Y-21259962D01*
X17190856Y-21259959D01*
X17100637Y-21169740D01*
X17100606Y-21169711D01*
X14885819Y-18954924D01*
X14852334Y-18893601D01*
X14849500Y-18867243D01*
X14849500Y-9075541D01*
X14852363Y-9065789D01*
X14851097Y-9055705D01*
X14862041Y-9032829D01*
X14869185Y-9008502D01*
X14876865Y-9001847D01*
X14881252Y-8992678D01*
X14902828Y-8979350D01*
X14921989Y-8962747D01*
X14932047Y-8961300D01*
X14940695Y-8955959D01*
X14966047Y-8956411D01*
X14991147Y-8952803D01*
X15002253Y-8957058D01*
G37*
%TD.AperFunction*%
%TA.AperFunction,Conductor*%
G36*
X13253039Y-7169685D02*
G01*
X13298794Y-7222489D01*
X13310000Y-7274000D01*
X13310000Y-8650000D01*
X13474500Y-8650000D01*
X13541539Y-8669685D01*
X13587294Y-8722489D01*
X13598500Y-8774000D01*
X13598500Y-14087632D01*
X13578815Y-14154671D01*
X13526011Y-14200426D01*
X13456853Y-14210370D01*
X13427049Y-14202194D01*
X13330579Y-14162236D01*
X13262666Y-14134106D01*
X13262662Y-14134105D01*
X13262658Y-14134103D01*
X13088694Y-14099500D01*
X13088691Y-14099500D01*
X12911309Y-14099500D01*
X12911306Y-14099500D01*
X12737341Y-14134103D01*
X12737332Y-14134106D01*
X12573459Y-14201983D01*
X12573446Y-14201990D01*
X12425965Y-14300535D01*
X12425961Y-14300538D01*
X12300538Y-14425961D01*
X12300533Y-14425967D01*
X12278601Y-14458791D01*
X12224989Y-14503595D01*
X12155663Y-14512302D01*
X12092636Y-14482147D01*
X12055918Y-14422703D01*
X12051500Y-14389899D01*
X12051500Y-9504584D01*
X12053883Y-9480392D01*
X12056058Y-9469461D01*
X12070206Y-9398334D01*
X12076500Y-9366693D01*
X12076500Y-9189306D01*
X12076499Y-9189304D01*
X12041896Y-9015341D01*
X12041893Y-9015332D01*
X12036307Y-9001847D01*
X11984018Y-8875607D01*
X11974016Y-8851459D01*
X11974008Y-8851445D01*
X11936419Y-8795190D01*
X11915540Y-8728513D01*
X11934024Y-8661133D01*
X11986002Y-8614442D01*
X12054972Y-8603264D01*
X12082853Y-8610116D01*
X12172620Y-8643596D01*
X12172627Y-8643598D01*
X12232155Y-8649999D01*
X12232172Y-8650000D01*
X12810000Y-8650000D01*
X12810000Y-7274000D01*
X12829685Y-7206961D01*
X12882489Y-7161206D01*
X12934000Y-7150000D01*
X13186000Y-7150000D01*
X13253039Y-7169685D01*
G37*
%TD.AperFunction*%
%TA.AperFunction,Conductor*%
G36*
X10121568Y-20185D02*
G01*
X10167323Y-72989D01*
X10177267Y-142147D01*
X10168310Y-169065D01*
X10169746Y-169601D01*
X10116403Y-312620D01*
X10116401Y-312627D01*
X10110000Y-372155D01*
X10110000Y-1020000D01*
X11026988Y-1020000D01*
X10994075Y-1077007D01*
X10960000Y-1204174D01*
X10960000Y-1335826D01*
X10994075Y-1462993D01*
X11026988Y-1520000D01*
X10110000Y-1520000D01*
X10110000Y-2167844D01*
X10116401Y-2227372D01*
X10116403Y-2227379D01*
X10166645Y-2362086D01*
X10166649Y-2362093D01*
X10252809Y-2477187D01*
X10252812Y-2477190D01*
X10367906Y-2563350D01*
X10367913Y-2563354D01*
X10502620Y-2613596D01*
X10502627Y-2613598D01*
X10562155Y-2619999D01*
X10562172Y-2620000D01*
X11210000Y-2620000D01*
X11210000Y-1703012D01*
X11267007Y-1735925D01*
X11394174Y-1770000D01*
X11525826Y-1770000D01*
X11652993Y-1735925D01*
X11710000Y-1703012D01*
X11710000Y-2620000D01*
X11750500Y-2620000D01*
X11759185Y-2622550D01*
X11768147Y-2621262D01*
X11792187Y-2632240D01*
X11817539Y-2639685D01*
X11823466Y-2646525D01*
X11831703Y-2650287D01*
X11845992Y-2672521D01*
X11863294Y-2692489D01*
X11865581Y-2703003D01*
X11869477Y-2709065D01*
X11874500Y-2744000D01*
X11874500Y-2807234D01*
X11854815Y-2874273D01*
X11815600Y-2912771D01*
X11794608Y-2925719D01*
X11675719Y-3044608D01*
X11675716Y-3044612D01*
X11587455Y-3187704D01*
X11587450Y-3187715D01*
X11575699Y-3223179D01*
X11534564Y-3347315D01*
X11534564Y-3347316D01*
X11534563Y-3347316D01*
X11524500Y-3445818D01*
X11524500Y-3979181D01*
X11534563Y-4077683D01*
X11587450Y-4237284D01*
X11587455Y-4237295D01*
X11678810Y-4385403D01*
X11697251Y-4452795D01*
X11676329Y-4519459D01*
X11622687Y-4564228D01*
X11573272Y-4574500D01*
X11411306Y-4574500D01*
X11237341Y-4609103D01*
X11237332Y-4609106D01*
X11073459Y-4676983D01*
X11073446Y-4676990D01*
X10925965Y-4775535D01*
X10925961Y-4775538D01*
X10800538Y-4900961D01*
X10800535Y-4900965D01*
X10701990Y-5048446D01*
X10701983Y-5048459D01*
X10634106Y-5212332D01*
X10634103Y-5212341D01*
X10599500Y-5386304D01*
X10599500Y-5525500D01*
X10579815Y-5592539D01*
X10527011Y-5638294D01*
X10475500Y-5649500D01*
X9692129Y-5649500D01*
X9692123Y-5649501D01*
X9632516Y-5655908D01*
X9497671Y-5706202D01*
X9497664Y-5706206D01*
X9382455Y-5792452D01*
X9349266Y-5836787D01*
X9293332Y-5878657D01*
X9223640Y-5883641D01*
X9162317Y-5850155D01*
X9150734Y-5836787D01*
X9138420Y-5820338D01*
X9117546Y-5792454D01*
X9117544Y-5792453D01*
X9117544Y-5792452D01*
X9002335Y-5706206D01*
X9002328Y-5706202D01*
X8867482Y-5655908D01*
X8867483Y-5655908D01*
X8807883Y-5649501D01*
X8807881Y-5649500D01*
X8807873Y-5649500D01*
X8807864Y-5649500D01*
X8804548Y-5649322D01*
X8804631Y-5647763D01*
X8743505Y-5629815D01*
X8697750Y-5577011D01*
X8687806Y-5507853D01*
X8692155Y-5488619D01*
X8719086Y-5402196D01*
X8725500Y-5331616D01*
X8725500Y-4818384D01*
X8719086Y-4747804D01*
X8668478Y-4585394D01*
X8580472Y-4439815D01*
X8580470Y-4439813D01*
X8580469Y-4439811D01*
X8478339Y-4337681D01*
X8444854Y-4276358D01*
X8449838Y-4206666D01*
X8478339Y-4162319D01*
X8580468Y-4060189D01*
X8580469Y-4060188D01*
X8580472Y-4060185D01*
X8668478Y-3914606D01*
X8719086Y-3752196D01*
X8725500Y-3681616D01*
X8725500Y-3168384D01*
X8719086Y-3097804D01*
X8668478Y-2935394D01*
X8580472Y-2789815D01*
X8580470Y-2789813D01*
X8580469Y-2789811D01*
X8460188Y-2669530D01*
X8438880Y-2656649D01*
X8314606Y-2581522D01*
X8152196Y-2530914D01*
X8152194Y-2530913D01*
X8152192Y-2530913D01*
X8102778Y-2526423D01*
X8081616Y-2524500D01*
X7418384Y-2524500D01*
X7399145Y-2526248D01*
X7347807Y-2530913D01*
X7185393Y-2581522D01*
X7039811Y-2669530D01*
X7039810Y-2669531D01*
X6946161Y-2763181D01*
X6884838Y-2796666D01*
X6858480Y-2799500D01*
X6596469Y-2799500D01*
X6529430Y-2779815D01*
X6508788Y-2763181D01*
X6427363Y-2681756D01*
X6427358Y-2681752D01*
X6249025Y-2552187D01*
X6249024Y-2552186D01*
X6249022Y-2552185D01*
X6174118Y-2514019D01*
X6052606Y-2452104D01*
X6052603Y-2452103D01*
X5842952Y-2383985D01*
X5704731Y-2362093D01*
X5625222Y-2349500D01*
X5404778Y-2349500D01*
X5355967Y-2357231D01*
X5187047Y-2383985D01*
X4977396Y-2452103D01*
X4977393Y-2452104D01*
X4780974Y-2552187D01*
X4602641Y-2681752D01*
X4602636Y-2681756D01*
X4552075Y-2732317D01*
X4490752Y-2765801D01*
X4421060Y-2760816D01*
X4365127Y-2718945D01*
X4348213Y-2687968D01*
X4318354Y-2607913D01*
X4318350Y-2607906D01*
X4232190Y-2492812D01*
X4232187Y-2492809D01*
X4117093Y-2406649D01*
X4117086Y-2406645D01*
X3982379Y-2356403D01*
X3982372Y-2356401D01*
X3922844Y-2350000D01*
X3225000Y-2350000D01*
X3225000Y-3374722D01*
X3148694Y-3330667D01*
X3034244Y-3300000D01*
X2915756Y-3300000D01*
X2801306Y-3330667D01*
X2725000Y-3374722D01*
X2725000Y-2350000D01*
X2027155Y-2350000D01*
X1959913Y-2357231D01*
X1959728Y-2355512D01*
X1899458Y-2352275D01*
X1842791Y-2311401D01*
X1817217Y-2246380D01*
X1830856Y-2177855D01*
X1853041Y-2147665D01*
X3704015Y-296691D01*
X3711144Y-290101D01*
X3813835Y-202407D01*
X3825431Y-193630D01*
X3849457Y-177579D01*
X3853397Y-175057D01*
X3952149Y-114550D01*
X3969463Y-105729D01*
X4096352Y-53177D01*
X4114831Y-47173D01*
X4227407Y-20150D01*
X4232042Y-19134D01*
X4260347Y-13504D01*
X4274766Y-11510D01*
X4409858Y-881D01*
X4419577Y-500D01*
X10054529Y-500D01*
X10121568Y-20185D01*
G37*
%TD.AperFunction*%
%TA.AperFunction,Conductor*%
G36*
X40590640Y-882D02*
G01*
X40599307Y-1563D01*
X40726563Y-11577D01*
X40740986Y-13571D01*
X40764074Y-18163D01*
X40768729Y-19185D01*
X40885162Y-47137D01*
X40903661Y-53147D01*
X41030547Y-105703D01*
X41047860Y-114524D01*
X41150000Y-177113D01*
X41154001Y-179675D01*
X41173551Y-192737D01*
X41185176Y-201538D01*
X41190052Y-205703D01*
X41288755Y-290003D01*
X41295905Y-296612D01*
X43396955Y-2397662D01*
X43430440Y-2458985D01*
X43425456Y-2528677D01*
X43383584Y-2584610D01*
X43318120Y-2609027D01*
X43290135Y-2606775D01*
X43290087Y-2607231D01*
X43222844Y-2600000D01*
X42525000Y-2600000D01*
X42525000Y-3624722D01*
X42448694Y-3580667D01*
X42334244Y-3550000D01*
X42215756Y-3550000D01*
X42101306Y-3580667D01*
X42025000Y-3624722D01*
X42025000Y-2600000D01*
X41327155Y-2600000D01*
X41267627Y-2606401D01*
X41267620Y-2606403D01*
X41132913Y-2656645D01*
X41132906Y-2656649D01*
X41017812Y-2742809D01*
X41017809Y-2742812D01*
X40931649Y-2857906D01*
X40931643Y-2857918D01*
X40901785Y-2937969D01*
X40859914Y-2993903D01*
X40794449Y-3018319D01*
X40726176Y-3003467D01*
X40697923Y-2982316D01*
X40647363Y-2931756D01*
X40647358Y-2931752D01*
X40469025Y-2802187D01*
X40469024Y-2802186D01*
X40469022Y-2802185D01*
X40377318Y-2755459D01*
X40272606Y-2702104D01*
X40272603Y-2702103D01*
X40062952Y-2633985D01*
X39916226Y-2610746D01*
X39845222Y-2599500D01*
X39624778Y-2599500D01*
X39564627Y-2609027D01*
X39407047Y-2633985D01*
X39197396Y-2702103D01*
X39197393Y-2702104D01*
X39000974Y-2802187D01*
X38822641Y-2931752D01*
X38822636Y-2931756D01*
X38666756Y-3087636D01*
X38666752Y-3087641D01*
X38537187Y-3265973D01*
X38516388Y-3306795D01*
X38468414Y-3357591D01*
X38405903Y-3374500D01*
X38012054Y-3374500D01*
X37945015Y-3354815D01*
X37905938Y-3314652D01*
X37830472Y-3189815D01*
X37830470Y-3189813D01*
X37830469Y-3189811D01*
X37728339Y-3087681D01*
X37694854Y-3026358D01*
X37699838Y-2956666D01*
X37728339Y-2912319D01*
X37830468Y-2810189D01*
X37830469Y-2810188D01*
X37830472Y-2810185D01*
X37918478Y-2664606D01*
X37969086Y-2502196D01*
X37975500Y-2431616D01*
X37975500Y-1918384D01*
X37969086Y-1847804D01*
X37918478Y-1685394D01*
X37830472Y-1539815D01*
X37830470Y-1539813D01*
X37830469Y-1539811D01*
X37710188Y-1419530D01*
X37564606Y-1331522D01*
X37402196Y-1280914D01*
X37402194Y-1280913D01*
X37402192Y-1280913D01*
X37352778Y-1276423D01*
X37331616Y-1274500D01*
X36668384Y-1274500D01*
X36649145Y-1276248D01*
X36597807Y-1280913D01*
X36435393Y-1331522D01*
X36289811Y-1419530D01*
X36169530Y-1539811D01*
X36081520Y-1685397D01*
X36032894Y-1841446D01*
X36030942Y-1844375D01*
X36030691Y-1847890D01*
X36011711Y-1873242D01*
X35994157Y-1899594D01*
X35990929Y-1901004D01*
X35988819Y-1903823D01*
X35959154Y-1914887D01*
X35930132Y-1927568D01*
X35926654Y-1927009D01*
X35923355Y-1928240D01*
X35892410Y-1921508D01*
X35861146Y-1916486D01*
X35857508Y-1913915D01*
X35855082Y-1913388D01*
X35826828Y-1892237D01*
X35662428Y-1727837D01*
X35628943Y-1666514D01*
X35632178Y-1601837D01*
X35637246Y-1586243D01*
X35670500Y-1376287D01*
X35670500Y-1163713D01*
X35637246Y-953757D01*
X35571557Y-751588D01*
X35475051Y-562184D01*
X35475049Y-562181D01*
X35475048Y-562179D01*
X35350109Y-390213D01*
X35199792Y-239896D01*
X35179040Y-224819D01*
X35136374Y-169489D01*
X35130395Y-99876D01*
X35163000Y-38080D01*
X35223839Y-3723D01*
X35251925Y-500D01*
X40580914Y-500D01*
X40590640Y-882D01*
G37*
%TD.AperFunction*%
%TD*%
M02*
