%TF.GenerationSoftware,KiCad,Pcbnew,9.0.1*%
%TF.CreationDate,2025-06-10T11:43:45-04:00*%
%TF.ProjectId,Ceinture_respiration_Main,4365696e-7475-4726-955f-726573706972,1.1*%
%TF.SameCoordinates,Original*%
%TF.FileFunction,Copper,L1,Top*%
%TF.FilePolarity,Positive*%
%FSLAX46Y46*%
G04 Gerber Fmt 4.6, Leading zero omitted, Abs format (unit mm)*
G04 Created by KiCad (PCBNEW 9.0.1) date 2025-06-10 11:43:45*
%MOMM*%
%LPD*%
G01*
G04 APERTURE LIST*
%TA.AperFunction,SMDPad,CuDef*%
%ADD10R,1.400000X1.600000*%
%TD*%
%TA.AperFunction,SMDPad,CuDef*%
%ADD11R,1.092200X3.505200*%
%TD*%
%TA.AperFunction,SMDPad,CuDef*%
%ADD12R,1.600200X3.700000*%
%TD*%
%TA.AperFunction,SMDPad,CuDef*%
%ADD13R,1.000000X3.700000*%
%TD*%
%TA.AperFunction,ComponentPad*%
%ADD14C,1.676400*%
%TD*%
%TA.AperFunction,ComponentPad*%
%ADD15R,1.800000X1.800000*%
%TD*%
%TA.AperFunction,ComponentPad*%
%ADD16C,1.800000*%
%TD*%
%TA.AperFunction,ComponentPad*%
%ADD17R,1.700000X1.700000*%
%TD*%
%TA.AperFunction,ComponentPad*%
%ADD18C,1.700000*%
%TD*%
%TA.AperFunction,ComponentPad*%
%ADD19O,1.700000X1.700000*%
%TD*%
%TA.AperFunction,ViaPad*%
%ADD20C,0.800000*%
%TD*%
%TA.AperFunction,Conductor*%
%ADD21C,0.250000*%
%TD*%
%TA.AperFunction,Conductor*%
%ADD22C,0.500000*%
%TD*%
%TA.AperFunction,Conductor*%
%ADD23C,0.350000*%
%TD*%
%TA.AperFunction,Conductor*%
%ADD24C,0.750000*%
%TD*%
G04 APERTURE END LIST*
D10*
%TO.P,SW1,2,2*%
%TO.N,GND*%
X5500000Y-8400000D03*
X5500000Y-15600000D03*
%TO.P,SW1,1,1*%
%TO.N,/DEVICES/BTN1*%
X2500000Y-8400000D03*
X2500000Y-15600000D03*
%TD*%
D11*
%TO.P,J4,1,Pin_1*%
%TO.N,/MCU/EXT3*%
X24447944Y-33451301D03*
%TO.P,J4,2,Pin_2*%
%TO.N,/MCU/EXT4*%
X22447948Y-33451301D03*
%TO.P,J4,3,Pin_3*%
%TO.N,+5V*%
X20447952Y-33451301D03*
%TO.P,J4,4,Pin_4*%
%TO.N,GND*%
X18447956Y-33451301D03*
D12*
%TO.P,J4,5,Pin_5*%
X26747950Y-39251302D03*
%TO.P,J4,6,Pin_6*%
X16147950Y-39251302D03*
%TD*%
D10*
%TO.P,SW4,1,1*%
%TO.N,/DEVICES/BTN4*%
X42500000Y-17900000D03*
X42500000Y-25100000D03*
%TO.P,SW4,2,2*%
%TO.N,GND*%
X39500000Y-17900000D03*
X39500000Y-25100000D03*
%TD*%
%TO.P,SW3,1,1*%
%TO.N,/DEVICES/BTN3*%
X42500000Y-8400000D03*
X42500000Y-15600000D03*
%TO.P,SW3,2,2*%
%TO.N,GND*%
X39500000Y-8400000D03*
X39500000Y-15600000D03*
%TD*%
D11*
%TO.P,J5,1,Pin_1*%
%TO.N,/SCL*%
X37197944Y-33451301D03*
%TO.P,J5,2,Pin_2*%
%TO.N,/SDA*%
X35197948Y-33451301D03*
%TO.P,J5,3,Pin_3*%
%TO.N,+5V*%
X33197952Y-33451301D03*
%TO.P,J5,4,Pin_4*%
%TO.N,GND*%
X31197956Y-33451301D03*
D13*
%TO.P,J5,5,Pin_5*%
X39197950Y-39251302D03*
D12*
%TO.P,J5,6,Pin_6*%
X28897950Y-39251302D03*
%TD*%
D10*
%TO.P,SW2,1,1*%
%TO.N,/DEVICES/BTN2*%
X2500000Y-25350000D03*
X2500000Y-18150000D03*
%TO.P,SW2,2,2*%
%TO.N,GND*%
X5500000Y-25350000D03*
X5500000Y-18150000D03*
%TD*%
D11*
%TO.P,J3,1,Pin_1*%
%TO.N,/MCU/EXT1*%
X11500000Y-33500000D03*
%TO.P,J3,2,Pin_2*%
%TO.N,/MCU/EXT2*%
X9500004Y-33500000D03*
%TO.P,J3,3,Pin_3*%
%TO.N,+5V*%
X7500008Y-33500000D03*
%TO.P,J3,4,Pin_4*%
%TO.N,GND*%
X5500012Y-33500000D03*
D12*
%TO.P,J3,5,Pin_5*%
X13800006Y-39300001D03*
%TO.P,J3,6,Pin_6*%
X3200006Y-39300001D03*
%TD*%
D14*
%TO.P,S1,O*%
%TO.N,/BATTERIE 9V/VBAT*%
X39369750Y-29598000D03*
%TO.P,S1,P*%
%TO.N,/BATTERIE 9V/BAT+_PROT*%
X39369750Y-32138000D03*
%TO.P,S1,S*%
%TO.N,unconnected-(S1-PadS)*%
X39369750Y-34678000D03*
%TD*%
D15*
%TO.P,D5,1,K*%
%TO.N,GND*%
X42250000Y-39225000D03*
D16*
%TO.P,D5,2,A*%
%TO.N,Net-(D5-A)*%
X42250000Y-41765000D03*
%TD*%
D15*
%TO.P,D2,1,K*%
%TO.N,GND*%
X2975000Y-3750000D03*
D16*
%TO.P,D2,2,A*%
%TO.N,Net-(D2-A)*%
X5515000Y-3750000D03*
%TD*%
D15*
%TO.P,D1,1,K*%
%TO.N,GND*%
X42275000Y-4000000D03*
D16*
%TO.P,D1,2,A*%
%TO.N,Net-(D1-A)*%
X39735000Y-4000000D03*
%TD*%
D17*
%TO.P,J8,1,Pin_1*%
%TO.N,GND*%
X15090000Y-4500000D03*
D18*
%TO.P,J8,2,Pin_2*%
%TO.N,+3.3V*%
X17630000Y-4500000D03*
%TO.P,J8,3,Pin_3*%
%TO.N,/DEVICES/SCK*%
X20170000Y-4500000D03*
%TO.P,J8,4,Pin_4*%
%TO.N,/DEVICES/MOSI*%
X22710000Y-4500000D03*
%TO.P,J8,5,Pin_5*%
%TO.N,/DEVICES/OLED_RST*%
X25250000Y-4500000D03*
%TO.P,J8,6,Pin_6*%
%TO.N,/DEVICES/OLED_DC*%
X27790000Y-4500000D03*
%TO.P,J8,7,Pin_7*%
%TO.N,/DEVICES/OLED_CS*%
X30330000Y-4500000D03*
%TD*%
D17*
%TO.P,J2,1,Pin_1*%
%TO.N,GND*%
X11460000Y-1270000D03*
D19*
%TO.P,J2,2,Pin_2*%
%TO.N,Net-(J2-Pin_2)*%
X14000000Y-1270000D03*
%TO.P,J2,3,Pin_3*%
%TO.N,/MCU/EXT1*%
X16540000Y-1270000D03*
%TO.P,J2,4,Pin_4*%
%TO.N,/MCU/EXT2*%
X19080000Y-1270000D03*
%TO.P,J2,5,Pin_5*%
%TO.N,/MCU/EXT3*%
X21620000Y-1270000D03*
%TO.P,J2,6,Pin_6*%
%TO.N,/MCU/EXT4*%
X24160000Y-1270000D03*
%TO.P,J2,7,Pin_7*%
%TO.N,/SDA*%
X26700000Y-1270000D03*
%TO.P,J2,8,Pin_8*%
%TO.N,/SCL*%
X29240000Y-1270000D03*
%TO.P,J2,9,Pin_9*%
%TO.N,Net-(J2-Pin_9)*%
X31780000Y-1270000D03*
%TO.P,J2,10,Pin_10*%
%TO.N,Net-(J2-Pin_10)*%
X34320000Y-1270000D03*
%TD*%
D17*
%TO.P,J11,1,Pin_1*%
%TO.N,/BATTERIE 9V/BAT+*%
X37000000Y-30500000D03*
D19*
%TO.P,J11,2,Pin_2*%
%TO.N,GND*%
X37000000Y-27960000D03*
%TD*%
D20*
%TO.N,/DEVICES/LED2*%
X7116299Y-10585500D03*
X17623301Y-10585500D03*
%TO.N,/MCU/EXT4*%
X22860000Y-23750000D03*
%TO.N,GND*%
X9906000Y-19812000D03*
X31496000Y-16510000D03*
X21336000Y-40386000D03*
X12954000Y-29972000D03*
X39370000Y-16510000D03*
X44196000Y-21844000D03*
X43942000Y-20066000D03*
X9144000Y-508000D03*
X9144000Y-15240000D03*
X26924000Y-19812000D03*
X40000000Y-9000000D03*
X7366000Y-1016000D03*
X13000000Y-9000000D03*
X29718000Y-30988000D03*
X23368000Y-41402000D03*
X44450000Y-9652000D03*
X8128000Y-20320000D03*
X31050000Y-38354000D03*
X25908000Y-18796000D03*
X23114000Y-39370000D03*
X32512000Y-42164000D03*
X762000Y-38354000D03*
X37338000Y-19812000D03*
X34798000Y-21082000D03*
X24638000Y-38862000D03*
X39116000Y-37084000D03*
X16256000Y-41910000D03*
X34250000Y-4000000D03*
X16764000Y-19558000D03*
X41402000Y-22606000D03*
X31242000Y-30734000D03*
X31050000Y-39900000D03*
X29972000Y-41910000D03*
X2540000Y-6604000D03*
X11684000Y-42418000D03*
X32004000Y-19050000D03*
X36068000Y-22352000D03*
X8636000Y-27940000D03*
X508000Y-24384000D03*
X6350000Y-27432000D03*
X18288000Y-42164000D03*
X1524000Y-21336000D03*
X762000Y-9398000D03*
X1016000Y-35306000D03*
X38608000Y-38862000D03*
X9398000Y-39116000D03*
X29210000Y-19304000D03*
X4826000Y-762000D03*
X44450000Y-6858000D03*
X44450000Y-24638000D03*
X38100000Y-508000D03*
X44450000Y-15494000D03*
X21590000Y-38354000D03*
X9906000Y-38100000D03*
X44196000Y-4826000D03*
X28194000Y-30480000D03*
X28702000Y-38862000D03*
X13716000Y-42418000D03*
X18796000Y-40894000D03*
X44450000Y-12192000D03*
X26416000Y-41910000D03*
X39878000Y-18288000D03*
X762000Y-5080000D03*
X762000Y-7112000D03*
X762000Y-32512000D03*
X30226000Y-16256000D03*
X24892000Y-42418000D03*
X6858000Y-29718000D03*
X26162000Y-16764000D03*
X27050000Y-34950000D03*
X762000Y-18542000D03*
X508000Y-12700000D03*
X44450000Y-17272000D03*
X29972000Y-20320000D03*
X6350000Y-40640000D03*
X18300000Y-31250000D03*
X2286000Y-10668000D03*
X27178000Y-42418000D03*
X5334000Y-30480000D03*
X5588000Y-20828000D03*
X44196000Y-18542000D03*
X6604000Y-19558000D03*
X1016000Y-15494000D03*
X6604000Y-28702000D03*
X10668000Y-40132000D03*
X20000000Y-29500000D03*
X40132000Y-13716000D03*
X39116000Y-21590000D03*
X762000Y-11176000D03*
X36000000Y-41500000D03*
X40894000Y-20574000D03*
X19812000Y-39116000D03*
X36576000Y-16510000D03*
X21082000Y-41910000D03*
X39624000Y-1016000D03*
X762000Y-29210000D03*
%TO.N,/DEVICES/LED1*%
X15600000Y-8262000D03*
X37000000Y-2175000D03*
%TO.N,/MCU/EXT3*%
X28000000Y-29000000D03*
X20320000Y-23300500D03*
X25760000Y-25350000D03*
%TO.N,/DEVICES/SD_DETECT*%
X14475000Y-20454000D03*
X20828000Y-20454000D03*
%TO.N,/DEVICES/BUZZER*%
X24485600Y-10585500D03*
X30988000Y-10585500D03*
%TO.N,/DEVICES/MISO*%
X41000000Y-12034500D03*
X4064000Y-12034500D03*
%TO.N,/DEVICES/SCK*%
X3556000Y-13342000D03*
X19304000Y-12542500D03*
X34104500Y-12542500D03*
%TO.N,+3.3V*%
X26725000Y-33125000D03*
X37592000Y-24130000D03*
X32750000Y-4500000D03*
X7224356Y-41124259D03*
X19400000Y-31200000D03*
X21300000Y-27102200D03*
X30750000Y-27250000D03*
X6700500Y-36000000D03*
X17300000Y-31000000D03*
%TO.N,/DEVICES/BTN4*%
X7980000Y-17914000D03*
%TO.N,/DEVICES/SD_CS*%
X5588000Y-14200498D03*
X36068000Y-14358000D03*
%TO.N,/SDA*%
X25908000Y-8770000D03*
X18075109Y-29576416D03*
X31750000Y-27250000D03*
%TO.N,/SCL*%
X20986500Y-18930000D03*
X20079300Y-25949191D03*
X20828000Y-9136000D03*
X17541052Y-26997488D03*
X18864500Y-22994000D03*
X16408400Y-29001700D03*
X26750000Y-23750000D03*
X18864500Y-18930000D03*
%TO.N,/MCU/EXT1*%
X15240000Y-29090000D03*
X30835600Y-25584800D03*
%TO.N,/MCU/EXT2*%
X28092400Y-25381600D03*
X26416000Y-3182000D03*
%TO.N,+5V*%
X33000000Y-37195901D03*
X13000000Y-27000000D03*
X33000000Y-35296901D03*
X20000000Y-37195901D03*
X35000000Y-15000000D03*
X13000000Y-15000000D03*
X20000000Y-35000000D03*
%TO.N,/DEVICES/BTN3*%
X5588000Y-11310000D03*
%TO.N,Net-(D3-A)*%
X25593426Y-31671488D03*
X25350000Y-27102200D03*
%TO.N,/DEVICES/BTN1*%
X18140000Y-16898000D03*
%TO.N,/DEVICES/BTN2*%
X15600000Y-23502000D03*
%TO.N,Net-(Q1-B)*%
X22777504Y-29002199D03*
X26844653Y-30194653D03*
%TO.N,/DEVICES/MOSI*%
X21844000Y-13125500D03*
X37592000Y-13342000D03*
X4572000Y-13558500D03*
%TO.N,/BATTERIE 9V/VBAT*%
X11176000Y-21919000D03*
X11500000Y-5475000D03*
X34525000Y-22975000D03*
X11176000Y-9278000D03*
X6096000Y-22486000D03*
%TD*%
D21*
%TO.N,/DEVICES/LED2*%
X17623301Y-10585500D02*
X17406801Y-10802000D01*
X7332799Y-10802000D02*
X7116299Y-10585500D01*
X17406801Y-10802000D02*
X7332799Y-10802000D01*
%TO.N,/MCU/EXT4*%
X31699200Y-25423095D02*
X31699200Y-25889600D01*
X22860000Y-23750000D02*
X23250000Y-23750000D01*
X24006000Y-22994000D02*
X29270105Y-22994000D01*
X22447948Y-33451301D02*
X22447948Y-32502597D01*
X22447948Y-32502597D02*
X23576844Y-31373701D01*
X31096950Y-26491850D02*
X31699200Y-25889600D01*
X23576844Y-31373701D02*
X23944149Y-31373701D01*
X23944149Y-31373701D02*
X28826000Y-26491850D01*
X29270105Y-22994000D02*
X31699200Y-25423095D01*
X28826000Y-26491850D02*
X31096950Y-26491850D01*
X23250000Y-23750000D02*
X24006000Y-22994000D01*
D22*
%TO.N,GND*%
X39524252Y-39225000D02*
X39497950Y-39251302D01*
D21*
X18300000Y-31250000D02*
X18447956Y-31397956D01*
D22*
X42250000Y-39225000D02*
X39524252Y-39225000D01*
D21*
X18447956Y-31397956D02*
X18447956Y-33451301D01*
X39500000Y-8500000D02*
X40000000Y-9000000D01*
X39500000Y-8400000D02*
X39500000Y-8500000D01*
%TO.N,/DEVICES/LED1*%
X25219405Y-10294000D02*
X24785905Y-9860500D01*
X30254195Y-10294000D02*
X25219405Y-10294000D01*
X24785905Y-9860500D02*
X17198500Y-9860500D01*
X37000000Y-2175000D02*
X37000000Y-3548195D01*
X37000000Y-3548195D02*
X30254195Y-10294000D01*
X17198500Y-9860500D02*
X15600000Y-8262000D01*
%TO.N,/MCU/EXT3*%
X20320000Y-23300500D02*
X20320000Y-23502000D01*
X22168000Y-25350000D02*
X25760000Y-25350000D01*
X28000000Y-29000000D02*
X27014000Y-29000000D01*
X20320000Y-23502000D02*
X22168000Y-25350000D01*
X24447944Y-31566056D02*
X24447944Y-33451301D01*
X27014000Y-29000000D02*
X24447944Y-31566056D01*
%TO.N,/DEVICES/SD_DETECT*%
X20828000Y-20454000D02*
X14475000Y-20454000D01*
%TO.N,/DEVICES/BUZZER*%
X30771500Y-10802000D02*
X30988000Y-10585500D01*
X24485600Y-10585500D02*
X24702100Y-10802000D01*
X24702100Y-10802000D02*
X30771500Y-10802000D01*
%TO.N,/DEVICES/MISO*%
X40783500Y-11818000D02*
X41000000Y-12034500D01*
X4064000Y-12034500D02*
X5888805Y-12034500D01*
X5888805Y-12034500D02*
X6105305Y-11818000D01*
X6105305Y-11818000D02*
X40783500Y-11818000D01*
%TO.N,/DEVICES/SCK*%
X4064000Y-12834000D02*
X3556000Y-13342000D01*
X19012500Y-12834000D02*
X4064000Y-12834000D01*
X19304000Y-12542500D02*
X19012500Y-12834000D01*
X19446000Y-12400500D02*
X19304000Y-12542500D01*
X34104500Y-12542500D02*
X33962500Y-12400500D01*
X33962500Y-12400500D02*
X19446000Y-12400500D01*
%TO.N,/DEVICES/BTN4*%
X38608000Y-19025000D02*
X42405000Y-19025000D01*
X15494000Y-18034000D02*
X15614000Y-17914000D01*
X42500000Y-18930000D02*
X42500000Y-25100000D01*
X7980000Y-17914000D02*
X15374000Y-17914000D01*
X42405000Y-19025000D02*
X42500000Y-18930000D01*
X37497000Y-17914000D02*
X38608000Y-19025000D01*
X15374000Y-17914000D02*
X15494000Y-18034000D01*
X42500000Y-17900000D02*
X42500000Y-18930000D01*
X15614000Y-17914000D02*
X37497000Y-17914000D01*
%TO.N,/DEVICES/OLED_DC*%
X27580000Y-4000000D02*
X27580000Y-4170000D01*
%TO.N,/DEVICES/SD_CS*%
X5938498Y-13850000D02*
X5588000Y-14200498D01*
X35560000Y-13850000D02*
X5938498Y-13850000D01*
X36068000Y-14358000D02*
X35560000Y-13850000D01*
%TO.N,/SDA*%
X27550000Y-3073305D02*
X27550000Y-2120000D01*
X16500000Y-30420800D02*
X17344384Y-29576416D01*
X35000000Y-27250000D02*
X35250000Y-27500000D01*
X35197948Y-33451301D02*
X35197948Y-35490800D01*
X26615000Y-4008305D02*
X27550000Y-3073305D01*
X25908000Y-8770000D02*
X26615000Y-8063000D01*
X16500000Y-35023600D02*
X16500000Y-30420800D01*
X26615000Y-8063000D02*
X26615000Y-4008305D01*
X17344384Y-29576416D02*
X18075109Y-29576416D01*
X35197948Y-35490800D02*
X34667347Y-36021401D01*
X35250000Y-27500000D02*
X35250000Y-33399249D01*
X35250000Y-33399249D02*
X35197948Y-33451301D01*
X34667347Y-36021401D02*
X17497801Y-36021401D01*
X17497801Y-36021401D02*
X16500000Y-35023600D01*
X27550000Y-2120000D02*
X26700000Y-1270000D01*
X31750000Y-27250000D02*
X35000000Y-27250000D01*
%TO.N,/SCL*%
X19837400Y-26067400D02*
X19955609Y-25949191D01*
X17311405Y-36471401D02*
X16000000Y-35159996D01*
X18796000Y-22994000D02*
X18864500Y-22994000D01*
X35384344Y-36471401D02*
X17311405Y-36471401D01*
X26500000Y-25750000D02*
X26000000Y-26250000D01*
X29155000Y-8571000D02*
X27940000Y-9786000D01*
X19837400Y-24035400D02*
X18796000Y-22994000D01*
X19837400Y-26067400D02*
X19837400Y-24035400D01*
X37197944Y-33451301D02*
X37197944Y-34657801D01*
X18864500Y-18930000D02*
X20986500Y-18930000D01*
X26000000Y-26250000D02*
X20380109Y-26250000D01*
X19955609Y-25949191D02*
X20079300Y-25949191D01*
X29155000Y-1355000D02*
X29155000Y-8571000D01*
X29240000Y-1270000D02*
X29155000Y-1355000D01*
X37197944Y-34657801D02*
X35384344Y-36471401D01*
X20970000Y-9278000D02*
X20828000Y-9136000D01*
X17541052Y-26997488D02*
X18907312Y-26997488D01*
X18907312Y-26997488D02*
X19837400Y-26067400D01*
X25347801Y-9786000D02*
X24839801Y-9278000D01*
X16000000Y-35159996D02*
X16000000Y-29410100D01*
X26500000Y-24000000D02*
X26500000Y-25750000D01*
X24839801Y-9278000D02*
X21336000Y-9278000D01*
X21336000Y-9278000D02*
X20970000Y-9278000D01*
X16000000Y-29410100D02*
X16408400Y-29001700D01*
X26750000Y-23750000D02*
X26500000Y-24000000D01*
X20380109Y-26250000D02*
X20079300Y-25949191D01*
X27940000Y-9786000D02*
X25347801Y-9786000D01*
%TO.N,/MCU/EXT1*%
X12496800Y-28277200D02*
X11500000Y-29274000D01*
X30784800Y-25635600D02*
X29045854Y-25635600D01*
X26404254Y-28277200D02*
X15240000Y-28277200D01*
X15240000Y-29090000D02*
X15240000Y-28277200D01*
X11500000Y-29274000D02*
X11500000Y-33500000D01*
X15240000Y-28277200D02*
X12496800Y-28277200D01*
X30835600Y-25584800D02*
X30784800Y-25635600D01*
X29045854Y-25635600D02*
X26404254Y-28277200D01*
%TO.N,/MCU/EXT2*%
X19080000Y-2958000D02*
X19304000Y-3182000D01*
X28092400Y-25952658D02*
X28092400Y-25381600D01*
X9500004Y-30308796D02*
X11981600Y-27827200D01*
X9500004Y-33500000D02*
X9500004Y-30308796D01*
X19304000Y-3182000D02*
X26416000Y-3182000D01*
X26217858Y-27827200D02*
X28092400Y-25952658D01*
X11981600Y-27827200D02*
X26217858Y-27827200D01*
X19080000Y-1270000D02*
X19080000Y-2958000D01*
D23*
%TO.N,+5V*%
X8000000Y-37000000D02*
X33000000Y-37000000D01*
D21*
X33000000Y-35296901D02*
X33197952Y-35098949D01*
D22*
X7500008Y-31499992D02*
X7500008Y-33500000D01*
D21*
X20000000Y-35000000D02*
X20447952Y-34552048D01*
D23*
X7500008Y-33500000D02*
X7500008Y-36500008D01*
X33000000Y-37000000D02*
X33000000Y-37195901D01*
D22*
X11995628Y-27000000D02*
X8925004Y-30070624D01*
X8925004Y-30070624D02*
X8925004Y-30074996D01*
D21*
X33197952Y-35098949D02*
X33197952Y-33451301D01*
X20447952Y-34552048D02*
X20447952Y-33451301D01*
D24*
X13000000Y-15000000D02*
X35000000Y-15000000D01*
D22*
X13000000Y-27000000D02*
X11995628Y-27000000D01*
D23*
X7500008Y-36500008D02*
X8000000Y-37000000D01*
D22*
X8925004Y-30074996D02*
X7500008Y-31499992D01*
D21*
%TO.N,/DEVICES/BTN3*%
X41484000Y-11310000D02*
X42500000Y-10294000D01*
X42500000Y-15600000D02*
X42500000Y-10294000D01*
X5588000Y-11310000D02*
X41484000Y-11310000D01*
X42500000Y-10294000D02*
X42500000Y-8400000D01*
%TO.N,/DEVICES/BTN1*%
X3698000Y-16898000D02*
X2500000Y-15700000D01*
X18140000Y-16898000D02*
X3698000Y-16898000D01*
X3011000Y-12189000D02*
X3011000Y-8911000D01*
X3011000Y-8911000D02*
X2500000Y-8400000D01*
X2500000Y-12700000D02*
X3011000Y-12189000D01*
X2500000Y-15600000D02*
X2500000Y-12700000D01*
X2500000Y-15700000D02*
X2500000Y-15600000D01*
%TO.N,/DEVICES/BTN2*%
X2500000Y-18150000D02*
X2500000Y-20962000D01*
X2500000Y-23502000D02*
X15600000Y-23502000D01*
X2500000Y-20962000D02*
X2500000Y-25350000D01*
%TO.N,Net-(Q1-B)*%
X22777504Y-29002199D02*
X22679703Y-29100000D01*
%TO.N,/DEVICES/MOSI*%
X4572000Y-13558500D02*
X4730500Y-13400000D01*
X37534000Y-13400000D02*
X37592000Y-13342000D01*
X21569500Y-13400000D02*
X21844000Y-13125500D01*
X21394000Y-13400000D02*
X37534000Y-13400000D01*
X4730500Y-13400000D02*
X21569500Y-13400000D01*
D24*
%TO.N,/BATTERIE 9V/VBAT*%
X39369750Y-27819750D02*
X34525000Y-22975000D01*
X11176000Y-5799000D02*
X11500000Y-5475000D01*
X33300000Y-21750000D02*
X6832000Y-21750000D01*
X34525000Y-22975000D02*
X33300000Y-21750000D01*
D21*
X39290000Y-29460000D02*
X39250000Y-29500000D01*
D24*
X39369750Y-29598000D02*
X39369750Y-27819750D01*
X6832000Y-21750000D02*
X6096000Y-22486000D01*
X11176000Y-9278000D02*
X11176000Y-5799000D01*
%TD*%
%TA.AperFunction,Conductor*%
%TO.N,GND*%
G36*
X10121568Y-20185D02*
G01*
X10167323Y-72989D01*
X10177267Y-142147D01*
X10168310Y-169065D01*
X10169746Y-169601D01*
X10116403Y-312620D01*
X10116401Y-312627D01*
X10110000Y-372155D01*
X10110000Y-1020000D01*
X11026988Y-1020000D01*
X10994075Y-1077007D01*
X10960000Y-1204174D01*
X10960000Y-1335826D01*
X10994075Y-1462993D01*
X11026988Y-1520000D01*
X10110000Y-1520000D01*
X10110000Y-2167844D01*
X10116401Y-2227372D01*
X10116403Y-2227379D01*
X10166645Y-2362086D01*
X10166649Y-2362093D01*
X10252809Y-2477187D01*
X10252812Y-2477190D01*
X10367906Y-2563350D01*
X10367913Y-2563354D01*
X10502620Y-2613596D01*
X10502627Y-2613598D01*
X10562155Y-2619999D01*
X10562172Y-2620000D01*
X11210000Y-2620000D01*
X11210000Y-1703012D01*
X11267007Y-1735925D01*
X11394174Y-1770000D01*
X11525826Y-1770000D01*
X11652993Y-1735925D01*
X11710000Y-1703012D01*
X11710000Y-2620000D01*
X12357828Y-2620000D01*
X12357844Y-2619999D01*
X12417372Y-2613598D01*
X12417379Y-2613596D01*
X12552086Y-2563354D01*
X12552093Y-2563350D01*
X12667187Y-2477190D01*
X12667190Y-2477187D01*
X12753350Y-2362093D01*
X12753354Y-2362086D01*
X12802422Y-2230529D01*
X12844293Y-2174595D01*
X12909757Y-2150178D01*
X12978030Y-2165030D01*
X13006285Y-2186181D01*
X13120213Y-2300109D01*
X13292179Y-2425048D01*
X13292181Y-2425049D01*
X13292184Y-2425051D01*
X13481588Y-2521557D01*
X13683757Y-2587246D01*
X13893713Y-2620500D01*
X13893714Y-2620500D01*
X14106286Y-2620500D01*
X14106287Y-2620500D01*
X14316243Y-2587246D01*
X14518412Y-2521557D01*
X14707816Y-2425051D01*
X14764339Y-2383985D01*
X14879786Y-2300109D01*
X14879788Y-2300106D01*
X14879792Y-2300104D01*
X15030104Y-2149792D01*
X15030106Y-2149788D01*
X15030109Y-2149786D01*
X15155048Y-1977820D01*
X15155047Y-1977820D01*
X15155051Y-1977816D01*
X15159514Y-1969054D01*
X15207488Y-1918259D01*
X15275308Y-1901463D01*
X15341444Y-1923999D01*
X15380486Y-1969056D01*
X15384951Y-1977820D01*
X15509890Y-2149786D01*
X15660213Y-2300109D01*
X15832179Y-2425048D01*
X15832181Y-2425049D01*
X15832184Y-2425051D01*
X16021588Y-2521557D01*
X16223757Y-2587246D01*
X16433713Y-2620500D01*
X16433714Y-2620500D01*
X16646286Y-2620500D01*
X16646287Y-2620500D01*
X16856243Y-2587246D01*
X17058412Y-2521557D01*
X17247816Y-2425051D01*
X17304339Y-2383985D01*
X17419786Y-2300109D01*
X17419788Y-2300106D01*
X17419792Y-2300104D01*
X17570104Y-2149792D01*
X17570106Y-2149788D01*
X17570109Y-2149786D01*
X17695048Y-1977820D01*
X17695047Y-1977820D01*
X17695051Y-1977816D01*
X17699514Y-1969054D01*
X17747488Y-1918259D01*
X17815308Y-1901463D01*
X17881444Y-1923999D01*
X17920486Y-1969056D01*
X17924951Y-1977820D01*
X18049890Y-2149786D01*
X18200213Y-2300109D01*
X18372181Y-2425050D01*
X18386792Y-2432494D01*
X18437589Y-2480467D01*
X18454500Y-2542980D01*
X18454500Y-3019610D01*
X18478535Y-3140444D01*
X18478537Y-3140452D01*
X18492347Y-3173792D01*
X18492348Y-3173794D01*
X18494921Y-3180006D01*
X18502389Y-3249475D01*
X18471113Y-3311954D01*
X18411023Y-3347606D01*
X18341198Y-3345111D01*
X18324064Y-3337942D01*
X18148414Y-3248444D01*
X18148413Y-3248443D01*
X18148412Y-3248443D01*
X17946243Y-3182754D01*
X17946241Y-3182753D01*
X17946240Y-3182753D01*
X17784957Y-3157208D01*
X17736287Y-3149500D01*
X17523713Y-3149500D01*
X17475042Y-3157208D01*
X17313760Y-3182753D01*
X17111585Y-3248444D01*
X16922179Y-3344951D01*
X16750215Y-3469889D01*
X16636285Y-3583819D01*
X16574962Y-3617303D01*
X16505270Y-3612319D01*
X16449337Y-3570447D01*
X16432422Y-3539470D01*
X16383354Y-3407913D01*
X16383350Y-3407906D01*
X16297190Y-3292812D01*
X16297187Y-3292809D01*
X16182093Y-3206649D01*
X16182086Y-3206645D01*
X16047379Y-3156403D01*
X16047372Y-3156401D01*
X15987844Y-3150000D01*
X15340000Y-3150000D01*
X15340000Y-4066988D01*
X15282993Y-4034075D01*
X15155826Y-4000000D01*
X15024174Y-4000000D01*
X14897007Y-4034075D01*
X14840000Y-4066988D01*
X14840000Y-3150000D01*
X14192155Y-3150000D01*
X14132627Y-3156401D01*
X14132620Y-3156403D01*
X13997913Y-3206645D01*
X13997906Y-3206649D01*
X13882812Y-3292809D01*
X13882809Y-3292812D01*
X13796649Y-3407906D01*
X13796645Y-3407913D01*
X13746403Y-3542620D01*
X13746401Y-3542627D01*
X13740000Y-3602155D01*
X13740000Y-4250000D01*
X14656988Y-4250000D01*
X14624075Y-4307007D01*
X14590000Y-4434174D01*
X14590000Y-4565826D01*
X14624075Y-4692993D01*
X14656988Y-4750000D01*
X13740000Y-4750000D01*
X13740000Y-5397844D01*
X13746401Y-5457372D01*
X13746403Y-5457379D01*
X13796645Y-5592086D01*
X13796649Y-5592093D01*
X13882809Y-5707187D01*
X13882812Y-5707190D01*
X13997906Y-5793350D01*
X13997913Y-5793354D01*
X14132620Y-5843596D01*
X14132627Y-5843598D01*
X14192155Y-5849999D01*
X14192172Y-5850000D01*
X14840000Y-5850000D01*
X14840000Y-4933012D01*
X14897007Y-4965925D01*
X15024174Y-5000000D01*
X15155826Y-5000000D01*
X15282993Y-4965925D01*
X15340000Y-4933012D01*
X15340000Y-5850000D01*
X15987828Y-5850000D01*
X15987844Y-5849999D01*
X16047372Y-5843598D01*
X16047379Y-5843596D01*
X16182086Y-5793354D01*
X16182093Y-5793350D01*
X16297187Y-5707190D01*
X16297190Y-5707187D01*
X16383350Y-5592093D01*
X16383354Y-5592086D01*
X16432422Y-5460529D01*
X16474293Y-5404595D01*
X16539757Y-5380178D01*
X16608030Y-5395030D01*
X16636285Y-5416181D01*
X16750213Y-5530109D01*
X16922179Y-5655048D01*
X16922181Y-5655049D01*
X16922184Y-5655051D01*
X17111588Y-5751557D01*
X17313757Y-5817246D01*
X17523713Y-5850500D01*
X17523714Y-5850500D01*
X17736286Y-5850500D01*
X17736287Y-5850500D01*
X17946243Y-5817246D01*
X18148412Y-5751557D01*
X18337816Y-5655051D01*
X18424471Y-5592093D01*
X18509786Y-5530109D01*
X18509788Y-5530106D01*
X18509792Y-5530104D01*
X18660104Y-5379792D01*
X18660106Y-5379788D01*
X18660109Y-5379786D01*
X18781763Y-5212341D01*
X18785051Y-5207816D01*
X18789514Y-5199054D01*
X18837488Y-5148259D01*
X18905308Y-5131463D01*
X18971444Y-5153999D01*
X19010484Y-5199054D01*
X19014591Y-5207115D01*
X19014951Y-5207820D01*
X19139890Y-5379786D01*
X19290213Y-5530109D01*
X19462179Y-5655048D01*
X19462181Y-5655049D01*
X19462184Y-5655051D01*
X19651588Y-5751557D01*
X19853757Y-5817246D01*
X20063713Y-5850500D01*
X20063714Y-5850500D01*
X20276286Y-5850500D01*
X20276287Y-5850500D01*
X20486243Y-5817246D01*
X20688412Y-5751557D01*
X20877816Y-5655051D01*
X20964471Y-5592093D01*
X21049786Y-5530109D01*
X21049788Y-5530106D01*
X21049792Y-5530104D01*
X21200104Y-5379792D01*
X21200106Y-5379788D01*
X21200109Y-5379786D01*
X21321763Y-5212341D01*
X21325051Y-5207816D01*
X21329514Y-5199054D01*
X21377488Y-5148259D01*
X21445308Y-5131463D01*
X21511444Y-5153999D01*
X21550484Y-5199054D01*
X21554591Y-5207115D01*
X21554951Y-5207820D01*
X21679890Y-5379786D01*
X21830213Y-5530109D01*
X22002179Y-5655048D01*
X22002181Y-5655049D01*
X22002184Y-5655051D01*
X22191588Y-5751557D01*
X22393757Y-5817246D01*
X22603713Y-5850500D01*
X22603714Y-5850500D01*
X22816286Y-5850500D01*
X22816287Y-5850500D01*
X23026243Y-5817246D01*
X23228412Y-5751557D01*
X23417816Y-5655051D01*
X23504471Y-5592093D01*
X23589786Y-5530109D01*
X23589788Y-5530106D01*
X23589792Y-5530104D01*
X23740104Y-5379792D01*
X23740106Y-5379788D01*
X23740109Y-5379786D01*
X23861763Y-5212341D01*
X23865051Y-5207816D01*
X23869514Y-5199054D01*
X23917488Y-5148259D01*
X23985308Y-5131463D01*
X24051444Y-5153999D01*
X24090484Y-5199054D01*
X24094591Y-5207115D01*
X24094951Y-5207820D01*
X24219890Y-5379786D01*
X24370213Y-5530109D01*
X24542179Y-5655048D01*
X24542181Y-5655049D01*
X24542184Y-5655051D01*
X24731588Y-5751557D01*
X24933757Y-5817246D01*
X25143713Y-5850500D01*
X25143714Y-5850500D01*
X25356286Y-5850500D01*
X25356287Y-5850500D01*
X25566243Y-5817246D01*
X25768412Y-5751557D01*
X25809205Y-5730772D01*
X25877874Y-5717876D01*
X25942615Y-5744152D01*
X25982872Y-5801259D01*
X25989500Y-5841257D01*
X25989500Y-7745500D01*
X25969815Y-7812539D01*
X25917011Y-7858294D01*
X25865500Y-7869500D01*
X25819306Y-7869500D01*
X25645341Y-7904103D01*
X25645332Y-7904106D01*
X25481459Y-7971983D01*
X25481446Y-7971990D01*
X25333965Y-8070535D01*
X25333961Y-8070538D01*
X25208538Y-8195961D01*
X25208535Y-8195965D01*
X25109990Y-8343446D01*
X25109983Y-8343459D01*
X25042107Y-8507329D01*
X25042104Y-8507339D01*
X25033007Y-8553075D01*
X25000622Y-8614986D01*
X24939906Y-8649560D01*
X24907500Y-8651732D01*
X24907500Y-8652500D01*
X21654237Y-8652500D01*
X21587198Y-8632815D01*
X21551135Y-8597390D01*
X21527467Y-8561969D01*
X21527461Y-8561961D01*
X21402038Y-8436538D01*
X21402034Y-8436535D01*
X21254553Y-8337990D01*
X21254540Y-8337983D01*
X21090667Y-8270106D01*
X21090658Y-8270103D01*
X20916694Y-8235500D01*
X20916691Y-8235500D01*
X20739309Y-8235500D01*
X20739306Y-8235500D01*
X20565341Y-8270103D01*
X20565332Y-8270106D01*
X20401459Y-8337983D01*
X20401446Y-8337990D01*
X20253965Y-8436535D01*
X20253961Y-8436538D01*
X20128538Y-8561961D01*
X20128535Y-8561965D01*
X20029990Y-8709446D01*
X20029983Y-8709459D01*
X19962106Y-8873332D01*
X19962103Y-8873341D01*
X19927500Y-9047304D01*
X19927500Y-9111000D01*
X19907815Y-9178039D01*
X19855011Y-9223794D01*
X19803500Y-9235000D01*
X17508953Y-9235000D01*
X17441914Y-9215315D01*
X17421272Y-9198681D01*
X16536819Y-8314228D01*
X16503334Y-8252905D01*
X16500500Y-8226547D01*
X16500500Y-8173306D01*
X16500499Y-8173304D01*
X16465896Y-7999341D01*
X16465893Y-7999332D01*
X16398016Y-7835459D01*
X16398009Y-7835446D01*
X16299464Y-7687965D01*
X16299461Y-7687961D01*
X16174038Y-7562538D01*
X16174034Y-7562535D01*
X16026553Y-7463990D01*
X16026540Y-7463983D01*
X15862667Y-7396106D01*
X15862658Y-7396103D01*
X15688694Y-7361500D01*
X15688691Y-7361500D01*
X15511309Y-7361500D01*
X15511306Y-7361500D01*
X15337341Y-7396103D01*
X15337332Y-7396106D01*
X15173459Y-7463983D01*
X15173446Y-7463990D01*
X15025965Y-7562535D01*
X15025961Y-7562538D01*
X14900538Y-7687961D01*
X14900535Y-7687965D01*
X14801990Y-7835446D01*
X14801983Y-7835459D01*
X14734106Y-7999332D01*
X14734103Y-7999341D01*
X14699500Y-8173304D01*
X14699500Y-8350695D01*
X14734103Y-8524658D01*
X14734106Y-8524667D01*
X14801983Y-8688540D01*
X14801990Y-8688553D01*
X14900535Y-8836034D01*
X14900538Y-8836038D01*
X15025961Y-8961461D01*
X15025965Y-8961464D01*
X15173446Y-9060009D01*
X15173459Y-9060016D01*
X15273704Y-9101538D01*
X15337334Y-9127894D01*
X15337336Y-9127894D01*
X15337341Y-9127896D01*
X15511304Y-9162499D01*
X15511307Y-9162500D01*
X15511309Y-9162500D01*
X15564548Y-9162500D01*
X15631587Y-9182185D01*
X15652229Y-9198819D01*
X16418228Y-9964819D01*
X16451713Y-10026142D01*
X16446729Y-10095834D01*
X16404857Y-10151767D01*
X16339393Y-10176184D01*
X16330547Y-10176500D01*
X11850362Y-10176500D01*
X11783323Y-10156815D01*
X11737568Y-10104011D01*
X11727624Y-10034853D01*
X11756649Y-9971297D01*
X11762681Y-9964819D01*
X11875461Y-9852038D01*
X11875464Y-9852035D01*
X11974013Y-9704547D01*
X11974632Y-9703054D01*
X11999176Y-9643797D01*
X12041894Y-9540666D01*
X12061733Y-9440932D01*
X12076499Y-9366695D01*
X12076500Y-9366693D01*
X12076500Y-9189306D01*
X12053883Y-9075606D01*
X12051500Y-9051414D01*
X12051500Y-6248361D01*
X12071185Y-6181322D01*
X12087814Y-6160684D01*
X12199464Y-6049035D01*
X12298013Y-5901547D01*
X12365894Y-5737666D01*
X12367266Y-5730772D01*
X12400499Y-5563695D01*
X12400500Y-5563693D01*
X12400500Y-5386306D01*
X12400499Y-5386304D01*
X12365896Y-5212341D01*
X12365893Y-5212332D01*
X12364022Y-5207816D01*
X12336797Y-5142086D01*
X12298016Y-5048459D01*
X12298009Y-5048446D01*
X12199464Y-4900965D01*
X12199461Y-4900961D01*
X12074038Y-4775538D01*
X12074034Y-4775535D01*
X11926553Y-4676990D01*
X11926540Y-4676983D01*
X11762667Y-4609106D01*
X11762658Y-4609103D01*
X11588694Y-4574500D01*
X11588691Y-4574500D01*
X11411309Y-4574500D01*
X11411306Y-4574500D01*
X11237341Y-4609103D01*
X11237332Y-4609106D01*
X11073459Y-4676983D01*
X11073446Y-4676990D01*
X10925965Y-4775535D01*
X10925961Y-4775538D01*
X10800542Y-4900958D01*
X10800539Y-4900961D01*
X10736124Y-4997361D01*
X10720705Y-5016148D01*
X10617901Y-5118954D01*
X10617900Y-5118955D01*
X10495957Y-5240897D01*
X10495954Y-5240901D01*
X10400145Y-5384288D01*
X10400138Y-5384301D01*
X10334146Y-5543621D01*
X10334143Y-5543633D01*
X10300500Y-5712766D01*
X10300500Y-9051414D01*
X10298117Y-9075606D01*
X10275500Y-9189306D01*
X10275500Y-9366695D01*
X10310103Y-9540658D01*
X10310106Y-9540667D01*
X10377983Y-9704540D01*
X10377990Y-9704553D01*
X10476535Y-9852034D01*
X10476538Y-9852038D01*
X10589319Y-9964819D01*
X10622804Y-10026142D01*
X10617820Y-10095834D01*
X10575948Y-10151767D01*
X10510484Y-10176184D01*
X10501638Y-10176500D01*
X7992316Y-10176500D01*
X7925277Y-10156815D01*
X7889214Y-10121391D01*
X7815763Y-10011465D01*
X7815760Y-10011461D01*
X7690337Y-9886038D01*
X7690333Y-9886035D01*
X7542852Y-9787490D01*
X7542839Y-9787483D01*
X7378966Y-9719606D01*
X7378957Y-9719603D01*
X7204993Y-9685000D01*
X7204990Y-9685000D01*
X7027608Y-9685000D01*
X7027605Y-9685000D01*
X6853640Y-9719603D01*
X6853631Y-9719606D01*
X6689758Y-9787483D01*
X6689745Y-9787490D01*
X6542264Y-9886035D01*
X6542260Y-9886038D01*
X6416837Y-10011461D01*
X6416834Y-10011465D01*
X6318289Y-10158946D01*
X6318282Y-10158959D01*
X6250405Y-10322832D01*
X6250403Y-10322840D01*
X6225728Y-10446889D01*
X6193343Y-10508800D01*
X6132627Y-10543374D01*
X6062858Y-10539634D01*
X6035222Y-10525800D01*
X6014556Y-10511992D01*
X6014540Y-10511983D01*
X5850667Y-10444106D01*
X5850658Y-10444103D01*
X5676694Y-10409500D01*
X5676691Y-10409500D01*
X5499309Y-10409500D01*
X5499306Y-10409500D01*
X5325341Y-10444103D01*
X5325332Y-10444106D01*
X5161459Y-10511983D01*
X5161446Y-10511990D01*
X5013965Y-10610535D01*
X5013961Y-10610538D01*
X4888538Y-10735961D01*
X4888535Y-10735965D01*
X4789990Y-10883446D01*
X4789983Y-10883459D01*
X4722106Y-11047332D01*
X4722104Y-11047340D01*
X4697933Y-11168854D01*
X4665548Y-11230765D01*
X4604832Y-11265339D01*
X4535062Y-11261598D01*
X4507425Y-11247764D01*
X4490553Y-11236490D01*
X4490540Y-11236483D01*
X4326667Y-11168606D01*
X4326658Y-11168603D01*
X4152694Y-11134000D01*
X4152691Y-11134000D01*
X3975309Y-11134000D01*
X3975306Y-11134000D01*
X3801337Y-11168604D01*
X3796494Y-11170074D01*
X3726627Y-11170697D01*
X3667515Y-11133448D01*
X3637924Y-11070154D01*
X3636500Y-11051413D01*
X3636500Y-9484265D01*
X3644318Y-9440932D01*
X3694091Y-9307482D01*
X3694103Y-9307372D01*
X3700500Y-9247873D01*
X3700500Y-9247844D01*
X4300000Y-9247844D01*
X4306401Y-9307372D01*
X4306403Y-9307379D01*
X4356645Y-9442086D01*
X4356649Y-9442093D01*
X4442809Y-9557187D01*
X4442812Y-9557190D01*
X4557906Y-9643350D01*
X4557913Y-9643354D01*
X4692620Y-9693596D01*
X4692627Y-9693598D01*
X4752155Y-9699999D01*
X4752172Y-9700000D01*
X5250000Y-9700000D01*
X5750000Y-9700000D01*
X6247828Y-9700000D01*
X6247844Y-9699999D01*
X6307372Y-9693598D01*
X6307379Y-9693596D01*
X6442086Y-9643354D01*
X6442093Y-9643350D01*
X6557187Y-9557190D01*
X6557190Y-9557187D01*
X6643350Y-9442093D01*
X6643354Y-9442086D01*
X6693596Y-9307379D01*
X6693598Y-9307372D01*
X6699999Y-9247844D01*
X6700000Y-9247827D01*
X6700000Y-8650000D01*
X5750000Y-8650000D01*
X5750000Y-9700000D01*
X5250000Y-9700000D01*
X5250000Y-8650000D01*
X4300000Y-8650000D01*
X4300000Y-9247844D01*
X3700500Y-9247844D01*
X3700499Y-8371270D01*
X3700499Y-7552155D01*
X4300000Y-7552155D01*
X4300000Y-8150000D01*
X5250000Y-8150000D01*
X5750000Y-8150000D01*
X6700000Y-8150000D01*
X6700000Y-7552172D01*
X6699999Y-7552155D01*
X6693598Y-7492627D01*
X6693596Y-7492620D01*
X6643354Y-7357913D01*
X6643350Y-7357906D01*
X6557190Y-7242812D01*
X6557187Y-7242809D01*
X6442093Y-7156649D01*
X6442086Y-7156645D01*
X6307379Y-7106403D01*
X6307372Y-7106401D01*
X6247844Y-7100000D01*
X5750000Y-7100000D01*
X5750000Y-8150000D01*
X5250000Y-8150000D01*
X5250000Y-7100000D01*
X4752155Y-7100000D01*
X4692627Y-7106401D01*
X4692620Y-7106403D01*
X4557913Y-7156645D01*
X4557906Y-7156649D01*
X4442812Y-7242809D01*
X4442809Y-7242812D01*
X4356649Y-7357906D01*
X4356645Y-7357913D01*
X4306403Y-7492620D01*
X4306401Y-7492627D01*
X4300000Y-7552155D01*
X3700499Y-7552155D01*
X3700499Y-7552129D01*
X3700498Y-7552123D01*
X3700497Y-7552116D01*
X3694091Y-7492517D01*
X3682399Y-7461170D01*
X3643797Y-7357671D01*
X3643793Y-7357664D01*
X3557547Y-7242455D01*
X3557544Y-7242452D01*
X3442335Y-7156206D01*
X3442328Y-7156202D01*
X3307482Y-7105908D01*
X3307483Y-7105908D01*
X3247883Y-7099501D01*
X3247881Y-7099500D01*
X3247873Y-7099500D01*
X3247864Y-7099500D01*
X1752129Y-7099500D01*
X1752123Y-7099501D01*
X1692516Y-7105908D01*
X1557671Y-7156202D01*
X1557664Y-7156206D01*
X1442455Y-7242452D01*
X1442452Y-7242455D01*
X1356206Y-7357664D01*
X1356202Y-7357671D01*
X1305908Y-7492517D01*
X1299501Y-7552116D01*
X1299501Y-7552123D01*
X1299500Y-7552135D01*
X1299500Y-9247870D01*
X1299501Y-9247876D01*
X1305908Y-9307483D01*
X1356202Y-9442328D01*
X1356206Y-9442335D01*
X1442452Y-9557544D01*
X1442455Y-9557547D01*
X1557664Y-9643793D01*
X1557671Y-9643797D01*
X1602618Y-9660561D01*
X1692517Y-9694091D01*
X1752127Y-9700500D01*
X2261500Y-9700499D01*
X2328539Y-9720183D01*
X2374294Y-9772987D01*
X2385500Y-9824499D01*
X2385500Y-11878547D01*
X2365815Y-11945586D01*
X2349181Y-11966228D01*
X2104156Y-12211252D01*
X2104148Y-12211260D01*
X2101270Y-12214139D01*
X2101267Y-12214142D01*
X2014142Y-12301267D01*
X1982821Y-12348142D01*
X1978327Y-12354866D01*
X1978322Y-12354873D01*
X1945690Y-12403710D01*
X1945685Y-12403719D01*
X1898540Y-12517538D01*
X1898537Y-12517546D01*
X1885091Y-12585147D01*
X1875934Y-12631191D01*
X1874989Y-12635940D01*
X1874983Y-12635968D01*
X1874500Y-12638393D01*
X1874500Y-14175500D01*
X1854815Y-14242539D01*
X1802011Y-14288294D01*
X1755389Y-14298450D01*
X1755423Y-14299099D01*
X1755429Y-14299146D01*
X1755426Y-14299146D01*
X1755436Y-14299324D01*
X1752123Y-14299501D01*
X1692516Y-14305908D01*
X1557671Y-14356202D01*
X1557664Y-14356206D01*
X1442455Y-14442452D01*
X1442452Y-14442455D01*
X1356206Y-14557664D01*
X1356202Y-14557671D01*
X1305908Y-14692517D01*
X1299501Y-14752116D01*
X1299501Y-14752123D01*
X1299500Y-14752135D01*
X1299500Y-16447870D01*
X1299501Y-16447876D01*
X1305908Y-16507483D01*
X1356202Y-16642328D01*
X1356206Y-16642335D01*
X1442452Y-16757544D01*
X1442453Y-16757544D01*
X1442454Y-16757546D01*
X1444195Y-16758849D01*
X1466750Y-16775734D01*
X1508620Y-16831668D01*
X1513604Y-16901360D01*
X1480118Y-16962683D01*
X1466750Y-16974266D01*
X1442452Y-16992455D01*
X1356206Y-17107664D01*
X1356202Y-17107671D01*
X1305908Y-17242517D01*
X1299501Y-17302116D01*
X1299500Y-17302135D01*
X1299500Y-18997870D01*
X1299501Y-18997876D01*
X1305908Y-19057483D01*
X1356202Y-19192328D01*
X1356206Y-19192335D01*
X1442452Y-19307544D01*
X1442455Y-19307547D01*
X1557664Y-19393793D01*
X1557671Y-19393797D01*
X1692516Y-19444091D01*
X1752113Y-19450499D01*
X1752122Y-19450499D01*
X1752127Y-19450500D01*
X1752131Y-19450499D01*
X1755434Y-19450677D01*
X1755424Y-19450855D01*
X1755431Y-19450856D01*
X1755417Y-19450977D01*
X1755366Y-19451946D01*
X1817478Y-19470144D01*
X1863264Y-19522921D01*
X1874500Y-19574499D01*
X1874500Y-23925500D01*
X1854815Y-23992539D01*
X1802011Y-24038294D01*
X1755389Y-24048450D01*
X1755423Y-24049099D01*
X1755429Y-24049146D01*
X1755426Y-24049146D01*
X1755436Y-24049324D01*
X1752123Y-24049501D01*
X1692516Y-24055908D01*
X1557671Y-24106202D01*
X1557664Y-24106206D01*
X1442455Y-24192452D01*
X1442452Y-24192455D01*
X1356206Y-24307664D01*
X1356202Y-24307671D01*
X1305908Y-24442517D01*
X1300008Y-24497398D01*
X1299501Y-24502123D01*
X1299500Y-24502135D01*
X1299500Y-26197870D01*
X1299501Y-26197876D01*
X1305908Y-26257483D01*
X1356202Y-26392328D01*
X1356206Y-26392335D01*
X1442452Y-26507544D01*
X1442455Y-26507547D01*
X1557664Y-26593793D01*
X1557671Y-26593797D01*
X1692517Y-26644091D01*
X1692516Y-26644091D01*
X1699444Y-26644835D01*
X1752127Y-26650500D01*
X3247872Y-26650499D01*
X3307483Y-26644091D01*
X3442331Y-26593796D01*
X3557546Y-26507546D01*
X3643796Y-26392331D01*
X3694091Y-26257483D01*
X3700500Y-26197873D01*
X3700500Y-26197844D01*
X4300000Y-26197844D01*
X4306401Y-26257372D01*
X4306403Y-26257379D01*
X4356645Y-26392086D01*
X4356649Y-26392093D01*
X4442809Y-26507187D01*
X4442812Y-26507190D01*
X4557906Y-26593350D01*
X4557913Y-26593354D01*
X4692620Y-26643596D01*
X4692627Y-26643598D01*
X4752155Y-26649999D01*
X4752172Y-26650000D01*
X5250000Y-26650000D01*
X5750000Y-26650000D01*
X6247828Y-26650000D01*
X6247844Y-26649999D01*
X6307372Y-26643598D01*
X6307379Y-26643596D01*
X6442086Y-26593354D01*
X6442093Y-26593350D01*
X6557187Y-26507190D01*
X6557190Y-26507187D01*
X6643350Y-26392093D01*
X6643354Y-26392086D01*
X6693596Y-26257379D01*
X6693598Y-26257372D01*
X6699999Y-26197844D01*
X6700000Y-26197827D01*
X6700000Y-25600000D01*
X5750000Y-25600000D01*
X5750000Y-26650000D01*
X5250000Y-26650000D01*
X5250000Y-25600000D01*
X4300000Y-25600000D01*
X4300000Y-26197844D01*
X3700500Y-26197844D01*
X3700499Y-25350000D01*
X3700499Y-24502129D01*
X3700498Y-24502123D01*
X3700497Y-24502116D01*
X3694091Y-24442517D01*
X3679166Y-24402500D01*
X3640697Y-24299359D01*
X3642880Y-24298544D01*
X3630725Y-24242646D01*
X3655146Y-24177183D01*
X3711082Y-24135315D01*
X3754408Y-24127500D01*
X4246168Y-24127500D01*
X4313207Y-24147185D01*
X4358962Y-24199989D01*
X4368906Y-24269147D01*
X4358876Y-24299276D01*
X4359746Y-24299601D01*
X4306403Y-24442620D01*
X4306401Y-24442627D01*
X4300000Y-24502155D01*
X4300000Y-25100000D01*
X6700000Y-25100000D01*
X6700000Y-24502172D01*
X6699999Y-24502155D01*
X6693598Y-24442627D01*
X6693596Y-24442620D01*
X6640254Y-24299601D01*
X6642366Y-24298813D01*
X6630147Y-24242663D01*
X6654559Y-24177197D01*
X6710490Y-24135322D01*
X6753832Y-24127500D01*
X14900639Y-24127500D01*
X14967678Y-24147185D01*
X14988321Y-24163820D01*
X15025961Y-24201461D01*
X15025965Y-24201464D01*
X15173446Y-24300009D01*
X15173459Y-24300016D01*
X15284119Y-24345852D01*
X15337334Y-24367894D01*
X15337336Y-24367894D01*
X15337341Y-24367896D01*
X15511304Y-24402499D01*
X15511307Y-24402500D01*
X15511309Y-24402500D01*
X15688693Y-24402500D01*
X15688694Y-24402499D01*
X15746682Y-24390964D01*
X15862658Y-24367896D01*
X15862661Y-24367894D01*
X15862666Y-24367894D01*
X16026547Y-24300013D01*
X16174035Y-24201464D01*
X16299464Y-24076035D01*
X16398013Y-23928547D01*
X16465894Y-23764666D01*
X16467958Y-23754294D01*
X16494640Y-23620151D01*
X16500500Y-23590691D01*
X16500500Y-23413309D01*
X16500500Y-23413306D01*
X16500499Y-23413304D01*
X16465896Y-23239341D01*
X16465893Y-23239332D01*
X16398016Y-23075459D01*
X16398009Y-23075446D01*
X16299464Y-22927965D01*
X16299461Y-22927961D01*
X16208681Y-22837181D01*
X16175196Y-22775858D01*
X16180180Y-22706166D01*
X16222052Y-22650233D01*
X16287516Y-22625816D01*
X16296362Y-22625500D01*
X17868563Y-22625500D01*
X17935602Y-22645185D01*
X17981357Y-22697989D01*
X17991301Y-22767147D01*
X17990180Y-22773691D01*
X17964000Y-22905304D01*
X17964000Y-23082695D01*
X17998603Y-23256658D01*
X17998606Y-23256667D01*
X18066483Y-23420540D01*
X18066490Y-23420553D01*
X18165035Y-23568034D01*
X18165038Y-23568038D01*
X18290461Y-23693461D01*
X18290465Y-23693464D01*
X18437946Y-23792009D01*
X18437959Y-23792016D01*
X18560863Y-23842923D01*
X18601834Y-23859894D01*
X18601836Y-23859894D01*
X18601841Y-23859896D01*
X18781783Y-23895689D01*
X18781325Y-23897987D01*
X18836465Y-23920238D01*
X18847227Y-23929817D01*
X19175581Y-24258171D01*
X19209066Y-24319494D01*
X19211900Y-24345852D01*
X19211900Y-25681883D01*
X19209517Y-25706075D01*
X19190878Y-25799777D01*
X19158493Y-25861688D01*
X19156942Y-25863266D01*
X18684541Y-26335669D01*
X18623218Y-26369154D01*
X18596860Y-26371988D01*
X18240413Y-26371988D01*
X18173374Y-26352303D01*
X18152731Y-26335668D01*
X18115090Y-26298026D01*
X18115086Y-26298023D01*
X17967605Y-26199478D01*
X17967592Y-26199471D01*
X17803719Y-26131594D01*
X17803710Y-26131591D01*
X17629746Y-26096988D01*
X17629743Y-26096988D01*
X17452361Y-26096988D01*
X17452358Y-26096988D01*
X17278393Y-26131591D01*
X17278384Y-26131594D01*
X17114511Y-26199471D01*
X17114498Y-26199478D01*
X16967017Y-26298023D01*
X16967013Y-26298026D01*
X16841590Y-26423449D01*
X16841587Y-26423453D01*
X16743042Y-26570934D01*
X16743035Y-26570947D01*
X16675158Y-26734820D01*
X16675155Y-26734829D01*
X16640552Y-26908792D01*
X16640552Y-27077700D01*
X16620867Y-27144739D01*
X16568063Y-27190494D01*
X16516552Y-27201700D01*
X14024500Y-27201700D01*
X13957461Y-27182015D01*
X13911706Y-27129211D01*
X13900500Y-27077700D01*
X13900500Y-26911306D01*
X13900499Y-26911304D01*
X13865896Y-26737341D01*
X13865893Y-26737332D01*
X13865282Y-26735858D01*
X13848643Y-26695685D01*
X13798016Y-26573459D01*
X13798009Y-26573446D01*
X13699464Y-26425965D01*
X13699461Y-26425961D01*
X13574038Y-26300538D01*
X13574034Y-26300535D01*
X13426553Y-26201990D01*
X13426540Y-26201983D01*
X13262667Y-26134106D01*
X13262658Y-26134103D01*
X13088694Y-26099500D01*
X13088691Y-26099500D01*
X12911309Y-26099500D01*
X12911306Y-26099500D01*
X12737341Y-26134103D01*
X12737332Y-26134106D01*
X12573452Y-26201987D01*
X12573447Y-26201989D01*
X12533622Y-26228601D01*
X12466945Y-26249480D01*
X12464730Y-26249500D01*
X11921708Y-26249500D01*
X11776720Y-26278340D01*
X11776710Y-26278343D01*
X11640139Y-26334912D01*
X11640126Y-26334919D01*
X11538633Y-26402736D01*
X11538632Y-26402737D01*
X11517209Y-26417050D01*
X8342056Y-29592203D01*
X8342045Y-29592216D01*
X8340025Y-29595240D01*
X8324612Y-29614018D01*
X6917056Y-31021575D01*
X6883303Y-31072092D01*
X6879746Y-31077416D01*
X6834924Y-31144497D01*
X6797965Y-31233722D01*
X6795263Y-31238840D01*
X6774771Y-31259914D01*
X6756328Y-31282801D01*
X6748572Y-31286857D01*
X6746555Y-31288933D01*
X6743049Y-31289747D01*
X6728948Y-31297124D01*
X6711579Y-31303602D01*
X6596359Y-31389856D01*
X6590091Y-31396125D01*
X6588319Y-31394353D01*
X6542998Y-31428260D01*
X6473305Y-31433225D01*
X6411991Y-31399722D01*
X6406672Y-31393582D01*
X6403299Y-31390209D01*
X6288205Y-31304049D01*
X6288198Y-31304045D01*
X6153491Y-31253803D01*
X6153484Y-31253801D01*
X6093956Y-31247400D01*
X5750012Y-31247400D01*
X5750012Y-35752600D01*
X5771171Y-35773759D01*
X5804656Y-35835082D01*
X5805108Y-35885631D01*
X5800000Y-35911311D01*
X5800000Y-36088695D01*
X5834603Y-36262658D01*
X5834606Y-36262667D01*
X5902483Y-36426540D01*
X5902490Y-36426553D01*
X6001035Y-36574034D01*
X6001038Y-36574038D01*
X6126461Y-36699461D01*
X6126465Y-36699464D01*
X6273946Y-36798009D01*
X6273959Y-36798016D01*
X6386336Y-36844563D01*
X6437834Y-36865894D01*
X6437836Y-36865894D01*
X6437841Y-36865896D01*
X6611804Y-36900499D01*
X6611807Y-36900500D01*
X6611809Y-36900500D01*
X6789192Y-36900500D01*
X6823748Y-36893626D01*
X6855052Y-36887399D01*
X6924643Y-36893626D01*
X6970387Y-36926924D01*
X6971005Y-36926307D01*
X6974928Y-36930230D01*
X6975101Y-36930356D01*
X6975315Y-36930617D01*
X7475305Y-37430606D01*
X7569394Y-37524695D01*
X7569397Y-37524697D01*
X7569398Y-37524698D01*
X7680020Y-37598613D01*
X7680023Y-37598614D01*
X7680031Y-37598620D01*
X7680037Y-37598622D01*
X7680038Y-37598623D01*
X7737557Y-37622448D01*
X7802964Y-37649540D01*
X7802968Y-37649540D01*
X7802969Y-37649541D01*
X7933466Y-37675500D01*
X7933469Y-37675500D01*
X12375906Y-37675500D01*
X12442945Y-37695185D01*
X12488700Y-37747989D01*
X12499906Y-37799500D01*
X12499906Y-39050001D01*
X14717850Y-39050001D01*
X14730230Y-39037621D01*
X14791553Y-39004136D01*
X14817911Y-39001302D01*
X17448050Y-39001302D01*
X17448050Y-37799500D01*
X17467735Y-37732461D01*
X17520539Y-37686706D01*
X17572050Y-37675500D01*
X19171157Y-37675500D01*
X19238196Y-37695185D01*
X19274256Y-37730606D01*
X19300536Y-37769936D01*
X19300538Y-37769938D01*
X19300542Y-37769943D01*
X19425961Y-37895362D01*
X19425965Y-37895365D01*
X19573446Y-37993910D01*
X19573459Y-37993917D01*
X19696363Y-38044824D01*
X19737334Y-38061795D01*
X19737336Y-38061795D01*
X19737341Y-38061797D01*
X19911304Y-38096400D01*
X19911307Y-38096401D01*
X19911309Y-38096401D01*
X20088693Y-38096401D01*
X20088694Y-38096400D01*
X20146682Y-38084865D01*
X20262658Y-38061797D01*
X20262661Y-38061795D01*
X20262666Y-38061795D01*
X20426547Y-37993914D01*
X20574035Y-37895365D01*
X20574038Y-37895362D01*
X20699458Y-37769943D01*
X20699459Y-37769940D01*
X20699464Y-37769936D01*
X20725742Y-37730607D01*
X20779353Y-37685804D01*
X20828843Y-37675500D01*
X25323850Y-37675500D01*
X25390889Y-37695185D01*
X25436644Y-37747989D01*
X25447850Y-37799500D01*
X25447850Y-39001302D01*
X30198050Y-39001302D01*
X30198050Y-37799500D01*
X30217735Y-37732461D01*
X30270539Y-37686706D01*
X30322050Y-37675500D01*
X32171157Y-37675500D01*
X32238196Y-37695185D01*
X32274256Y-37730606D01*
X32300536Y-37769936D01*
X32300538Y-37769938D01*
X32300542Y-37769943D01*
X32425961Y-37895362D01*
X32425965Y-37895365D01*
X32573446Y-37993910D01*
X32573459Y-37993917D01*
X32696363Y-38044824D01*
X32737334Y-38061795D01*
X32737336Y-38061795D01*
X32737341Y-38061797D01*
X32911304Y-38096400D01*
X32911307Y-38096401D01*
X32911309Y-38096401D01*
X33088693Y-38096401D01*
X33088694Y-38096400D01*
X33146682Y-38084865D01*
X33262658Y-38061797D01*
X33262661Y-38061795D01*
X33262666Y-38061795D01*
X33426547Y-37993914D01*
X33574035Y-37895365D01*
X33699464Y-37769936D01*
X33798013Y-37622448D01*
X33865894Y-37458567D01*
X33886802Y-37353457D01*
X38197950Y-37353457D01*
X38197950Y-39001302D01*
X38947950Y-39001302D01*
X38947950Y-36901302D01*
X38650105Y-36901302D01*
X38590577Y-36907703D01*
X38590570Y-36907705D01*
X38455863Y-36957947D01*
X38455856Y-36957951D01*
X38340762Y-37044111D01*
X38340759Y-37044114D01*
X38254599Y-37159208D01*
X38254595Y-37159215D01*
X38204353Y-37293922D01*
X38204351Y-37293929D01*
X38197950Y-37353457D01*
X33886802Y-37353457D01*
X33888956Y-37342628D01*
X33890886Y-37332927D01*
X33890886Y-37332922D01*
X33900500Y-37284592D01*
X33900500Y-37215822D01*
X33900916Y-37210755D01*
X33911716Y-37182702D01*
X33920185Y-37153862D01*
X33924139Y-37150435D01*
X33926020Y-37145551D01*
X33950277Y-37127786D01*
X33972989Y-37108107D01*
X33978909Y-37106819D01*
X33982390Y-37104270D01*
X33993832Y-37103572D01*
X34024500Y-37096901D01*
X35445951Y-37096901D01*
X35506373Y-37084882D01*
X35566796Y-37072864D01*
X35600136Y-37059053D01*
X35680630Y-37025713D01*
X35731853Y-36991485D01*
X35783077Y-36957259D01*
X35870202Y-36870134D01*
X35870202Y-36870132D01*
X35880410Y-36859925D01*
X35880411Y-36859922D01*
X36999616Y-35740719D01*
X37060939Y-35707234D01*
X37087297Y-35704400D01*
X37791915Y-35704400D01*
X37791916Y-35704400D01*
X37851527Y-35697992D01*
X37986375Y-35647697D01*
X38101590Y-35561447D01*
X38130389Y-35522976D01*
X38186321Y-35481107D01*
X38256012Y-35476123D01*
X38317336Y-35509608D01*
X38329972Y-35524403D01*
X38348644Y-35550103D01*
X38497650Y-35699109D01*
X38657165Y-35815001D01*
X38668118Y-35822959D01*
X38787750Y-35883914D01*
X38855862Y-35918620D01*
X38855864Y-35918620D01*
X38855867Y-35918622D01*
X38963288Y-35953525D01*
X39056269Y-35983737D01*
X39264387Y-36016700D01*
X39264392Y-36016700D01*
X39475113Y-36016700D01*
X39683230Y-35983737D01*
X39883633Y-35918622D01*
X40071382Y-35822959D01*
X40177038Y-35746196D01*
X40241849Y-35699109D01*
X40241851Y-35699106D01*
X40241855Y-35699104D01*
X40300569Y-35640390D01*
X40361892Y-35606905D01*
X40431584Y-35611889D01*
X40487517Y-35653761D01*
X40511934Y-35719225D01*
X40512250Y-35728071D01*
X40512250Y-36458500D01*
X40492565Y-36525539D01*
X40439761Y-36571294D01*
X40388250Y-36582500D01*
X39877542Y-36582500D01*
X39877250Y-36582792D01*
X39877250Y-36777524D01*
X39857565Y-36844563D01*
X39804761Y-36890318D01*
X39749099Y-36900878D01*
X39749099Y-36901302D01*
X39746865Y-36901302D01*
X39746628Y-36901347D01*
X39745787Y-36901302D01*
X39447950Y-36901302D01*
X39447950Y-39001302D01*
X40197950Y-39001302D01*
X40197950Y-38358500D01*
X40217635Y-38291461D01*
X40270439Y-38245706D01*
X40321950Y-38234500D01*
X40726000Y-38234500D01*
X40793039Y-38254185D01*
X40838794Y-38306989D01*
X40850000Y-38358500D01*
X40850000Y-38975000D01*
X41874722Y-38975000D01*
X41830667Y-39051306D01*
X41800000Y-39165756D01*
X41800000Y-39284244D01*
X41830667Y-39398694D01*
X41874722Y-39475000D01*
X40850000Y-39475000D01*
X40850000Y-40172844D01*
X40856401Y-40232372D01*
X40856403Y-40232379D01*
X40906645Y-40367086D01*
X40906649Y-40367093D01*
X40992809Y-40482187D01*
X40992812Y-40482190D01*
X41107906Y-40568350D01*
X41107913Y-40568354D01*
X41187968Y-40598213D01*
X41243902Y-40640084D01*
X41268319Y-40705549D01*
X41253467Y-40773822D01*
X41232317Y-40802075D01*
X41181756Y-40852636D01*
X41181752Y-40852641D01*
X41052187Y-41030974D01*
X40952104Y-41227393D01*
X40952103Y-41227396D01*
X40883985Y-41437047D01*
X40859229Y-41593351D01*
X40849500Y-41654778D01*
X40849500Y-41875222D01*
X40866742Y-41984086D01*
X40883985Y-42092952D01*
X40952103Y-42302603D01*
X40952104Y-42302606D01*
X41052187Y-42499025D01*
X41181752Y-42677358D01*
X41181756Y-42677363D01*
X41292212Y-42787819D01*
X41325697Y-42849142D01*
X41320713Y-42918834D01*
X41278841Y-42974767D01*
X41213377Y-42999184D01*
X41204531Y-42999500D01*
X2419086Y-42999500D01*
X2409360Y-42999118D01*
X2395744Y-42998046D01*
X2273449Y-42988423D01*
X2258984Y-42986422D01*
X2235986Y-42981847D01*
X2231235Y-42980805D01*
X2156293Y-42962815D01*
X2114833Y-42952861D01*
X2096338Y-42946852D01*
X1969457Y-42894298D01*
X1952130Y-42885469D01*
X1850049Y-42822916D01*
X1845973Y-42820307D01*
X1826454Y-42807265D01*
X1814820Y-42798458D01*
X1711243Y-42709995D01*
X1704093Y-42703386D01*
X296704Y-41295997D01*
X290089Y-41288841D01*
X212382Y-41197845D01*
X1899906Y-41197845D01*
X1906307Y-41257373D01*
X1906309Y-41257380D01*
X1956551Y-41392087D01*
X1956555Y-41392094D01*
X2042715Y-41507188D01*
X2042718Y-41507191D01*
X2157812Y-41593351D01*
X2157819Y-41593355D01*
X2292526Y-41643597D01*
X2292533Y-41643599D01*
X2352061Y-41650000D01*
X2352078Y-41650001D01*
X2950006Y-41650001D01*
X3450006Y-41650001D01*
X4047934Y-41650001D01*
X4047950Y-41650000D01*
X4107478Y-41643599D01*
X4107485Y-41643597D01*
X4242192Y-41593355D01*
X4242199Y-41593351D01*
X4357293Y-41507191D01*
X4357296Y-41507188D01*
X4443456Y-41392094D01*
X4443460Y-41392087D01*
X4493702Y-41257380D01*
X4493704Y-41257373D01*
X4500105Y-41197845D01*
X4500106Y-41197828D01*
X4500106Y-41035563D01*
X6323856Y-41035563D01*
X6323856Y-41212954D01*
X6358459Y-41386917D01*
X6358462Y-41386926D01*
X6426339Y-41550799D01*
X6426346Y-41550812D01*
X6524891Y-41698293D01*
X6524894Y-41698297D01*
X6650317Y-41823720D01*
X6650321Y-41823723D01*
X6797802Y-41922268D01*
X6797815Y-41922275D01*
X6920719Y-41973182D01*
X6961690Y-41990153D01*
X6961692Y-41990153D01*
X6961697Y-41990155D01*
X7135660Y-42024758D01*
X7135663Y-42024759D01*
X7135665Y-42024759D01*
X7313049Y-42024759D01*
X7313050Y-42024758D01*
X7371038Y-42013223D01*
X7487014Y-41990155D01*
X7487017Y-41990153D01*
X7487022Y-41990153D01*
X7650903Y-41922272D01*
X7798391Y-41823723D01*
X7923820Y-41698294D01*
X8022369Y-41550806D01*
X8023292Y-41548579D01*
X8060606Y-41458492D01*
X8090250Y-41386925D01*
X8108914Y-41293098D01*
X8124855Y-41212954D01*
X8124856Y-41212952D01*
X8124856Y-41197845D01*
X12499906Y-41197845D01*
X12506307Y-41257373D01*
X12506309Y-41257380D01*
X12556551Y-41392087D01*
X12556555Y-41392094D01*
X12642715Y-41507188D01*
X12642718Y-41507191D01*
X12757812Y-41593351D01*
X12757819Y-41593355D01*
X12892526Y-41643597D01*
X12892533Y-41643599D01*
X12952061Y-41650000D01*
X12952078Y-41650001D01*
X13550006Y-41650001D01*
X13550006Y-39550001D01*
X14050006Y-39550001D01*
X14050006Y-41650001D01*
X14647934Y-41650001D01*
X14647950Y-41650000D01*
X14707478Y-41643599D01*
X14707485Y-41643597D01*
X14842192Y-41593355D01*
X14842195Y-41593353D01*
X14932192Y-41525981D01*
X14997656Y-41501563D01*
X15065929Y-41516414D01*
X15080816Y-41525981D01*
X15105758Y-41544653D01*
X15240473Y-41594899D01*
X15240477Y-41594900D01*
X15300005Y-41601301D01*
X15300022Y-41601302D01*
X15897950Y-41601302D01*
X16397950Y-41601302D01*
X16995878Y-41601302D01*
X16995894Y-41601301D01*
X17055422Y-41594900D01*
X17055429Y-41594898D01*
X17190136Y-41544656D01*
X17190143Y-41544652D01*
X17305237Y-41458492D01*
X17305240Y-41458489D01*
X17391400Y-41343395D01*
X17391404Y-41343388D01*
X17441646Y-41208681D01*
X17441648Y-41208674D01*
X17448049Y-41149146D01*
X25447850Y-41149146D01*
X25454251Y-41208674D01*
X25454253Y-41208681D01*
X25504495Y-41343388D01*
X25504499Y-41343395D01*
X25590659Y-41458489D01*
X25590662Y-41458492D01*
X25705756Y-41544652D01*
X25705763Y-41544656D01*
X25840470Y-41594898D01*
X25840477Y-41594900D01*
X25900005Y-41601301D01*
X25900022Y-41601302D01*
X26497950Y-41601302D01*
X26997950Y-41601302D01*
X27595878Y-41601302D01*
X27595894Y-41601301D01*
X27655422Y-41594900D01*
X27655426Y-41594899D01*
X27779616Y-41548579D01*
X27849308Y-41543595D01*
X27866284Y-41548579D01*
X27990473Y-41594899D01*
X27990477Y-41594900D01*
X28050005Y-41601301D01*
X28050022Y-41601302D01*
X28647950Y-41601302D01*
X29147950Y-41601302D01*
X29745878Y-41601302D01*
X29745894Y-41601301D01*
X29805422Y-41594900D01*
X29805429Y-41594898D01*
X29940136Y-41544656D01*
X29940143Y-41544652D01*
X30055237Y-41458492D01*
X30055240Y-41458489D01*
X30141400Y-41343395D01*
X30141404Y-41343388D01*
X30191646Y-41208681D01*
X30191648Y-41208674D01*
X30198049Y-41149146D01*
X38197950Y-41149146D01*
X38204351Y-41208674D01*
X38204353Y-41208681D01*
X38254595Y-41343388D01*
X38254599Y-41343395D01*
X38340759Y-41458489D01*
X38340762Y-41458492D01*
X38455856Y-41544652D01*
X38455863Y-41544656D01*
X38590570Y-41594898D01*
X38590577Y-41594900D01*
X38650105Y-41601301D01*
X38650122Y-41601302D01*
X38947950Y-41601302D01*
X39447950Y-41601302D01*
X39745778Y-41601302D01*
X39745794Y-41601301D01*
X39805322Y-41594900D01*
X39805329Y-41594898D01*
X39940036Y-41544656D01*
X39940043Y-41544652D01*
X40055137Y-41458492D01*
X40055140Y-41458489D01*
X40141300Y-41343395D01*
X40141304Y-41343388D01*
X40191546Y-41208681D01*
X40191548Y-41208674D01*
X40197949Y-41149146D01*
X40197950Y-41149129D01*
X40197950Y-39501302D01*
X39447950Y-39501302D01*
X39447950Y-41601302D01*
X38947950Y-41601302D01*
X38947950Y-39501302D01*
X38197950Y-39501302D01*
X38197950Y-41149146D01*
X30198049Y-41149146D01*
X30198050Y-41149129D01*
X30198050Y-39501302D01*
X29147950Y-39501302D01*
X29147950Y-41601302D01*
X28647950Y-41601302D01*
X28647950Y-39501302D01*
X26997950Y-39501302D01*
X26997950Y-41601302D01*
X26497950Y-41601302D01*
X26497950Y-39501302D01*
X25447850Y-39501302D01*
X25447850Y-41149146D01*
X17448049Y-41149146D01*
X17448050Y-41149129D01*
X17448050Y-39501302D01*
X16397950Y-39501302D01*
X16397950Y-41601302D01*
X15897950Y-41601302D01*
X15897950Y-39501302D01*
X15230106Y-39501302D01*
X15217726Y-39513682D01*
X15156403Y-39547167D01*
X15130045Y-39550001D01*
X14050006Y-39550001D01*
X13550006Y-39550001D01*
X12499906Y-39550001D01*
X12499906Y-41197845D01*
X8124856Y-41197845D01*
X8124856Y-41035565D01*
X8124855Y-41035563D01*
X8090252Y-40861600D01*
X8090249Y-40861591D01*
X8086539Y-40852635D01*
X8065597Y-40802075D01*
X8022372Y-40697718D01*
X8022365Y-40697705D01*
X7923820Y-40550224D01*
X7923817Y-40550220D01*
X7798394Y-40424797D01*
X7798390Y-40424794D01*
X7650909Y-40326249D01*
X7650896Y-40326242D01*
X7487023Y-40258365D01*
X7487014Y-40258362D01*
X7313050Y-40223759D01*
X7313047Y-40223759D01*
X7135665Y-40223759D01*
X7135662Y-40223759D01*
X6961697Y-40258362D01*
X6961688Y-40258365D01*
X6797815Y-40326242D01*
X6797802Y-40326249D01*
X6650321Y-40424794D01*
X6650317Y-40424797D01*
X6524894Y-40550220D01*
X6524891Y-40550224D01*
X6426346Y-40697705D01*
X6426339Y-40697718D01*
X6358462Y-40861591D01*
X6358459Y-40861600D01*
X6323856Y-41035563D01*
X4500106Y-41035563D01*
X4500106Y-39550001D01*
X3450006Y-39550001D01*
X3450006Y-41650001D01*
X2950006Y-41650001D01*
X2950006Y-39550001D01*
X1899906Y-39550001D01*
X1899906Y-41197845D01*
X212382Y-41197845D01*
X202421Y-41186180D01*
X193619Y-41174551D01*
X177610Y-41150588D01*
X175028Y-41146554D01*
X114556Y-41047860D01*
X105725Y-41030525D01*
X80592Y-40969842D01*
X53181Y-40903658D01*
X47171Y-40885159D01*
X20149Y-40772588D01*
X19131Y-40767941D01*
X13506Y-40739658D01*
X11510Y-40725229D01*
X881Y-40590142D01*
X500Y-40580422D01*
X500Y-37402156D01*
X1899906Y-37402156D01*
X1899906Y-39050001D01*
X2950006Y-39050001D01*
X3450006Y-39050001D01*
X4500106Y-39050001D01*
X4500106Y-37402173D01*
X4500105Y-37402156D01*
X4493704Y-37342628D01*
X4493702Y-37342621D01*
X4443460Y-37207914D01*
X4443456Y-37207907D01*
X4357296Y-37092813D01*
X4357293Y-37092810D01*
X4242199Y-37006650D01*
X4242192Y-37006646D01*
X4107485Y-36956404D01*
X4107478Y-36956402D01*
X4047950Y-36950001D01*
X3450006Y-36950001D01*
X3450006Y-39050001D01*
X2950006Y-39050001D01*
X2950006Y-36950001D01*
X2352061Y-36950001D01*
X2292533Y-36956402D01*
X2292526Y-36956404D01*
X2157819Y-37006646D01*
X2157812Y-37006650D01*
X2042718Y-37092810D01*
X2042715Y-37092813D01*
X1956555Y-37207907D01*
X1956551Y-37207914D01*
X1906309Y-37342621D01*
X1906307Y-37342628D01*
X1899906Y-37402156D01*
X500Y-37402156D01*
X500Y-35300444D01*
X4453912Y-35300444D01*
X4460313Y-35359972D01*
X4460315Y-35359979D01*
X4510557Y-35494686D01*
X4510561Y-35494693D01*
X4596721Y-35609787D01*
X4596724Y-35609790D01*
X4711818Y-35695950D01*
X4711825Y-35695954D01*
X4846532Y-35746196D01*
X4846539Y-35746198D01*
X4906067Y-35752599D01*
X4906084Y-35752600D01*
X5250012Y-35752600D01*
X5250012Y-33750000D01*
X4453912Y-33750000D01*
X4453912Y-35300444D01*
X500Y-35300444D01*
X500Y-31699555D01*
X4453912Y-31699555D01*
X4453912Y-33250000D01*
X5250012Y-33250000D01*
X5250012Y-31247400D01*
X4906067Y-31247400D01*
X4846539Y-31253801D01*
X4846532Y-31253803D01*
X4711825Y-31304045D01*
X4711818Y-31304049D01*
X4596724Y-31390209D01*
X4596721Y-31390212D01*
X4510561Y-31505306D01*
X4510557Y-31505313D01*
X4460315Y-31640020D01*
X4460313Y-31640027D01*
X4453912Y-31699555D01*
X500Y-31699555D01*
X500Y-4419086D01*
X882Y-4409360D01*
X6696Y-4335473D01*
X11578Y-4273434D01*
X13573Y-4259007D01*
X18165Y-4235926D01*
X19179Y-4231303D01*
X47142Y-4114836D01*
X53153Y-4096338D01*
X105710Y-3969462D01*
X114535Y-3952143D01*
X177144Y-3849982D01*
X179670Y-3846038D01*
X192758Y-3826451D01*
X201533Y-3814860D01*
X290279Y-3710964D01*
X296856Y-3703850D01*
X1372664Y-2628042D01*
X1433985Y-2594559D01*
X1503677Y-2599543D01*
X1559610Y-2641415D01*
X1584027Y-2706879D01*
X1581776Y-2734864D01*
X1582231Y-2734913D01*
X1575000Y-2802155D01*
X1575000Y-3500000D01*
X2599722Y-3500000D01*
X2555667Y-3576306D01*
X2525000Y-3690756D01*
X2525000Y-3809244D01*
X2555667Y-3923694D01*
X2599722Y-4000000D01*
X1575000Y-4000000D01*
X1575000Y-4697844D01*
X1581401Y-4757372D01*
X1581403Y-4757379D01*
X1631645Y-4892086D01*
X1631649Y-4892093D01*
X1717809Y-5007187D01*
X1717812Y-5007190D01*
X1832906Y-5093350D01*
X1832913Y-5093354D01*
X1967620Y-5143596D01*
X1967627Y-5143598D01*
X2027155Y-5149999D01*
X2027172Y-5150000D01*
X2725000Y-5150000D01*
X2725000Y-4125277D01*
X2801306Y-4169333D01*
X2915756Y-4200000D01*
X3034244Y-4200000D01*
X3148694Y-4169333D01*
X3225000Y-4125277D01*
X3225000Y-5150000D01*
X3922828Y-5150000D01*
X3922844Y-5149999D01*
X3982372Y-5143598D01*
X3982379Y-5143596D01*
X4117086Y-5093354D01*
X4117093Y-5093350D01*
X4232187Y-5007190D01*
X4232190Y-5007187D01*
X4318350Y-4892093D01*
X4318354Y-4892086D01*
X4348213Y-4812031D01*
X4390084Y-4756097D01*
X4455548Y-4731680D01*
X4523821Y-4746531D01*
X4552076Y-4767683D01*
X4602636Y-4818243D01*
X4602641Y-4818247D01*
X4716494Y-4900965D01*
X4780978Y-4947815D01*
X4883396Y-5000000D01*
X4977393Y-5047895D01*
X4977396Y-5047896D01*
X5040032Y-5068247D01*
X5187049Y-5116015D01*
X5404778Y-5150500D01*
X5404779Y-5150500D01*
X5625221Y-5150500D01*
X5625222Y-5150500D01*
X5842951Y-5116015D01*
X6052606Y-5047895D01*
X6249022Y-4947815D01*
X6427365Y-4818242D01*
X6583242Y-4662365D01*
X6712815Y-4484022D01*
X6812895Y-4287606D01*
X6881015Y-4077951D01*
X6915500Y-3860222D01*
X6915500Y-3639778D01*
X6881015Y-3422049D01*
X6842913Y-3304782D01*
X6812896Y-3212396D01*
X6812895Y-3212393D01*
X6773415Y-3134911D01*
X6712815Y-3015978D01*
X6688358Y-2982316D01*
X6583247Y-2837641D01*
X6583243Y-2837636D01*
X6427363Y-2681756D01*
X6427358Y-2681752D01*
X6249025Y-2552187D01*
X6249024Y-2552186D01*
X6249022Y-2552185D01*
X6166823Y-2510302D01*
X6052606Y-2452104D01*
X6052603Y-2452103D01*
X5842952Y-2383985D01*
X5704731Y-2362093D01*
X5625222Y-2349500D01*
X5404778Y-2349500D01*
X5355967Y-2357231D01*
X5187047Y-2383985D01*
X4977396Y-2452103D01*
X4977393Y-2452104D01*
X4780974Y-2552187D01*
X4602641Y-2681752D01*
X4602636Y-2681756D01*
X4552075Y-2732317D01*
X4490752Y-2765801D01*
X4421060Y-2760816D01*
X4365127Y-2718945D01*
X4348213Y-2687968D01*
X4318354Y-2607913D01*
X4318350Y-2607906D01*
X4232190Y-2492812D01*
X4232187Y-2492809D01*
X4117093Y-2406649D01*
X4117086Y-2406645D01*
X3982379Y-2356403D01*
X3982372Y-2356401D01*
X3922844Y-2350000D01*
X3225000Y-2350000D01*
X3225000Y-3374722D01*
X3148694Y-3330667D01*
X3034244Y-3300000D01*
X2915756Y-3300000D01*
X2801306Y-3330667D01*
X2725000Y-3374722D01*
X2725000Y-2350000D01*
X2027155Y-2350000D01*
X1959913Y-2357231D01*
X1959728Y-2355512D01*
X1899458Y-2352275D01*
X1842791Y-2311401D01*
X1817217Y-2246380D01*
X1830856Y-2177855D01*
X1853041Y-2147665D01*
X3704015Y-296691D01*
X3711144Y-290101D01*
X3813835Y-202407D01*
X3825431Y-193630D01*
X3849457Y-177579D01*
X3853397Y-175057D01*
X3952149Y-114550D01*
X3969463Y-105729D01*
X4096352Y-53177D01*
X4114831Y-47173D01*
X4227407Y-20150D01*
X4232042Y-19134D01*
X4260347Y-13504D01*
X4274766Y-11510D01*
X4409858Y-881D01*
X4419577Y-500D01*
X10054529Y-500D01*
X10121568Y-20185D01*
G37*
%TD.AperFunction*%
%TA.AperFunction,Conductor*%
G36*
X44942539Y-38254185D02*
G01*
X44988294Y-38306989D01*
X44999500Y-38358500D01*
X44999500Y-40580912D01*
X44999118Y-40590641D01*
X44988422Y-40726543D01*
X44986422Y-40741004D01*
X44981846Y-40764010D01*
X44980802Y-40768768D01*
X44952858Y-40885159D01*
X44946844Y-40903666D01*
X44894294Y-41030526D01*
X44885461Y-41047860D01*
X44885458Y-41047866D01*
X44822901Y-41149939D01*
X44820277Y-41154038D01*
X44807260Y-41173518D01*
X44798446Y-41185160D01*
X44709736Y-41289016D01*
X44703131Y-41296161D01*
X43831232Y-42168060D01*
X43769909Y-42201545D01*
X43700217Y-42196561D01*
X43644284Y-42154689D01*
X43619867Y-42089225D01*
X43621077Y-42060985D01*
X43650500Y-41875222D01*
X43650500Y-41654778D01*
X43616015Y-41437049D01*
X43581955Y-41332221D01*
X43547896Y-41227396D01*
X43547895Y-41227393D01*
X43508025Y-41149146D01*
X43447815Y-41030978D01*
X43431260Y-41008192D01*
X43318247Y-40852641D01*
X43318243Y-40852636D01*
X43267683Y-40802076D01*
X43234198Y-40740753D01*
X43239182Y-40671061D01*
X43281054Y-40615128D01*
X43312031Y-40598213D01*
X43392086Y-40568354D01*
X43392093Y-40568350D01*
X43507187Y-40482190D01*
X43507190Y-40482187D01*
X43593350Y-40367093D01*
X43593354Y-40367086D01*
X43643596Y-40232379D01*
X43643598Y-40232372D01*
X43649999Y-40172844D01*
X43650000Y-40172827D01*
X43650000Y-39475000D01*
X42625278Y-39475000D01*
X42669333Y-39398694D01*
X42700000Y-39284244D01*
X42700000Y-39165756D01*
X42669333Y-39051306D01*
X42625278Y-38975000D01*
X43650000Y-38975000D01*
X43650000Y-38358500D01*
X43669685Y-38291461D01*
X43722489Y-38245706D01*
X43774000Y-38234500D01*
X44875500Y-38234500D01*
X44942539Y-38254185D01*
G37*
%TD.AperFunction*%
%TA.AperFunction,Conductor*%
G36*
X14224185Y-28905250D02*
G01*
X14233147Y-28903962D01*
X14257187Y-28914940D01*
X14282539Y-28922385D01*
X14288466Y-28929225D01*
X14296703Y-28932987D01*
X14310992Y-28955221D01*
X14328294Y-28975189D01*
X14330581Y-28985703D01*
X14334477Y-28991765D01*
X14339500Y-29026700D01*
X14339500Y-29178695D01*
X14374103Y-29352658D01*
X14374106Y-29352667D01*
X14441983Y-29516540D01*
X14441990Y-29516553D01*
X14540535Y-29664034D01*
X14540538Y-29664038D01*
X14665961Y-29789461D01*
X14665965Y-29789464D01*
X14813446Y-29888009D01*
X14813459Y-29888016D01*
X14919617Y-29931987D01*
X14977334Y-29955894D01*
X14977336Y-29955894D01*
X14977341Y-29955896D01*
X15151304Y-29990499D01*
X15151307Y-29990500D01*
X15250500Y-29990500D01*
X15317539Y-30010185D01*
X15363294Y-30062989D01*
X15374500Y-30114500D01*
X15374500Y-35221602D01*
X15398537Y-35342448D01*
X15405842Y-35360083D01*
X15445688Y-35456282D01*
X15473352Y-35497683D01*
X15477773Y-35504300D01*
X15477774Y-35504301D01*
X15514141Y-35558728D01*
X15514144Y-35558732D01*
X15605586Y-35650174D01*
X15605608Y-35650194D01*
X16068233Y-36112819D01*
X16101718Y-36174142D01*
X16096734Y-36243834D01*
X16054862Y-36299767D01*
X15989398Y-36324184D01*
X15980552Y-36324500D01*
X8331163Y-36324500D01*
X8301722Y-36315855D01*
X8271736Y-36309332D01*
X8266720Y-36305577D01*
X8264124Y-36304815D01*
X8243482Y-36288181D01*
X8211827Y-36256526D01*
X8178342Y-36195203D01*
X8175508Y-36168845D01*
X8175508Y-35824611D01*
X8195193Y-35757572D01*
X8247997Y-35711817D01*
X8256167Y-35708432D01*
X8288439Y-35696396D01*
X8403654Y-35610146D01*
X8403656Y-35610142D01*
X8409925Y-35603875D01*
X8411805Y-35605755D01*
X8456673Y-35572168D01*
X8526365Y-35567184D01*
X8587688Y-35600669D01*
X8592925Y-35606713D01*
X8596359Y-35610147D01*
X8711568Y-35696393D01*
X8711575Y-35696397D01*
X8846421Y-35746691D01*
X8846420Y-35746691D01*
X8853348Y-35747435D01*
X8906031Y-35753100D01*
X10093976Y-35753099D01*
X10153587Y-35746691D01*
X10288435Y-35696396D01*
X10403650Y-35610146D01*
X10403652Y-35610142D01*
X10409921Y-35603875D01*
X10411801Y-35605755D01*
X10456669Y-35572168D01*
X10526361Y-35567184D01*
X10587684Y-35600669D01*
X10592921Y-35606713D01*
X10596355Y-35610147D01*
X10711564Y-35696393D01*
X10711571Y-35696397D01*
X10846417Y-35746691D01*
X10846416Y-35746691D01*
X10853344Y-35747435D01*
X10906027Y-35753100D01*
X12093972Y-35753099D01*
X12153583Y-35746691D01*
X12288431Y-35696396D01*
X12403646Y-35610146D01*
X12489896Y-35494931D01*
X12540191Y-35360083D01*
X12546600Y-35300473D01*
X12546599Y-31699528D01*
X12540191Y-31639917D01*
X12535204Y-31626547D01*
X12489897Y-31505071D01*
X12489893Y-31505064D01*
X12403647Y-31389855D01*
X12403644Y-31389852D01*
X12288435Y-31303606D01*
X12288428Y-31303602D01*
X12206167Y-31272921D01*
X12150233Y-31231050D01*
X12125816Y-31165585D01*
X12125500Y-31156739D01*
X12125500Y-29584452D01*
X12145185Y-29517413D01*
X12161819Y-29496771D01*
X12719571Y-28939019D01*
X12780894Y-28905534D01*
X12807252Y-28902700D01*
X14215500Y-28902700D01*
X14224185Y-28905250D01*
G37*
%TD.AperFunction*%
%TA.AperFunction,Conductor*%
G36*
X34567539Y-27895185D02*
G01*
X34613294Y-27947989D01*
X34624500Y-27999500D01*
X34624500Y-31088626D01*
X34604815Y-31155665D01*
X34552011Y-31201420D01*
X34543833Y-31204808D01*
X34409519Y-31254903D01*
X34409512Y-31254907D01*
X34294303Y-31341153D01*
X34288031Y-31347426D01*
X34286152Y-31345547D01*
X34241266Y-31379138D01*
X34171573Y-31384112D01*
X34110255Y-31350618D01*
X34105023Y-31344580D01*
X34101596Y-31341153D01*
X33986387Y-31254907D01*
X33986380Y-31254903D01*
X33851534Y-31204609D01*
X33851535Y-31204609D01*
X33791935Y-31198202D01*
X33791933Y-31198201D01*
X33791925Y-31198201D01*
X33791916Y-31198201D01*
X32603981Y-31198201D01*
X32603975Y-31198202D01*
X32544368Y-31204609D01*
X32409523Y-31254903D01*
X32409516Y-31254907D01*
X32294307Y-31341153D01*
X32288035Y-31347426D01*
X32286263Y-31345654D01*
X32240942Y-31379561D01*
X32171249Y-31384526D01*
X32109935Y-31351023D01*
X32104616Y-31344883D01*
X32101243Y-31341510D01*
X31986149Y-31255350D01*
X31986142Y-31255346D01*
X31851435Y-31205104D01*
X31851428Y-31205102D01*
X31791900Y-31198701D01*
X31447956Y-31198701D01*
X31447956Y-33327301D01*
X31428271Y-33394340D01*
X31375467Y-33440095D01*
X31323956Y-33451301D01*
X31197956Y-33451301D01*
X31197956Y-33577301D01*
X31178271Y-33644340D01*
X31125467Y-33690095D01*
X31073956Y-33701301D01*
X30151856Y-33701301D01*
X30151856Y-35251737D01*
X30152599Y-35258642D01*
X30140196Y-35327402D01*
X30092587Y-35378541D01*
X30029310Y-35395901D01*
X25617094Y-35395901D01*
X25550055Y-35376216D01*
X25504300Y-35323412D01*
X25493805Y-35258643D01*
X25494544Y-35251774D01*
X25494543Y-32695987D01*
X25495019Y-32694365D01*
X25494586Y-32692732D01*
X25504827Y-32660962D01*
X25514228Y-32628949D01*
X25515504Y-32627842D01*
X25516024Y-32626232D01*
X25541822Y-32605037D01*
X25567031Y-32583194D01*
X25569123Y-32582609D01*
X25570011Y-32581880D01*
X25576377Y-32580582D01*
X25604125Y-32572829D01*
X25611309Y-32571988D01*
X25682117Y-32571988D01*
X25783391Y-32551843D01*
X25788304Y-32551268D01*
X25818061Y-32556347D01*
X25848122Y-32559037D01*
X25852149Y-32562165D01*
X25857178Y-32563024D01*
X25879466Y-32583386D01*
X25903299Y-32601900D01*
X25904995Y-32606709D01*
X25908762Y-32610150D01*
X25916502Y-32639326D01*
X25926544Y-32667789D01*
X25925567Y-32673493D01*
X25926679Y-32677683D01*
X25922778Y-32689782D01*
X25917283Y-32721879D01*
X25859106Y-32862332D01*
X25859103Y-32862341D01*
X25824500Y-33036304D01*
X25824500Y-33213695D01*
X25859103Y-33387658D01*
X25859106Y-33387667D01*
X25926983Y-33551540D01*
X25926990Y-33551553D01*
X26025535Y-33699034D01*
X26025538Y-33699038D01*
X26150961Y-33824461D01*
X26150965Y-33824464D01*
X26298446Y-33923009D01*
X26298459Y-33923016D01*
X26361626Y-33949180D01*
X26462334Y-33990894D01*
X26462336Y-33990894D01*
X26462341Y-33990896D01*
X26636304Y-34025499D01*
X26636307Y-34025500D01*
X26636309Y-34025500D01*
X26813693Y-34025500D01*
X26813694Y-34025499D01*
X26871682Y-34013964D01*
X26987658Y-33990896D01*
X26987661Y-33990894D01*
X26987666Y-33990894D01*
X27151547Y-33923013D01*
X27299035Y-33824464D01*
X27424464Y-33699035D01*
X27523013Y-33551547D01*
X27590894Y-33387666D01*
X27602902Y-33327301D01*
X27625499Y-33213695D01*
X27625500Y-33213693D01*
X27625500Y-33036306D01*
X27625499Y-33036304D01*
X27590896Y-32862341D01*
X27590893Y-32862332D01*
X27523016Y-32698459D01*
X27523009Y-32698446D01*
X27424464Y-32550965D01*
X27424461Y-32550961D01*
X27299038Y-32425538D01*
X27299034Y-32425535D01*
X27151553Y-32326990D01*
X27151540Y-32326983D01*
X26987667Y-32259106D01*
X26987658Y-32259103D01*
X26813694Y-32224500D01*
X26813691Y-32224500D01*
X26636309Y-32224500D01*
X26636304Y-32224500D01*
X26539894Y-32243677D01*
X26470302Y-32237450D01*
X26415125Y-32194586D01*
X26391881Y-32128697D01*
X26401141Y-32074611D01*
X26459320Y-31934154D01*
X26463786Y-31911706D01*
X26493925Y-31760183D01*
X26493926Y-31760181D01*
X26493926Y-31650856D01*
X30151856Y-31650856D01*
X30151856Y-33201301D01*
X30947956Y-33201301D01*
X30947956Y-31198701D01*
X30604011Y-31198701D01*
X30544483Y-31205102D01*
X30544476Y-31205104D01*
X30409769Y-31255346D01*
X30409762Y-31255350D01*
X30294668Y-31341510D01*
X30294665Y-31341513D01*
X30208505Y-31456607D01*
X30208501Y-31456614D01*
X30158259Y-31591321D01*
X30158257Y-31591328D01*
X30151856Y-31650856D01*
X26493926Y-31650856D01*
X26493926Y-31582794D01*
X26493925Y-31582792D01*
X26459322Y-31408829D01*
X26459319Y-31408820D01*
X26451611Y-31390212D01*
X26415922Y-31304049D01*
X26391442Y-31244947D01*
X26391438Y-31244940D01*
X26375264Y-31220734D01*
X26354386Y-31154056D01*
X26372870Y-31086676D01*
X26424848Y-31039986D01*
X26493818Y-31028809D01*
X26525816Y-31037280D01*
X26581987Y-31060547D01*
X26581989Y-31060547D01*
X26581994Y-31060549D01*
X26755957Y-31095152D01*
X26755960Y-31095153D01*
X26755962Y-31095153D01*
X26933346Y-31095153D01*
X26933347Y-31095152D01*
X26991335Y-31083617D01*
X27107311Y-31060549D01*
X27107314Y-31060547D01*
X27107319Y-31060547D01*
X27271200Y-30992666D01*
X27418688Y-30894117D01*
X27544117Y-30768688D01*
X27642666Y-30621200D01*
X27710547Y-30457319D01*
X27712407Y-30447972D01*
X27745152Y-30283348D01*
X27745153Y-30283346D01*
X27745153Y-30105960D01*
X27731960Y-30039639D01*
X27738187Y-29970047D01*
X27781049Y-29914869D01*
X27846939Y-29891624D01*
X27877768Y-29893829D01*
X27911304Y-29900499D01*
X27911307Y-29900500D01*
X27911309Y-29900500D01*
X28088693Y-29900500D01*
X28088694Y-29900499D01*
X28151487Y-29888009D01*
X28262658Y-29865896D01*
X28262661Y-29865894D01*
X28262666Y-29865894D01*
X28426547Y-29798013D01*
X28426556Y-29798007D01*
X28459134Y-29776239D01*
X28525811Y-29755359D01*
X28593191Y-29773842D01*
X28638512Y-29823045D01*
X28680474Y-29905403D01*
X28687352Y-29914869D01*
X28796172Y-30064646D01*
X28935354Y-30203828D01*
X28964949Y-30225330D01*
X28969063Y-30229264D01*
X28983267Y-30238640D01*
X28985531Y-30240285D01*
X29044803Y-30283348D01*
X29094595Y-30319524D01*
X29137506Y-30341388D01*
X29143716Y-30344552D01*
X29156467Y-30352969D01*
X29179853Y-30362964D01*
X29269975Y-30408884D01*
X29342171Y-30432342D01*
X29362948Y-30441223D01*
X29384978Y-30446251D01*
X29457174Y-30469709D01*
X29557084Y-30485533D01*
X29581869Y-30491190D01*
X29597120Y-30491874D01*
X29651583Y-30500500D01*
X29651585Y-30500500D01*
X29789161Y-30500500D01*
X29806194Y-30501265D01*
X29811842Y-30500500D01*
X29848422Y-30500500D01*
X30042826Y-30469709D01*
X30051542Y-30466877D01*
X30230025Y-30408884D01*
X30405405Y-30319524D01*
X30435001Y-30298020D01*
X30440013Y-30295325D01*
X30453331Y-30284703D01*
X30564646Y-30203828D01*
X30603634Y-30164839D01*
X30615574Y-30155319D01*
X30632297Y-30136176D01*
X30703828Y-30064646D01*
X30748450Y-30003228D01*
X30763315Y-29986216D01*
X30774902Y-29966820D01*
X30819524Y-29905405D01*
X30865449Y-29815271D01*
X30878487Y-29793451D01*
X30883854Y-29779148D01*
X30908884Y-29730025D01*
X30951406Y-29599155D01*
X30957389Y-29583218D01*
X30958404Y-29577616D01*
X30969709Y-29542826D01*
X30988126Y-29426547D01*
X31000500Y-29348422D01*
X31000500Y-29151577D01*
X30976699Y-29001309D01*
X30969709Y-28957174D01*
X30958404Y-28922383D01*
X30957389Y-28916782D01*
X30951396Y-28900814D01*
X30950538Y-28898173D01*
X30928058Y-28828987D01*
X30908884Y-28769975D01*
X30908882Y-28769972D01*
X30908881Y-28769968D01*
X30887018Y-28727061D01*
X30883855Y-28720853D01*
X30878487Y-28706549D01*
X30865448Y-28684728D01*
X30848724Y-28651903D01*
X30819526Y-28594597D01*
X30801054Y-28569174D01*
X30774904Y-28533182D01*
X30763315Y-28513784D01*
X30748445Y-28496764D01*
X30745183Y-28492274D01*
X30703828Y-28435354D01*
X30635257Y-28366783D01*
X30629561Y-28360690D01*
X30625540Y-28356088D01*
X30596253Y-28292653D01*
X30605911Y-28223454D01*
X30651448Y-28170462D01*
X30718406Y-28150501D01*
X30718917Y-28150500D01*
X30838693Y-28150500D01*
X30838694Y-28150499D01*
X30896682Y-28138964D01*
X31012658Y-28115896D01*
X31012661Y-28115894D01*
X31012666Y-28115894D01*
X31176547Y-28048013D01*
X31181107Y-28044965D01*
X31247783Y-28024086D01*
X31315163Y-28042569D01*
X31318867Y-28044948D01*
X31323453Y-28048013D01*
X31323455Y-28048014D01*
X31323457Y-28048015D01*
X31427507Y-28091113D01*
X31487334Y-28115894D01*
X31487336Y-28115894D01*
X31487341Y-28115896D01*
X31661304Y-28150499D01*
X31661307Y-28150500D01*
X31661309Y-28150500D01*
X31838693Y-28150500D01*
X31838694Y-28150499D01*
X31896682Y-28138964D01*
X32012658Y-28115896D01*
X32012658Y-28115895D01*
X32012666Y-28115894D01*
X32039281Y-28104869D01*
X32108746Y-28097401D01*
X32171226Y-28128675D01*
X32206879Y-28188764D01*
X32204386Y-28258589D01*
X32174413Y-28307112D01*
X32046171Y-28435355D01*
X31930474Y-28594596D01*
X31841119Y-28769966D01*
X31841113Y-28769981D01*
X31832391Y-28796819D01*
X31832392Y-28796820D01*
X31829809Y-28804768D01*
X31827341Y-28809894D01*
X31822814Y-28826295D01*
X31821940Y-28828987D01*
X31780291Y-28957173D01*
X31772753Y-29004753D01*
X31772754Y-29004754D01*
X31771663Y-29011639D01*
X31767603Y-29026353D01*
X31765324Y-29051671D01*
X31764670Y-29055803D01*
X31764669Y-29055804D01*
X31764669Y-29055806D01*
X31749500Y-29151578D01*
X31749500Y-29227489D01*
X31747474Y-29250000D01*
X31749500Y-29272510D01*
X31749500Y-29348422D01*
X31764669Y-29444193D01*
X31764670Y-29444195D01*
X31765323Y-29448323D01*
X31767603Y-29473647D01*
X31771664Y-29488363D01*
X31772754Y-29495244D01*
X31780290Y-29542825D01*
X31821945Y-29671027D01*
X31822812Y-29673697D01*
X31827341Y-29690106D01*
X31829807Y-29695228D01*
X31832389Y-29703173D01*
X31832393Y-29703182D01*
X31841114Y-29730022D01*
X31930474Y-29905403D01*
X31937352Y-29914869D01*
X32046172Y-30064646D01*
X32185354Y-30203828D01*
X32214949Y-30225330D01*
X32219063Y-30229264D01*
X32233267Y-30238640D01*
X32235531Y-30240285D01*
X32294803Y-30283348D01*
X32344595Y-30319524D01*
X32387506Y-30341388D01*
X32393716Y-30344552D01*
X32406467Y-30352969D01*
X32429853Y-30362964D01*
X32519975Y-30408884D01*
X32592171Y-30432342D01*
X32612948Y-30441223D01*
X32634978Y-30446251D01*
X32707174Y-30469709D01*
X32807084Y-30485533D01*
X32831869Y-30491190D01*
X32847120Y-30491874D01*
X32901583Y-30500500D01*
X32901585Y-30500500D01*
X33039161Y-30500500D01*
X33056194Y-30501265D01*
X33061842Y-30500500D01*
X33098422Y-30500500D01*
X33292826Y-30469709D01*
X33301542Y-30466877D01*
X33480025Y-30408884D01*
X33655405Y-30319524D01*
X33685001Y-30298020D01*
X33690013Y-30295325D01*
X33703331Y-30284703D01*
X33814646Y-30203828D01*
X33853634Y-30164839D01*
X33865574Y-30155319D01*
X33882297Y-30136176D01*
X33953828Y-30064646D01*
X33998450Y-30003228D01*
X34013315Y-29986216D01*
X34024902Y-29966820D01*
X34069524Y-29905405D01*
X34115449Y-29815271D01*
X34128487Y-29793451D01*
X34133854Y-29779148D01*
X34158884Y-29730025D01*
X34201406Y-29599155D01*
X34207389Y-29583218D01*
X34208404Y-29577616D01*
X34219709Y-29542826D01*
X34238126Y-29426547D01*
X34250500Y-29348422D01*
X34250500Y-29151577D01*
X34226699Y-29001309D01*
X34219709Y-28957174D01*
X34208404Y-28922383D01*
X34207389Y-28916782D01*
X34201396Y-28900814D01*
X34200538Y-28898173D01*
X34178058Y-28828987D01*
X34158884Y-28769975D01*
X34158882Y-28769972D01*
X34158881Y-28769968D01*
X34137018Y-28727061D01*
X34133855Y-28720853D01*
X34128487Y-28706549D01*
X34115448Y-28684728D01*
X34098724Y-28651903D01*
X34069526Y-28594597D01*
X34051054Y-28569174D01*
X34024904Y-28533182D01*
X34013315Y-28513784D01*
X33998445Y-28496764D01*
X33995183Y-28492274D01*
X33953828Y-28435354D01*
X33882303Y-28363829D01*
X33865574Y-28344681D01*
X33853629Y-28335155D01*
X33814648Y-28296174D01*
X33814646Y-28296172D01*
X33807815Y-28291209D01*
X33705588Y-28216935D01*
X33705588Y-28216936D01*
X33705586Y-28216935D01*
X33703336Y-28215300D01*
X33690013Y-28204675D01*
X33684997Y-28201976D01*
X33678231Y-28197060D01*
X33678230Y-28197058D01*
X33655415Y-28180483D01*
X33655406Y-28180477D01*
X33655407Y-28180477D01*
X33655405Y-28180476D01*
X33517058Y-28109985D01*
X33466262Y-28062010D01*
X33449467Y-27994189D01*
X33472004Y-27928054D01*
X33526720Y-27884603D01*
X33573353Y-27875500D01*
X34500500Y-27875500D01*
X34567539Y-27895185D01*
G37*
%TD.AperFunction*%
%TA.AperFunction,Conductor*%
G36*
X21820043Y-28922385D02*
G01*
X21865798Y-28975189D01*
X21877004Y-29026700D01*
X21877004Y-29090894D01*
X21911607Y-29264857D01*
X21911610Y-29264866D01*
X21979487Y-29428739D01*
X21979494Y-29428752D01*
X22078039Y-29576233D01*
X22078042Y-29576237D01*
X22203465Y-29701660D01*
X22203469Y-29701663D01*
X22350950Y-29800208D01*
X22350963Y-29800215D01*
X22444779Y-29839074D01*
X22514838Y-29868093D01*
X22514840Y-29868093D01*
X22514845Y-29868095D01*
X22688808Y-29902698D01*
X22688811Y-29902699D01*
X22688813Y-29902699D01*
X22866197Y-29902699D01*
X22866198Y-29902698D01*
X22940046Y-29888009D01*
X23040162Y-29868095D01*
X23040165Y-29868093D01*
X23040170Y-29868093D01*
X23204051Y-29800212D01*
X23351539Y-29701663D01*
X23476968Y-29576234D01*
X23575517Y-29428746D01*
X23643398Y-29264865D01*
X23643836Y-29262666D01*
X23678003Y-29090894D01*
X23678004Y-29090892D01*
X23678004Y-29026700D01*
X23697689Y-28959661D01*
X23750493Y-28913906D01*
X23802004Y-28902700D01*
X25231198Y-28902700D01*
X25298237Y-28922385D01*
X25343992Y-28975189D01*
X25353936Y-29044347D01*
X25324911Y-29107903D01*
X25318879Y-29114381D01*
X23721378Y-30711882D01*
X23660055Y-30745367D01*
X23633697Y-30748201D01*
X23515236Y-30748201D01*
X23508745Y-30749492D01*
X23508744Y-30749491D01*
X23394398Y-30772236D01*
X23394389Y-30772238D01*
X23364650Y-30784557D01*
X23364646Y-30784558D01*
X23361051Y-30786048D01*
X23280558Y-30819389D01*
X23251775Y-30838622D01*
X23244880Y-30843228D01*
X23244876Y-30843231D01*
X23178112Y-30887841D01*
X23154650Y-30911304D01*
X23090986Y-30974968D01*
X23090983Y-30974971D01*
X22904071Y-31161882D01*
X22842748Y-31195367D01*
X22816390Y-31198201D01*
X21853977Y-31198201D01*
X21853971Y-31198202D01*
X21794364Y-31204609D01*
X21659519Y-31254903D01*
X21659512Y-31254907D01*
X21544303Y-31341153D01*
X21538031Y-31347426D01*
X21536152Y-31345547D01*
X21491266Y-31379138D01*
X21421573Y-31384112D01*
X21360255Y-31350618D01*
X21355023Y-31344580D01*
X21351596Y-31341153D01*
X21236387Y-31254907D01*
X21236380Y-31254903D01*
X21101534Y-31204609D01*
X21101535Y-31204609D01*
X21041935Y-31198202D01*
X21041933Y-31198201D01*
X21041925Y-31198201D01*
X21041917Y-31198201D01*
X20419548Y-31198201D01*
X20352509Y-31178516D01*
X20306754Y-31125712D01*
X20297931Y-31098392D01*
X20265896Y-30937341D01*
X20265893Y-30937332D01*
X20198016Y-30773459D01*
X20198009Y-30773446D01*
X20099464Y-30625965D01*
X20099461Y-30625961D01*
X19974038Y-30500538D01*
X19974034Y-30500535D01*
X19826553Y-30401990D01*
X19826540Y-30401983D01*
X19662667Y-30334106D01*
X19662658Y-30334103D01*
X19488694Y-30299500D01*
X19488691Y-30299500D01*
X19311309Y-30299500D01*
X19311306Y-30299500D01*
X19137341Y-30334103D01*
X19137332Y-30334106D01*
X18973459Y-30401983D01*
X18973446Y-30401990D01*
X18825965Y-30500535D01*
X18825961Y-30500538D01*
X18700538Y-30625961D01*
X18700535Y-30625965D01*
X18601990Y-30773446D01*
X18601983Y-30773459D01*
X18534106Y-30937332D01*
X18534103Y-30937341D01*
X18499500Y-31111304D01*
X18499500Y-31288695D01*
X18534103Y-31462658D01*
X18534106Y-31462667D01*
X18601984Y-31626542D01*
X18601985Y-31626543D01*
X18601987Y-31626547D01*
X18677058Y-31738898D01*
X18697936Y-31805574D01*
X18697956Y-31807788D01*
X18697956Y-33327301D01*
X18678271Y-33394340D01*
X18625467Y-33440095D01*
X18573956Y-33451301D01*
X18447956Y-33451301D01*
X18447956Y-33577301D01*
X18428271Y-33644340D01*
X18375467Y-33690095D01*
X18323956Y-33701301D01*
X17401856Y-33701301D01*
X17401856Y-34741503D01*
X17395617Y-34762748D01*
X17394038Y-34784837D01*
X17385965Y-34795620D01*
X17382171Y-34808542D01*
X17365437Y-34823041D01*
X17352166Y-34840770D01*
X17339545Y-34845477D01*
X17329367Y-34854297D01*
X17307449Y-34857448D01*
X17286702Y-34865187D01*
X17273541Y-34862324D01*
X17260209Y-34864241D01*
X17240065Y-34855041D01*
X17218429Y-34850335D01*
X17200703Y-34837066D01*
X17196653Y-34835216D01*
X17190175Y-34829184D01*
X17161819Y-34800828D01*
X17128334Y-34739505D01*
X17125500Y-34713147D01*
X17125500Y-32024500D01*
X17145185Y-31957461D01*
X17197989Y-31911706D01*
X17249500Y-31900500D01*
X17277856Y-31900500D01*
X17344895Y-31920185D01*
X17390650Y-31972989D01*
X17401856Y-32024500D01*
X17401856Y-33201301D01*
X18197956Y-33201301D01*
X18197956Y-31173148D01*
X18195207Y-31168114D01*
X18194756Y-31117567D01*
X18200500Y-31088691D01*
X18200500Y-30911309D01*
X18200500Y-30911306D01*
X18200499Y-30911304D01*
X18165896Y-30737341D01*
X18165893Y-30737332D01*
X18155351Y-30711882D01*
X18123897Y-30635945D01*
X18116429Y-30566477D01*
X18147704Y-30503998D01*
X18207793Y-30468346D01*
X18214259Y-30466878D01*
X18337775Y-30442310D01*
X18501656Y-30374429D01*
X18649144Y-30275880D01*
X18774573Y-30150451D01*
X18873122Y-30002963D01*
X18941003Y-29839082D01*
X18944998Y-29819002D01*
X18968037Y-29703173D01*
X18975609Y-29665107D01*
X18975609Y-29487725D01*
X18975609Y-29487722D01*
X18975608Y-29487720D01*
X18941005Y-29313757D01*
X18941002Y-29313748D01*
X18873125Y-29149875D01*
X18873118Y-29149862D01*
X18836855Y-29095591D01*
X18815977Y-29028914D01*
X18834461Y-28961533D01*
X18886440Y-28914843D01*
X18939957Y-28902700D01*
X21753004Y-28902700D01*
X21820043Y-28922385D01*
G37*
%TD.AperFunction*%
%TA.AperFunction,Conductor*%
G36*
X37253587Y-18559185D02*
G01*
X37274229Y-18575819D01*
X38119016Y-19420606D01*
X38119045Y-19420637D01*
X38209263Y-19510855D01*
X38209267Y-19510858D01*
X38311707Y-19579307D01*
X38311713Y-19579310D01*
X38311714Y-19579311D01*
X38425548Y-19626463D01*
X38485971Y-19638481D01*
X38546393Y-19650500D01*
X38546394Y-19650500D01*
X41750500Y-19650500D01*
X41817539Y-19670185D01*
X41863294Y-19722989D01*
X41874500Y-19774500D01*
X41874500Y-23675500D01*
X41854815Y-23742539D01*
X41802011Y-23788294D01*
X41755389Y-23798450D01*
X41755423Y-23799099D01*
X41755429Y-23799146D01*
X41755426Y-23799146D01*
X41755436Y-23799324D01*
X41752123Y-23799501D01*
X41692516Y-23805908D01*
X41557671Y-23856202D01*
X41557664Y-23856206D01*
X41442455Y-23942452D01*
X41442452Y-23942455D01*
X41356206Y-24057664D01*
X41356202Y-24057671D01*
X41305908Y-24192517D01*
X41299501Y-24252116D01*
X41299500Y-24252127D01*
X41299500Y-25096317D01*
X41299501Y-25917500D01*
X41279816Y-25984539D01*
X41227013Y-26030294D01*
X41175501Y-26041500D01*
X40824000Y-26041500D01*
X40756961Y-26021815D01*
X40711206Y-25969011D01*
X40700000Y-25917500D01*
X40700000Y-25350000D01*
X39750000Y-25350000D01*
X39750000Y-26400000D01*
X39753717Y-26400000D01*
X39820756Y-26419685D01*
X39866511Y-26472489D01*
X39874080Y-26525128D01*
X39877250Y-26525128D01*
X39877250Y-26789744D01*
X39857565Y-26856783D01*
X39804761Y-26902538D01*
X39735603Y-26912482D01*
X39672047Y-26883457D01*
X39665569Y-26877425D01*
X39286319Y-26498175D01*
X39252834Y-26436852D01*
X39250000Y-26410494D01*
X39250000Y-25350000D01*
X38294386Y-25350000D01*
X38245430Y-25376732D01*
X38175738Y-25371748D01*
X38131391Y-25343247D01*
X37935949Y-25147805D01*
X37902464Y-25086482D01*
X37907448Y-25016790D01*
X37949320Y-24960857D01*
X37959974Y-24953710D01*
X37967776Y-24949042D01*
X38018547Y-24928013D01*
X38151993Y-24838846D01*
X38154652Y-24837256D01*
X38185594Y-24829240D01*
X38216094Y-24819690D01*
X38219185Y-24820538D01*
X38222289Y-24819734D01*
X38252647Y-24829717D01*
X38283474Y-24838174D01*
X38287109Y-24841050D01*
X38288662Y-24841561D01*
X38290291Y-24843568D01*
X38298420Y-24850000D01*
X39250000Y-24850000D01*
X39750000Y-24850000D01*
X40700000Y-24850000D01*
X40700000Y-24252172D01*
X40699999Y-24252155D01*
X40693598Y-24192627D01*
X40693596Y-24192620D01*
X40643354Y-24057913D01*
X40643350Y-24057906D01*
X40557190Y-23942812D01*
X40557187Y-23942809D01*
X40442093Y-23856649D01*
X40442086Y-23856645D01*
X40307379Y-23806403D01*
X40307372Y-23806401D01*
X40247844Y-23800000D01*
X39750000Y-23800000D01*
X39750000Y-24850000D01*
X39250000Y-24850000D01*
X39250000Y-23800000D01*
X38752155Y-23800000D01*
X38692627Y-23806401D01*
X38692616Y-23806403D01*
X38579548Y-23848575D01*
X38509856Y-23853559D01*
X38448534Y-23820073D01*
X38421656Y-23779847D01*
X38390013Y-23703453D01*
X38390009Y-23703446D01*
X38291464Y-23555965D01*
X38291461Y-23555961D01*
X38166038Y-23430538D01*
X38166034Y-23430535D01*
X38018553Y-23331990D01*
X38018540Y-23331983D01*
X37854667Y-23264106D01*
X37854658Y-23264103D01*
X37680694Y-23229500D01*
X37680691Y-23229500D01*
X37503309Y-23229500D01*
X37503306Y-23229500D01*
X37329341Y-23264103D01*
X37329332Y-23264106D01*
X37165459Y-23331983D01*
X37165446Y-23331990D01*
X37017965Y-23430535D01*
X37017961Y-23430538D01*
X36892538Y-23555961D01*
X36892535Y-23555965D01*
X36793990Y-23703446D01*
X36793984Y-23703458D01*
X36776435Y-23745824D01*
X36732593Y-23800226D01*
X36666299Y-23822290D01*
X36598600Y-23805010D01*
X36574194Y-23786050D01*
X35304294Y-22516150D01*
X35288873Y-22497359D01*
X35224467Y-22400969D01*
X35224461Y-22400961D01*
X35099038Y-22275538D01*
X35099034Y-22275535D01*
X35002638Y-22211125D01*
X34983848Y-22195704D01*
X33858102Y-21069957D01*
X33858098Y-21069954D01*
X33714711Y-20974145D01*
X33714698Y-20974138D01*
X33555378Y-20908146D01*
X33555366Y-20908143D01*
X33386232Y-20874500D01*
X33386229Y-20874500D01*
X21813210Y-20874500D01*
X21746171Y-20854815D01*
X21700416Y-20802011D01*
X21690472Y-20732853D01*
X21692740Y-20722647D01*
X21692706Y-20722641D01*
X21728499Y-20542695D01*
X21728500Y-20542693D01*
X21728500Y-20365306D01*
X21728499Y-20365304D01*
X21693896Y-20191341D01*
X21693893Y-20191332D01*
X21626016Y-20027459D01*
X21626009Y-20027446D01*
X21527464Y-19879965D01*
X21527461Y-19879961D01*
X21497386Y-19849886D01*
X21463901Y-19788563D01*
X21468885Y-19718871D01*
X21510757Y-19662938D01*
X21516162Y-19659112D01*
X21560535Y-19629464D01*
X21685964Y-19504035D01*
X21784513Y-19356547D01*
X21852394Y-19192666D01*
X21852462Y-19192328D01*
X21886999Y-19018695D01*
X21887000Y-19018693D01*
X21887000Y-18841306D01*
X21886999Y-18841304D01*
X21856444Y-18687691D01*
X21862671Y-18618100D01*
X21905534Y-18562922D01*
X21971424Y-18539678D01*
X21978061Y-18539500D01*
X37186548Y-18539500D01*
X37253587Y-18559185D01*
G37*
%TD.AperFunction*%
%TA.AperFunction,Conductor*%
G36*
X40590640Y-882D02*
G01*
X40599307Y-1563D01*
X40726563Y-11577D01*
X40740986Y-13571D01*
X40764074Y-18163D01*
X40768729Y-19185D01*
X40885162Y-47137D01*
X40903661Y-53147D01*
X41030547Y-105703D01*
X41047860Y-114524D01*
X41150000Y-177113D01*
X41154001Y-179675D01*
X41173551Y-192737D01*
X41185176Y-201538D01*
X41190052Y-205703D01*
X41288755Y-290003D01*
X41295905Y-296612D01*
X43396955Y-2397662D01*
X43430440Y-2458985D01*
X43425456Y-2528677D01*
X43383584Y-2584610D01*
X43318120Y-2609027D01*
X43290135Y-2606775D01*
X43290087Y-2607231D01*
X43222844Y-2600000D01*
X42525000Y-2600000D01*
X42525000Y-3624722D01*
X42448694Y-3580667D01*
X42334244Y-3550000D01*
X42215756Y-3550000D01*
X42101306Y-3580667D01*
X42025000Y-3624722D01*
X42025000Y-2600000D01*
X41327155Y-2600000D01*
X41267627Y-2606401D01*
X41267620Y-2606403D01*
X41132913Y-2656645D01*
X41132906Y-2656649D01*
X41017812Y-2742809D01*
X41017809Y-2742812D01*
X40931649Y-2857906D01*
X40931643Y-2857918D01*
X40901785Y-2937969D01*
X40859914Y-2993903D01*
X40794449Y-3018319D01*
X40726176Y-3003467D01*
X40697923Y-2982316D01*
X40647363Y-2931756D01*
X40647358Y-2931752D01*
X40469025Y-2802187D01*
X40469024Y-2802186D01*
X40469022Y-2802185D01*
X40387832Y-2760816D01*
X40272606Y-2702104D01*
X40272603Y-2702103D01*
X40062952Y-2633985D01*
X39934220Y-2613596D01*
X39845222Y-2599500D01*
X39624778Y-2599500D01*
X39578846Y-2606775D01*
X39407047Y-2633985D01*
X39197396Y-2702103D01*
X39197393Y-2702104D01*
X39000974Y-2802187D01*
X38822641Y-2931752D01*
X38822636Y-2931756D01*
X38666756Y-3087636D01*
X38666752Y-3087641D01*
X38537187Y-3265974D01*
X38437104Y-3462393D01*
X38437103Y-3462396D01*
X38368985Y-3672047D01*
X38341674Y-3844481D01*
X38334500Y-3889778D01*
X38334500Y-4110222D01*
X38349023Y-4201915D01*
X38368985Y-4327952D01*
X38437103Y-4537603D01*
X38437104Y-4537606D01*
X38505122Y-4671096D01*
X38519347Y-4699014D01*
X38537187Y-4734025D01*
X38666752Y-4912358D01*
X38666756Y-4912363D01*
X38822636Y-5068243D01*
X38822641Y-5068247D01*
X38935166Y-5150000D01*
X39000978Y-5197815D01*
X39117501Y-5257187D01*
X39197393Y-5297895D01*
X39197396Y-5297896D01*
X39302221Y-5331955D01*
X39407049Y-5366015D01*
X39624778Y-5400500D01*
X39624779Y-5400500D01*
X39845221Y-5400500D01*
X39845222Y-5400500D01*
X40062951Y-5366015D01*
X40272606Y-5297895D01*
X40469022Y-5197815D01*
X40647365Y-5068242D01*
X40697924Y-5017682D01*
X40759245Y-4984198D01*
X40828936Y-4989182D01*
X40884870Y-5031053D01*
X40901786Y-5062030D01*
X40931646Y-5142087D01*
X40931649Y-5142093D01*
X41017809Y-5257187D01*
X41017812Y-5257190D01*
X41132906Y-5343350D01*
X41132913Y-5343354D01*
X41267620Y-5393596D01*
X41267627Y-5393598D01*
X41327155Y-5399999D01*
X41327172Y-5400000D01*
X42025000Y-5400000D01*
X42025000Y-4375277D01*
X42101306Y-4419333D01*
X42215756Y-4450000D01*
X42334244Y-4450000D01*
X42448694Y-4419333D01*
X42525000Y-4375277D01*
X42525000Y-5400000D01*
X43222828Y-5400000D01*
X43222844Y-5399999D01*
X43282372Y-5393598D01*
X43282379Y-5393596D01*
X43417086Y-5343354D01*
X43417093Y-5343350D01*
X43532187Y-5257190D01*
X43532190Y-5257187D01*
X43618350Y-5142093D01*
X43618354Y-5142086D01*
X43668596Y-5007379D01*
X43668598Y-5007372D01*
X43674999Y-4947844D01*
X43675000Y-4947827D01*
X43675000Y-4250000D01*
X42650278Y-4250000D01*
X42694333Y-4173694D01*
X42725000Y-4059244D01*
X42725000Y-3940756D01*
X42694333Y-3826306D01*
X42650278Y-3750000D01*
X43675000Y-3750000D01*
X43675000Y-3052172D01*
X43674999Y-3052155D01*
X43667769Y-2984913D01*
X43669490Y-2984727D01*
X43672718Y-2924476D01*
X43713582Y-2867803D01*
X43778599Y-2842219D01*
X43847127Y-2855847D01*
X43877337Y-2878044D01*
X44703297Y-3704004D01*
X44709907Y-3711155D01*
X44798455Y-3814834D01*
X44807266Y-3826472D01*
X44820275Y-3845941D01*
X44822901Y-3850045D01*
X44885457Y-3952130D01*
X44894291Y-3969467D01*
X44946841Y-4096338D01*
X44952853Y-4114843D01*
X44980799Y-4231251D01*
X44981843Y-4236010D01*
X44986412Y-4258984D01*
X44988412Y-4273442D01*
X44991054Y-4307007D01*
X44999118Y-4409493D01*
X44999500Y-4419208D01*
X44999500Y-25917500D01*
X44979815Y-25984539D01*
X44927011Y-26030294D01*
X44875500Y-26041500D01*
X43824500Y-26041500D01*
X43757461Y-26021815D01*
X43711706Y-25969011D01*
X43700500Y-25917500D01*
X43700499Y-24252129D01*
X43700498Y-24252123D01*
X43700497Y-24252116D01*
X43694091Y-24192517D01*
X43677183Y-24147185D01*
X43643797Y-24057671D01*
X43643793Y-24057664D01*
X43557547Y-23942455D01*
X43557544Y-23942452D01*
X43442335Y-23856206D01*
X43442328Y-23856202D01*
X43307482Y-23805908D01*
X43307483Y-23805908D01*
X43247883Y-23799501D01*
X43247881Y-23799500D01*
X43247873Y-23799500D01*
X43247864Y-23799500D01*
X43244548Y-23799322D01*
X43244615Y-23798065D01*
X43182461Y-23779815D01*
X43136706Y-23727011D01*
X43125500Y-23675500D01*
X43125500Y-19324499D01*
X43145185Y-19257460D01*
X43197989Y-19211705D01*
X43244611Y-19201562D01*
X43244576Y-19200900D01*
X43244571Y-19200854D01*
X43244573Y-19200853D01*
X43244564Y-19200676D01*
X43247857Y-19200499D01*
X43247872Y-19200499D01*
X43307483Y-19194091D01*
X43442331Y-19143796D01*
X43557546Y-19057546D01*
X43643796Y-18942331D01*
X43694091Y-18807483D01*
X43700500Y-18747873D01*
X43700499Y-17052128D01*
X43694103Y-16992627D01*
X43694091Y-16992516D01*
X43643797Y-16857670D01*
X43636786Y-16848305D01*
X43618823Y-16824310D01*
X43594406Y-16758849D01*
X43609257Y-16690575D01*
X43618823Y-16675690D01*
X43643796Y-16642331D01*
X43643888Y-16642086D01*
X43694091Y-16507482D01*
X43694102Y-16507379D01*
X43700500Y-16447873D01*
X43700499Y-14752128D01*
X43694103Y-14692627D01*
X43694091Y-14692516D01*
X43643797Y-14557671D01*
X43643793Y-14557664D01*
X43557547Y-14442455D01*
X43557544Y-14442452D01*
X43442335Y-14356206D01*
X43442328Y-14356202D01*
X43307482Y-14305908D01*
X43307483Y-14305908D01*
X43247883Y-14299501D01*
X43247881Y-14299500D01*
X43247873Y-14299500D01*
X43247864Y-14299500D01*
X43244548Y-14299322D01*
X43244615Y-14298065D01*
X43182461Y-14279815D01*
X43136706Y-14227011D01*
X43125500Y-14175500D01*
X43125500Y-9824499D01*
X43145185Y-9757460D01*
X43197989Y-9711705D01*
X43244611Y-9701562D01*
X43244576Y-9700900D01*
X43244571Y-9700854D01*
X43244573Y-9700853D01*
X43244564Y-9700676D01*
X43247857Y-9700499D01*
X43247872Y-9700499D01*
X43307483Y-9694091D01*
X43442331Y-9643796D01*
X43557546Y-9557546D01*
X43643796Y-9442331D01*
X43694091Y-9307483D01*
X43700500Y-9247873D01*
X43700499Y-7552128D01*
X43694091Y-7492517D01*
X43682399Y-7461170D01*
X43643797Y-7357671D01*
X43643793Y-7357664D01*
X43557547Y-7242455D01*
X43557544Y-7242452D01*
X43442335Y-7156206D01*
X43442328Y-7156202D01*
X43307482Y-7105908D01*
X43307483Y-7105908D01*
X43247883Y-7099501D01*
X43247881Y-7099500D01*
X43247873Y-7099500D01*
X43247864Y-7099500D01*
X41752129Y-7099500D01*
X41752123Y-7099501D01*
X41692516Y-7105908D01*
X41557671Y-7156202D01*
X41557664Y-7156206D01*
X41442455Y-7242452D01*
X41442452Y-7242455D01*
X41356206Y-7357664D01*
X41356202Y-7357671D01*
X41305908Y-7492517D01*
X41299501Y-7552116D01*
X41299501Y-7552123D01*
X41299500Y-7552135D01*
X41299500Y-9247870D01*
X41299501Y-9247876D01*
X41305908Y-9307483D01*
X41356202Y-9442328D01*
X41356206Y-9442335D01*
X41442452Y-9557544D01*
X41442455Y-9557547D01*
X41557664Y-9643793D01*
X41557671Y-9643797D01*
X41692516Y-9694091D01*
X41752113Y-9700499D01*
X41752122Y-9700499D01*
X41752127Y-9700500D01*
X41752131Y-9700499D01*
X41755434Y-9700677D01*
X41755424Y-9700855D01*
X41755431Y-9700856D01*
X41755417Y-9700977D01*
X41755366Y-9701946D01*
X41759149Y-9703054D01*
X41768147Y-9701761D01*
X41792152Y-9712724D01*
X41817478Y-9720144D01*
X41823434Y-9727009D01*
X41831703Y-9730786D01*
X41845970Y-9752987D01*
X41863264Y-9772921D01*
X41865562Y-9783473D01*
X41869477Y-9789564D01*
X41874500Y-9824499D01*
X41874500Y-9983548D01*
X41854815Y-10050587D01*
X41838181Y-10071229D01*
X41261229Y-10648181D01*
X41199906Y-10681666D01*
X41173548Y-10684500D01*
X32012500Y-10684500D01*
X31945461Y-10664815D01*
X31899706Y-10612011D01*
X31888500Y-10560500D01*
X31888500Y-10496806D01*
X31888499Y-10496804D01*
X31853896Y-10322841D01*
X31853893Y-10322832D01*
X31786016Y-10158959D01*
X31786009Y-10158946D01*
X31687464Y-10011465D01*
X31687461Y-10011461D01*
X31642073Y-9966074D01*
X31608587Y-9904751D01*
X31613571Y-9835060D01*
X31642070Y-9790713D01*
X32184939Y-9247844D01*
X38300000Y-9247844D01*
X38306401Y-9307372D01*
X38306403Y-9307379D01*
X38356645Y-9442086D01*
X38356649Y-9442093D01*
X38442809Y-9557187D01*
X38442812Y-9557190D01*
X38557906Y-9643350D01*
X38557913Y-9643354D01*
X38692620Y-9693596D01*
X38692627Y-9693598D01*
X38752155Y-9699999D01*
X38752172Y-9700000D01*
X39250000Y-9700000D01*
X39750000Y-9700000D01*
X40247828Y-9700000D01*
X40247844Y-9699999D01*
X40307372Y-9693598D01*
X40307379Y-9693596D01*
X40442086Y-9643354D01*
X40442093Y-9643350D01*
X40557187Y-9557190D01*
X40557190Y-9557187D01*
X40643350Y-9442093D01*
X40643354Y-9442086D01*
X40693596Y-9307379D01*
X40693598Y-9307372D01*
X40699999Y-9247844D01*
X40700000Y-9247827D01*
X40700000Y-8650000D01*
X39750000Y-8650000D01*
X39750000Y-9700000D01*
X39250000Y-9700000D01*
X39250000Y-8650000D01*
X38300000Y-8650000D01*
X38300000Y-9247844D01*
X32184939Y-9247844D01*
X33880628Y-7552155D01*
X38300000Y-7552155D01*
X38300000Y-8150000D01*
X39250000Y-8150000D01*
X39750000Y-8150000D01*
X40700000Y-8150000D01*
X40700000Y-7552172D01*
X40699999Y-7552155D01*
X40693598Y-7492627D01*
X40693596Y-7492620D01*
X40643354Y-7357913D01*
X40643350Y-7357906D01*
X40557190Y-7242812D01*
X40557187Y-7242809D01*
X40442093Y-7156649D01*
X40442086Y-7156645D01*
X40307379Y-7106403D01*
X40307372Y-7106401D01*
X40247844Y-7100000D01*
X39750000Y-7100000D01*
X39750000Y-8150000D01*
X39250000Y-8150000D01*
X39250000Y-7100000D01*
X38752155Y-7100000D01*
X38692627Y-7106401D01*
X38692620Y-7106403D01*
X38557913Y-7156645D01*
X38557906Y-7156649D01*
X38442812Y-7242809D01*
X38442809Y-7242812D01*
X38356649Y-7357906D01*
X38356645Y-7357913D01*
X38306403Y-7492620D01*
X38306401Y-7492627D01*
X38300000Y-7552155D01*
X33880628Y-7552155D01*
X37398729Y-4034055D01*
X37398733Y-4034053D01*
X37485858Y-3946928D01*
X37537256Y-3870004D01*
X37554312Y-3844480D01*
X37581932Y-3777798D01*
X37601463Y-3730647D01*
X37610087Y-3687284D01*
X37621773Y-3628541D01*
X37621773Y-3628536D01*
X37625500Y-3609802D01*
X37625500Y-3486588D01*
X37625500Y-2874361D01*
X37645185Y-2807322D01*
X37661820Y-2786679D01*
X37699461Y-2749038D01*
X37699464Y-2749035D01*
X37798013Y-2601547D01*
X37800908Y-2594559D01*
X37813833Y-2563354D01*
X37865894Y-2437666D01*
X37868404Y-2425051D01*
X37900499Y-2263695D01*
X37900500Y-2263693D01*
X37900500Y-2086306D01*
X37900499Y-2086304D01*
X37865896Y-1912341D01*
X37865893Y-1912332D01*
X37798016Y-1748459D01*
X37798009Y-1748446D01*
X37699464Y-1600965D01*
X37699461Y-1600961D01*
X37574038Y-1475538D01*
X37574034Y-1475535D01*
X37426553Y-1376990D01*
X37426540Y-1376983D01*
X37262667Y-1309106D01*
X37262658Y-1309103D01*
X37088694Y-1274500D01*
X37088691Y-1274500D01*
X36911309Y-1274500D01*
X36911306Y-1274500D01*
X36737341Y-1309103D01*
X36737332Y-1309106D01*
X36573459Y-1376983D01*
X36573446Y-1376990D01*
X36425965Y-1475535D01*
X36425961Y-1475538D01*
X36300538Y-1600961D01*
X36300535Y-1600965D01*
X36201990Y-1748446D01*
X36201983Y-1748459D01*
X36134106Y-1912332D01*
X36134103Y-1912341D01*
X36099500Y-2086304D01*
X36099500Y-2263695D01*
X36134103Y-2437658D01*
X36134106Y-2437667D01*
X36201983Y-2601540D01*
X36201990Y-2601553D01*
X36300535Y-2749034D01*
X36300538Y-2749038D01*
X36338180Y-2786679D01*
X36371666Y-2848001D01*
X36374500Y-2874361D01*
X36374500Y-3237743D01*
X36354815Y-3304782D01*
X36338181Y-3325424D01*
X30031424Y-9632181D01*
X29970101Y-9665666D01*
X29943743Y-9668500D01*
X29241452Y-9668500D01*
X29174413Y-9648815D01*
X29128658Y-9596011D01*
X29118714Y-9526853D01*
X29147739Y-9463297D01*
X29153771Y-9456819D01*
X29243899Y-9366691D01*
X29640857Y-8969734D01*
X29651384Y-8953979D01*
X29656592Y-8946187D01*
X29674085Y-8920005D01*
X29709311Y-8867286D01*
X29756463Y-8753452D01*
X29771762Y-8676537D01*
X29780500Y-8632607D01*
X29780500Y-8509394D01*
X29780500Y-5912127D01*
X29800185Y-5845088D01*
X29852989Y-5799333D01*
X29922147Y-5789389D01*
X29942813Y-5794194D01*
X30013757Y-5817246D01*
X30223713Y-5850500D01*
X30223714Y-5850500D01*
X30436286Y-5850500D01*
X30436287Y-5850500D01*
X30646243Y-5817246D01*
X30848412Y-5751557D01*
X31037816Y-5655051D01*
X31124471Y-5592093D01*
X31209786Y-5530109D01*
X31209788Y-5530106D01*
X31209792Y-5530104D01*
X31360104Y-5379792D01*
X31360106Y-5379788D01*
X31360109Y-5379786D01*
X31481763Y-5212341D01*
X31485051Y-5207816D01*
X31581557Y-5018412D01*
X31647246Y-4816243D01*
X31650122Y-4798081D01*
X31680050Y-4734950D01*
X31739361Y-4698018D01*
X31809223Y-4699014D01*
X31867457Y-4737623D01*
X31887155Y-4770028D01*
X31889437Y-4775536D01*
X31951983Y-4926541D01*
X31951990Y-4926553D01*
X32050535Y-5074034D01*
X32050538Y-5074038D01*
X32175961Y-5199461D01*
X32175965Y-5199464D01*
X32323446Y-5298009D01*
X32323459Y-5298016D01*
X32432907Y-5343350D01*
X32487334Y-5365894D01*
X32487336Y-5365894D01*
X32487341Y-5365896D01*
X32661304Y-5400499D01*
X32661307Y-5400500D01*
X32661309Y-5400500D01*
X32838693Y-5400500D01*
X32838694Y-5400499D01*
X32910059Y-5386304D01*
X33012658Y-5365896D01*
X33012661Y-5365894D01*
X33012666Y-5365894D01*
X33176547Y-5298013D01*
X33324035Y-5199464D01*
X33449464Y-5074035D01*
X33548013Y-4926547D01*
X33615894Y-4762666D01*
X33618414Y-4750000D01*
X33650499Y-4588695D01*
X33650500Y-4588693D01*
X33650500Y-4411306D01*
X33650499Y-4411304D01*
X33615896Y-4237341D01*
X33615893Y-4237332D01*
X33615345Y-4236010D01*
X33563243Y-4110221D01*
X33548016Y-4073459D01*
X33548009Y-4073446D01*
X33449464Y-3925965D01*
X33449461Y-3925961D01*
X33324038Y-3800538D01*
X33324034Y-3800535D01*
X33176553Y-3701990D01*
X33176540Y-3701983D01*
X33012667Y-3634106D01*
X33012658Y-3634103D01*
X32838694Y-3599500D01*
X32838691Y-3599500D01*
X32661309Y-3599500D01*
X32661306Y-3599500D01*
X32487341Y-3634103D01*
X32487332Y-3634106D01*
X32323459Y-3701983D01*
X32323446Y-3701990D01*
X32175965Y-3800535D01*
X32175961Y-3800538D01*
X32050538Y-3925961D01*
X32050535Y-3925965D01*
X31951990Y-4073446D01*
X31951983Y-4073459D01*
X31887156Y-4229970D01*
X31843316Y-4284374D01*
X31777022Y-4306439D01*
X31709322Y-4289160D01*
X31661711Y-4238023D01*
X31650122Y-4201920D01*
X31647246Y-4183757D01*
X31581557Y-3981588D01*
X31485051Y-3792184D01*
X31485049Y-3792181D01*
X31485048Y-3792179D01*
X31360109Y-3620213D01*
X31209786Y-3469890D01*
X31037820Y-3344951D01*
X30848414Y-3248444D01*
X30848413Y-3248443D01*
X30848412Y-3248443D01*
X30646243Y-3182754D01*
X30646241Y-3182753D01*
X30646240Y-3182753D01*
X30484957Y-3157208D01*
X30436287Y-3149500D01*
X30223713Y-3149500D01*
X30184202Y-3155757D01*
X30013759Y-3182753D01*
X30013755Y-3182754D01*
X29942817Y-3205803D01*
X29872976Y-3207798D01*
X29813143Y-3171717D01*
X29782316Y-3109016D01*
X29780500Y-3087872D01*
X29780500Y-2586289D01*
X29800185Y-2519250D01*
X29848205Y-2475804D01*
X29947816Y-2425051D01*
X30051804Y-2349500D01*
X30119786Y-2300109D01*
X30119788Y-2300106D01*
X30119792Y-2300104D01*
X30270104Y-2149792D01*
X30270106Y-2149788D01*
X30270109Y-2149786D01*
X30395048Y-1977820D01*
X30395047Y-1977820D01*
X30395051Y-1977816D01*
X30399514Y-1969054D01*
X30447488Y-1918259D01*
X30515308Y-1901463D01*
X30581444Y-1923999D01*
X30620486Y-1969056D01*
X30624951Y-1977820D01*
X30749890Y-2149786D01*
X30900213Y-2300109D01*
X31072179Y-2425048D01*
X31072181Y-2425049D01*
X31072184Y-2425051D01*
X31261588Y-2521557D01*
X31463757Y-2587246D01*
X31673713Y-2620500D01*
X31673714Y-2620500D01*
X31886286Y-2620500D01*
X31886287Y-2620500D01*
X32096243Y-2587246D01*
X32298412Y-2521557D01*
X32487816Y-2425051D01*
X32544339Y-2383985D01*
X32659786Y-2300109D01*
X32659788Y-2300106D01*
X32659792Y-2300104D01*
X32810104Y-2149792D01*
X32810106Y-2149788D01*
X32810109Y-2149786D01*
X32935048Y-1977820D01*
X32935047Y-1977820D01*
X32935051Y-1977816D01*
X32939514Y-1969054D01*
X32987488Y-1918259D01*
X33055308Y-1901463D01*
X33121444Y-1923999D01*
X33160486Y-1969056D01*
X33164951Y-1977820D01*
X33289890Y-2149786D01*
X33440213Y-2300109D01*
X33612179Y-2425048D01*
X33612181Y-2425049D01*
X33612184Y-2425051D01*
X33801588Y-2521557D01*
X34003757Y-2587246D01*
X34213713Y-2620500D01*
X34213714Y-2620500D01*
X34426286Y-2620500D01*
X34426287Y-2620500D01*
X34636243Y-2587246D01*
X34838412Y-2521557D01*
X35027816Y-2425051D01*
X35084339Y-2383985D01*
X35199786Y-2300109D01*
X35199788Y-2300106D01*
X35199792Y-2300104D01*
X35350104Y-2149792D01*
X35350106Y-2149788D01*
X35350109Y-2149786D01*
X35475048Y-1977820D01*
X35475047Y-1977820D01*
X35475051Y-1977816D01*
X35571557Y-1788412D01*
X35637246Y-1586243D01*
X35670500Y-1376287D01*
X35670500Y-1163713D01*
X35637246Y-953757D01*
X35571557Y-751588D01*
X35475051Y-562184D01*
X35475049Y-562181D01*
X35475048Y-562179D01*
X35350109Y-390213D01*
X35199792Y-239896D01*
X35179040Y-224819D01*
X35136374Y-169489D01*
X35130395Y-99876D01*
X35163000Y-38080D01*
X35223839Y-3723D01*
X35251925Y-500D01*
X40580914Y-500D01*
X40590640Y-882D01*
G37*
%TD.AperFunction*%
%TA.AperFunction,Conductor*%
G36*
X4243039Y-17543185D02*
G01*
X4288794Y-17595989D01*
X4300000Y-17647500D01*
X4300000Y-17900000D01*
X5250000Y-17900000D01*
X5250000Y-17647500D01*
X5269685Y-17580461D01*
X5322489Y-17534706D01*
X5374000Y-17523500D01*
X5626000Y-17523500D01*
X5693039Y-17543185D01*
X5738794Y-17595989D01*
X5750000Y-17647500D01*
X5750000Y-17900000D01*
X6700000Y-17900000D01*
X6700000Y-17647500D01*
X6702550Y-17638814D01*
X6701262Y-17629853D01*
X6712240Y-17605812D01*
X6719685Y-17580461D01*
X6726525Y-17574533D01*
X6730287Y-17566297D01*
X6752521Y-17552007D01*
X6772489Y-17534706D01*
X6783003Y-17532418D01*
X6789065Y-17528523D01*
X6824000Y-17523500D01*
X6988439Y-17523500D01*
X7055478Y-17543185D01*
X7101233Y-17595989D01*
X7111177Y-17665147D01*
X7110056Y-17671691D01*
X7079500Y-17825304D01*
X7079500Y-18002695D01*
X7114103Y-18176658D01*
X7114106Y-18176667D01*
X7181983Y-18340540D01*
X7181990Y-18340553D01*
X7280535Y-18488034D01*
X7280538Y-18488038D01*
X7405961Y-18613461D01*
X7405965Y-18613464D01*
X7553446Y-18712009D01*
X7553459Y-18712016D01*
X7676363Y-18762923D01*
X7717334Y-18779894D01*
X7717336Y-18779894D01*
X7717341Y-18779896D01*
X7891304Y-18814499D01*
X7891307Y-18814500D01*
X7891309Y-18814500D01*
X8068693Y-18814500D01*
X8068694Y-18814499D01*
X8126682Y-18802964D01*
X8242658Y-18779896D01*
X8242661Y-18779894D01*
X8242666Y-18779894D01*
X8406547Y-18712013D01*
X8554035Y-18613464D01*
X8591679Y-18575820D01*
X8653001Y-18542334D01*
X8679361Y-18539500D01*
X15087048Y-18539500D01*
X15105132Y-18544810D01*
X15123977Y-18545127D01*
X15152403Y-18558690D01*
X15154087Y-18559185D01*
X15155831Y-18560326D01*
X15155941Y-18560399D01*
X15156569Y-18560819D01*
X15156657Y-18560923D01*
X15156679Y-18560892D01*
X15197714Y-18588312D01*
X15197716Y-18588313D01*
X15197718Y-18588314D01*
X15307328Y-18633715D01*
X15307330Y-18633716D01*
X15311543Y-18635461D01*
X15311546Y-18635462D01*
X15311549Y-18635463D01*
X15341760Y-18641472D01*
X15432391Y-18659501D01*
X15432394Y-18659501D01*
X15555609Y-18659501D01*
X15616440Y-18647400D01*
X15676451Y-18635463D01*
X15790286Y-18588312D01*
X15790290Y-18588309D01*
X15790293Y-18588308D01*
X15832061Y-18560399D01*
X15898738Y-18539520D01*
X15900953Y-18539500D01*
X17872939Y-18539500D01*
X17939978Y-18559185D01*
X17985733Y-18611989D01*
X17995677Y-18681147D01*
X17994556Y-18687691D01*
X17964000Y-18841304D01*
X17964000Y-19018695D01*
X17998603Y-19192658D01*
X17998606Y-19192667D01*
X18066483Y-19356540D01*
X18066490Y-19356553D01*
X18165035Y-19504034D01*
X18165038Y-19504038D01*
X18277819Y-19616819D01*
X18311304Y-19678142D01*
X18306320Y-19747834D01*
X18264448Y-19803767D01*
X18198984Y-19828184D01*
X18190138Y-19828500D01*
X15174361Y-19828500D01*
X15107322Y-19808815D01*
X15086679Y-19792180D01*
X15049038Y-19754538D01*
X15049034Y-19754535D01*
X14901553Y-19655990D01*
X14901540Y-19655983D01*
X14737667Y-19588106D01*
X14737658Y-19588103D01*
X14563694Y-19553500D01*
X14563691Y-19553500D01*
X14386309Y-19553500D01*
X14386306Y-19553500D01*
X14212341Y-19588103D01*
X14212332Y-19588106D01*
X14048459Y-19655983D01*
X14048446Y-19655990D01*
X13900965Y-19754535D01*
X13900961Y-19754538D01*
X13775538Y-19879961D01*
X13775535Y-19879965D01*
X13676990Y-20027446D01*
X13676983Y-20027459D01*
X13609106Y-20191332D01*
X13609103Y-20191341D01*
X13574500Y-20365304D01*
X13574500Y-20542695D01*
X13610294Y-20722641D01*
X13608524Y-20722992D01*
X13609077Y-20784362D01*
X13571833Y-20843478D01*
X13508542Y-20873074D01*
X13489790Y-20874500D01*
X6745768Y-20874500D01*
X6576633Y-20908143D01*
X6576621Y-20908146D01*
X6417301Y-20974138D01*
X6417288Y-20974145D01*
X6273901Y-21069954D01*
X6273897Y-21069957D01*
X5637152Y-21706702D01*
X5618364Y-21722122D01*
X5521961Y-21786539D01*
X5521958Y-21786542D01*
X5396538Y-21911961D01*
X5396535Y-21911965D01*
X5297990Y-22059446D01*
X5297983Y-22059459D01*
X5230106Y-22223332D01*
X5230103Y-22223341D01*
X5195500Y-22397304D01*
X5195500Y-22574695D01*
X5226056Y-22728309D01*
X5219829Y-22797900D01*
X5176966Y-22853078D01*
X5111076Y-22876322D01*
X5104439Y-22876500D01*
X3249500Y-22876500D01*
X3182461Y-22856815D01*
X3136706Y-22804011D01*
X3125500Y-22752500D01*
X3125500Y-19574499D01*
X3145185Y-19507460D01*
X3197989Y-19461705D01*
X3244611Y-19451562D01*
X3244576Y-19450900D01*
X3244571Y-19450854D01*
X3244573Y-19450853D01*
X3244564Y-19450676D01*
X3247857Y-19450499D01*
X3247872Y-19450499D01*
X3307483Y-19444091D01*
X3442331Y-19393796D01*
X3557546Y-19307546D01*
X3643796Y-19192331D01*
X3694091Y-19057483D01*
X3700500Y-18997873D01*
X3700500Y-18997844D01*
X4300000Y-18997844D01*
X4306401Y-19057372D01*
X4306403Y-19057379D01*
X4356645Y-19192086D01*
X4356649Y-19192093D01*
X4442809Y-19307187D01*
X4442812Y-19307190D01*
X4557906Y-19393350D01*
X4557913Y-19393354D01*
X4692620Y-19443596D01*
X4692627Y-19443598D01*
X4752155Y-19449999D01*
X4752172Y-19450000D01*
X5250000Y-19450000D01*
X5750000Y-19450000D01*
X6247828Y-19450000D01*
X6247844Y-19449999D01*
X6307372Y-19443598D01*
X6307379Y-19443596D01*
X6442086Y-19393354D01*
X6442093Y-19393350D01*
X6557187Y-19307190D01*
X6557190Y-19307187D01*
X6643350Y-19192093D01*
X6643354Y-19192086D01*
X6693596Y-19057379D01*
X6693598Y-19057372D01*
X6699999Y-18997844D01*
X6700000Y-18997827D01*
X6700000Y-18400000D01*
X5750000Y-18400000D01*
X5750000Y-19450000D01*
X5250000Y-19450000D01*
X5250000Y-18400000D01*
X4300000Y-18400000D01*
X4300000Y-18997844D01*
X3700500Y-18997844D01*
X3700499Y-18176667D01*
X3700499Y-17647500D01*
X3720183Y-17580461D01*
X3772987Y-17534706D01*
X3824499Y-17523500D01*
X4176000Y-17523500D01*
X4243039Y-17543185D01*
G37*
%TD.AperFunction*%
%TA.AperFunction,Conductor*%
G36*
X40191022Y-12463185D02*
G01*
X40227085Y-12498609D01*
X40300535Y-12608534D01*
X40300538Y-12608538D01*
X40425961Y-12733961D01*
X40425965Y-12733964D01*
X40573446Y-12832509D01*
X40573459Y-12832516D01*
X40696363Y-12883423D01*
X40737334Y-12900394D01*
X40737336Y-12900394D01*
X40737341Y-12900396D01*
X40911304Y-12934999D01*
X40911307Y-12935000D01*
X40911309Y-12935000D01*
X41088693Y-12935000D01*
X41088694Y-12934999D01*
X41186960Y-12915453D01*
X41262658Y-12900396D01*
X41262661Y-12900394D01*
X41262666Y-12900394D01*
X41426547Y-12832513D01*
X41574035Y-12733964D01*
X41605988Y-12702011D01*
X41662819Y-12645181D01*
X41724142Y-12611696D01*
X41793834Y-12616680D01*
X41849767Y-12658552D01*
X41874184Y-12724016D01*
X41874500Y-12732862D01*
X41874500Y-14175500D01*
X41854815Y-14242539D01*
X41802011Y-14288294D01*
X41755389Y-14298450D01*
X41755423Y-14299099D01*
X41755429Y-14299146D01*
X41755426Y-14299146D01*
X41755436Y-14299324D01*
X41752123Y-14299501D01*
X41692516Y-14305908D01*
X41557671Y-14356202D01*
X41557664Y-14356206D01*
X41442455Y-14442452D01*
X41442452Y-14442455D01*
X41356206Y-14557664D01*
X41356202Y-14557671D01*
X41305908Y-14692517D01*
X41299501Y-14752116D01*
X41299501Y-14752123D01*
X41299500Y-14752135D01*
X41299500Y-16447870D01*
X41299501Y-16447876D01*
X41305908Y-16507483D01*
X41356202Y-16642328D01*
X41356203Y-16642330D01*
X41381176Y-16675690D01*
X41405592Y-16741155D01*
X41390740Y-16809428D01*
X41381176Y-16824310D01*
X41356203Y-16857669D01*
X41356202Y-16857671D01*
X41305908Y-16992517D01*
X41299501Y-17052116D01*
X41299500Y-17052127D01*
X41299500Y-17671691D01*
X41299501Y-18275500D01*
X41279816Y-18342539D01*
X41227013Y-18388294D01*
X41175501Y-18399500D01*
X40824000Y-18399500D01*
X40756961Y-18379815D01*
X40711206Y-18327011D01*
X40700000Y-18275500D01*
X40700000Y-18150000D01*
X39624000Y-18150000D01*
X39556961Y-18130315D01*
X39511206Y-18077511D01*
X39500000Y-18026000D01*
X39500000Y-17900000D01*
X39374000Y-17900000D01*
X39306961Y-17880315D01*
X39261206Y-17827511D01*
X39250000Y-17776000D01*
X39250000Y-17650000D01*
X39750000Y-17650000D01*
X40700000Y-17650000D01*
X40700000Y-17052172D01*
X40699999Y-17052155D01*
X40693598Y-16992627D01*
X40693597Y-16992623D01*
X40643351Y-16857909D01*
X40618200Y-16824312D01*
X40593782Y-16758848D01*
X40608633Y-16690575D01*
X40618200Y-16675688D01*
X40643351Y-16642090D01*
X40693597Y-16507376D01*
X40693598Y-16507372D01*
X40699999Y-16447844D01*
X40700000Y-16447827D01*
X40700000Y-15850000D01*
X39750000Y-15850000D01*
X39750000Y-17650000D01*
X39250000Y-17650000D01*
X39250000Y-15850000D01*
X38300000Y-15850000D01*
X38300000Y-16447844D01*
X38306401Y-16507372D01*
X38306403Y-16507379D01*
X38356645Y-16642086D01*
X38356648Y-16642092D01*
X38381800Y-16675691D01*
X38406216Y-16741155D01*
X38391364Y-16809428D01*
X38381800Y-16824309D01*
X38356648Y-16857907D01*
X38356645Y-16857913D01*
X38306403Y-16992620D01*
X38306401Y-16992627D01*
X38300000Y-17052155D01*
X38300000Y-17533048D01*
X38293761Y-17554293D01*
X38292182Y-17576382D01*
X38284109Y-17587165D01*
X38280315Y-17600087D01*
X38263581Y-17614586D01*
X38250310Y-17632315D01*
X38237689Y-17637022D01*
X38227511Y-17645842D01*
X38205593Y-17648993D01*
X38184846Y-17656732D01*
X38171685Y-17653869D01*
X38158353Y-17655786D01*
X38138209Y-17646586D01*
X38116573Y-17641880D01*
X38098847Y-17628611D01*
X38094797Y-17626761D01*
X38088319Y-17620729D01*
X37987198Y-17519608D01*
X37987178Y-17519586D01*
X37895733Y-17428141D01*
X37850439Y-17397877D01*
X37850436Y-17397875D01*
X37844509Y-17393915D01*
X37793286Y-17359688D01*
X37708446Y-17324547D01*
X37703781Y-17322614D01*
X37703772Y-17322610D01*
X37679456Y-17312538D01*
X37679444Y-17312535D01*
X37609066Y-17298536D01*
X37609065Y-17298536D01*
X37558611Y-17288500D01*
X37558607Y-17288500D01*
X37558606Y-17288500D01*
X19131561Y-17288500D01*
X19064522Y-17268815D01*
X19018767Y-17216011D01*
X19008823Y-17146853D01*
X19009944Y-17140309D01*
X19039320Y-16992623D01*
X19040500Y-16986691D01*
X19040500Y-16809309D01*
X19040500Y-16809306D01*
X19040499Y-16809304D01*
X19005896Y-16635341D01*
X19005893Y-16635332D01*
X18938016Y-16471459D01*
X18938009Y-16471446D01*
X18839464Y-16323965D01*
X18839461Y-16323961D01*
X18714038Y-16198538D01*
X18714034Y-16198535D01*
X18570462Y-16102602D01*
X18525657Y-16048989D01*
X18516950Y-15979664D01*
X18547105Y-15916637D01*
X18606548Y-15879918D01*
X18639353Y-15875500D01*
X34773415Y-15875500D01*
X34797605Y-15877882D01*
X34807837Y-15879918D01*
X34911306Y-15900500D01*
X34911309Y-15900500D01*
X35088693Y-15900500D01*
X35088694Y-15900499D01*
X35170722Y-15884183D01*
X35262658Y-15865896D01*
X35262661Y-15865894D01*
X35262666Y-15865894D01*
X35426547Y-15798013D01*
X35574035Y-15699464D01*
X35699464Y-15574035D01*
X35798013Y-15426547D01*
X35837179Y-15331990D01*
X35881018Y-15277590D01*
X35947312Y-15255524D01*
X35975934Y-15257828D01*
X35979309Y-15258500D01*
X36156693Y-15258500D01*
X36156694Y-15258499D01*
X36214682Y-15246964D01*
X36330658Y-15223896D01*
X36330661Y-15223894D01*
X36330666Y-15223894D01*
X36494547Y-15156013D01*
X36642035Y-15057464D01*
X36767464Y-14932035D01*
X36866013Y-14784547D01*
X36879430Y-14752155D01*
X38300000Y-14752155D01*
X38300000Y-15350000D01*
X39250000Y-15350000D01*
X39750000Y-15350000D01*
X40700000Y-15350000D01*
X40700000Y-14752172D01*
X40699999Y-14752155D01*
X40693598Y-14692627D01*
X40693596Y-14692620D01*
X40643354Y-14557913D01*
X40643350Y-14557906D01*
X40557190Y-14442812D01*
X40557187Y-14442809D01*
X40442093Y-14356649D01*
X40442086Y-14356645D01*
X40307379Y-14306403D01*
X40307372Y-14306401D01*
X40247844Y-14300000D01*
X39750000Y-14300000D01*
X39750000Y-15350000D01*
X39250000Y-15350000D01*
X39250000Y-14300000D01*
X38752155Y-14300000D01*
X38692627Y-14306401D01*
X38692620Y-14306403D01*
X38557913Y-14356645D01*
X38557906Y-14356649D01*
X38442812Y-14442809D01*
X38442809Y-14442812D01*
X38356649Y-14557906D01*
X38356645Y-14557913D01*
X38306403Y-14692620D01*
X38306401Y-14692627D01*
X38300000Y-14752155D01*
X36879430Y-14752155D01*
X36900454Y-14701399D01*
X36923006Y-14646952D01*
X36933894Y-14620666D01*
X36943286Y-14573453D01*
X36965223Y-14463164D01*
X36968500Y-14446691D01*
X36968500Y-14269309D01*
X36967053Y-14262035D01*
X36973279Y-14192445D01*
X37016140Y-14137266D01*
X37082029Y-14114020D01*
X37150027Y-14130086D01*
X37157562Y-14134740D01*
X37165453Y-14140013D01*
X37165455Y-14140013D01*
X37165459Y-14140016D01*
X37251127Y-14175500D01*
X37329334Y-14207894D01*
X37329336Y-14207894D01*
X37329341Y-14207896D01*
X37503304Y-14242499D01*
X37503307Y-14242500D01*
X37503309Y-14242500D01*
X37680693Y-14242500D01*
X37680694Y-14242499D01*
X37765894Y-14225552D01*
X37854658Y-14207896D01*
X37854661Y-14207894D01*
X37854666Y-14207894D01*
X38018547Y-14140013D01*
X38166035Y-14041464D01*
X38291464Y-13916035D01*
X38390013Y-13768547D01*
X38457894Y-13604666D01*
X38492500Y-13430691D01*
X38492500Y-13253309D01*
X38492500Y-13253306D01*
X38492499Y-13253304D01*
X38457896Y-13079341D01*
X38457893Y-13079332D01*
X38390016Y-12915459D01*
X38390009Y-12915446D01*
X38291464Y-12767965D01*
X38291461Y-12767961D01*
X38178681Y-12655181D01*
X38145196Y-12593858D01*
X38150180Y-12524166D01*
X38192052Y-12468233D01*
X38257516Y-12443816D01*
X38266362Y-12443500D01*
X40123983Y-12443500D01*
X40191022Y-12463185D01*
G37*
%TD.AperFunction*%
%TA.AperFunction,Conductor*%
G36*
X3912890Y-14199249D02*
G01*
X3923964Y-14200011D01*
X3943574Y-14214607D01*
X3965442Y-14225552D01*
X3968604Y-14228603D01*
X3984967Y-14244966D01*
X3997966Y-14257965D01*
X4145446Y-14356509D01*
X4145453Y-14356513D01*
X4282909Y-14413448D01*
X4337310Y-14457287D01*
X4359376Y-14523581D01*
X4351637Y-14571341D01*
X4306403Y-14692619D01*
X4306401Y-14692627D01*
X4300000Y-14752155D01*
X4300000Y-15350000D01*
X6700000Y-15350000D01*
X6700000Y-14752172D01*
X6699999Y-14752155D01*
X6693598Y-14692627D01*
X6693597Y-14692623D01*
X6675027Y-14642834D01*
X6670043Y-14573142D01*
X6703528Y-14511819D01*
X6764851Y-14478334D01*
X6791209Y-14475500D01*
X12056982Y-14475500D01*
X12124021Y-14495185D01*
X12169776Y-14547989D01*
X12179720Y-14617147D01*
X12171543Y-14646952D01*
X12134106Y-14737332D01*
X12134103Y-14737341D01*
X12099500Y-14911304D01*
X12099500Y-15088695D01*
X12134103Y-15262658D01*
X12134106Y-15262667D01*
X12201983Y-15426540D01*
X12201990Y-15426553D01*
X12300535Y-15574034D01*
X12300538Y-15574038D01*
X12425961Y-15699461D01*
X12425965Y-15699464D01*
X12573446Y-15798009D01*
X12573459Y-15798016D01*
X12696363Y-15848923D01*
X12737334Y-15865894D01*
X12737336Y-15865894D01*
X12737341Y-15865896D01*
X12911304Y-15900499D01*
X12911307Y-15900500D01*
X12911309Y-15900500D01*
X13088693Y-15900500D01*
X13192163Y-15879918D01*
X13202394Y-15877882D01*
X13226585Y-15875500D01*
X17640647Y-15875500D01*
X17670219Y-15884183D01*
X17700327Y-15890806D01*
X17703446Y-15893940D01*
X17707686Y-15895185D01*
X17727863Y-15918470D01*
X17749617Y-15940326D01*
X17750546Y-15944649D01*
X17753441Y-15947989D01*
X17757827Y-15978498D01*
X17764310Y-16008634D01*
X17762755Y-16012771D01*
X17763385Y-16017147D01*
X17750579Y-16045188D01*
X17739741Y-16074041D01*
X17735624Y-16077933D01*
X17734360Y-16080703D01*
X17714727Y-16098940D01*
X17712177Y-16100838D01*
X17565965Y-16198536D01*
X17521941Y-16242559D01*
X17514719Y-16247940D01*
X17490067Y-16257069D01*
X17466999Y-16269666D01*
X17451573Y-16271324D01*
X17449198Y-16272204D01*
X17447291Y-16271784D01*
X17440639Y-16272500D01*
X6824000Y-16272500D01*
X6756961Y-16252815D01*
X6711206Y-16200011D01*
X6700000Y-16148500D01*
X6700000Y-15850000D01*
X5750000Y-15850000D01*
X5750000Y-16148500D01*
X5730315Y-16215539D01*
X5677511Y-16261294D01*
X5626000Y-16272500D01*
X5374000Y-16272500D01*
X5306961Y-16252815D01*
X5261206Y-16200011D01*
X5250000Y-16148500D01*
X5250000Y-15850000D01*
X4300000Y-15850000D01*
X4300000Y-16148500D01*
X4297449Y-16157185D01*
X4298738Y-16166147D01*
X4287759Y-16190187D01*
X4280315Y-16215539D01*
X4273474Y-16221466D01*
X4269713Y-16229703D01*
X4247478Y-16243992D01*
X4227511Y-16261294D01*
X4216996Y-16263581D01*
X4210935Y-16267477D01*
X4176000Y-16272500D01*
X4008452Y-16272500D01*
X3941413Y-16252815D01*
X3920771Y-16236181D01*
X3736818Y-16052228D01*
X3703333Y-15990905D01*
X3700499Y-15964547D01*
X3700499Y-14752129D01*
X3700498Y-14752123D01*
X3700497Y-14752116D01*
X3694103Y-14692627D01*
X3694091Y-14692516D01*
X3643797Y-14557671D01*
X3643793Y-14557664D01*
X3555986Y-14440370D01*
X3543825Y-14407767D01*
X3531593Y-14375245D01*
X3531630Y-14375072D01*
X3531568Y-14374906D01*
X3538991Y-14340777D01*
X3546257Y-14306932D01*
X3546381Y-14306807D01*
X3546419Y-14306633D01*
X3571163Y-14281888D01*
X3595526Y-14257391D01*
X3595720Y-14257330D01*
X3595824Y-14257227D01*
X3628561Y-14244966D01*
X3639749Y-14242500D01*
X3644691Y-14242500D01*
X3818666Y-14207894D01*
X3843591Y-14197569D01*
X3854259Y-14195218D01*
X3878648Y-14196895D01*
X3902961Y-14194280D01*
X3912890Y-14199249D01*
G37*
%TD.AperFunction*%
%TD*%
M02*
