%TF.GenerationSoftware,KiCad,Pcbnew,9.0.1*%
%TF.CreationDate,2025-06-10T11:43:45-04:00*%
%TF.ProjectId,Ceinture_respiration_Main,4365696e-7475-4726-955f-726573706972,1.1*%
%TF.SameCoordinates,Original*%
%TF.FileFunction,Legend,Bot*%
%TF.FilePolarity,Positive*%
%FSLAX46Y46*%
G04 Gerber Fmt 4.6, Leading zero omitted, Abs format (unit mm)*
G04 Created by KiCad (PCBNEW 9.0.1) date 2025-06-10 11:43:45*
%MOMM*%
%LPD*%
G01*
G04 APERTURE LIST*
G04 Aperture macros list*
%AMRoundRect*
0 Rectangle with rounded corners*
0 $1 Rounding radius*
0 $2 $3 $4 $5 $6 $7 $8 $9 X,Y pos of 4 corners*
0 Add a 4 corners polygon primitive as box body*
4,1,4,$2,$3,$4,$5,$6,$7,$8,$9,$2,$3,0*
0 Add four circle primitives for the rounded corners*
1,1,$1+$1,$2,$3*
1,1,$1+$1,$4,$5*
1,1,$1+$1,$6,$7*
1,1,$1+$1,$8,$9*
0 Add four rect primitives between the rounded corners*
20,1,$1+$1,$2,$3,$4,$5,0*
20,1,$1+$1,$4,$5,$6,$7,0*
20,1,$1+$1,$6,$7,$8,$9,0*
20,1,$1+$1,$8,$9,$2,$3,0*%
G04 Aperture macros list end*
%ADD10C,0.150000*%
%ADD11C,0.508000*%
%ADD12C,0.120000*%
%ADD13C,0.200000*%
%ADD14C,0.127000*%
%ADD15C,1.676400*%
%ADD16R,1.800000X1.800000*%
%ADD17C,1.800000*%
%ADD18R,1.700000X1.700000*%
%ADD19C,1.700000*%
%ADD20RoundRect,0.200000X-0.275000X0.200000X-0.275000X-0.200000X0.275000X-0.200000X0.275000X0.200000X0*%
%ADD21RoundRect,0.200000X0.200000X0.275000X-0.200000X0.275000X-0.200000X-0.275000X0.200000X-0.275000X0*%
%ADD22RoundRect,0.150000X-0.150000X0.587500X-0.150000X-0.587500X0.150000X-0.587500X0.150000X0.587500X0*%
%ADD23O,1.700000X1.700000*%
%ADD24RoundRect,0.075000X-0.075000X0.650000X-0.075000X-0.650000X0.075000X-0.650000X0.075000X0.650000X0*%
%ADD25RoundRect,0.150000X0.150000X-0.587500X0.150000X0.587500X-0.150000X0.587500X-0.150000X-0.587500X0*%
%ADD26RoundRect,0.200000X-0.200000X-0.275000X0.200000X-0.275000X0.200000X0.275000X-0.200000X0.275000X0*%
%ADD27R,2.000000X0.800000*%
%ADD28R,1.400000X1.800000*%
%ADD29R,1.900000X1.400000*%
%ADD30RoundRect,0.144400X0.235600X-0.825600X0.235600X0.825600X-0.235600X0.825600X-0.235600X-0.825600X0*%
%ADD31RoundRect,0.102000X-0.900000X0.900000X-0.900000X-0.900000X0.900000X-0.900000X0.900000X0.900000X0*%
%ADD32RoundRect,0.112500X-0.112500X0.187500X-0.112500X-0.187500X0.112500X-0.187500X0.112500X0.187500X0*%
%ADD33RoundRect,0.218750X-0.256250X0.218750X-0.256250X-0.218750X0.256250X-0.218750X0.256250X0.218750X0*%
%ADD34RoundRect,0.225000X-0.225000X-0.250000X0.225000X-0.250000X0.225000X0.250000X-0.225000X0.250000X0*%
%ADD35RoundRect,0.125000X0.125000X-0.125000X0.125000X0.125000X-0.125000X0.125000X-0.125000X-0.125000X0*%
%ADD36RoundRect,0.200000X0.275000X-0.200000X0.275000X0.200000X-0.275000X0.200000X-0.275000X-0.200000X0*%
%ADD37RoundRect,0.225000X-0.250000X0.225000X-0.250000X-0.225000X0.250000X-0.225000X0.250000X0.225000X0*%
%ADD38R,1.560000X2.000000*%
%ADD39R,1.560000X1.500000*%
G04 APERTURE END LIST*
D10*
X38500000Y-32000000D02*
X34000000Y-32000000D01*
X40250000Y-1974600D02*
X40275400Y-1974600D01*
X40275400Y-2000000D01*
X40250000Y-2000000D01*
X40250000Y-1974600D01*
G36*
X40250000Y-1974600D02*
G01*
X40275400Y-1974600D01*
X40275400Y-2000000D01*
X40250000Y-2000000D01*
X40250000Y-1974600D01*
G37*
X38330000Y-26630000D02*
X38500000Y-32000000D01*
X34336779Y-27988866D02*
X35098684Y-27988866D01*
X34336779Y-30488866D02*
X35098684Y-30488866D01*
X34717731Y-30869819D02*
X34717731Y-30107914D01*
G36*
X568628Y-23688122D02*
G01*
X534370Y-23756638D01*
X503963Y-23787045D01*
X435447Y-23821303D01*
X328000Y-23821303D01*
X259484Y-23787045D01*
X229077Y-23756638D01*
X194819Y-23688122D01*
X194819Y-23399875D01*
X568628Y-23399875D01*
X568628Y-23688122D01*
G37*
G36*
X568628Y-22688122D02*
G01*
X534370Y-22756638D01*
X503963Y-22787045D01*
X435447Y-22821303D01*
X328000Y-22821303D01*
X259484Y-22787045D01*
X229077Y-22756638D01*
X194819Y-22688122D01*
X194819Y-22399875D01*
X568628Y-22399875D01*
X568628Y-22688122D01*
G37*
G36*
X1016298Y-18237919D02*
G01*
X1044819Y-18294961D01*
X1044819Y-18497646D01*
X1025848Y-18535589D01*
X811039Y-18535589D01*
X811203Y-18535161D01*
X811394Y-18532471D01*
X812425Y-18529983D01*
X813866Y-18515351D01*
X813866Y-18294961D01*
X842386Y-18237919D01*
X899428Y-18209399D01*
X959256Y-18209399D01*
X1016298Y-18237919D01*
G37*
G36*
X1016298Y-16571252D02*
G01*
X1044819Y-16628294D01*
X1044819Y-16830979D01*
X1025848Y-16868922D01*
X811039Y-16868922D01*
X811203Y-16868494D01*
X811394Y-16865804D01*
X812425Y-16863316D01*
X813866Y-16848684D01*
X813866Y-16628294D01*
X842386Y-16571252D01*
X899428Y-16542732D01*
X959256Y-16542732D01*
X1016298Y-16571252D01*
G37*
G36*
X1044819Y-12056865D02*
G01*
X1044819Y-12211931D01*
X1010561Y-12280446D01*
X980153Y-12310853D01*
X911637Y-12345112D01*
X661333Y-12345112D01*
X592817Y-12310854D01*
X562410Y-12280447D01*
X528152Y-12211931D01*
X528152Y-12056865D01*
X547124Y-12018922D01*
X1025847Y-12018922D01*
X1044819Y-12056865D01*
G37*
G36*
X1016298Y-11095061D02*
G01*
X1044819Y-11152103D01*
X1044819Y-11354788D01*
X1025848Y-11392731D01*
X811039Y-11392731D01*
X811203Y-11392303D01*
X811394Y-11389613D01*
X812425Y-11387125D01*
X813866Y-11372493D01*
X813866Y-11152103D01*
X842386Y-11095061D01*
X899428Y-11066541D01*
X959256Y-11066541D01*
X1016298Y-11095061D01*
G37*
G36*
X980153Y-10196037D02*
G01*
X1010561Y-10226444D01*
X1044819Y-10294960D01*
X1044819Y-10450026D01*
X1025848Y-10487969D01*
X547123Y-10487969D01*
X528152Y-10450026D01*
X528152Y-10294960D01*
X562410Y-10226444D01*
X592817Y-10196037D01*
X661333Y-10161779D01*
X911637Y-10161779D01*
X980153Y-10196037D01*
G37*
G36*
X1016298Y-9285537D02*
G01*
X1044819Y-9342579D01*
X1044819Y-9545264D01*
X1025848Y-9583207D01*
X811039Y-9583207D01*
X811203Y-9582779D01*
X811394Y-9580089D01*
X812425Y-9577601D01*
X813866Y-9562969D01*
X813866Y-9342579D01*
X842386Y-9285537D01*
X899428Y-9257017D01*
X959256Y-9257017D01*
X1016298Y-9285537D01*
G37*
G36*
X629761Y-8726064D02*
G01*
X613714Y-8726064D01*
X556672Y-8697543D01*
X528152Y-8640502D01*
X528152Y-8485436D01*
X556672Y-8428394D01*
X613714Y-8399874D01*
X694999Y-8399874D01*
X629761Y-8726064D01*
G37*
G36*
X568628Y-7735740D02*
G01*
X534370Y-7804256D01*
X503963Y-7834663D01*
X435447Y-7868921D01*
X328000Y-7868921D01*
X259484Y-7834663D01*
X229077Y-7804256D01*
X194819Y-7735740D01*
X194819Y-7447493D01*
X568628Y-7447493D01*
X568628Y-7735740D01*
G37*
G36*
X980153Y-6529370D02*
G01*
X1010561Y-6559777D01*
X1044819Y-6628293D01*
X1044819Y-6783359D01*
X1025848Y-6821302D01*
X547123Y-6821302D01*
X528152Y-6783359D01*
X528152Y-6628293D01*
X562410Y-6559777D01*
X592817Y-6529370D01*
X661333Y-6495112D01*
X911637Y-6495112D01*
X980153Y-6529370D01*
G37*
G36*
X1639263Y-25510985D02*
G01*
X-112470Y-25510985D01*
X-112470Y-24943922D01*
X44819Y-24943922D01*
X44819Y-25182017D01*
X45548Y-25189422D01*
X45408Y-25191397D01*
X45998Y-25193994D01*
X46260Y-25196649D01*
X47018Y-25198480D01*
X48668Y-25205734D01*
X96287Y-25348591D01*
X102281Y-25362016D01*
X121455Y-25384123D01*
X147628Y-25397210D01*
X176818Y-25399285D01*
X204580Y-25390031D01*
X226688Y-25370857D01*
X239774Y-25344683D01*
X241849Y-25315493D01*
X238589Y-25301156D01*
X194819Y-25169846D01*
X194819Y-24961627D01*
X229077Y-24893111D01*
X259484Y-24862704D01*
X328000Y-24828446D01*
X387828Y-24828446D01*
X456344Y-24862704D01*
X486751Y-24893111D01*
X525244Y-24970098D01*
X570867Y-25152588D01*
X571252Y-25153667D01*
X571291Y-25154207D01*
X573618Y-25160288D01*
X575814Y-25166434D01*
X576136Y-25166869D01*
X576546Y-25167939D01*
X624165Y-25263177D01*
X628129Y-25269476D01*
X628887Y-25271304D01*
X630575Y-25273360D01*
X631997Y-25275620D01*
X633495Y-25276919D01*
X638214Y-25282669D01*
X685833Y-25330288D01*
X691582Y-25335006D01*
X692882Y-25336505D01*
X695141Y-25337926D01*
X697198Y-25339615D01*
X699025Y-25340372D01*
X705325Y-25344337D01*
X800563Y-25391956D01*
X814294Y-25397211D01*
X816983Y-25397402D01*
X819472Y-25398433D01*
X834104Y-25399874D01*
X929342Y-25399874D01*
X943974Y-25398433D01*
X946463Y-25397401D01*
X949151Y-25397211D01*
X962883Y-25391956D01*
X1058121Y-25344337D01*
X1064417Y-25340373D01*
X1066247Y-25339616D01*
X1068305Y-25337926D01*
X1070564Y-25336505D01*
X1071863Y-25335006D01*
X1077612Y-25330289D01*
X1125232Y-25282670D01*
X1129950Y-25276920D01*
X1131450Y-25275620D01*
X1132872Y-25273360D01*
X1134560Y-25271304D01*
X1135317Y-25269476D01*
X1139282Y-25263177D01*
X1186901Y-25167939D01*
X1192156Y-25154208D01*
X1192347Y-25151518D01*
X1193378Y-25149030D01*
X1194819Y-25134398D01*
X1194819Y-24896303D01*
X1194089Y-24888896D01*
X1194230Y-24886922D01*
X1193639Y-24884324D01*
X1193378Y-24881671D01*
X1192619Y-24879840D01*
X1190970Y-24872585D01*
X1143351Y-24729729D01*
X1137357Y-24716303D01*
X1118183Y-24694196D01*
X1092010Y-24681110D01*
X1062820Y-24679035D01*
X1035057Y-24688289D01*
X1012950Y-24707463D01*
X999864Y-24733636D01*
X997789Y-24762826D01*
X1001049Y-24777163D01*
X1044819Y-24908473D01*
X1044819Y-25116693D01*
X1010561Y-25185208D01*
X980153Y-25215615D01*
X911637Y-25249874D01*
X851809Y-25249874D01*
X783293Y-25215616D01*
X752886Y-25185209D01*
X714392Y-25108222D01*
X668770Y-24925732D01*
X668384Y-24924652D01*
X668346Y-24924112D01*
X666015Y-24918022D01*
X663823Y-24911886D01*
X663500Y-24911450D01*
X663091Y-24910381D01*
X615472Y-24815143D01*
X611507Y-24808843D01*
X610750Y-24807016D01*
X609061Y-24804959D01*
X607640Y-24802700D01*
X606141Y-24801400D01*
X601423Y-24795651D01*
X553804Y-24748032D01*
X548054Y-24743313D01*
X546755Y-24741815D01*
X544495Y-24740393D01*
X542439Y-24738705D01*
X540611Y-24737947D01*
X534312Y-24733983D01*
X439074Y-24686364D01*
X425342Y-24681109D01*
X422654Y-24680918D01*
X420165Y-24679887D01*
X405533Y-24678446D01*
X310295Y-24678446D01*
X295663Y-24679887D01*
X293174Y-24680917D01*
X290485Y-24681109D01*
X276754Y-24686364D01*
X181516Y-24733983D01*
X175216Y-24737947D01*
X173389Y-24738705D01*
X171332Y-24740393D01*
X169073Y-24741815D01*
X167773Y-24743313D01*
X162024Y-24748032D01*
X114405Y-24795651D01*
X109686Y-24801400D01*
X108188Y-24802700D01*
X106766Y-24804959D01*
X105078Y-24807016D01*
X104320Y-24808843D01*
X100356Y-24815143D01*
X52737Y-24910381D01*
X47482Y-24924113D01*
X47291Y-24926800D01*
X46260Y-24929290D01*
X44819Y-24943922D01*
X-112470Y-24943922D01*
X-112470Y-24310243D01*
X46260Y-24310243D01*
X46260Y-24339507D01*
X57459Y-24366543D01*
X78151Y-24387235D01*
X105187Y-24398434D01*
X119819Y-24399875D01*
X1119819Y-24399875D01*
X1134451Y-24398434D01*
X1161487Y-24387235D01*
X1182179Y-24366543D01*
X1193378Y-24339507D01*
X1193378Y-24310243D01*
X1182179Y-24283207D01*
X1161487Y-24262515D01*
X1134451Y-24251316D01*
X1119819Y-24249875D01*
X119819Y-24249875D01*
X105187Y-24251316D01*
X78151Y-24262515D01*
X57459Y-24283207D01*
X46260Y-24310243D01*
X-112470Y-24310243D01*
X-112470Y-23324875D01*
X44819Y-23324875D01*
X44819Y-23705827D01*
X46260Y-23720459D01*
X47291Y-23722948D01*
X47482Y-23725636D01*
X52737Y-23739368D01*
X100356Y-23834606D01*
X104320Y-23840905D01*
X105078Y-23842733D01*
X106766Y-23844789D01*
X108188Y-23847049D01*
X109686Y-23848348D01*
X114405Y-23854098D01*
X162024Y-23901717D01*
X167773Y-23906435D01*
X169073Y-23907934D01*
X171332Y-23909355D01*
X173389Y-23911044D01*
X175216Y-23911801D01*
X181516Y-23915766D01*
X276754Y-23963385D01*
X290485Y-23968640D01*
X293174Y-23968831D01*
X295663Y-23969862D01*
X310295Y-23971303D01*
X453152Y-23971303D01*
X467784Y-23969862D01*
X470273Y-23968830D01*
X472961Y-23968640D01*
X486693Y-23963385D01*
X581931Y-23915766D01*
X588230Y-23911801D01*
X590058Y-23911044D01*
X592114Y-23909355D01*
X594374Y-23907934D01*
X595673Y-23906435D01*
X601423Y-23901717D01*
X649042Y-23854098D01*
X653760Y-23848348D01*
X655259Y-23847049D01*
X656680Y-23844789D01*
X658369Y-23842733D01*
X659126Y-23840905D01*
X663091Y-23834606D01*
X710710Y-23739368D01*
X715965Y-23725637D01*
X716156Y-23722947D01*
X717187Y-23720459D01*
X718518Y-23706942D01*
X1076810Y-23957746D01*
X1089623Y-23964956D01*
X1118194Y-23971285D01*
X1147012Y-23966200D01*
X1171690Y-23950473D01*
X1188472Y-23926499D01*
X1194802Y-23897928D01*
X1189716Y-23869111D01*
X1173989Y-23844432D01*
X1162829Y-23834861D01*
X718628Y-23523920D01*
X718628Y-23399875D01*
X1119819Y-23399875D01*
X1134451Y-23398434D01*
X1161487Y-23387235D01*
X1182179Y-23366543D01*
X1193378Y-23339507D01*
X1193378Y-23310243D01*
X1182179Y-23283207D01*
X1161487Y-23262515D01*
X1134451Y-23251316D01*
X1119819Y-23249875D01*
X119819Y-23249875D01*
X105187Y-23251316D01*
X78151Y-23262515D01*
X57459Y-23283207D01*
X46260Y-23310243D01*
X44819Y-23324875D01*
X-112470Y-23324875D01*
X-112470Y-22324875D01*
X44819Y-22324875D01*
X44819Y-22705827D01*
X46260Y-22720459D01*
X47291Y-22722948D01*
X47482Y-22725636D01*
X52737Y-22739368D01*
X100356Y-22834606D01*
X104320Y-22840905D01*
X105078Y-22842733D01*
X106766Y-22844789D01*
X108188Y-22847049D01*
X109686Y-22848348D01*
X114405Y-22854098D01*
X162024Y-22901717D01*
X167773Y-22906435D01*
X169073Y-22907934D01*
X171332Y-22909355D01*
X173389Y-22911044D01*
X175216Y-22911801D01*
X181516Y-22915766D01*
X276754Y-22963385D01*
X290485Y-22968640D01*
X293174Y-22968831D01*
X295663Y-22969862D01*
X310295Y-22971303D01*
X453152Y-22971303D01*
X467784Y-22969862D01*
X470273Y-22968830D01*
X472961Y-22968640D01*
X486693Y-22963385D01*
X581931Y-22915766D01*
X588230Y-22911801D01*
X590058Y-22911044D01*
X592114Y-22909355D01*
X594374Y-22907934D01*
X595673Y-22906435D01*
X601423Y-22901717D01*
X649042Y-22854098D01*
X653760Y-22848348D01*
X655259Y-22847049D01*
X656680Y-22844789D01*
X658369Y-22842733D01*
X659126Y-22840905D01*
X663091Y-22834606D01*
X710710Y-22739368D01*
X715965Y-22725637D01*
X716156Y-22722947D01*
X717187Y-22720459D01*
X718518Y-22706942D01*
X1076810Y-22957746D01*
X1089623Y-22964956D01*
X1118194Y-22971285D01*
X1147012Y-22966200D01*
X1171690Y-22950473D01*
X1188472Y-22926499D01*
X1194802Y-22897928D01*
X1189716Y-22869111D01*
X1173989Y-22844432D01*
X1162829Y-22834861D01*
X718628Y-22523920D01*
X718628Y-22399875D01*
X1119819Y-22399875D01*
X1134451Y-22398434D01*
X1161487Y-22387235D01*
X1182179Y-22366543D01*
X1193378Y-22339507D01*
X1193378Y-22310243D01*
X1182179Y-22283207D01*
X1161487Y-22262515D01*
X1134451Y-22251316D01*
X1119819Y-22249875D01*
X119819Y-22249875D01*
X105187Y-22251316D01*
X78151Y-22262515D01*
X57459Y-22283207D01*
X46260Y-22310243D01*
X44819Y-22324875D01*
X-112470Y-22324875D01*
X-112470Y-21834053D01*
X46260Y-21834053D01*
X46260Y-21863317D01*
X57459Y-21890353D01*
X78151Y-21911045D01*
X105187Y-21922244D01*
X119819Y-21923685D01*
X1119819Y-21923685D01*
X1134451Y-21922244D01*
X1161487Y-21911045D01*
X1182179Y-21890353D01*
X1193378Y-21863317D01*
X1193378Y-21834053D01*
X1182179Y-21807017D01*
X1161487Y-21786325D01*
X1134451Y-21775126D01*
X1119819Y-21773685D01*
X119819Y-21773685D01*
X105187Y-21775126D01*
X78151Y-21786325D01*
X57459Y-21807017D01*
X46260Y-21834053D01*
X-112470Y-21834053D01*
X-112470Y-21134399D01*
X44819Y-21134399D01*
X44819Y-21229637D01*
X45548Y-21237042D01*
X45408Y-21239017D01*
X45998Y-21241614D01*
X46260Y-21244269D01*
X47018Y-21246100D01*
X48668Y-21253354D01*
X96287Y-21396211D01*
X102281Y-21409636D01*
X104046Y-21411671D01*
X105078Y-21414162D01*
X114405Y-21425527D01*
X162024Y-21473146D01*
X173389Y-21482473D01*
X200425Y-21493672D01*
X229688Y-21493672D01*
X256724Y-21482473D01*
X277417Y-21461780D01*
X288616Y-21434744D01*
X288616Y-21405481D01*
X277417Y-21378445D01*
X268090Y-21367080D01*
X232990Y-21331980D01*
X194819Y-21217466D01*
X194819Y-21146569D01*
X232990Y-21032055D01*
X307103Y-20957943D01*
X384090Y-20919449D01*
X557624Y-20876066D01*
X682013Y-20876066D01*
X855547Y-20919449D01*
X932534Y-20957943D01*
X1006648Y-21032056D01*
X1044819Y-21146569D01*
X1044819Y-21217467D01*
X1006648Y-21331979D01*
X971548Y-21367079D01*
X962220Y-21378445D01*
X951021Y-21405481D01*
X951021Y-21434744D01*
X962219Y-21461780D01*
X982912Y-21482473D01*
X1009948Y-21493672D01*
X1039211Y-21493672D01*
X1066247Y-21482474D01*
X1077612Y-21473147D01*
X1125232Y-21425528D01*
X1134560Y-21414162D01*
X1135590Y-21411673D01*
X1137357Y-21409637D01*
X1143351Y-21396211D01*
X1190970Y-21253355D01*
X1192619Y-21246099D01*
X1193378Y-21244269D01*
X1193639Y-21241615D01*
X1194230Y-21239018D01*
X1194089Y-21237043D01*
X1194819Y-21229637D01*
X1194819Y-21134399D01*
X1194089Y-21126992D01*
X1194230Y-21125018D01*
X1193639Y-21122420D01*
X1193378Y-21119767D01*
X1192619Y-21117936D01*
X1190970Y-21110681D01*
X1143351Y-20967825D01*
X1137357Y-20954399D01*
X1135592Y-20952364D01*
X1134561Y-20949874D01*
X1125233Y-20938509D01*
X1029994Y-20843271D01*
X1024244Y-20838552D01*
X1022945Y-20837054D01*
X1020686Y-20835632D01*
X1018628Y-20833943D01*
X1016798Y-20833185D01*
X1010502Y-20829222D01*
X915264Y-20781603D01*
X914194Y-20781193D01*
X913759Y-20780871D01*
X907613Y-20778675D01*
X901532Y-20776348D01*
X900992Y-20776309D01*
X899913Y-20775924D01*
X709437Y-20728305D01*
X706900Y-20727929D01*
X705879Y-20727507D01*
X700366Y-20726964D01*
X694893Y-20726155D01*
X693800Y-20726317D01*
X691247Y-20726066D01*
X548390Y-20726066D01*
X545836Y-20726317D01*
X544744Y-20726155D01*
X539270Y-20726964D01*
X533758Y-20727507D01*
X532736Y-20727929D01*
X530200Y-20728305D01*
X339724Y-20775924D01*
X338644Y-20776309D01*
X338104Y-20776348D01*
X332014Y-20778678D01*
X325878Y-20780871D01*
X325442Y-20781193D01*
X324373Y-20781603D01*
X229135Y-20829222D01*
X222840Y-20833184D01*
X221008Y-20833943D01*
X218946Y-20835634D01*
X216692Y-20837054D01*
X215393Y-20838550D01*
X209643Y-20843271D01*
X114405Y-20938509D01*
X105078Y-20949874D01*
X104046Y-20952364D01*
X102281Y-20954400D01*
X96287Y-20967825D01*
X48668Y-21110682D01*
X47018Y-21117935D01*
X46260Y-21119767D01*
X45998Y-21122421D01*
X45408Y-21125019D01*
X45548Y-21126993D01*
X44819Y-21134399D01*
X-112470Y-21134399D01*
X-112470Y-19610590D01*
X663866Y-19610590D01*
X663866Y-20372495D01*
X665307Y-20387127D01*
X676506Y-20414163D01*
X697198Y-20434855D01*
X724234Y-20446054D01*
X753498Y-20446054D01*
X780534Y-20434855D01*
X801226Y-20414163D01*
X812425Y-20387127D01*
X813866Y-20372495D01*
X813866Y-19610590D01*
X812425Y-19595958D01*
X801226Y-19568922D01*
X780534Y-19548230D01*
X753498Y-19537031D01*
X724234Y-19537031D01*
X697198Y-19548230D01*
X676506Y-19568922D01*
X665307Y-19595958D01*
X663866Y-19610590D01*
X-112470Y-19610590D01*
X-112470Y-19072148D01*
X46260Y-19072148D01*
X46260Y-19101412D01*
X57459Y-19128448D01*
X78151Y-19149140D01*
X105187Y-19160339D01*
X119819Y-19161780D01*
X959256Y-19161780D01*
X1016298Y-19190300D01*
X1052737Y-19263178D01*
X1060569Y-19275621D01*
X1082677Y-19294794D01*
X1110438Y-19304048D01*
X1139628Y-19301974D01*
X1165803Y-19288886D01*
X1184976Y-19266779D01*
X1194230Y-19239017D01*
X1192156Y-19209827D01*
X1186901Y-19196096D01*
X1139282Y-19100858D01*
X1137741Y-19098410D01*
X1137357Y-19097257D01*
X1136111Y-19095820D01*
X1131450Y-19088415D01*
X1124342Y-19082251D01*
X1118183Y-19075149D01*
X1110779Y-19070488D01*
X1109342Y-19069242D01*
X1108187Y-19068857D01*
X1105741Y-19067317D01*
X1010502Y-19019698D01*
X996770Y-19014443D01*
X994082Y-19014252D01*
X991593Y-19013221D01*
X976961Y-19011780D01*
X119819Y-19011780D01*
X105187Y-19013221D01*
X78151Y-19024420D01*
X57459Y-19045112D01*
X46260Y-19072148D01*
X-112470Y-19072148D01*
X-112470Y-18277256D01*
X378152Y-18277256D01*
X378152Y-18467732D01*
X379593Y-18482364D01*
X380624Y-18484853D01*
X380815Y-18487541D01*
X386070Y-18501273D01*
X433689Y-18596511D01*
X435229Y-18598958D01*
X435614Y-18600112D01*
X436859Y-18601548D01*
X441521Y-18608954D01*
X448625Y-18615115D01*
X454787Y-18622220D01*
X462192Y-18626881D01*
X463629Y-18628127D01*
X464782Y-18628511D01*
X467230Y-18630052D01*
X562468Y-18677671D01*
X576199Y-18682926D01*
X578888Y-18683117D01*
X581377Y-18684148D01*
X596009Y-18685589D01*
X1119819Y-18685589D01*
X1134451Y-18684148D01*
X1161487Y-18672949D01*
X1182179Y-18652257D01*
X1193378Y-18625221D01*
X1193378Y-18595957D01*
X1182179Y-18568921D01*
X1178650Y-18565392D01*
X1186901Y-18548892D01*
X1192156Y-18535161D01*
X1192347Y-18532471D01*
X1193378Y-18529983D01*
X1194819Y-18515351D01*
X1194819Y-18277256D01*
X1193378Y-18262624D01*
X1192347Y-18260135D01*
X1192156Y-18257446D01*
X1186901Y-18243715D01*
X1139282Y-18148477D01*
X1137741Y-18146029D01*
X1137357Y-18144876D01*
X1136111Y-18143439D01*
X1131450Y-18136034D01*
X1124342Y-18129870D01*
X1118183Y-18122768D01*
X1110779Y-18118107D01*
X1109342Y-18116861D01*
X1108187Y-18116476D01*
X1105741Y-18114936D01*
X1010502Y-18067317D01*
X996770Y-18062062D01*
X994082Y-18061871D01*
X991593Y-18060840D01*
X976961Y-18059399D01*
X881723Y-18059399D01*
X867091Y-18060840D01*
X864602Y-18061870D01*
X861913Y-18062062D01*
X848182Y-18067317D01*
X752944Y-18114936D01*
X750496Y-18116476D01*
X749343Y-18116861D01*
X747906Y-18118106D01*
X740501Y-18122768D01*
X734339Y-18129872D01*
X727235Y-18136034D01*
X722573Y-18143439D01*
X721328Y-18144876D01*
X720943Y-18146029D01*
X719403Y-18148477D01*
X671784Y-18243715D01*
X666529Y-18257447D01*
X666338Y-18260134D01*
X665307Y-18262624D01*
X663866Y-18277256D01*
X663866Y-18497646D01*
X644895Y-18535589D01*
X613714Y-18535589D01*
X556672Y-18507068D01*
X528152Y-18450027D01*
X528152Y-18294961D01*
X567853Y-18215559D01*
X573108Y-18201828D01*
X575182Y-18172638D01*
X565928Y-18144876D01*
X546755Y-18122769D01*
X520580Y-18109681D01*
X491390Y-18107607D01*
X463629Y-18116861D01*
X441521Y-18136034D01*
X433689Y-18148477D01*
X386070Y-18243715D01*
X380815Y-18257447D01*
X380624Y-18260134D01*
X379593Y-18262624D01*
X378152Y-18277256D01*
X-112470Y-18277256D01*
X-112470Y-17313914D01*
X378957Y-17313914D01*
X380411Y-17343142D01*
X392938Y-17369588D01*
X414632Y-17389227D01*
X427927Y-17395506D01*
X896826Y-17562970D01*
X427927Y-17730434D01*
X414632Y-17736713D01*
X392938Y-17756352D01*
X380411Y-17782798D01*
X378957Y-17812026D01*
X388800Y-17839585D01*
X408439Y-17861279D01*
X434885Y-17873806D01*
X464113Y-17875260D01*
X478377Y-17871696D01*
X1145044Y-17633601D01*
X1158339Y-17627322D01*
X1161130Y-17624794D01*
X1164531Y-17623184D01*
X1171893Y-17615051D01*
X1180033Y-17607683D01*
X1181644Y-17604280D01*
X1184171Y-17601490D01*
X1187862Y-17591152D01*
X1192560Y-17581237D01*
X1192746Y-17577478D01*
X1194014Y-17573931D01*
X1193468Y-17562970D01*
X1194014Y-17552009D01*
X1192746Y-17548461D01*
X1192560Y-17544703D01*
X1187862Y-17534787D01*
X1184171Y-17524450D01*
X1181644Y-17521659D01*
X1180033Y-17518257D01*
X1171893Y-17510888D01*
X1164531Y-17502756D01*
X1161130Y-17501145D01*
X1158339Y-17498618D01*
X1145044Y-17492339D01*
X478377Y-17254244D01*
X464113Y-17250680D01*
X434885Y-17252134D01*
X408439Y-17264661D01*
X388800Y-17286355D01*
X378957Y-17313914D01*
X-112470Y-17313914D01*
X-112470Y-16610589D01*
X378152Y-16610589D01*
X378152Y-16801065D01*
X379593Y-16815697D01*
X380624Y-16818186D01*
X380815Y-16820874D01*
X386070Y-16834606D01*
X433689Y-16929844D01*
X435229Y-16932291D01*
X435614Y-16933445D01*
X436859Y-16934881D01*
X441521Y-16942287D01*
X448625Y-16948448D01*
X454787Y-16955553D01*
X462192Y-16960214D01*
X463629Y-16961460D01*
X464782Y-16961844D01*
X467230Y-16963385D01*
X562468Y-17011004D01*
X576199Y-17016259D01*
X578888Y-17016450D01*
X581377Y-17017481D01*
X596009Y-17018922D01*
X1119819Y-17018922D01*
X1134451Y-17017481D01*
X1161487Y-17006282D01*
X1182179Y-16985590D01*
X1193378Y-16958554D01*
X1193378Y-16929290D01*
X1182179Y-16902254D01*
X1178650Y-16898725D01*
X1186901Y-16882225D01*
X1192156Y-16868494D01*
X1192347Y-16865804D01*
X1193378Y-16863316D01*
X1194819Y-16848684D01*
X1194819Y-16610589D01*
X1193378Y-16595957D01*
X1192347Y-16593468D01*
X1192156Y-16590779D01*
X1186901Y-16577048D01*
X1139282Y-16481810D01*
X1137741Y-16479362D01*
X1137357Y-16478209D01*
X1136111Y-16476772D01*
X1131450Y-16469367D01*
X1124342Y-16463203D01*
X1118183Y-16456101D01*
X1110779Y-16451440D01*
X1109342Y-16450194D01*
X1108187Y-16449809D01*
X1105741Y-16448269D01*
X1010502Y-16400650D01*
X996770Y-16395395D01*
X994082Y-16395204D01*
X991593Y-16394173D01*
X976961Y-16392732D01*
X881723Y-16392732D01*
X867091Y-16394173D01*
X864602Y-16395203D01*
X861913Y-16395395D01*
X848182Y-16400650D01*
X752944Y-16448269D01*
X750496Y-16449809D01*
X749343Y-16450194D01*
X747906Y-16451439D01*
X740501Y-16456101D01*
X734339Y-16463205D01*
X727235Y-16469367D01*
X722573Y-16476772D01*
X721328Y-16478209D01*
X720943Y-16479362D01*
X719403Y-16481810D01*
X671784Y-16577048D01*
X666529Y-16590780D01*
X666338Y-16593467D01*
X665307Y-16595957D01*
X663866Y-16610589D01*
X663866Y-16830979D01*
X644895Y-16868922D01*
X613714Y-16868922D01*
X556672Y-16840401D01*
X528152Y-16783360D01*
X528152Y-16628294D01*
X567853Y-16548892D01*
X573108Y-16535161D01*
X575182Y-16505971D01*
X565928Y-16478209D01*
X546755Y-16456102D01*
X520580Y-16443014D01*
X491390Y-16440940D01*
X463629Y-16450194D01*
X441521Y-16469367D01*
X433689Y-16481810D01*
X386070Y-16577048D01*
X380815Y-16590780D01*
X380624Y-16593467D01*
X379593Y-16595957D01*
X378152Y-16610589D01*
X-112470Y-16610589D01*
X-112470Y-15691195D01*
X46260Y-15691195D01*
X46260Y-15720459D01*
X57459Y-15747495D01*
X78151Y-15768187D01*
X105187Y-15779386D01*
X119819Y-15780827D01*
X1044819Y-15780827D01*
X1044819Y-16182017D01*
X1046260Y-16196649D01*
X1057459Y-16223685D01*
X1078151Y-16244377D01*
X1105187Y-16255576D01*
X1134451Y-16255576D01*
X1161487Y-16244377D01*
X1182179Y-16223685D01*
X1193378Y-16196649D01*
X1194819Y-16182017D01*
X1194819Y-15705827D01*
X1193378Y-15691195D01*
X1182179Y-15664159D01*
X1161487Y-15643467D01*
X1134451Y-15632268D01*
X1119819Y-15630827D01*
X119819Y-15630827D01*
X105187Y-15632268D01*
X78151Y-15643467D01*
X57459Y-15664159D01*
X46260Y-15691195D01*
X-112470Y-15691195D01*
X-112470Y-14643576D01*
X46260Y-14643576D01*
X46260Y-14672840D01*
X57459Y-14699876D01*
X78151Y-14720568D01*
X105187Y-14731767D01*
X119819Y-14733208D01*
X911637Y-14733208D01*
X980153Y-14767466D01*
X1010561Y-14797873D01*
X1044819Y-14866389D01*
X1044819Y-15021455D01*
X1010561Y-15089970D01*
X980153Y-15120377D01*
X911637Y-15154636D01*
X119819Y-15154636D01*
X105187Y-15156077D01*
X78151Y-15167276D01*
X57459Y-15187968D01*
X46260Y-15215004D01*
X46260Y-15244268D01*
X57459Y-15271304D01*
X78151Y-15291996D01*
X105187Y-15303195D01*
X119819Y-15304636D01*
X929342Y-15304636D01*
X943974Y-15303195D01*
X946463Y-15302163D01*
X949151Y-15301973D01*
X962883Y-15296718D01*
X1058121Y-15249099D01*
X1064417Y-15245135D01*
X1066247Y-15244378D01*
X1068305Y-15242688D01*
X1070564Y-15241267D01*
X1071863Y-15239768D01*
X1077612Y-15235051D01*
X1125232Y-15187432D01*
X1129950Y-15181682D01*
X1131450Y-15180382D01*
X1132872Y-15178122D01*
X1134560Y-15176066D01*
X1135317Y-15174238D01*
X1139282Y-15167939D01*
X1186901Y-15072701D01*
X1192156Y-15058970D01*
X1192347Y-15056280D01*
X1193378Y-15053792D01*
X1194819Y-15039160D01*
X1194819Y-14848684D01*
X1193378Y-14834052D01*
X1192347Y-14831563D01*
X1192156Y-14828874D01*
X1186901Y-14815143D01*
X1139282Y-14719905D01*
X1135317Y-14713605D01*
X1134560Y-14711778D01*
X1132872Y-14709721D01*
X1131450Y-14707462D01*
X1129950Y-14706161D01*
X1125232Y-14700412D01*
X1077612Y-14652793D01*
X1071863Y-14648075D01*
X1070564Y-14646577D01*
X1068305Y-14645155D01*
X1066247Y-14643466D01*
X1064417Y-14642708D01*
X1058121Y-14638745D01*
X962883Y-14591126D01*
X949151Y-14585871D01*
X946463Y-14585680D01*
X943974Y-14584649D01*
X929342Y-14583208D01*
X119819Y-14583208D01*
X105187Y-14584649D01*
X78151Y-14595848D01*
X57459Y-14616540D01*
X46260Y-14643576D01*
X-112470Y-14643576D01*
X-112470Y-13420113D01*
X663866Y-13420113D01*
X663866Y-14182018D01*
X665307Y-14196650D01*
X676506Y-14223686D01*
X697198Y-14244378D01*
X724234Y-14255577D01*
X753498Y-14255577D01*
X780534Y-14244378D01*
X801226Y-14223686D01*
X812425Y-14196650D01*
X813866Y-14182018D01*
X813866Y-13420113D01*
X812425Y-13405481D01*
X801226Y-13378445D01*
X780534Y-13357753D01*
X753498Y-13346554D01*
X724234Y-13346554D01*
X697198Y-13357753D01*
X676506Y-13378445D01*
X665307Y-13405481D01*
X663866Y-13420113D01*
X-112470Y-13420113D01*
X-112470Y-12834052D01*
X46260Y-12834052D01*
X46260Y-12863316D01*
X57459Y-12890352D01*
X78151Y-12911044D01*
X105187Y-12922243D01*
X119819Y-12923684D01*
X378152Y-12923684D01*
X378152Y-13086779D01*
X379593Y-13101411D01*
X390792Y-13128447D01*
X411484Y-13149139D01*
X438520Y-13160338D01*
X467784Y-13160338D01*
X494820Y-13149139D01*
X515512Y-13128447D01*
X526711Y-13101411D01*
X528152Y-13086779D01*
X528152Y-12923684D01*
X959256Y-12923684D01*
X1016298Y-12952204D01*
X1044819Y-13009246D01*
X1044819Y-13086779D01*
X1046260Y-13101411D01*
X1057459Y-13128447D01*
X1078151Y-13149139D01*
X1105187Y-13160338D01*
X1134451Y-13160338D01*
X1161487Y-13149139D01*
X1182179Y-13128447D01*
X1193378Y-13101411D01*
X1194819Y-13086779D01*
X1194819Y-12991541D01*
X1193378Y-12976909D01*
X1192347Y-12974420D01*
X1192156Y-12971731D01*
X1186901Y-12958000D01*
X1139282Y-12862762D01*
X1137741Y-12860314D01*
X1137357Y-12859161D01*
X1136111Y-12857724D01*
X1131450Y-12850319D01*
X1124342Y-12844155D01*
X1118183Y-12837053D01*
X1110779Y-12832392D01*
X1109342Y-12831146D01*
X1108187Y-12830761D01*
X1105741Y-12829221D01*
X1010502Y-12781602D01*
X996770Y-12776347D01*
X994082Y-12776156D01*
X991593Y-12775125D01*
X976961Y-12773684D01*
X528152Y-12773684D01*
X528152Y-12705827D01*
X526711Y-12691195D01*
X515512Y-12664159D01*
X494820Y-12643467D01*
X467784Y-12632268D01*
X438520Y-12632268D01*
X411484Y-12643467D01*
X390792Y-12664159D01*
X379593Y-12691195D01*
X378152Y-12705827D01*
X378152Y-12773684D01*
X119819Y-12773684D01*
X105187Y-12775125D01*
X78151Y-12786324D01*
X57459Y-12807016D01*
X46260Y-12834052D01*
X-112470Y-12834052D01*
X-112470Y-12039160D01*
X378152Y-12039160D01*
X378152Y-12229636D01*
X379593Y-12244268D01*
X380624Y-12246757D01*
X380815Y-12249445D01*
X386070Y-12263177D01*
X433689Y-12358415D01*
X437653Y-12364714D01*
X438411Y-12366542D01*
X440099Y-12368598D01*
X441521Y-12370858D01*
X443019Y-12372157D01*
X447738Y-12377907D01*
X495357Y-12425526D01*
X501106Y-12430244D01*
X502406Y-12431743D01*
X504665Y-12433164D01*
X506722Y-12434853D01*
X508549Y-12435610D01*
X514849Y-12439575D01*
X610087Y-12487194D01*
X623818Y-12492449D01*
X626507Y-12492640D01*
X628996Y-12493671D01*
X643628Y-12495112D01*
X929342Y-12495112D01*
X943974Y-12493671D01*
X946463Y-12492639D01*
X949151Y-12492449D01*
X962883Y-12487194D01*
X1058121Y-12439575D01*
X1064417Y-12435611D01*
X1066247Y-12434854D01*
X1068305Y-12433164D01*
X1070564Y-12431743D01*
X1071863Y-12430244D01*
X1077612Y-12425527D01*
X1125232Y-12377908D01*
X1129950Y-12372158D01*
X1131450Y-12370858D01*
X1132872Y-12368598D01*
X1134560Y-12366542D01*
X1135317Y-12364714D01*
X1139282Y-12358415D01*
X1186901Y-12263177D01*
X1192156Y-12249446D01*
X1192347Y-12246756D01*
X1193378Y-12244268D01*
X1194819Y-12229636D01*
X1194819Y-12039160D01*
X1193378Y-12024528D01*
X1192347Y-12022039D01*
X1192156Y-12019350D01*
X1191992Y-12018922D01*
X1453152Y-12018922D01*
X1467784Y-12017481D01*
X1494820Y-12006282D01*
X1515512Y-11985590D01*
X1526711Y-11958554D01*
X1526711Y-11929290D01*
X1515512Y-11902254D01*
X1494820Y-11881562D01*
X1467784Y-11870363D01*
X1453152Y-11868922D01*
X453152Y-11868922D01*
X438520Y-11870363D01*
X411484Y-11881562D01*
X390792Y-11902254D01*
X379593Y-11929290D01*
X379593Y-11958554D01*
X390792Y-11985590D01*
X394320Y-11989118D01*
X386070Y-12005619D01*
X380815Y-12019351D01*
X380624Y-12022038D01*
X379593Y-12024528D01*
X378152Y-12039160D01*
X-112470Y-12039160D01*
X-112470Y-11134398D01*
X378152Y-11134398D01*
X378152Y-11324874D01*
X379593Y-11339506D01*
X380624Y-11341995D01*
X380815Y-11344683D01*
X386070Y-11358415D01*
X433689Y-11453653D01*
X435229Y-11456100D01*
X435614Y-11457254D01*
X436859Y-11458690D01*
X441521Y-11466096D01*
X448625Y-11472257D01*
X454787Y-11479362D01*
X462192Y-11484023D01*
X463629Y-11485269D01*
X464782Y-11485653D01*
X467230Y-11487194D01*
X562468Y-11534813D01*
X576199Y-11540068D01*
X578888Y-11540259D01*
X581377Y-11541290D01*
X596009Y-11542731D01*
X1119819Y-11542731D01*
X1134451Y-11541290D01*
X1161487Y-11530091D01*
X1182179Y-11509399D01*
X1193378Y-11482363D01*
X1193378Y-11453099D01*
X1182179Y-11426063D01*
X1178650Y-11422534D01*
X1186901Y-11406034D01*
X1192156Y-11392303D01*
X1192347Y-11389613D01*
X1193378Y-11387125D01*
X1194819Y-11372493D01*
X1194819Y-11134398D01*
X1193378Y-11119766D01*
X1192347Y-11117277D01*
X1192156Y-11114588D01*
X1186901Y-11100857D01*
X1139282Y-11005619D01*
X1137741Y-11003171D01*
X1137357Y-11002018D01*
X1136111Y-11000581D01*
X1131450Y-10993176D01*
X1124342Y-10987012D01*
X1118183Y-10979910D01*
X1110779Y-10975249D01*
X1109342Y-10974003D01*
X1108187Y-10973618D01*
X1105741Y-10972078D01*
X1010502Y-10924459D01*
X996770Y-10919204D01*
X994082Y-10919013D01*
X991593Y-10917982D01*
X976961Y-10916541D01*
X881723Y-10916541D01*
X867091Y-10917982D01*
X864602Y-10919012D01*
X861913Y-10919204D01*
X848182Y-10924459D01*
X752944Y-10972078D01*
X750496Y-10973618D01*
X749343Y-10974003D01*
X747906Y-10975248D01*
X740501Y-10979910D01*
X734339Y-10987014D01*
X727235Y-10993176D01*
X722573Y-11000581D01*
X721328Y-11002018D01*
X720943Y-11003171D01*
X719403Y-11005619D01*
X671784Y-11100857D01*
X666529Y-11114589D01*
X666338Y-11117276D01*
X665307Y-11119766D01*
X663866Y-11134398D01*
X663866Y-11354788D01*
X644895Y-11392731D01*
X613714Y-11392731D01*
X556672Y-11364210D01*
X528152Y-11307169D01*
X528152Y-11152103D01*
X567853Y-11072701D01*
X573108Y-11058970D01*
X575182Y-11029780D01*
X565928Y-11002018D01*
X546755Y-10979911D01*
X520580Y-10966823D01*
X491390Y-10964749D01*
X463629Y-10974003D01*
X441521Y-10993176D01*
X433689Y-11005619D01*
X386070Y-11100857D01*
X380815Y-11114589D01*
X380624Y-11117276D01*
X379593Y-11119766D01*
X378152Y-11134398D01*
X-112470Y-11134398D01*
X-112470Y-10548337D01*
X46260Y-10548337D01*
X46260Y-10577601D01*
X57459Y-10604637D01*
X78151Y-10625329D01*
X105187Y-10636528D01*
X119819Y-10637969D01*
X1119819Y-10637969D01*
X1134451Y-10636528D01*
X1161487Y-10625329D01*
X1182179Y-10604637D01*
X1193378Y-10577601D01*
X1193378Y-10548337D01*
X1182179Y-10521301D01*
X1178650Y-10517772D01*
X1186901Y-10501272D01*
X1192156Y-10487541D01*
X1192347Y-10484851D01*
X1193378Y-10482363D01*
X1194819Y-10467731D01*
X1194819Y-10277255D01*
X1193378Y-10262623D01*
X1192347Y-10260134D01*
X1192156Y-10257445D01*
X1186901Y-10243714D01*
X1139282Y-10148476D01*
X1135317Y-10142176D01*
X1134560Y-10140349D01*
X1132872Y-10138292D01*
X1131450Y-10136033D01*
X1129950Y-10134732D01*
X1125232Y-10128983D01*
X1077612Y-10081364D01*
X1071863Y-10076646D01*
X1070564Y-10075148D01*
X1068305Y-10073726D01*
X1066247Y-10072037D01*
X1064417Y-10071279D01*
X1058121Y-10067316D01*
X962883Y-10019697D01*
X949151Y-10014442D01*
X946463Y-10014251D01*
X943974Y-10013220D01*
X929342Y-10011779D01*
X643628Y-10011779D01*
X628996Y-10013220D01*
X626507Y-10014250D01*
X623818Y-10014442D01*
X610087Y-10019697D01*
X514849Y-10067316D01*
X508549Y-10071280D01*
X506722Y-10072038D01*
X504665Y-10073726D01*
X502406Y-10075148D01*
X501106Y-10076646D01*
X495357Y-10081365D01*
X447738Y-10128984D01*
X443019Y-10134733D01*
X441521Y-10136033D01*
X440099Y-10138292D01*
X438411Y-10140349D01*
X437653Y-10142176D01*
X433689Y-10148476D01*
X386070Y-10243714D01*
X380815Y-10257446D01*
X380624Y-10260133D01*
X379593Y-10262623D01*
X378152Y-10277255D01*
X378152Y-10467731D01*
X379593Y-10482363D01*
X380624Y-10484852D01*
X380815Y-10487540D01*
X380979Y-10487969D01*
X119819Y-10487969D01*
X105187Y-10489410D01*
X78151Y-10500609D01*
X57459Y-10521301D01*
X46260Y-10548337D01*
X-112470Y-10548337D01*
X-112470Y-9324874D01*
X378152Y-9324874D01*
X378152Y-9515350D01*
X379593Y-9529982D01*
X380624Y-9532471D01*
X380815Y-9535159D01*
X386070Y-9548891D01*
X433689Y-9644129D01*
X435229Y-9646576D01*
X435614Y-9647730D01*
X436859Y-9649166D01*
X441521Y-9656572D01*
X448625Y-9662733D01*
X454787Y-9669838D01*
X462192Y-9674499D01*
X463629Y-9675745D01*
X464782Y-9676129D01*
X467230Y-9677670D01*
X562468Y-9725289D01*
X576199Y-9730544D01*
X578888Y-9730735D01*
X581377Y-9731766D01*
X596009Y-9733207D01*
X1119819Y-9733207D01*
X1134451Y-9731766D01*
X1161487Y-9720567D01*
X1182179Y-9699875D01*
X1193378Y-9672839D01*
X1193378Y-9643575D01*
X1182179Y-9616539D01*
X1178650Y-9613010D01*
X1186901Y-9596510D01*
X1192156Y-9582779D01*
X1192347Y-9580089D01*
X1193378Y-9577601D01*
X1194819Y-9562969D01*
X1194819Y-9324874D01*
X1193378Y-9310242D01*
X1192347Y-9307753D01*
X1192156Y-9305064D01*
X1186901Y-9291333D01*
X1139282Y-9196095D01*
X1137741Y-9193647D01*
X1137357Y-9192494D01*
X1136111Y-9191057D01*
X1131450Y-9183652D01*
X1124342Y-9177488D01*
X1118183Y-9170386D01*
X1110779Y-9165725D01*
X1109342Y-9164479D01*
X1108187Y-9164094D01*
X1105741Y-9162554D01*
X1010502Y-9114935D01*
X996770Y-9109680D01*
X994082Y-9109489D01*
X991593Y-9108458D01*
X976961Y-9107017D01*
X881723Y-9107017D01*
X867091Y-9108458D01*
X864602Y-9109488D01*
X861913Y-9109680D01*
X848182Y-9114935D01*
X752944Y-9162554D01*
X750496Y-9164094D01*
X749343Y-9164479D01*
X747906Y-9165724D01*
X740501Y-9170386D01*
X734339Y-9177490D01*
X727235Y-9183652D01*
X722573Y-9191057D01*
X721328Y-9192494D01*
X720943Y-9193647D01*
X719403Y-9196095D01*
X671784Y-9291333D01*
X666529Y-9305065D01*
X666338Y-9307752D01*
X665307Y-9310242D01*
X663866Y-9324874D01*
X663866Y-9545264D01*
X644895Y-9583207D01*
X613714Y-9583207D01*
X556672Y-9554686D01*
X528152Y-9497645D01*
X528152Y-9342579D01*
X567853Y-9263177D01*
X573108Y-9249446D01*
X575182Y-9220256D01*
X565928Y-9192494D01*
X546755Y-9170387D01*
X520580Y-9157299D01*
X491390Y-9155225D01*
X463629Y-9164479D01*
X441521Y-9183652D01*
X433689Y-9196095D01*
X386070Y-9291333D01*
X380815Y-9305065D01*
X380624Y-9307752D01*
X379593Y-9310242D01*
X378152Y-9324874D01*
X-112470Y-9324874D01*
X-112470Y-8643576D01*
X-1359Y-8643576D01*
X-1359Y-8672838D01*
X9840Y-8699875D01*
X30532Y-8720567D01*
X57569Y-8731766D01*
X86831Y-8731766D01*
X113868Y-8720567D01*
X125233Y-8711240D01*
X268090Y-8568383D01*
X277417Y-8557018D01*
X288616Y-8529982D01*
X288616Y-8500719D01*
X277417Y-8473683D01*
X271465Y-8467731D01*
X378152Y-8467731D01*
X378152Y-8658207D01*
X379593Y-8672839D01*
X380624Y-8675328D01*
X380815Y-8678016D01*
X386070Y-8691748D01*
X433689Y-8786986D01*
X435229Y-8789433D01*
X435614Y-8790587D01*
X436859Y-8792023D01*
X441521Y-8799429D01*
X448625Y-8805590D01*
X454787Y-8812695D01*
X462192Y-8817356D01*
X463629Y-8818602D01*
X464782Y-8818986D01*
X467230Y-8820527D01*
X562468Y-8868146D01*
X576199Y-8873401D01*
X578888Y-8873592D01*
X581377Y-8874623D01*
X596009Y-8876064D01*
X691169Y-8876064D01*
X691247Y-8876064D01*
X705879Y-8874623D01*
X712667Y-8871811D01*
X719876Y-8870385D01*
X726055Y-8866265D01*
X732915Y-8863424D01*
X738110Y-8858229D01*
X744224Y-8854153D01*
X748356Y-8847982D01*
X753607Y-8842732D01*
X756418Y-8835943D01*
X760508Y-8829838D01*
X764791Y-8815773D01*
X847970Y-8399874D01*
X959256Y-8399874D01*
X1016298Y-8428394D01*
X1044819Y-8485436D01*
X1044819Y-8640502D01*
X1005118Y-8719904D01*
X999863Y-8733636D01*
X997789Y-8762826D01*
X1007043Y-8790587D01*
X1026216Y-8812695D01*
X1052391Y-8825782D01*
X1081581Y-8827856D01*
X1109342Y-8818602D01*
X1131450Y-8799429D01*
X1139282Y-8786986D01*
X1186901Y-8691748D01*
X1192156Y-8678017D01*
X1192347Y-8675327D01*
X1193378Y-8672839D01*
X1194819Y-8658207D01*
X1194819Y-8467731D01*
X1193378Y-8453099D01*
X1192347Y-8450610D01*
X1192156Y-8447921D01*
X1186901Y-8434190D01*
X1139282Y-8338952D01*
X1137741Y-8336504D01*
X1137357Y-8335351D01*
X1136111Y-8333914D01*
X1131450Y-8326509D01*
X1124342Y-8320345D01*
X1118183Y-8313243D01*
X1110779Y-8308582D01*
X1109342Y-8307336D01*
X1108187Y-8306951D01*
X1105741Y-8305411D01*
X1010502Y-8257792D01*
X996770Y-8252537D01*
X994082Y-8252346D01*
X991593Y-8251315D01*
X976961Y-8249874D01*
X596009Y-8249874D01*
X581377Y-8251315D01*
X578888Y-8252345D01*
X576199Y-8252537D01*
X562468Y-8257792D01*
X467230Y-8305411D01*
X464782Y-8306951D01*
X463629Y-8307336D01*
X462192Y-8308581D01*
X454787Y-8313243D01*
X448625Y-8320347D01*
X441521Y-8326509D01*
X436859Y-8333914D01*
X435614Y-8335351D01*
X435229Y-8336504D01*
X433689Y-8338952D01*
X386070Y-8434190D01*
X380815Y-8447922D01*
X380624Y-8450609D01*
X379593Y-8453099D01*
X378152Y-8467731D01*
X271465Y-8467731D01*
X256724Y-8452990D01*
X229688Y-8441791D01*
X200425Y-8441791D01*
X173389Y-8452990D01*
X162024Y-8462317D01*
X19167Y-8605174D01*
X9840Y-8616539D01*
X-1359Y-8643576D01*
X-112470Y-8643576D01*
X-112470Y-7372493D01*
X44819Y-7372493D01*
X44819Y-7753445D01*
X46260Y-7768077D01*
X47291Y-7770566D01*
X47482Y-7773254D01*
X52737Y-7786986D01*
X100356Y-7882224D01*
X104320Y-7888523D01*
X105078Y-7890351D01*
X106766Y-7892407D01*
X108188Y-7894667D01*
X109686Y-7895966D01*
X114405Y-7901716D01*
X162024Y-7949335D01*
X167773Y-7954053D01*
X169073Y-7955552D01*
X171332Y-7956973D01*
X173389Y-7958662D01*
X175216Y-7959419D01*
X181516Y-7963384D01*
X276754Y-8011003D01*
X290485Y-8016258D01*
X293174Y-8016449D01*
X295663Y-8017480D01*
X310295Y-8018921D01*
X453152Y-8018921D01*
X467784Y-8017480D01*
X470273Y-8016448D01*
X472961Y-8016258D01*
X486693Y-8011003D01*
X581931Y-7963384D01*
X588230Y-7959419D01*
X590058Y-7958662D01*
X592114Y-7956973D01*
X594374Y-7955552D01*
X595673Y-7954053D01*
X601423Y-7949335D01*
X649042Y-7901716D01*
X653760Y-7895966D01*
X655259Y-7894667D01*
X656680Y-7892407D01*
X658369Y-7890351D01*
X659126Y-7888523D01*
X663091Y-7882224D01*
X710710Y-7786986D01*
X715965Y-7773255D01*
X716156Y-7770565D01*
X717187Y-7768077D01*
X718518Y-7754560D01*
X1076810Y-8005364D01*
X1089623Y-8012574D01*
X1118194Y-8018903D01*
X1147012Y-8013818D01*
X1171690Y-7998091D01*
X1188472Y-7974117D01*
X1194802Y-7945546D01*
X1189716Y-7916729D01*
X1173989Y-7892050D01*
X1162829Y-7882479D01*
X718628Y-7571538D01*
X718628Y-7447493D01*
X1119819Y-7447493D01*
X1134451Y-7446052D01*
X1161487Y-7434853D01*
X1182179Y-7414161D01*
X1193378Y-7387125D01*
X1193378Y-7357861D01*
X1182179Y-7330825D01*
X1161487Y-7310133D01*
X1134451Y-7298934D01*
X1119819Y-7297493D01*
X119819Y-7297493D01*
X105187Y-7298934D01*
X78151Y-7310133D01*
X57459Y-7330825D01*
X46260Y-7357861D01*
X44819Y-7372493D01*
X-112470Y-7372493D01*
X-112470Y-6610588D01*
X378152Y-6610588D01*
X378152Y-6801064D01*
X379593Y-6815696D01*
X380624Y-6818185D01*
X380815Y-6820873D01*
X386070Y-6834605D01*
X394320Y-6851105D01*
X390792Y-6854634D01*
X379593Y-6881670D01*
X379593Y-6910934D01*
X390792Y-6937970D01*
X411484Y-6958662D01*
X438520Y-6969861D01*
X453152Y-6971302D01*
X1262676Y-6971302D01*
X1277308Y-6969861D01*
X1279797Y-6968829D01*
X1282485Y-6968639D01*
X1296217Y-6963384D01*
X1391455Y-6915765D01*
X1397754Y-6911800D01*
X1399582Y-6911043D01*
X1401638Y-6909354D01*
X1403898Y-6907933D01*
X1405197Y-6906434D01*
X1410947Y-6901716D01*
X1458566Y-6854097D01*
X1463284Y-6848347D01*
X1464783Y-6847048D01*
X1466204Y-6844788D01*
X1467893Y-6842732D01*
X1468650Y-6840904D01*
X1472615Y-6834605D01*
X1520234Y-6739367D01*
X1525489Y-6725636D01*
X1525680Y-6722946D01*
X1526711Y-6720458D01*
X1528152Y-6705826D01*
X1528152Y-6562969D01*
X1526711Y-6548337D01*
X1525680Y-6545848D01*
X1525489Y-6543159D01*
X1520234Y-6529428D01*
X1472615Y-6434190D01*
X1464783Y-6421747D01*
X1442675Y-6402574D01*
X1414914Y-6393320D01*
X1385724Y-6395394D01*
X1359549Y-6408481D01*
X1340376Y-6430589D01*
X1331122Y-6458350D01*
X1333196Y-6487540D01*
X1338451Y-6501272D01*
X1378152Y-6580674D01*
X1378152Y-6688121D01*
X1343894Y-6756637D01*
X1313487Y-6787044D01*
X1244971Y-6821302D01*
X1191992Y-6821302D01*
X1192156Y-6820874D01*
X1192347Y-6818184D01*
X1193378Y-6815696D01*
X1194819Y-6801064D01*
X1194819Y-6610588D01*
X1193378Y-6595956D01*
X1192347Y-6593467D01*
X1192156Y-6590778D01*
X1186901Y-6577047D01*
X1139282Y-6481809D01*
X1135317Y-6475509D01*
X1134560Y-6473682D01*
X1132872Y-6471625D01*
X1131450Y-6469366D01*
X1129950Y-6468065D01*
X1125232Y-6462316D01*
X1077612Y-6414697D01*
X1071863Y-6409979D01*
X1070564Y-6408481D01*
X1068305Y-6407059D01*
X1066247Y-6405370D01*
X1064417Y-6404612D01*
X1058121Y-6400649D01*
X962883Y-6353030D01*
X949151Y-6347775D01*
X946463Y-6347584D01*
X943974Y-6346553D01*
X929342Y-6345112D01*
X643628Y-6345112D01*
X628996Y-6346553D01*
X626507Y-6347583D01*
X623818Y-6347775D01*
X610087Y-6353030D01*
X514849Y-6400649D01*
X508549Y-6404613D01*
X506722Y-6405371D01*
X504665Y-6407059D01*
X502406Y-6408481D01*
X501106Y-6409979D01*
X495357Y-6414698D01*
X447738Y-6462317D01*
X443019Y-6468066D01*
X441521Y-6469366D01*
X440099Y-6471625D01*
X438411Y-6473682D01*
X437653Y-6475509D01*
X433689Y-6481809D01*
X386070Y-6577047D01*
X380815Y-6590779D01*
X380624Y-6593466D01*
X379593Y-6595956D01*
X378152Y-6610588D01*
X-112470Y-6610588D01*
X-112470Y-5705826D01*
X378152Y-5705826D01*
X378152Y-5848683D01*
X379593Y-5863315D01*
X380624Y-5865804D01*
X380815Y-5868492D01*
X386070Y-5882224D01*
X433689Y-5977462D01*
X435229Y-5979909D01*
X435614Y-5981063D01*
X436859Y-5982499D01*
X441521Y-5989905D01*
X448625Y-5996066D01*
X454787Y-6003171D01*
X462192Y-6007832D01*
X463629Y-6009078D01*
X464782Y-6009462D01*
X467230Y-6011003D01*
X562468Y-6058622D01*
X576199Y-6063877D01*
X578888Y-6064068D01*
X581377Y-6065099D01*
X596009Y-6066540D01*
X1119819Y-6066540D01*
X1134451Y-6065099D01*
X1161487Y-6053900D01*
X1182179Y-6033208D01*
X1193378Y-6006172D01*
X1193378Y-5976908D01*
X1182179Y-5949872D01*
X1161487Y-5929180D01*
X1134451Y-5917981D01*
X1119819Y-5916540D01*
X613714Y-5916540D01*
X556672Y-5888019D01*
X528152Y-5830978D01*
X528152Y-5723531D01*
X562410Y-5655015D01*
X579456Y-5637969D01*
X1119819Y-5637969D01*
X1134451Y-5636528D01*
X1161487Y-5625329D01*
X1182179Y-5604637D01*
X1193378Y-5577601D01*
X1193378Y-5548337D01*
X1182179Y-5521301D01*
X1161487Y-5500609D01*
X1134451Y-5489410D01*
X1119819Y-5487969D01*
X453152Y-5487969D01*
X438520Y-5489410D01*
X411484Y-5500609D01*
X390792Y-5521301D01*
X379593Y-5548337D01*
X379593Y-5577601D01*
X390792Y-5604637D01*
X410193Y-5624038D01*
X386070Y-5672285D01*
X380815Y-5686017D01*
X380624Y-5688704D01*
X379593Y-5691194D01*
X378152Y-5705826D01*
X-112470Y-5705826D01*
X-112470Y-5072147D01*
X46260Y-5072147D01*
X46260Y-5101411D01*
X57459Y-5128447D01*
X78151Y-5149139D01*
X105187Y-5160338D01*
X119819Y-5161779D01*
X1119819Y-5161779D01*
X1134451Y-5160338D01*
X1161487Y-5149139D01*
X1182179Y-5128447D01*
X1193378Y-5101411D01*
X1193378Y-5072147D01*
X1182179Y-5045111D01*
X1161487Y-5024419D01*
X1134451Y-5013220D01*
X1119819Y-5011779D01*
X119819Y-5011779D01*
X105187Y-5013220D01*
X78151Y-5024419D01*
X57459Y-5045111D01*
X46260Y-5072147D01*
X-112470Y-5072147D01*
X-112470Y-4900668D01*
X1639263Y-4900668D01*
X1639263Y-25510985D01*
G37*
G36*
X33396600Y-32555930D02*
G01*
X28358651Y-32555930D01*
X28358651Y-31379199D01*
X28469762Y-31379199D01*
X28473022Y-31393536D01*
X28806355Y-32393536D01*
X28812349Y-32406961D01*
X28815859Y-32411008D01*
X28818256Y-32415802D01*
X28825364Y-32421967D01*
X28831523Y-32429068D01*
X28836312Y-32431462D01*
X28840363Y-32434976D01*
X28849288Y-32437950D01*
X28857696Y-32442155D01*
X28863040Y-32442534D01*
X28868126Y-32444230D01*
X28877506Y-32443563D01*
X28886886Y-32444230D01*
X28891971Y-32442534D01*
X28897316Y-32442155D01*
X28905726Y-32437949D01*
X28914648Y-32434976D01*
X28918695Y-32431465D01*
X28923489Y-32429069D01*
X28929652Y-32421963D01*
X28936756Y-32415802D01*
X28939151Y-32411010D01*
X28942663Y-32406962D01*
X28948657Y-32393536D01*
X29226404Y-31560295D01*
X29421554Y-31560295D01*
X29421554Y-31655533D01*
X29422283Y-31662938D01*
X29422143Y-31664913D01*
X29422733Y-31667510D01*
X29422995Y-31670165D01*
X29423753Y-31671996D01*
X29425403Y-31679250D01*
X29473022Y-31822107D01*
X29479016Y-31835532D01*
X29480781Y-31837567D01*
X29481813Y-31840058D01*
X29491140Y-31851423D01*
X29934535Y-32294819D01*
X29496554Y-32294819D01*
X29481922Y-32296260D01*
X29454886Y-32307459D01*
X29434194Y-32328151D01*
X29422995Y-32355187D01*
X29422995Y-32384451D01*
X29434194Y-32411487D01*
X29454886Y-32432179D01*
X29481922Y-32443378D01*
X29496554Y-32444819D01*
X30115601Y-32444819D01*
X30130233Y-32443378D01*
X30138151Y-32440098D01*
X30157269Y-32432180D01*
X30177961Y-32411487D01*
X30189160Y-32384451D01*
X30189160Y-32355188D01*
X30189160Y-32355187D01*
X30375376Y-32355187D01*
X30375376Y-32384451D01*
X30386575Y-32411487D01*
X30407267Y-32432179D01*
X30434303Y-32443378D01*
X30448935Y-32444819D01*
X31020363Y-32444819D01*
X31034995Y-32443378D01*
X31062031Y-32432179D01*
X31082723Y-32411487D01*
X31093922Y-32384451D01*
X31093922Y-32355187D01*
X31082723Y-32328151D01*
X31062031Y-32307459D01*
X31034995Y-32296260D01*
X31020363Y-32294819D01*
X30809649Y-32294819D01*
X30809649Y-31974234D01*
X31375376Y-31974234D01*
X31375376Y-32003498D01*
X31386575Y-32030534D01*
X31407267Y-32051226D01*
X31434303Y-32062425D01*
X31448935Y-32063866D01*
X32210839Y-32063866D01*
X32225471Y-32062425D01*
X32252507Y-32051226D01*
X32273199Y-32030534D01*
X32284398Y-32003498D01*
X32284398Y-31974234D01*
X32273199Y-31947198D01*
X32267248Y-31941247D01*
X32564411Y-31941247D01*
X32564411Y-32179342D01*
X32565852Y-32193974D01*
X32566883Y-32196463D01*
X32567074Y-32199151D01*
X32572329Y-32212883D01*
X32619948Y-32308121D01*
X32623911Y-32314417D01*
X32624669Y-32316247D01*
X32626358Y-32318305D01*
X32627780Y-32320564D01*
X32629278Y-32321863D01*
X32633996Y-32327612D01*
X32681615Y-32375232D01*
X32687364Y-32379950D01*
X32688665Y-32381450D01*
X32690924Y-32382872D01*
X32692981Y-32384560D01*
X32694808Y-32385317D01*
X32701108Y-32389282D01*
X32796346Y-32436901D01*
X32810077Y-32442156D01*
X32812766Y-32442347D01*
X32815255Y-32443378D01*
X32829887Y-32444819D01*
X33067982Y-32444819D01*
X33082614Y-32443378D01*
X33085103Y-32442346D01*
X33087791Y-32442156D01*
X33101523Y-32436901D01*
X33196761Y-32389282D01*
X33203060Y-32385317D01*
X33204888Y-32384560D01*
X33206944Y-32382872D01*
X33209204Y-32381450D01*
X33210504Y-32379950D01*
X33216254Y-32375232D01*
X33263872Y-32327613D01*
X33273200Y-32316247D01*
X33284398Y-32289211D01*
X33284398Y-32259948D01*
X33273199Y-32232912D01*
X33252506Y-32212219D01*
X33225470Y-32201021D01*
X33196207Y-32201021D01*
X33169171Y-32212220D01*
X33157805Y-32221548D01*
X33118792Y-32260561D01*
X33050277Y-32294819D01*
X32847592Y-32294819D01*
X32779076Y-32260561D01*
X32748669Y-32230153D01*
X32714411Y-32161637D01*
X32714411Y-31958952D01*
X32748669Y-31890436D01*
X32779076Y-31860029D01*
X32847592Y-31825771D01*
X33050277Y-31825771D01*
X33118793Y-31860029D01*
X33157806Y-31899042D01*
X33169171Y-31908369D01*
X33172659Y-31909814D01*
X33175583Y-31912206D01*
X33186080Y-31915373D01*
X33196207Y-31919568D01*
X33199983Y-31919568D01*
X33203599Y-31920659D01*
X33214509Y-31919568D01*
X33225470Y-31919568D01*
X33228958Y-31918122D01*
X33232718Y-31917747D01*
X33242381Y-31912562D01*
X33252506Y-31908369D01*
X33255176Y-31905698D01*
X33258505Y-31903913D01*
X33265450Y-31895424D01*
X33273199Y-31887676D01*
X33274643Y-31884189D01*
X33277036Y-31881265D01*
X33280204Y-31870764D01*
X33284398Y-31860640D01*
X33284398Y-31856864D01*
X33285489Y-31853249D01*
X33285467Y-31838546D01*
X33237848Y-31362356D01*
X33236779Y-31357023D01*
X33236779Y-31355187D01*
X33236065Y-31353464D01*
X33234958Y-31347940D01*
X33229775Y-31338280D01*
X33225580Y-31328151D01*
X33222908Y-31325479D01*
X33221124Y-31322153D01*
X33212641Y-31315212D01*
X33204888Y-31307459D01*
X33201399Y-31306013D01*
X33198476Y-31303622D01*
X33187978Y-31300454D01*
X33177852Y-31296260D01*
X33172246Y-31295707D01*
X33170460Y-31295169D01*
X33168631Y-31295351D01*
X33163220Y-31294819D01*
X32687030Y-31294819D01*
X32672398Y-31296260D01*
X32645362Y-31307459D01*
X32624670Y-31328151D01*
X32613471Y-31355187D01*
X32613471Y-31384451D01*
X32624670Y-31411487D01*
X32645362Y-31432179D01*
X32672398Y-31443378D01*
X32687030Y-31444819D01*
X33095346Y-31444819D01*
X33120164Y-31693009D01*
X33101523Y-31683689D01*
X33087791Y-31678434D01*
X33085103Y-31678243D01*
X33082614Y-31677212D01*
X33067982Y-31675771D01*
X32829887Y-31675771D01*
X32815255Y-31677212D01*
X32812766Y-31678242D01*
X32810077Y-31678434D01*
X32796346Y-31683689D01*
X32701108Y-31731308D01*
X32694808Y-31735272D01*
X32692981Y-31736030D01*
X32690924Y-31737718D01*
X32688665Y-31739140D01*
X32687365Y-31740638D01*
X32681616Y-31745357D01*
X32633997Y-31792976D01*
X32629278Y-31798725D01*
X32627780Y-31800025D01*
X32626358Y-31802284D01*
X32624670Y-31804341D01*
X32623912Y-31806168D01*
X32619948Y-31812468D01*
X32572329Y-31907706D01*
X32567074Y-31921438D01*
X32566883Y-31924125D01*
X32565852Y-31926615D01*
X32564411Y-31941247D01*
X32267248Y-31941247D01*
X32252507Y-31926506D01*
X32225471Y-31915307D01*
X32210839Y-31913866D01*
X31448935Y-31913866D01*
X31434303Y-31915307D01*
X31407267Y-31926506D01*
X31386575Y-31947198D01*
X31375376Y-31974234D01*
X30809649Y-31974234D01*
X30809649Y-31598504D01*
X30872092Y-31660947D01*
X30877842Y-31665667D01*
X30879141Y-31667164D01*
X30881395Y-31668583D01*
X30883457Y-31670275D01*
X30885289Y-31671033D01*
X30891584Y-31674996D01*
X30986822Y-31722615D01*
X31000553Y-31727870D01*
X31029743Y-31729944D01*
X31057505Y-31720690D01*
X31079612Y-31701517D01*
X31092700Y-31675342D01*
X31094774Y-31646152D01*
X31085520Y-31618391D01*
X31066347Y-31596283D01*
X31053904Y-31588451D01*
X30969552Y-31546275D01*
X30888171Y-31464894D01*
X30797053Y-31328216D01*
X30797018Y-31328173D01*
X30797009Y-31328151D01*
X30796957Y-31328099D01*
X30787737Y-31316841D01*
X30781567Y-31312709D01*
X30776317Y-31307459D01*
X30769527Y-31304646D01*
X30763422Y-31300558D01*
X30756141Y-31299101D01*
X30749281Y-31296260D01*
X30741933Y-31296260D01*
X30734728Y-31294819D01*
X30727444Y-31296260D01*
X30720017Y-31296260D01*
X30713228Y-31299072D01*
X30706020Y-31300498D01*
X30699841Y-31304617D01*
X30692981Y-31307459D01*
X30687785Y-31312654D01*
X30681671Y-31316731D01*
X30677539Y-31322900D01*
X30672289Y-31328151D01*
X30669476Y-31334940D01*
X30665388Y-31341046D01*
X30663931Y-31348326D01*
X30661090Y-31355187D01*
X30659664Y-31369663D01*
X30659649Y-31369740D01*
X30659654Y-31369766D01*
X30659649Y-31369819D01*
X30659649Y-32294819D01*
X30448935Y-32294819D01*
X30434303Y-32296260D01*
X30407267Y-32307459D01*
X30386575Y-32328151D01*
X30375376Y-32355187D01*
X30189160Y-32355187D01*
X30177962Y-32328151D01*
X30168634Y-32316786D01*
X29609725Y-31757876D01*
X29571554Y-31643362D01*
X29571554Y-31578000D01*
X29605812Y-31509484D01*
X29636219Y-31479077D01*
X29704735Y-31444819D01*
X29907420Y-31444819D01*
X29975936Y-31479077D01*
X30014949Y-31518090D01*
X30026314Y-31527417D01*
X30053350Y-31538616D01*
X30082613Y-31538616D01*
X30109649Y-31527417D01*
X30130342Y-31506724D01*
X30141541Y-31479688D01*
X30141541Y-31450425D01*
X30130342Y-31423389D01*
X30121015Y-31412024D01*
X30073396Y-31364405D01*
X30067646Y-31359686D01*
X30066347Y-31358188D01*
X30064087Y-31356766D01*
X30062031Y-31355078D01*
X30060203Y-31354320D01*
X30053904Y-31350356D01*
X29958666Y-31302737D01*
X29944934Y-31297482D01*
X29942246Y-31297291D01*
X29939757Y-31296260D01*
X29925125Y-31294819D01*
X29687030Y-31294819D01*
X29672398Y-31296260D01*
X29669909Y-31297290D01*
X29667220Y-31297482D01*
X29653489Y-31302737D01*
X29558251Y-31350356D01*
X29551951Y-31354320D01*
X29550124Y-31355078D01*
X29548067Y-31356766D01*
X29545808Y-31358188D01*
X29544508Y-31359686D01*
X29538759Y-31364405D01*
X29491140Y-31412024D01*
X29486421Y-31417773D01*
X29484923Y-31419073D01*
X29483501Y-31421332D01*
X29481813Y-31423389D01*
X29481055Y-31425216D01*
X29477091Y-31431516D01*
X29429472Y-31526754D01*
X29424217Y-31540486D01*
X29424026Y-31543173D01*
X29422995Y-31545663D01*
X29421554Y-31560295D01*
X29226404Y-31560295D01*
X29281990Y-31393536D01*
X29285250Y-31379200D01*
X29283175Y-31350010D01*
X29270089Y-31323836D01*
X29247981Y-31304662D01*
X29220219Y-31295408D01*
X29191029Y-31297483D01*
X29164856Y-31310570D01*
X29145682Y-31332677D01*
X29139688Y-31346102D01*
X28877506Y-32132648D01*
X28615324Y-31346102D01*
X28609330Y-31332676D01*
X28590156Y-31310569D01*
X28563983Y-31297483D01*
X28534793Y-31295408D01*
X28507030Y-31304662D01*
X28484923Y-31323836D01*
X28471837Y-31350009D01*
X28469762Y-31379199D01*
X28358651Y-31379199D01*
X28358651Y-31183708D01*
X33396600Y-31183708D01*
X33396600Y-32555930D01*
G37*
X15141792Y-42269819D02*
X15475125Y-41793628D01*
X15713220Y-42269819D02*
X15713220Y-41269819D01*
X15713220Y-41269819D02*
X15332268Y-41269819D01*
X15332268Y-41269819D02*
X15237030Y-41317438D01*
X15237030Y-41317438D02*
X15189411Y-41365057D01*
X15189411Y-41365057D02*
X15141792Y-41460295D01*
X15141792Y-41460295D02*
X15141792Y-41603152D01*
X15141792Y-41603152D02*
X15189411Y-41698390D01*
X15189411Y-41698390D02*
X15237030Y-41746009D01*
X15237030Y-41746009D02*
X15332268Y-41793628D01*
X15332268Y-41793628D02*
X15713220Y-41793628D01*
X14189411Y-42269819D02*
X14760839Y-42269819D01*
X14475125Y-42269819D02*
X14475125Y-41269819D01*
X14475125Y-41269819D02*
X14570363Y-41412676D01*
X14570363Y-41412676D02*
X14665601Y-41507914D01*
X14665601Y-41507914D02*
X14760839Y-41555533D01*
X13760839Y-42174580D02*
X13713220Y-42222200D01*
X13713220Y-42222200D02*
X13760839Y-42269819D01*
X13760839Y-42269819D02*
X13808458Y-42222200D01*
X13808458Y-42222200D02*
X13760839Y-42174580D01*
X13760839Y-42174580D02*
X13760839Y-42269819D01*
X12760840Y-42269819D02*
X13332268Y-42269819D01*
X13046554Y-42269819D02*
X13046554Y-41269819D01*
X13046554Y-41269819D02*
X13141792Y-41412676D01*
X13141792Y-41412676D02*
X13237030Y-41507914D01*
X13237030Y-41507914D02*
X13332268Y-41555533D01*
X34524819Y-40333333D02*
X34048628Y-40000000D01*
X34524819Y-39761905D02*
X33524819Y-39761905D01*
X33524819Y-39761905D02*
X33524819Y-40142857D01*
X33524819Y-40142857D02*
X33572438Y-40238095D01*
X33572438Y-40238095D02*
X33620057Y-40285714D01*
X33620057Y-40285714D02*
X33715295Y-40333333D01*
X33715295Y-40333333D02*
X33858152Y-40333333D01*
X33858152Y-40333333D02*
X33953390Y-40285714D01*
X33953390Y-40285714D02*
X34001009Y-40238095D01*
X34001009Y-40238095D02*
X34048628Y-40142857D01*
X34048628Y-40142857D02*
X34048628Y-39761905D01*
X33953390Y-40904762D02*
X33905771Y-40809524D01*
X33905771Y-40809524D02*
X33858152Y-40761905D01*
X33858152Y-40761905D02*
X33762914Y-40714286D01*
X33762914Y-40714286D02*
X33715295Y-40714286D01*
X33715295Y-40714286D02*
X33620057Y-40761905D01*
X33620057Y-40761905D02*
X33572438Y-40809524D01*
X33572438Y-40809524D02*
X33524819Y-40904762D01*
X33524819Y-40904762D02*
X33524819Y-41095238D01*
X33524819Y-41095238D02*
X33572438Y-41190476D01*
X33572438Y-41190476D02*
X33620057Y-41238095D01*
X33620057Y-41238095D02*
X33715295Y-41285714D01*
X33715295Y-41285714D02*
X33762914Y-41285714D01*
X33762914Y-41285714D02*
X33858152Y-41238095D01*
X33858152Y-41238095D02*
X33905771Y-41190476D01*
X33905771Y-41190476D02*
X33953390Y-41095238D01*
X33953390Y-41095238D02*
X33953390Y-40904762D01*
X33953390Y-40904762D02*
X34001009Y-40809524D01*
X34001009Y-40809524D02*
X34048628Y-40761905D01*
X34048628Y-40761905D02*
X34143866Y-40714286D01*
X34143866Y-40714286D02*
X34334342Y-40714286D01*
X34334342Y-40714286D02*
X34429580Y-40761905D01*
X34429580Y-40761905D02*
X34477200Y-40809524D01*
X34477200Y-40809524D02*
X34524819Y-40904762D01*
X34524819Y-40904762D02*
X34524819Y-41095238D01*
X34524819Y-41095238D02*
X34477200Y-41190476D01*
X34477200Y-41190476D02*
X34429580Y-41238095D01*
X34429580Y-41238095D02*
X34334342Y-41285714D01*
X34334342Y-41285714D02*
X34143866Y-41285714D01*
X34143866Y-41285714D02*
X34048628Y-41238095D01*
X34048628Y-41238095D02*
X34001009Y-41190476D01*
X34001009Y-41190476D02*
X33953390Y-41095238D01*
G36*
X9898955Y-1640930D02*
G01*
X8147222Y-1640930D01*
X8147222Y-645295D01*
X8258333Y-645295D01*
X8258333Y-740533D01*
X8259062Y-747938D01*
X8258922Y-749913D01*
X8259512Y-752510D01*
X8259774Y-755165D01*
X8260532Y-756996D01*
X8262182Y-764250D01*
X8309801Y-907107D01*
X8315795Y-920532D01*
X8317560Y-922567D01*
X8318592Y-925058D01*
X8327919Y-936423D01*
X8771314Y-1379819D01*
X8333333Y-1379819D01*
X8318701Y-1381260D01*
X8291665Y-1392459D01*
X8270973Y-1413151D01*
X8259774Y-1440187D01*
X8259774Y-1469451D01*
X8270973Y-1496487D01*
X8291665Y-1517179D01*
X8318701Y-1528378D01*
X8333333Y-1529819D01*
X8952380Y-1529819D01*
X8967012Y-1528378D01*
X8974930Y-1525098D01*
X8994048Y-1517180D01*
X9014740Y-1496487D01*
X9025939Y-1469451D01*
X9025939Y-1440188D01*
X9014741Y-1413151D01*
X9005413Y-1401786D01*
X8446504Y-842876D01*
X8408333Y-728362D01*
X8408333Y-663000D01*
X8442591Y-594484D01*
X8472998Y-564077D01*
X8541514Y-529819D01*
X8744199Y-529819D01*
X8812715Y-564077D01*
X8851728Y-603090D01*
X8863093Y-612417D01*
X8890129Y-623616D01*
X8919392Y-623616D01*
X8946428Y-612417D01*
X8967121Y-591724D01*
X8978320Y-564688D01*
X8978320Y-535425D01*
X8967121Y-508389D01*
X8957794Y-497024D01*
X8915589Y-454819D01*
X9258333Y-454819D01*
X9258333Y-1169104D01*
X9259062Y-1176509D01*
X9258922Y-1178484D01*
X9259512Y-1181081D01*
X9259774Y-1183736D01*
X9260532Y-1185567D01*
X9262182Y-1192821D01*
X9309801Y-1335678D01*
X9315795Y-1349103D01*
X9317559Y-1351137D01*
X9318591Y-1353628D01*
X9327919Y-1364994D01*
X9423157Y-1460233D01*
X9434522Y-1469561D01*
X9437012Y-1470592D01*
X9439047Y-1472357D01*
X9452473Y-1478351D01*
X9595329Y-1525970D01*
X9602584Y-1527619D01*
X9604415Y-1528378D01*
X9607068Y-1528639D01*
X9609666Y-1529230D01*
X9611640Y-1529089D01*
X9619047Y-1529819D01*
X9714285Y-1529819D01*
X9728917Y-1528378D01*
X9755953Y-1517179D01*
X9776645Y-1496487D01*
X9787844Y-1469451D01*
X9787844Y-1440187D01*
X9776645Y-1413151D01*
X9755953Y-1392459D01*
X9728917Y-1381260D01*
X9714285Y-1379819D01*
X9631217Y-1379819D01*
X9516704Y-1341648D01*
X9446504Y-1271447D01*
X9408333Y-1156933D01*
X9408333Y-454819D01*
X9406892Y-440187D01*
X9395693Y-413151D01*
X9375001Y-392459D01*
X9347965Y-381260D01*
X9318701Y-381260D01*
X9291665Y-392459D01*
X9270973Y-413151D01*
X9259774Y-440187D01*
X9258333Y-454819D01*
X8915589Y-454819D01*
X8910175Y-449405D01*
X8904425Y-444686D01*
X8903126Y-443188D01*
X8900866Y-441766D01*
X8898810Y-440078D01*
X8896982Y-439320D01*
X8890683Y-435356D01*
X8795445Y-387737D01*
X8781713Y-382482D01*
X8779025Y-382291D01*
X8776536Y-381260D01*
X8761904Y-379819D01*
X8523809Y-379819D01*
X8509177Y-381260D01*
X8506688Y-382290D01*
X8503999Y-382482D01*
X8490268Y-387737D01*
X8395030Y-435356D01*
X8388730Y-439320D01*
X8386903Y-440078D01*
X8384846Y-441766D01*
X8382587Y-443188D01*
X8381287Y-444686D01*
X8375538Y-449405D01*
X8327919Y-497024D01*
X8323200Y-502773D01*
X8321702Y-504073D01*
X8320280Y-506332D01*
X8318592Y-508389D01*
X8317834Y-510216D01*
X8313870Y-516516D01*
X8266251Y-611754D01*
X8260996Y-625486D01*
X8260805Y-628173D01*
X8259774Y-630663D01*
X8258333Y-645295D01*
X8147222Y-645295D01*
X8147222Y-268708D01*
X9898955Y-268708D01*
X9898955Y-1640930D01*
G37*
X30142857Y-41904819D02*
X30619047Y-41904819D01*
X30619047Y-41904819D02*
X30619047Y-40904819D01*
X29857142Y-41857200D02*
X29714285Y-41904819D01*
X29714285Y-41904819D02*
X29476190Y-41904819D01*
X29476190Y-41904819D02*
X29380952Y-41857200D01*
X29380952Y-41857200D02*
X29333333Y-41809580D01*
X29333333Y-41809580D02*
X29285714Y-41714342D01*
X29285714Y-41714342D02*
X29285714Y-41619104D01*
X29285714Y-41619104D02*
X29333333Y-41523866D01*
X29333333Y-41523866D02*
X29380952Y-41476247D01*
X29380952Y-41476247D02*
X29476190Y-41428628D01*
X29476190Y-41428628D02*
X29666666Y-41381009D01*
X29666666Y-41381009D02*
X29761904Y-41333390D01*
X29761904Y-41333390D02*
X29809523Y-41285771D01*
X29809523Y-41285771D02*
X29857142Y-41190533D01*
X29857142Y-41190533D02*
X29857142Y-41095295D01*
X29857142Y-41095295D02*
X29809523Y-41000057D01*
X29809523Y-41000057D02*
X29761904Y-40952438D01*
X29761904Y-40952438D02*
X29666666Y-40904819D01*
X29666666Y-40904819D02*
X29428571Y-40904819D01*
X29428571Y-40904819D02*
X29285714Y-40952438D01*
X28333333Y-41904819D02*
X28904761Y-41904819D01*
X28619047Y-41904819D02*
X28619047Y-40904819D01*
X28619047Y-40904819D02*
X28714285Y-41047676D01*
X28714285Y-41047676D02*
X28809523Y-41142914D01*
X28809523Y-41142914D02*
X28904761Y-41190533D01*
X26669466Y-31041190D02*
X26669466Y-31528810D01*
X26913276Y-31285000D02*
X26425657Y-31285000D01*
X32384466Y-31241190D02*
X32384466Y-31728810D01*
X22391666Y-32039580D02*
X22439285Y-32087200D01*
X22439285Y-32087200D02*
X22582142Y-32134819D01*
X22582142Y-32134819D02*
X22677380Y-32134819D01*
X22677380Y-32134819D02*
X22820237Y-32087200D01*
X22820237Y-32087200D02*
X22915475Y-31991961D01*
X22915475Y-31991961D02*
X22963094Y-31896723D01*
X22963094Y-31896723D02*
X23010713Y-31706247D01*
X23010713Y-31706247D02*
X23010713Y-31563390D01*
X23010713Y-31563390D02*
X22963094Y-31372914D01*
X22963094Y-31372914D02*
X22915475Y-31277676D01*
X22915475Y-31277676D02*
X22820237Y-31182438D01*
X22820237Y-31182438D02*
X22677380Y-31134819D01*
X22677380Y-31134819D02*
X22582142Y-31134819D01*
X22582142Y-31134819D02*
X22439285Y-31182438D01*
X22439285Y-31182438D02*
X22391666Y-31230057D01*
X22058332Y-31134819D02*
X21439285Y-31134819D01*
X21439285Y-31134819D02*
X21772618Y-31515771D01*
X21772618Y-31515771D02*
X21629761Y-31515771D01*
X21629761Y-31515771D02*
X21534523Y-31563390D01*
X21534523Y-31563390D02*
X21486904Y-31611009D01*
X21486904Y-31611009D02*
X21439285Y-31706247D01*
X21439285Y-31706247D02*
X21439285Y-31944342D01*
X21439285Y-31944342D02*
X21486904Y-32039580D01*
X21486904Y-32039580D02*
X21534523Y-32087200D01*
X21534523Y-32087200D02*
X21629761Y-32134819D01*
X21629761Y-32134819D02*
X21915475Y-32134819D01*
X21915475Y-32134819D02*
X22010713Y-32087200D01*
X22010713Y-32087200D02*
X22058332Y-32039580D01*
X20429580Y-27833333D02*
X20477200Y-27785714D01*
X20477200Y-27785714D02*
X20524819Y-27642857D01*
X20524819Y-27642857D02*
X20524819Y-27547619D01*
X20524819Y-27547619D02*
X20477200Y-27404762D01*
X20477200Y-27404762D02*
X20381961Y-27309524D01*
X20381961Y-27309524D02*
X20286723Y-27261905D01*
X20286723Y-27261905D02*
X20096247Y-27214286D01*
X20096247Y-27214286D02*
X19953390Y-27214286D01*
X19953390Y-27214286D02*
X19762914Y-27261905D01*
X19762914Y-27261905D02*
X19667676Y-27309524D01*
X19667676Y-27309524D02*
X19572438Y-27404762D01*
X19572438Y-27404762D02*
X19524819Y-27547619D01*
X19524819Y-27547619D02*
X19524819Y-27642857D01*
X19524819Y-27642857D02*
X19572438Y-27785714D01*
X19572438Y-27785714D02*
X19620057Y-27833333D01*
X19620057Y-28214286D02*
X19572438Y-28261905D01*
X19572438Y-28261905D02*
X19524819Y-28357143D01*
X19524819Y-28357143D02*
X19524819Y-28595238D01*
X19524819Y-28595238D02*
X19572438Y-28690476D01*
X19572438Y-28690476D02*
X19620057Y-28738095D01*
X19620057Y-28738095D02*
X19715295Y-28785714D01*
X19715295Y-28785714D02*
X19810533Y-28785714D01*
X19810533Y-28785714D02*
X19953390Y-28738095D01*
X19953390Y-28738095D02*
X20524819Y-28166667D01*
X20524819Y-28166667D02*
X20524819Y-28785714D01*
D11*
%TO.C,J4*%
X29728350Y-33451301D02*
G75*
G02*
X28966350Y-33451301I-381000J0D01*
G01*
X28966350Y-33451301D02*
G75*
G02*
X29728350Y-33451301I381000J0D01*
G01*
%TO.C,J5*%
X42478350Y-33451301D02*
G75*
G02*
X41716350Y-33451301I-381000J0D01*
G01*
X41716350Y-33451301D02*
G75*
G02*
X42478350Y-33451301I381000J0D01*
G01*
%TO.C,J3*%
X16780406Y-33500000D02*
G75*
G02*
X16018406Y-33500000I-381000J0D01*
G01*
X16018406Y-33500000D02*
G75*
G02*
X16780406Y-33500000I381000J0D01*
G01*
D12*
%TO.C,R8*%
X34977500Y-40262742D02*
X34977500Y-40737258D01*
X36022500Y-40262742D02*
X36022500Y-40737258D01*
%TO.C,R10*%
X28487258Y-26727500D02*
X28012742Y-26727500D01*
X28487258Y-27772500D02*
X28012742Y-27772500D01*
%TO.C,Q2*%
X35190000Y-34500000D02*
X35190000Y-32825000D01*
X35190000Y-34500000D02*
X35190000Y-35150000D01*
X38310000Y-34500000D02*
X38310000Y-33850000D01*
X38310000Y-34500000D02*
X38310000Y-35150000D01*
%TO.C,J2*%
X10130000Y-1270000D02*
X10130000Y-2600000D01*
X10130000Y-2600000D02*
X11460000Y-2600000D01*
X12730000Y60000D02*
X12730000Y-2600000D01*
X12730000Y60000D02*
X35650000Y60000D01*
X12730000Y-2600000D02*
X35650000Y-2600000D01*
X35650000Y60000D02*
X35650000Y-2600000D01*
%TO.C,U1*%
X16640000Y-30500000D02*
X16640000Y-27575000D01*
X16640000Y-30500000D02*
X16640000Y-32000000D01*
X19860000Y-30500000D02*
X19860000Y-29000000D01*
X19860000Y-30500000D02*
X19860000Y-32000000D01*
%TO.C,Q1*%
X23590000Y-28400000D02*
X23590000Y-27750000D01*
X23590000Y-28400000D02*
X23590000Y-29050000D01*
X26710000Y-28400000D02*
X26710000Y-27750000D01*
X26710000Y-28400000D02*
X26710000Y-30075000D01*
%TO.C,J11*%
X35670000Y-26630000D02*
X38330000Y-26630000D01*
X35670000Y-29230000D02*
X35670000Y-26630000D01*
X35670000Y-29230000D02*
X38330000Y-29230000D01*
X35670000Y-30500000D02*
X35670000Y-31830000D01*
X35670000Y-31830000D02*
X37000000Y-31830000D01*
X38330000Y-29230000D02*
X38330000Y-26630000D01*
%TO.C,R7*%
X22227500Y-27762742D02*
X22227500Y-28237258D01*
X23272500Y-27762742D02*
X23272500Y-28237258D01*
%TO.C,R6*%
X5312258Y-41477500D02*
X4837742Y-41477500D01*
X5312258Y-42522500D02*
X4837742Y-42522500D01*
%TO.C,R11*%
X30687742Y-26727500D02*
X31162258Y-26727500D01*
X30687742Y-27772500D02*
X31162258Y-27772500D01*
D13*
%TO.C,J9*%
X450000Y-40750000D02*
X450000Y-28200000D01*
X450000Y-40750000D02*
X1125000Y-40750000D01*
X2625000Y-26750000D02*
X15900000Y-26750000D01*
X3625000Y-40750000D02*
X15900000Y-40750000D01*
X15900000Y-31768800D02*
X15900000Y-26750000D01*
X15900000Y-37560000D02*
X15900000Y-34207200D01*
X15900000Y-40750000D02*
X15900000Y-40023800D01*
X5025000Y-30750000D02*
G75*
G02*
X4825000Y-30750000I-100000J0D01*
G01*
X4825000Y-30750000D02*
G75*
G02*
X5025000Y-30750000I100000J0D01*
G01*
D12*
%TO.C,R4*%
X7227500Y-4012742D02*
X7227500Y-4487258D01*
X8272500Y-4012742D02*
X8272500Y-4487258D01*
D14*
%TO.C,M1*%
X20500000Y-33275000D02*
X20500000Y-34270000D01*
X20500000Y-34270000D02*
X20500000Y-35575000D01*
X20500000Y-34270000D02*
X22500000Y-34270000D01*
X22500000Y-33275000D02*
X22500000Y-34270000D01*
X22500000Y-34270000D02*
X22500000Y-35575000D01*
D13*
X20000000Y-32000000D02*
G75*
G02*
X19800000Y-32000000I-100000J0D01*
G01*
X19800000Y-32000000D02*
G75*
G02*
X20000000Y-32000000I100000J0D01*
G01*
D14*
X25000000Y-38970000D02*
G75*
G02*
X18000000Y-38970000I-3500000J0D01*
G01*
X18000000Y-38970000D02*
G75*
G02*
X25000000Y-38970000I3500000J0D01*
G01*
%TO.C,LS1*%
X26050000Y-37900000D02*
X26050000Y-34500000D01*
X28100000Y-32450000D02*
X31500000Y-32450000D01*
X31500000Y-39950000D02*
X28100000Y-39950000D01*
X33550000Y-34500000D02*
X33550000Y-37900000D01*
D12*
%TO.C,D4*%
X36650000Y-38890000D02*
X36650000Y-41550000D01*
X36650000Y-38890000D02*
X38350000Y-38890000D01*
X38350000Y-38890000D02*
X38350000Y-41550000D01*
%TO.C,F2*%
X35240000Y-4087221D02*
X35240000Y-4412779D01*
X36260000Y-4087221D02*
X36260000Y-4412779D01*
%TO.C,F3*%
X11990000Y-4337221D02*
X11990000Y-4662779D01*
X13010000Y-4337221D02*
X13010000Y-4662779D01*
%TO.C,C3*%
X22084420Y-29740000D02*
X22365580Y-29740000D01*
X22084420Y-30760000D02*
X22365580Y-30760000D01*
%TO.C,D3*%
X23600000Y-34260000D02*
X23600000Y-31600000D01*
X25300000Y-34260000D02*
X23600000Y-34260000D01*
X25300000Y-34260000D02*
X25300000Y-31600000D01*
%TO.C,R3*%
X36477500Y-3237258D02*
X36477500Y-2762742D01*
X37522500Y-3237258D02*
X37522500Y-2762742D01*
%TO.C,C2*%
X20990000Y-27859420D02*
X20990000Y-28140580D01*
X22010000Y-27859420D02*
X22010000Y-28140580D01*
%TO.C,R5*%
X8012742Y-41477500D02*
X8487258Y-41477500D01*
X8012742Y-42522500D02*
X8487258Y-42522500D01*
%TO.C,R1*%
X34082258Y-26535500D02*
X33607742Y-26535500D01*
X34082258Y-27580500D02*
X33607742Y-27580500D01*
D14*
%TO.C,A1*%
X1630000Y-25140000D02*
X1630000Y-7360000D01*
X45630000Y-7360000D02*
X45630000Y-25140000D01*
D12*
X41630000Y-19250000D02*
X47130000Y-19250000D01*
X47130000Y-13250000D01*
X41630000Y-13250000D01*
X41630000Y-19250000D01*
D13*
X3900000Y-6850000D02*
G75*
G02*
X3700000Y-6850000I-100000J0D01*
G01*
X3700000Y-6850000D02*
G75*
G02*
X3900000Y-6850000I100000J0D01*
G01*
D12*
%TO.C,R2*%
X33977500Y-4487258D02*
X33977500Y-4012742D01*
X35022500Y-4487258D02*
X35022500Y-4012742D01*
%TO.C,F1*%
X32490000Y-4087221D02*
X32490000Y-4412779D01*
X33510000Y-4087221D02*
X33510000Y-4412779D01*
%TO.C,R9*%
X39227500Y-40737258D02*
X39227500Y-40262742D01*
X40272500Y-40737258D02*
X40272500Y-40262742D01*
%TD*%
%LPC*%
D15*
%TO.C,S1*%
X39369750Y-29598000D03*
X39369750Y-32138000D03*
X39369750Y-34678000D03*
%TD*%
D16*
%TO.C,D5*%
X42250000Y-39225000D03*
D17*
X42250000Y-41765000D03*
%TD*%
D16*
%TO.C,D2*%
X2975000Y-3750000D03*
D17*
X5515000Y-3750000D03*
%TD*%
D16*
%TO.C,D1*%
X42275000Y-4000000D03*
D17*
X39735000Y-4000000D03*
%TD*%
D18*
%TO.C,J8*%
X15090000Y-4500000D03*
D19*
X17630000Y-4500000D03*
X20170000Y-4500000D03*
X22710000Y-4500000D03*
X25250000Y-4500000D03*
X27790000Y-4500000D03*
X30330000Y-4500000D03*
%TD*%
D20*
%TO.C,R8*%
X35500000Y-39675000D03*
X35500000Y-41325000D03*
%TD*%
D21*
%TO.C,R10*%
X29075000Y-27250000D03*
X27425000Y-27250000D03*
%TD*%
D22*
%TO.C,Q2*%
X35800000Y-33562500D03*
X37700000Y-33562500D03*
X36750000Y-35437500D03*
%TD*%
D18*
%TO.C,J2*%
X11460000Y-1270000D03*
D23*
X14000000Y-1270000D03*
X16540000Y-1270000D03*
X19080000Y-1270000D03*
X21620000Y-1270000D03*
X24160000Y-1270000D03*
X26700000Y-1270000D03*
X29240000Y-1270000D03*
X31780000Y-1270000D03*
X34320000Y-1270000D03*
%TD*%
D24*
%TO.C,U1*%
X17250000Y-28300000D03*
X17750000Y-28300000D03*
X18250000Y-28300000D03*
X18750000Y-28300000D03*
X19250000Y-28300000D03*
X19250000Y-32700000D03*
X18750000Y-32700000D03*
X18250000Y-32700000D03*
X17750000Y-32700000D03*
X17250000Y-32700000D03*
%TD*%
D25*
%TO.C,Q1*%
X26100000Y-29337500D03*
X24200000Y-29337500D03*
X25150000Y-27462500D03*
%TD*%
D18*
%TO.C,J11*%
X37000000Y-30500000D03*
D23*
X37000000Y-27960000D03*
%TD*%
D20*
%TO.C,R7*%
X22750000Y-27175000D03*
X22750000Y-28825000D03*
%TD*%
D21*
%TO.C,R6*%
X5900000Y-42000000D03*
X4250000Y-42000000D03*
%TD*%
D26*
%TO.C,R11*%
X30100000Y-27250000D03*
X31750000Y-27250000D03*
%TD*%
D27*
%TO.C,J9*%
X4950000Y-31810000D03*
X5350000Y-32910000D03*
X4950000Y-34010000D03*
X4750000Y-35110000D03*
X4950000Y-36210000D03*
X4750000Y-37310000D03*
X4950000Y-38410000D03*
X4950000Y-39510000D03*
D28*
X15500000Y-38700000D03*
X15500000Y-33000000D03*
D29*
X2350000Y-40300000D03*
X1350000Y-27150000D03*
%TD*%
D20*
%TO.C,R4*%
X7750000Y-3425000D03*
X7750000Y-5075000D03*
%TD*%
D30*
%TO.C,M1*%
X20900000Y-31980000D03*
X22100000Y-31980000D03*
%TD*%
D31*
%TO.C,LS1*%
X26725000Y-39275000D03*
X32875000Y-39275000D03*
X32875000Y-33125000D03*
X26725000Y-33125000D03*
%TD*%
D32*
%TO.C,D4*%
X37500000Y-39450000D03*
X37500000Y-41550000D03*
%TD*%
D33*
%TO.C,F2*%
X35750000Y-3462500D03*
X35750000Y-5037500D03*
%TD*%
%TO.C,F3*%
X12500000Y-3712500D03*
X12500000Y-5287500D03*
%TD*%
D34*
%TO.C,C3*%
X21450000Y-30250000D03*
X23000000Y-30250000D03*
%TD*%
D35*
%TO.C,D3*%
X24450000Y-33750000D03*
X24450000Y-31550000D03*
%TD*%
D36*
%TO.C,R3*%
X37000000Y-3825000D03*
X37000000Y-2175000D03*
%TD*%
D37*
%TO.C,C2*%
X21500000Y-27225000D03*
X21500000Y-28775000D03*
%TD*%
D26*
%TO.C,R5*%
X7425000Y-42000000D03*
X9075000Y-42000000D03*
%TD*%
D21*
%TO.C,R1*%
X34670000Y-27058000D03*
X33020000Y-27058000D03*
%TD*%
D38*
%TO.C,A1*%
X5440000Y-7150000D03*
X7980000Y-7150000D03*
X10520000Y-7150000D03*
X13060000Y-7150000D03*
X15600000Y-7150000D03*
X18140000Y-7150000D03*
X20680000Y-7150000D03*
X23220000Y-7150000D03*
X25760000Y-7150000D03*
X28300000Y-7150000D03*
X30840000Y-7150000D03*
X33380000Y-7150000D03*
X35920000Y-7150000D03*
X38460000Y-7150000D03*
X41000000Y-7150000D03*
D39*
X41000000Y-24850000D03*
D38*
X38460000Y-25350000D03*
X35920000Y-25350000D03*
X33380000Y-25350000D03*
X30840000Y-25350000D03*
X28300000Y-25350000D03*
X25760000Y-25350000D03*
X23220000Y-25350000D03*
X20680000Y-25350000D03*
X18140000Y-25350000D03*
X15600000Y-25350000D03*
X13060000Y-25350000D03*
X10520000Y-25350000D03*
X7980000Y-25350000D03*
X5440000Y-25350000D03*
%TD*%
D36*
%TO.C,R2*%
X34500000Y-5075000D03*
X34500000Y-3425000D03*
%TD*%
D33*
%TO.C,F1*%
X33000000Y-3462500D03*
X33000000Y-5037500D03*
%TD*%
D36*
%TO.C,R9*%
X39750000Y-41325000D03*
X39750000Y-39675000D03*
%TD*%
%LPD*%
M02*
